G04*
G04 #@! TF.GenerationSoftware,Altium Limited,Altium Designer,21.2.2 (38)*
G04*
G04 Layer_Color=65535*
%FSLAX25Y25*%
%MOIN*%
G70*
G04*
G04 #@! TF.SameCoordinates,0FD90602-BBB3-4F14-90EE-D32430874176*
G04*
G04*
G04 #@! TF.FilePolarity,Positive*
G04*
G01*
G75*
%ADD12C,0.01575*%
%ADD13C,0.00787*%
%ADD17C,0.01968*%
%ADD23C,0.00984*%
%ADD120C,0.01000*%
%ADD121C,0.00394*%
%ADD122C,0.00591*%
%ADD123C,0.00500*%
D12*
X25984Y275590D02*
G03*
X25984Y275590I-6299J0D01*
G01*
X73228D02*
G03*
X73228Y275590I-6299J0D01*
G01*
X309449D02*
G03*
X309449Y275590I-6299J0D01*
G01*
X356693D02*
G03*
X356693Y275590I-6299J0D01*
G01*
D13*
X256102Y276378D02*
G03*
X256102Y276378I-394J0D01*
G01*
X147441Y21850D02*
G03*
X147441Y21850I-394J0D01*
G01*
X95374Y274803D02*
G03*
X95374Y274803I-394J0D01*
G01*
X245768Y254232D02*
G03*
X245768Y254232I-394J0D01*
G01*
X232776Y58169D02*
X241437D01*
X209941D02*
X218602D01*
X231594Y69980D02*
X241437D01*
X209941D02*
X219783D01*
X241437Y58169D02*
Y69980D01*
X209941Y58169D02*
Y69980D01*
X172441Y224311D02*
Y225984D01*
X174114D01*
X172441Y196850D02*
Y198524D01*
Y196850D02*
X174114D01*
X199902D02*
X201575D01*
Y198524D01*
Y224311D02*
Y225984D01*
X199902D02*
X201575D01*
X318110Y316142D02*
Y318898D01*
X44094Y320472D02*
Y323228D01*
D17*
X16535Y275590D02*
X22835D01*
X63780Y275590D02*
X70079D01*
X66929Y272441D02*
Y278740D01*
X300000Y275590D02*
X306299D01*
X347244Y275590D02*
X353543D01*
X350394Y272441D02*
Y278740D01*
D23*
X201476Y228543D02*
G03*
X201476Y228543I-492J0D01*
G01*
X179626Y97539D02*
G03*
X179626Y97539I-492J0D01*
G01*
D120*
X88173Y146122D02*
G03*
X88173Y146122I-220J0D01*
G01*
X120515Y124095D02*
G03*
X120515Y124095I-220J0D01*
G01*
X239000Y146122D02*
G03*
X239000Y146122I-220J0D01*
G01*
D121*
X193248Y77500D02*
G03*
X193248Y77500I-197J0D01*
G01*
X271220Y309488D02*
G03*
X271220Y309488I-197J0D01*
G01*
X202953Y26476D02*
G03*
X202953Y26476I-197J0D01*
G01*
X187894Y29035D02*
G03*
X187894Y29035I-197J0D01*
G01*
X217028Y46063D02*
G03*
X217028Y46063I-197J0D01*
G01*
X216831Y48228D02*
G03*
X216831Y48228I-197J0D01*
G01*
X213091Y12106D02*
G03*
X213091Y12106I-197J0D01*
G01*
X199606Y69095D02*
G03*
X199606Y69095I-197J0D01*
G01*
X171504Y61071D02*
G03*
X171504Y61071I-197J0D01*
G01*
X167371Y59890D02*
G03*
X167371Y59890I-197J0D01*
G01*
X183858Y84842D02*
G03*
X183858Y84842I-197J0D01*
G01*
D122*
X221161Y54232D02*
G03*
X221161Y54232I-394J0D01*
G01*
D123*
X153642Y100197D02*
Y104527D01*
X156791D01*
X158760D02*
X161909D01*
Y100197D02*
Y104527D01*
X158760Y100197D02*
X161909D01*
X153642D02*
X156791D01*
X278246Y271058D02*
Y276186D01*
X277069Y271058D02*
Y276186D01*
X277068Y284050D02*
Y289178D01*
X278246Y284050D02*
Y289178D01*
X250306Y291826D02*
Y295576D01*
X248906Y291826D02*
Y295576D01*
X242213Y264267D02*
Y268017D01*
X243613Y264267D02*
Y268017D01*
X277069Y277554D02*
Y282682D01*
X278246Y277554D02*
Y282682D01*
X257283Y273228D02*
Y277165D01*
X254134Y273228D02*
X257283D01*
X249016D02*
X252165D01*
X249016D02*
Y277165D01*
X252165D01*
X254134D02*
X257283D01*
X248819Y269980D02*
X251969D01*
X253937D02*
X257087D01*
Y274311D01*
X253937D02*
X257087D01*
X248819D02*
X251969D01*
X248819Y269980D02*
Y274311D01*
X265492Y282108D02*
X269429D01*
Y278959D02*
Y282108D01*
Y273840D02*
Y276990D01*
X265492Y273840D02*
X269429D01*
X265492D02*
Y276990D01*
Y278959D02*
Y282108D01*
X248819Y267224D02*
Y271161D01*
X251969D01*
X253937D02*
X257087D01*
Y267224D02*
Y271161D01*
X253937Y267224D02*
X257087D01*
X248819D02*
X251969D01*
X252559Y265551D02*
Y268701D01*
Y260433D02*
Y263583D01*
Y260433D02*
X256890D01*
Y263583D01*
Y265551D02*
Y268701D01*
X252559D02*
X256890D01*
X258662Y276181D02*
Y280118D01*
X255512Y276181D02*
X258662D01*
X250394D02*
X253543D01*
X250394D02*
Y280118D01*
X253543D01*
X255512D02*
X258662D01*
X111024Y63779D02*
X111811Y64567D01*
X107283Y63779D02*
X111024D01*
X110531Y63287D02*
X111221Y63976D01*
X107185Y63878D02*
X107776Y63287D01*
X106496Y64567D02*
X107283Y63779D01*
X106496Y64567D02*
Y68110D01*
X111811Y64567D02*
Y68110D01*
X106496Y75984D02*
X111811D01*
X106496Y71653D02*
Y75984D01*
X111811Y71653D02*
Y75984D01*
X107776Y63287D02*
X110531D01*
X211122Y36024D02*
X215059D01*
X211122D02*
Y39173D01*
Y41142D02*
Y44291D01*
X215059D01*
Y41142D02*
Y44291D01*
Y36024D02*
Y39173D01*
X199114Y82874D02*
Y87205D01*
X195965Y82874D02*
X199114D01*
X190847D02*
X193996D01*
X190847D02*
Y87205D01*
X193996D01*
X195965D02*
X199114D01*
X186909Y41732D02*
Y44882D01*
Y36614D02*
Y39764D01*
Y36614D02*
X190847D01*
Y39764D01*
Y41732D02*
Y44882D01*
X186909D02*
X190847D01*
X184350Y33858D02*
Y37008D01*
Y28740D02*
Y31890D01*
Y28740D02*
X188287D01*
Y31890D01*
Y33858D02*
Y37008D01*
X184350D02*
X188287D01*
X199606Y29134D02*
Y32283D01*
Y34252D02*
Y37402D01*
X195669D02*
X199606D01*
X195669Y34252D02*
Y37402D01*
Y29134D02*
Y32283D01*
Y29134D02*
X199606D01*
X188386Y99311D02*
Y102461D01*
Y94193D02*
Y97342D01*
Y94193D02*
X192717D01*
Y97342D01*
Y99311D02*
Y102461D01*
X188386D02*
X192717D01*
X158952Y219772D02*
X162702D01*
X158952Y221172D02*
X162702D01*
X211221Y219685D02*
Y223622D01*
X208071Y219685D02*
X211221D01*
X202953D02*
X206102D01*
X202953D02*
Y223622D01*
X206102D01*
X208071D02*
X211221D01*
X193307Y187598D02*
X197244D01*
X193307D02*
Y190748D01*
Y192717D02*
Y195866D01*
X197244D01*
Y192717D02*
Y195866D01*
Y187598D02*
Y190748D01*
X198421Y188692D02*
X202170D01*
X198421Y187292D02*
X202170D01*
X163189Y198819D02*
X166339D01*
X168307D02*
X171457D01*
Y202756D01*
X168307D02*
X171457D01*
X163189D02*
X166339D01*
X163189Y198819D02*
Y202756D01*
X228740Y209346D02*
Y216245D01*
X231890Y209346D02*
Y216245D01*
X212008Y7874D02*
Y11811D01*
X208858Y7874D02*
X212008D01*
X203740D02*
X206890D01*
X203740D02*
Y11811D01*
X206890D01*
X208858D02*
X212008D01*
X199016Y8366D02*
X202953D01*
X199016D02*
Y11516D01*
Y13484D02*
Y16634D01*
X202953D01*
Y13484D02*
Y16634D01*
Y8366D02*
Y11516D01*
X158661Y14862D02*
X162599D01*
X158661D02*
Y18012D01*
Y19980D02*
Y23130D01*
X162599D01*
Y19980D02*
Y23130D01*
Y14862D02*
Y18012D01*
X185050Y5704D02*
Y9454D01*
X183650Y5704D02*
Y9454D01*
X210630Y26378D02*
X214567D01*
X210630D02*
Y29528D01*
Y31496D02*
Y34646D01*
X214567D01*
Y31496D02*
Y34646D01*
Y26378D02*
Y29528D01*
X211811Y20079D02*
Y24016D01*
X208662Y20079D02*
X211811D01*
X203543D02*
X206693D01*
X203543D02*
Y24016D01*
X206693D01*
X208662D02*
X211811D01*
X163386Y11417D02*
X166535D01*
X158268D02*
X161417D01*
X158268Y7087D02*
Y11417D01*
Y7087D02*
X161417D01*
X163386D02*
X166535D01*
Y11417D01*
X201476Y42618D02*
X205413D01*
Y39469D02*
Y42618D01*
Y34350D02*
Y37500D01*
X201476Y34350D02*
X205413D01*
X201476D02*
Y37500D01*
Y39469D02*
Y42618D01*
X199508Y34547D02*
X203445D01*
Y31398D02*
Y34547D01*
Y26280D02*
Y29429D01*
X199508Y26280D02*
X203445D01*
X199508D02*
Y29429D01*
Y31398D02*
Y34547D01*
X212598Y10039D02*
X216535D01*
X212598D02*
Y13189D01*
Y15157D02*
Y18307D01*
X216535D01*
Y15157D02*
Y18307D01*
Y10039D02*
Y13189D01*
X243613Y269779D02*
Y273528D01*
X242213Y269779D02*
Y273528D01*
X243613Y275290D02*
Y279040D01*
X242213Y275290D02*
Y279040D01*
X245976Y280802D02*
Y284552D01*
X244576Y280802D02*
Y284552D01*
X247944Y286314D02*
Y290064D01*
X246544Y286314D02*
Y290064D01*
X267121Y267915D02*
X272249D01*
X267121Y269093D02*
X272249D01*
X172933Y99902D02*
Y104232D01*
X176083D01*
X178051D02*
X181201D01*
Y99902D02*
Y104232D01*
X178051Y99902D02*
X181201D01*
X172933D02*
X176083D01*
X231890Y218204D02*
Y225103D01*
X228740Y218204D02*
Y225103D01*
X231890Y226865D02*
Y233765D01*
X228740Y226865D02*
Y233765D01*
X133465Y195177D02*
X137795D01*
X133465D02*
Y198327D01*
Y200295D02*
Y203445D01*
X137795D01*
Y200295D02*
Y203445D01*
Y195177D02*
Y198327D01*
X128642Y203445D02*
X132973D01*
Y200295D02*
Y203445D01*
Y195177D02*
Y198327D01*
X128642Y195177D02*
X132973D01*
X128642D02*
Y198327D01*
Y200295D02*
Y203445D01*
X82480Y257677D02*
X86811D01*
X82480D02*
Y260827D01*
Y262795D02*
Y265945D01*
X86811D01*
Y262795D02*
Y265945D01*
Y257677D02*
Y260827D01*
X189272Y256791D02*
X192421D01*
X194390D02*
X197539D01*
Y261122D01*
X194390D02*
X197539D01*
X189272D02*
X192421D01*
X189272Y256791D02*
Y261122D01*
X192126Y80315D02*
X196457D01*
Y77165D02*
Y80315D01*
Y72047D02*
Y75197D01*
X192126Y72047D02*
X196457D01*
X192126D02*
Y75197D01*
Y77165D02*
Y80315D01*
X187205Y67716D02*
X191535D01*
Y64567D02*
Y67716D01*
Y59449D02*
Y62598D01*
X187205Y59449D02*
X191535D01*
X187205D02*
Y62598D01*
Y64567D02*
Y67716D01*
X190650Y58268D02*
X191437Y57480D01*
Y53740D02*
Y57480D01*
X191240Y57677D02*
X191929Y56988D01*
X191339Y53642D02*
X191929Y54232D01*
X190650Y52953D02*
X191437Y53740D01*
X187106Y52953D02*
X190650D01*
X187106Y58268D02*
X190650D01*
X179232Y52953D02*
Y58268D01*
Y52953D02*
X183563D01*
X179232Y58268D02*
X183563D01*
X191929Y54232D02*
Y56988D01*
X196944Y78259D02*
X200694D01*
X196944Y76859D02*
X200694D01*
X197638Y72342D02*
X200787D01*
X192520D02*
X195669D01*
X192520Y68405D02*
Y72342D01*
Y68405D02*
X195669D01*
X197638D02*
X200787D01*
Y72342D01*
X198141Y53440D02*
Y57190D01*
X196741Y53440D02*
Y57190D01*
X199213Y64567D02*
Y67716D01*
Y59449D02*
Y62598D01*
Y59449D02*
X203150D01*
Y62598D01*
Y64567D02*
Y67716D01*
X199213D02*
X203150D01*
X305886Y324114D02*
X309823D01*
Y320965D02*
Y324114D01*
Y315846D02*
Y318996D01*
X305886Y315846D02*
X309823D01*
X305886D02*
Y318996D01*
Y320965D02*
Y324114D01*
X51575Y323819D02*
X55512D01*
Y320669D02*
Y323819D01*
Y315551D02*
Y318701D01*
X51575Y315551D02*
X55512D01*
X51575D02*
Y318701D01*
Y320669D02*
Y323819D01*
X178248Y93405D02*
X182185D01*
Y90256D02*
Y93405D01*
Y85138D02*
Y88287D01*
X178248Y85138D02*
X182185D01*
X178248D02*
Y88287D01*
Y90256D02*
Y93405D01*
X197539Y252362D02*
Y256693D01*
X194390Y252362D02*
X197539D01*
X189272D02*
X192421D01*
X189272D02*
Y256693D01*
X192421D01*
X194390D02*
X197539D01*
X87697Y253248D02*
X92028D01*
X87697D02*
Y256398D01*
Y258366D02*
Y261516D01*
X92028D01*
Y258366D02*
Y261516D01*
Y253248D02*
Y256398D01*
X87795Y262205D02*
X92126D01*
X87795D02*
Y265354D01*
Y267323D02*
Y270472D01*
X92126D01*
Y267323D02*
Y270472D01*
Y262205D02*
Y265354D01*
X87697Y271063D02*
X92028D01*
X87697D02*
Y274213D01*
Y276181D02*
Y279331D01*
X92028D01*
Y276181D02*
Y279331D01*
Y271063D02*
Y274213D01*
X105315Y256496D02*
Y260827D01*
X102165Y256496D02*
X105315D01*
X97047D02*
X100197D01*
X97047D02*
Y260827D01*
X100197D01*
X102165D02*
X105315D01*
X82874Y266634D02*
X85630D01*
X86910Y275000D02*
Y279331D01*
X81595Y275000D02*
Y279331D01*
X86910D01*
Y267913D02*
Y271457D01*
X81595Y267913D02*
Y271457D01*
Y267913D02*
X82382Y267126D01*
X82284Y267224D02*
X82874Y266634D01*
X85630D02*
X86319Y267323D01*
X82382Y267126D02*
X86122D01*
X86910Y267913D01*
X200000Y94193D02*
Y97342D01*
Y99311D02*
Y102461D01*
X195669D02*
X200000D01*
X195669Y99311D02*
Y102461D01*
Y94193D02*
Y97342D01*
Y94193D02*
X200000D01*
X199803Y87598D02*
Y91535D01*
X196654Y87598D02*
X199803D01*
X191535D02*
X194685D01*
X191535D02*
Y91535D01*
X194685D01*
X196654D02*
X199803D01*
X181201Y100689D02*
Y103839D01*
Y95571D02*
Y98721D01*
Y95571D02*
X185531D01*
Y98721D01*
Y100689D02*
Y103839D01*
X181201D02*
X185531D01*
X192224Y99311D02*
Y102461D01*
Y94193D02*
Y97342D01*
Y94193D02*
X196555D01*
Y97342D01*
Y99311D02*
Y102461D01*
X192224D02*
X196555D01*
X241535Y240158D02*
Y244094D01*
X238386Y240158D02*
X241535D01*
X233268D02*
X236417D01*
X233268D02*
Y244094D01*
X236417D01*
X238386D02*
X241535D01*
X102165Y72835D02*
Y75984D01*
Y67716D02*
Y70866D01*
Y67716D02*
X106496D01*
Y70866D01*
Y72835D02*
Y75984D01*
X102165D02*
X106496D01*
X241929Y240748D02*
Y243898D01*
Y235630D02*
Y238779D01*
Y235630D02*
X246260D01*
Y238779D01*
Y240748D02*
Y243898D01*
X241929D02*
X246260D01*
X238386Y239961D02*
X241535D01*
X233268D02*
X236417D01*
X233268Y235630D02*
Y239961D01*
Y235630D02*
X236417D01*
X238386D02*
X241535D01*
Y239961D01*
X288780Y319882D02*
Y323031D01*
Y314764D02*
Y317913D01*
Y314764D02*
X293110D01*
Y317913D01*
Y319882D02*
Y323031D01*
X288780D02*
X293110D01*
X158858Y262008D02*
X162008D01*
X163976D02*
X167126D01*
Y266339D01*
X163976D02*
X167126D01*
X158858D02*
X162008D01*
X158858Y262008D02*
Y266339D01*
X239567Y186516D02*
Y189665D01*
Y191634D02*
Y194783D01*
X235236D02*
X239567D01*
X235236Y191634D02*
Y194783D01*
Y186516D02*
Y189665D01*
Y186516D02*
X239567D01*
X266142Y226865D02*
Y233765D01*
X269291Y226865D02*
Y233765D01*
X266142Y235527D02*
Y242426D01*
X269291Y235527D02*
Y242426D01*
X222928Y245374D02*
X229828D01*
X222928Y242224D02*
X229828D01*
X242520Y254424D02*
Y261324D01*
X239370Y254424D02*
Y261324D01*
X287303Y317323D02*
X288484D01*
X287303Y318504D02*
X288484D01*
X287894Y317323D02*
X288484Y318504D01*
X287303D02*
X287894Y317323D01*
Y318504D01*
X281201Y321063D02*
X287894D01*
Y318504D02*
Y329913D01*
X281201Y318504D02*
Y329921D01*
Y321457D02*
X287894D01*
X281201Y320669D02*
X287894D01*
M02*
