M48
;Layer_Color=9474304
;FILE_FORMAT=2:5
INCH,LZ
;TYPE=PLATED
T1F00S00C0.00787
T3F00S00C0.01968
T6F00S00C0.03150
T7F00S00C0.03346
T8F00S00C0.10236
;TYPE=NON_PLATED
T9F00S00C0.02362
T10F00S00C0.02953
T11F00S00C0.08268
T12F00S00C0.11811
%
T01
X0276815Y0055542
X0271437Y0054101
X0269995Y0059479
X0264617Y0058038
X0263176Y0063416
X026344Y006781
X0267834Y0067546
X0265409Y0071219
X0266929Y0044094
X0258366Y0048228
X024595Y0048564
X0243209Y0048327
X0241142Y003622
X0232707Y0038721
X0231496Y0041339
X0226083Y0042717
Y0045866
X0222539
Y0042717
Y003878
X0226083
X0214665Y0038267
X0216822Y0043406
X0212402Y005
X0215084Y0055078
X0224311Y0050886
X0230807Y005561
X0214365Y0071275
X0213386Y007369
X0207382Y0073721
X0207162Y0076829
X02Y0073327
X02Y0070669
X0199968Y0064633
X0198819Y005689
X019128Y0067151
X0189489Y0078932
X0188189Y0081693
X0190157Y0084941
X0198327Y0085078
X0198721Y0088878
X0199879Y008179
X0197954Y0079181
X0194883Y0078145
X0197689Y0075317
X018563Y0076279
X0182973Y0076083
X0177756Y0077165
X0174213Y0075098
X0171654Y0075098
X016939Y0073598
X0166831Y0073612
X0164469Y0075099
X0161909
X0157973Y0076968
X016811Y0077264
X0165551Y0066732
X016624Y0061288
X0165551Y0058268
X016958Y0057894
X0167421Y0055118
X0158211Y0055031
X0156988Y0059276
X0159547
X0175689Y0059488
X0178248
X017697Y00553
X0187697Y0042126
X0187697Y003937
X0185288Y003388
X0185136Y0031232
X0185827Y0021358
X0181496Y0018504
X0180807Y0015748
X0175197Y0014272
X0168123Y0014132
X0161819Y0017341
X0161614Y001998
X0164173Y0024803
X0152389Y0011379
X0182873Y000867
X0185724Y0008702
X0201871Y0011607
X0202875Y0015916
X0205166Y0020856
X0209842Y0020472
X0215945Y001752
X0215059Y0012697
X0208878Y0008667
X020587Y0008724
X0192971Y0021242
X0195276Y0025394
X0196438Y0032038
X0198143Y003483
X0201366Y0031342
X0200492Y0028937
X0202756Y0037677
X0204724Y0040945
X0213497Y0031839
X0213497Y0029138
X0260531Y0036122
X0205315Y0094193
X0204429Y0096752
X0192565Y0093808
X0190244Y0095472
X0186142Y0097244
X0186388Y0100145
X0187993Y0102225
X018311Y0102671
X0178937Y0100686
X0182156Y00918
X0182558Y0089178
X0179231Y0088476
X0184188Y0093356
X0171949Y0093504
X0163484Y0093405
X0160646Y0096659
X0166516Y0101378
X0167717Y0103937
X0164665Y0112894
X0162041Y0112878
X0159319Y0112901
X0156693Y0112992
X0155504Y0104194
X0152955Y0104426
X0148142Y0104393
X0139469Y0104724
X0135531Y010374
Y0101181
X0135531Y0098622
X0136024Y0096063
X0134843Y0093701
X0132283
X0130807Y0091535
X0128543Y0093602
X0125984
X0123425Y0093701
X0123622Y0098721
X0121024Y0098721
X0118465
X0115847Y0098721
X0119095Y0104626
X0129823Y0103543
Y0100984
X0129725Y0098353
X0129921Y0095768
X013435Y0111614
X0136781Y0112415
X0137795Y0114862
X0144193Y0111516
X0125197
X0172539Y0111614
X0177165
X018189Y0111308
X0186614
X0184815Y0113127
X0191785Y011183
X0192421Y0100295
X0197453Y0104661
X0207263Y0113621
X0212894Y0113386
X0214378Y0110681
X0218133Y0109711
X0216395Y0107422
X0105118Y0068405
X0107382Y0065551
X0099028Y0063416
X0097587Y0058038
X0092209Y0059479
X0090768Y0054101
X008539Y0055542
X0095965Y0068898
X0091634Y014439
X0095087Y0151024
X0095669Y0165157
X0095087Y0176221
X0100686Y017617
X0100236Y017937
X0100197Y0184055
Y0193602
Y0196653
Y0199803
Y0202953
X0100099Y0206102
X0095473Y0205413
X0095635Y0202264
X0095571Y0199114
X0095684Y0195866
X0107874Y0195079
X0107776Y0198228
X0107874Y0201378
Y0204527
X0107973Y0207776
X0107874Y0188779
X0107973Y0181004
X0107874Y0177657
X0103839Y014439
X0055458Y014282
X0057426Y013941
X0053032Y0139147
X0051784Y0145245
X0046406Y0146686
X0044965Y0141308
X0039587Y0142749
X0038146Y0137371
X0057087Y0132677
X0059055Y012874
X0062992Y0130709
X0061024Y0134646
Y0124803
X0064961Y0126772
X0090945Y0255315
X0093898Y0262894
X0142323Y0262303
X0142224Y0259646
X0140945Y0268799
X0140945Y0271358
X0145635Y0250864
X0145177Y0248327
X0157973Y0249311
X0157677Y0246752
X0158465Y0238779
X015788Y023626
X0162525Y0222072
X0162463Y021811
X0162816Y0213881
X0162992Y0207579
X0166407Y0207355
X0166161Y0199053
X0162576Y0198348
X0162382Y0200965
X015876Y0198721
X0156201Y0197933
X0152756Y0203543
X015Y0202756
X0148425Y0204724
X0146063Y0203543
X0146937Y0200911
X0144206Y019947
X0143186Y0202123
X0151349Y0206229
X0170292Y020169
X0177165Y0201575
Y0206496
X0177165Y0211614
X0177165Y0216339
Y022126
X0182087
X0187008Y0221457
X0191929Y022126
X019685
Y0216339
X019685Y0211614
X019685Y0206496
Y0201575
X0191929
X0187008Y0201772
X0182087Y0201575
X0183071Y020748
X0190945
Y0215354
X0183071
X0185039Y0228346
X0183465Y0232283
X0179134Y0233465
X0178445Y0238405
X0182434Y0242832
X0186903Y0246247
X0192028Y0243406
X0196555Y0241831
X0193927Y0238499
X0194141Y0233529
X0191732Y0229528
X0200689Y0232972
X0200394Y0224803
X0205906Y0225591
X020502Y0221654
X020876Y0222736
X0210352Y0229043
X0213386Y0233858
X0210236Y0238189
X020561Y02375
X0206693Y0242126
X0201575Y0244488
X0197047Y0255906
X0201673Y0268996
X0200156Y0271099
X0225591Y0256693
X0226772Y0251969
X0226772Y0245669
X0230315Y0248819
Y024252
X022874Y0237894
X0224016
X0222441Y0232283
X0226378Y0228346
X0222441Y0223622
X0226378Y0219685
X0222441Y0214567
X0226378Y021063
X0245914Y0210866
X0245914Y0206142
X0245916Y0201417
X0251567Y0201417
Y0196693
Y0206142
Y0210866
X0246752Y019065
X024685Y0187992
X0237697Y0188779
X0237402Y0192618
X0239441Y0196693
X0236078Y0178135
X0233858Y0176378
X0231288Y0176904
X0229003Y0178135
X0235045Y0170379
X0236162Y0167542
X022185Y0167913
X0220511Y017042
X0220866Y0162401
X0221949Y0159547
X0221324Y0156465
X0224311Y0152854
X0223178Y0149991
X0216718Y0145042
X0211092Y0116333
X0207223Y0116654
X0208349Y0119031
X0198182Y0119162
X018937Y0124016
X0186319Y0124409
X0177205Y0123475
X0180837Y0116442
X0183394Y011654
X0172441Y0116831
X0167717
X0163091Y0124114
X0158366Y0123721
X0153543Y0116831
X0148819Y0116732
X0144095Y0116831
X0139665Y0116634
X0129921
X0125197Y011696
X0120472Y0116961
X0134646Y0123622
X0141931Y0144495
X014439Y0145669
X0146358Y0143898
X0126673Y0149901
X0128248Y0151969
X0122835Y0149114
X012126Y014685
X013189Y0200787
X016425Y0193166
X0163189Y0190748
X016614Y0190836
X0169238Y0190794
X0170768Y0193012
X0177392Y0192344
X0179331Y019065
X0180709Y0192913
X0183227Y0190096
X0186024Y0191634
X0188051Y0193701
X0195374Y0193799
X0195217Y0190414
X0199016Y0189961
X0198819Y0186516
X0173031Y0186614
X0173233Y0183466
X0170965Y0184941
X0174508Y0189173
X0175Y017687
X0177159Y0174865
X0175197Y0172441
X0173228Y0174409
X0172835Y0170472
X017095Y0172322
X0168504Y0170177
X0170805Y0167851
X0245914Y0152599
X0251567Y0152599
X0271654Y0228346
Y0237008
X027126Y0264961
X026811
X0264665Y0265748
X0262205Y026811
X0254724Y0262598
X0239567Y0266142
Y0271654
X0235039Y0260236
Y0255512
X0233858Y0251969
X0230709Y0254724
X0233858Y0245669
X0234252Y0240158
X0232677Y0236221
X024252Y0243701
X0275591Y0240945
Y0232283
X0275098Y0264764
X0281496Y0265748
Y0269685
X031042Y0145245
X0315798Y0146686
X031724Y0141308
X0322618Y0142749
X0324059Y0137371
X0307087Y0139862
X0280315Y0272047
Y0275197
Y027874
Y028189
Y0285433
Y0288583
X0275295Y0295256
X027815Y0298524
X0279331Y030561
X028002Y0307776
X0277756Y0309941
X0274803Y0310138
X0272342Y0310039
X0301575Y0319783
X0306791Y0322047
X0322047Y0321654
X0270315Y0307451
X0268902Y0305617
X0266831Y030374
X024626Y0293701
X0243898Y0288189
X0241787Y0283623
X0239567Y0277165
X0232283Y0277559
X0228346Y0287402
X022441
X0220473Y0285433
Y028937
X0214173Y028937
X0210236
X0206299
Y0285433
X0210236
X0214173
X0232283Y0291339
Y0299213
X0228346Y030315
Y0295276
X0252953Y027815
X0251181Y0275197
X0165059Y0275689
X0163484Y0277854
X0138189Y0276673
X0135905Y027548
X0137402Y027313
X0133858Y0287402
Y0295276
X0129921Y0291339
Y0299213
X0133858Y030315
X0115748Y0288976
X0115748Y0279527
Y0274803
X0111024
Y0279527
X0106299
Y0284252
Y0288976
X0111024Y0288976
Y0284252
X0115252Y0284115
X009685Y0273228
X0054331Y0317717
X0041732Y0316142
T03
X0217815Y0075945
X0222736
X0227658
X0232579
X0230118Y0271654
X0225197
X0220276
X0215354
X0210433
X0205512
X0192717
X0187795
X0182874
X0170079
X0165157
X0160236
X0155315
T06
X0116535Y0307716
Y0317717
Y0327716
T07
X0213169Y0061516
X0238209
T08
X030315Y0293307
X0350394
X0248031Y0309055
Y032874
X0066929Y0293307
X0019685
T09
X0214173Y0066043
T10
X0237205Y0066043
T11
X0137795Y0007874
X022441
X0096063Y0114567
X0267323Y0254331
T12
X0322835Y007874
X003937
X0181102Y0334646
M30
