G04*
G04 #@! TF.GenerationSoftware,Altium Limited,Altium Designer,21.2.2 (38)*
G04*
G04 Layer_Physical_Order=1*
G04 Layer_Color=255*
%FSLAX25Y25*%
%MOIN*%
G70*
G04*
G04 #@! TF.SameCoordinates,0FD90602-BBB3-4F14-90EE-D32430874176*
G04*
G04*
G04 #@! TF.FilePolarity,Positive*
G04*
G01*
G75*
%ADD10C,0.01181*%
%ADD11C,0.05906*%
%ADD12C,0.01575*%
%ADD13C,0.00787*%
%ADD14C,0.00709*%
%ADD15C,0.00709*%
%ADD16C,0.01024*%
%ADD17C,0.01968*%
%ADD18C,0.01772*%
%ADD19C,0.03150*%
%ADD20C,0.07874*%
%ADD21C,0.03937*%
%ADD22C,0.06299*%
%ADD23C,0.00984*%
%ADD24C,0.02362*%
%ADD25C,0.00787*%
%ADD26C,0.00512*%
G04:AMPARAMS|DCode=27|XSize=23.62mil|YSize=23.62mil|CornerRadius=2.36mil|HoleSize=0mil|Usage=FLASHONLY|Rotation=270.000|XOffset=0mil|YOffset=0mil|HoleType=Round|Shape=RoundedRectangle|*
%AMROUNDEDRECTD27*
21,1,0.02362,0.01890,0,0,270.0*
21,1,0.01890,0.02362,0,0,270.0*
1,1,0.00472,-0.00945,-0.00945*
1,1,0.00472,-0.00945,0.00945*
1,1,0.00472,0.00945,0.00945*
1,1,0.00472,0.00945,-0.00945*
%
%ADD27ROUNDEDRECTD27*%
%ADD28R,0.04331X0.00787*%
%ADD29R,0.00787X0.04331*%
%ADD30R,0.01181X0.02953*%
%ADD31R,0.00984X0.01575*%
%ADD32R,0.02756X0.01575*%
G04:AMPARAMS|DCode=33|XSize=55.12mil|YSize=39.37mil|CornerRadius=4.92mil|HoleSize=0mil|Usage=FLASHONLY|Rotation=90.000|XOffset=0mil|YOffset=0mil|HoleType=Round|Shape=RoundedRectangle|*
%AMROUNDEDRECTD33*
21,1,0.05512,0.02953,0,0,90.0*
21,1,0.04528,0.03937,0,0,90.0*
1,1,0.00984,0.01476,0.02264*
1,1,0.00984,0.01476,-0.02264*
1,1,0.00984,-0.01476,-0.02264*
1,1,0.00984,-0.01476,0.02264*
%
%ADD33ROUNDEDRECTD33*%
%ADD34R,0.01575X0.01378*%
%ADD35R,0.01890X0.01654*%
%ADD36C,0.00906*%
G04:AMPARAMS|DCode=37|XSize=39.37mil|YSize=35.43mil|CornerRadius=4.43mil|HoleSize=0mil|Usage=FLASHONLY|Rotation=270.000|XOffset=0mil|YOffset=0mil|HoleType=Round|Shape=RoundedRectangle|*
%AMROUNDEDRECTD37*
21,1,0.03937,0.02657,0,0,270.0*
21,1,0.03051,0.03543,0,0,270.0*
1,1,0.00886,-0.01329,-0.01526*
1,1,0.00886,-0.01329,0.01526*
1,1,0.00886,0.01329,0.01526*
1,1,0.00886,0.01329,-0.01526*
%
%ADD37ROUNDEDRECTD37*%
G04:AMPARAMS|DCode=38|XSize=19.68mil|YSize=23.62mil|CornerRadius=1.97mil|HoleSize=0mil|Usage=FLASHONLY|Rotation=90.000|XOffset=0mil|YOffset=0mil|HoleType=Round|Shape=RoundedRectangle|*
%AMROUNDEDRECTD38*
21,1,0.01968,0.01968,0,0,90.0*
21,1,0.01575,0.02362,0,0,90.0*
1,1,0.00394,0.00984,0.00787*
1,1,0.00394,0.00984,-0.00787*
1,1,0.00394,-0.00984,-0.00787*
1,1,0.00394,-0.00984,0.00787*
%
%ADD38ROUNDEDRECTD38*%
G04:AMPARAMS|DCode=39|XSize=39.37mil|YSize=133.86mil|CornerRadius=5.91mil|HoleSize=0mil|Usage=FLASHONLY|Rotation=90.000|XOffset=0mil|YOffset=0mil|HoleType=Round|Shape=RoundedRectangle|*
%AMROUNDEDRECTD39*
21,1,0.03937,0.12205,0,0,90.0*
21,1,0.02756,0.13386,0,0,90.0*
1,1,0.01181,0.06102,0.01378*
1,1,0.01181,0.06102,-0.01378*
1,1,0.01181,-0.06102,-0.01378*
1,1,0.01181,-0.06102,0.01378*
%
%ADD39ROUNDEDRECTD39*%
G04:AMPARAMS|DCode=40|XSize=21.65mil|YSize=9.84mil|CornerRadius=1.48mil|HoleSize=0mil|Usage=FLASHONLY|Rotation=0.000|XOffset=0mil|YOffset=0mil|HoleType=Round|Shape=RoundedRectangle|*
%AMROUNDEDRECTD40*
21,1,0.02165,0.00689,0,0,0.0*
21,1,0.01870,0.00984,0,0,0.0*
1,1,0.00295,0.00935,-0.00345*
1,1,0.00295,-0.00935,-0.00345*
1,1,0.00295,-0.00935,0.00345*
1,1,0.00295,0.00935,0.00345*
%
%ADD40ROUNDEDRECTD40*%
G04:AMPARAMS|DCode=41|XSize=9.84mil|YSize=21.65mil|CornerRadius=1.48mil|HoleSize=0mil|Usage=FLASHONLY|Rotation=0.000|XOffset=0mil|YOffset=0mil|HoleType=Round|Shape=RoundedRectangle|*
%AMROUNDEDRECTD41*
21,1,0.00984,0.01870,0,0,0.0*
21,1,0.00689,0.02165,0,0,0.0*
1,1,0.00295,0.00345,-0.00935*
1,1,0.00295,-0.00345,-0.00935*
1,1,0.00295,-0.00345,0.00935*
1,1,0.00295,0.00345,0.00935*
%
%ADD41ROUNDEDRECTD41*%
G04:AMPARAMS|DCode=42|XSize=9.84mil|YSize=51.18mil|CornerRadius=1.48mil|HoleSize=0mil|Usage=FLASHONLY|Rotation=0.000|XOffset=0mil|YOffset=0mil|HoleType=Round|Shape=RoundedRectangle|*
%AMROUNDEDRECTD42*
21,1,0.00984,0.04823,0,0,0.0*
21,1,0.00689,0.05118,0,0,0.0*
1,1,0.00295,0.00345,-0.02411*
1,1,0.00295,-0.00345,-0.02411*
1,1,0.00295,-0.00345,0.02411*
1,1,0.00295,0.00345,0.02411*
%
%ADD42ROUNDEDRECTD42*%
G04:AMPARAMS|DCode=43|XSize=9.84mil|YSize=39.37mil|CornerRadius=1.48mil|HoleSize=0mil|Usage=FLASHONLY|Rotation=0.000|XOffset=0mil|YOffset=0mil|HoleType=Round|Shape=RoundedRectangle|*
%AMROUNDEDRECTD43*
21,1,0.00984,0.03642,0,0,0.0*
21,1,0.00689,0.03937,0,0,0.0*
1,1,0.00295,0.00345,-0.01821*
1,1,0.00295,-0.00345,-0.01821*
1,1,0.00295,-0.00345,0.01821*
1,1,0.00295,0.00345,0.01821*
%
%ADD43ROUNDEDRECTD43*%
G04:AMPARAMS|DCode=44|XSize=19.68mil|YSize=23.62mil|CornerRadius=1.97mil|HoleSize=0mil|Usage=FLASHONLY|Rotation=180.000|XOffset=0mil|YOffset=0mil|HoleType=Round|Shape=RoundedRectangle|*
%AMROUNDEDRECTD44*
21,1,0.01968,0.01968,0,0,180.0*
21,1,0.01575,0.02362,0,0,180.0*
1,1,0.00394,-0.00787,0.00984*
1,1,0.00394,0.00787,0.00984*
1,1,0.00394,0.00787,-0.00984*
1,1,0.00394,-0.00787,-0.00984*
%
%ADD44ROUNDEDRECTD44*%
G04:AMPARAMS|DCode=45|XSize=23.62mil|YSize=23.62mil|CornerRadius=2.36mil|HoleSize=0mil|Usage=FLASHONLY|Rotation=180.000|XOffset=0mil|YOffset=0mil|HoleType=Round|Shape=RoundedRectangle|*
%AMROUNDEDRECTD45*
21,1,0.02362,0.01890,0,0,180.0*
21,1,0.01890,0.02362,0,0,180.0*
1,1,0.00472,-0.00945,0.00945*
1,1,0.00472,0.00945,0.00945*
1,1,0.00472,0.00945,-0.00945*
1,1,0.00472,-0.00945,-0.00945*
%
%ADD45ROUNDEDRECTD45*%
G04:AMPARAMS|DCode=46|XSize=7.87mil|YSize=27.56mil|CornerRadius=1.18mil|HoleSize=0mil|Usage=FLASHONLY|Rotation=180.000|XOffset=0mil|YOffset=0mil|HoleType=Round|Shape=RoundedRectangle|*
%AMROUNDEDRECTD46*
21,1,0.00787,0.02520,0,0,180.0*
21,1,0.00551,0.02756,0,0,180.0*
1,1,0.00236,-0.00276,0.01260*
1,1,0.00236,0.00276,0.01260*
1,1,0.00236,0.00276,-0.01260*
1,1,0.00236,-0.00276,-0.01260*
%
%ADD46ROUNDEDRECTD46*%
G04:AMPARAMS|DCode=47|XSize=31.5mil|YSize=31.5mil|CornerRadius=3.94mil|HoleSize=0mil|Usage=FLASHONLY|Rotation=270.000|XOffset=0mil|YOffset=0mil|HoleType=Round|Shape=RoundedRectangle|*
%AMROUNDEDRECTD47*
21,1,0.03150,0.02362,0,0,270.0*
21,1,0.02362,0.03150,0,0,270.0*
1,1,0.00787,-0.01181,-0.01181*
1,1,0.00787,-0.01181,0.01181*
1,1,0.00787,0.01181,0.01181*
1,1,0.00787,0.01181,-0.01181*
%
%ADD47ROUNDEDRECTD47*%
%ADD48R,0.02165X0.03543*%
%ADD49R,0.01575X0.00984*%
%ADD50R,0.06299X0.09843*%
%ADD51R,0.01654X0.01890*%
%ADD52R,0.01378X0.01575*%
%ADD53R,0.00787X0.00787*%
G04:AMPARAMS|DCode=54|XSize=39.37mil|YSize=78.74mil|CornerRadius=0mil|HoleSize=0mil|Usage=FLASHONLY|Rotation=240.000|XOffset=0mil|YOffset=0mil|HoleType=Round|Shape=Rectangle|*
%AMROTATEDRECTD54*
4,1,4,-0.02425,0.03673,0.04394,-0.00264,0.02425,-0.03673,-0.04394,0.00264,-0.02425,0.03673,0.0*
%
%ADD54ROTATEDRECTD54*%

%ADD55P,0.11136X4X285.0*%
G04:AMPARAMS|DCode=56|XSize=118.11mil|YSize=78.74mil|CornerRadius=0mil|HoleSize=0mil|Usage=FLASHONLY|Rotation=240.000|XOffset=0mil|YOffset=0mil|HoleType=Round|Shape=Rectangle|*
%AMROTATEDRECTD56*
4,1,4,-0.00457,0.07083,0.06362,0.03146,0.00457,-0.07083,-0.06362,-0.03146,-0.00457,0.07083,0.0*
%
%ADD56ROTATEDRECTD56*%

G04:AMPARAMS|DCode=57|XSize=157.48mil|YSize=78.74mil|CornerRadius=0mil|HoleSize=0mil|Usage=FLASHONLY|Rotation=240.000|XOffset=0mil|YOffset=0mil|HoleType=Round|Shape=Rectangle|*
%AMROTATEDRECTD57*
4,1,4,0.00528,0.08788,0.07347,0.04851,-0.00528,-0.08788,-0.07347,-0.04851,0.00528,0.08788,0.0*
%
%ADD57ROTATEDRECTD57*%

G04:AMPARAMS|DCode=58|XSize=43.31mil|YSize=74.8mil|CornerRadius=0mil|HoleSize=0mil|Usage=FLASHONLY|Rotation=315.000|XOffset=0mil|YOffset=0mil|HoleType=Round|Shape=Rectangle|*
%AMROTATEDRECTD58*
4,1,4,-0.04176,-0.01114,0.01114,0.04176,0.04176,0.01114,-0.01114,-0.04176,-0.04176,-0.01114,0.0*
%
%ADD58ROTATEDRECTD58*%

%ADD59R,0.01181X0.03150*%
%ADD60R,0.01575X0.03150*%
%ADD61R,0.01772X0.05906*%
G04:AMPARAMS|DCode=62|XSize=39.37mil|YSize=35.43mil|CornerRadius=0mil|HoleSize=0mil|Usage=FLASHONLY|Rotation=91.000|XOffset=0mil|YOffset=0mil|HoleType=Round|Shape=Rectangle|*
%AMROTATEDRECTD62*
4,1,4,0.01806,-0.01937,-0.01737,-0.01999,-0.01806,0.01937,0.01737,0.01999,0.01806,-0.01937,0.0*
%
%ADD62ROTATEDRECTD62*%

%ADD63R,0.02323X0.02441*%
%ADD64R,0.22047X0.22047*%
%ADD65O,0.03347X0.00984*%
%ADD66O,0.00984X0.03347*%
G04:AMPARAMS|DCode=67|XSize=39.37mil|YSize=35.43mil|CornerRadius=4.43mil|HoleSize=0mil|Usage=FLASHONLY|Rotation=180.000|XOffset=0mil|YOffset=0mil|HoleType=Round|Shape=RoundedRectangle|*
%AMROUNDEDRECTD67*
21,1,0.03937,0.02657,0,0,180.0*
21,1,0.03051,0.03543,0,0,180.0*
1,1,0.00886,-0.01526,0.01329*
1,1,0.00886,0.01526,0.01329*
1,1,0.00886,0.01526,-0.01329*
1,1,0.00886,-0.01526,-0.01329*
%
%ADD67ROUNDEDRECTD67*%
%ADD68R,0.03347X0.02953*%
G04:AMPARAMS|DCode=69|XSize=16.54mil|YSize=18.9mil|CornerRadius=0mil|HoleSize=0mil|Usage=FLASHONLY|Rotation=45.000|XOffset=0mil|YOffset=0mil|HoleType=Round|Shape=Rectangle|*
%AMROTATEDRECTD69*
4,1,4,0.00084,-0.01253,-0.01253,0.00084,-0.00084,0.01253,0.01253,-0.00084,0.00084,-0.01253,0.0*
%
%ADD69ROTATEDRECTD69*%

%ADD70R,0.02441X0.02323*%
G04:AMPARAMS|DCode=71|XSize=70.87mil|YSize=45.28mil|CornerRadius=5.66mil|HoleSize=0mil|Usage=FLASHONLY|Rotation=270.000|XOffset=0mil|YOffset=0mil|HoleType=Round|Shape=RoundedRectangle|*
%AMROUNDEDRECTD71*
21,1,0.07087,0.03396,0,0,270.0*
21,1,0.05955,0.04528,0,0,270.0*
1,1,0.01132,-0.01698,-0.02977*
1,1,0.01132,-0.01698,0.02977*
1,1,0.01132,0.01698,0.02977*
1,1,0.01132,0.01698,-0.02977*
%
%ADD71ROUNDEDRECTD71*%
%ADD72R,0.01181X0.02559*%
%ADD73R,0.01575X0.03740*%
%ADD74R,0.03543X0.04331*%
%ADD75R,0.01968X0.04961*%
%ADD76R,0.02756X0.00984*%
G04:AMPARAMS|DCode=77|XSize=55.12mil|YSize=39.37mil|CornerRadius=4.92mil|HoleSize=0mil|Usage=FLASHONLY|Rotation=0.000|XOffset=0mil|YOffset=0mil|HoleType=Round|Shape=RoundedRectangle|*
%AMROUNDEDRECTD77*
21,1,0.05512,0.02953,0,0,0.0*
21,1,0.04528,0.03937,0,0,0.0*
1,1,0.00984,0.02264,-0.01476*
1,1,0.00984,-0.02264,-0.01476*
1,1,0.00984,-0.02264,0.01476*
1,1,0.00984,0.02264,0.01476*
%
%ADD77ROUNDEDRECTD77*%
%ADD78R,0.02756X0.02756*%
%ADD79R,0.05118X0.05906*%
G04:AMPARAMS|DCode=80|XSize=31.5mil|YSize=31.5mil|CornerRadius=3.94mil|HoleSize=0mil|Usage=FLASHONLY|Rotation=0.000|XOffset=0mil|YOffset=0mil|HoleType=Round|Shape=RoundedRectangle|*
%AMROUNDEDRECTD80*
21,1,0.03150,0.02362,0,0,0.0*
21,1,0.02362,0.03150,0,0,0.0*
1,1,0.00787,0.01181,-0.01181*
1,1,0.00787,-0.01181,-0.01181*
1,1,0.00787,-0.01181,0.01181*
1,1,0.00787,0.01181,0.01181*
%
%ADD80ROUNDEDRECTD80*%
%ADD81R,0.06299X0.04724*%
%ADD82R,0.00984X0.01378*%
%ADD83R,0.01181X0.02756*%
%ADD84R,0.04646X0.08228*%
%ADD85O,0.04803X0.01575*%
%ADD86R,0.04803X0.01575*%
%ADD87R,0.01968X0.02362*%
%ADD88R,0.11811X0.03937*%
%ADD89R,0.02362X0.00984*%
%ADD90R,0.00984X0.02362*%
%ADD91R,0.00866X0.02756*%
%ADD92R,0.01772X0.00866*%
G04:AMPARAMS|DCode=93|XSize=39.37mil|YSize=78.74mil|CornerRadius=0mil|HoleSize=0mil|Usage=FLASHONLY|Rotation=120.000|XOffset=0mil|YOffset=0mil|HoleType=Round|Shape=Rectangle|*
%AMROTATEDRECTD93*
4,1,4,0.04394,0.00264,-0.02425,-0.03673,-0.04394,-0.00264,0.02425,0.03673,0.04394,0.00264,0.0*
%
%ADD93ROTATEDRECTD93*%

%ADD94R,0.03937X0.07874*%
%ADD95R,0.07874X0.07874*%
%ADD96R,0.11811X0.07874*%
%ADD97R,0.15748X0.07874*%
%ADD98P,0.11136X4X165.0*%
G04:AMPARAMS|DCode=99|XSize=118.11mil|YSize=78.74mil|CornerRadius=0mil|HoleSize=0mil|Usage=FLASHONLY|Rotation=120.000|XOffset=0mil|YOffset=0mil|HoleType=Round|Shape=Rectangle|*
%AMROTATEDRECTD99*
4,1,4,0.06362,-0.03146,-0.00457,-0.07083,-0.06362,0.03146,0.00457,0.07083,0.06362,-0.03146,0.0*
%
%ADD99ROTATEDRECTD99*%

G04:AMPARAMS|DCode=100|XSize=157.48mil|YSize=78.74mil|CornerRadius=0mil|HoleSize=0mil|Usage=FLASHONLY|Rotation=120.000|XOffset=0mil|YOffset=0mil|HoleType=Round|Shape=Rectangle|*
%AMROTATEDRECTD100*
4,1,4,0.07347,-0.04851,0.00528,-0.08788,-0.07347,0.04851,-0.00528,0.08788,0.07347,-0.04851,0.0*
%
%ADD100ROTATEDRECTD100*%

%ADD101R,0.00984X0.02559*%
G04:AMPARAMS|DCode=102|XSize=70.87mil|YSize=45.28mil|CornerRadius=5.66mil|HoleSize=0mil|Usage=FLASHONLY|Rotation=0.000|XOffset=0mil|YOffset=0mil|HoleType=Round|Shape=RoundedRectangle|*
%AMROUNDEDRECTD102*
21,1,0.07087,0.03396,0,0,0.0*
21,1,0.05955,0.04528,0,0,0.0*
1,1,0.01132,0.02977,-0.01698*
1,1,0.01132,-0.02977,-0.01698*
1,1,0.01132,-0.02977,0.01698*
1,1,0.01132,0.02977,0.01698*
%
%ADD102ROUNDEDRECTD102*%
G04:AMPARAMS|DCode=103|XSize=31.5mil|YSize=39.37mil|CornerRadius=3.94mil|HoleSize=0mil|Usage=FLASHONLY|Rotation=0.000|XOffset=0mil|YOffset=0mil|HoleType=Round|Shape=RoundedRectangle|*
%AMROUNDEDRECTD103*
21,1,0.03150,0.03150,0,0,0.0*
21,1,0.02362,0.03937,0,0,0.0*
1,1,0.00787,0.01181,-0.01575*
1,1,0.00787,-0.01181,-0.01575*
1,1,0.00787,-0.01181,0.01575*
1,1,0.00787,0.01181,0.01575*
%
%ADD103ROUNDEDRECTD103*%
%ADD104R,0.02362X0.04724*%
%ADD105C,0.00630*%
%ADD106C,0.00906*%
%ADD107R,0.01181X0.02756*%
%ADD108C,0.15748*%
%ADD109O,0.03150X0.04724*%
G04:AMPARAMS|DCode=110|XSize=47.24mil|YSize=27.56mil|CornerRadius=0mil|HoleSize=0mil|Usage=FLASHONLY|Rotation=45.000|XOffset=0mil|YOffset=0mil|HoleType=Round|Shape=Round|*
%AMOVALD110*
21,1,0.01968,0.02756,0.00000,0.00000,45.0*
1,1,0.02756,-0.00696,-0.00696*
1,1,0.02756,0.00696,0.00696*
%
%ADD110OVALD110*%

G04:AMPARAMS|DCode=111|XSize=47.24mil|YSize=27.56mil|CornerRadius=0mil|HoleSize=0mil|Usage=FLASHONLY|Rotation=135.000|XOffset=0mil|YOffset=0mil|HoleType=Round|Shape=Round|*
%AMOVALD111*
21,1,0.01968,0.02756,0.00000,0.00000,135.0*
1,1,0.02756,0.00696,-0.00696*
1,1,0.02756,-0.00696,0.00696*
%
%ADD111OVALD111*%

%ADD112O,0.02559X0.01772*%
%ADD113C,0.14173*%
%ADD114O,0.11024X0.03543*%
%ADD115C,0.02953*%
%ADD116C,0.02362*%
%ADD117C,0.04921*%
%ADD118C,0.05906*%
%ADD119C,0.01772*%
G36*
X314961Y299213D02*
Y275590D01*
X301772Y262402D01*
X270513D01*
X269351Y262779D01*
X268005Y262992D01*
X266641D01*
X265295Y262779D01*
X264906Y262653D01*
X259842Y267717D01*
X259842Y270823D01*
X259861Y270915D01*
Y271604D01*
X259842Y271696D01*
Y272575D01*
X260120Y272765D01*
X260811Y272519D01*
X261301Y271998D01*
X261373Y271633D01*
X261580Y271324D01*
X261889Y271117D01*
X261970Y271101D01*
X263398Y269673D01*
X266142D01*
Y266634D01*
X266929Y265846D01*
X272441D01*
X273228Y266634D01*
Y269870D01*
X273718D01*
X273781Y269883D01*
X273845Y269884D01*
X275091Y270153D01*
X275170Y270187D01*
X275252Y270213D01*
X275276Y270234D01*
X275306Y270247D01*
X275787Y270079D01*
X279528D01*
X280315Y270866D01*
Y276378D01*
X279823Y276870D01*
X280315Y277362D01*
Y282874D01*
X279823Y283366D01*
X280315Y283858D01*
Y288281D01*
X280333Y288353D01*
X280749Y289399D01*
X280979Y289445D01*
X281175Y289575D01*
X281175D01*
X281175Y289575D01*
X284186Y292586D01*
X284316Y292781D01*
X284362Y293012D01*
Y301181D01*
X284316Y301412D01*
X284186Y301607D01*
X281333Y304460D01*
X281241Y304521D01*
X281149Y304585D01*
X280956Y305093D01*
X281645Y307258D01*
X281656Y307354D01*
X281693Y307443D01*
Y307682D01*
X281720Y307920D01*
X281693Y308012D01*
Y308108D01*
X281601Y308330D01*
X281535Y308559D01*
X281475Y308634D01*
X281438Y308723D01*
X281269Y308892D01*
X281120Y309080D01*
X281035Y309126D01*
X280967Y309194D01*
X280747Y309286D01*
X280604Y309364D01*
X280603Y309365D01*
X280602Y309365D01*
X280537Y309401D01*
X280486Y309407D01*
X280429Y309436D01*
X280375Y309439D01*
X280352Y309449D01*
X280338D01*
X280305Y309459D01*
X280211Y309451D01*
X280117Y309458D01*
X280095Y309451D01*
X279875Y309475D01*
X279783Y309449D01*
X279687D01*
X279466Y309357D01*
X279236Y309291D01*
X279161Y309231D01*
X279072Y309194D01*
X279031Y309153D01*
X277853Y308811D01*
X277814Y308790D01*
X277770Y308781D01*
X277676Y308718D01*
X277575Y308666D01*
X277547Y308632D01*
X277509Y308607D01*
X277486Y308572D01*
X276390Y308141D01*
X276083Y308203D01*
X275776Y308141D01*
X275647Y308056D01*
X275295D01*
X275173Y308032D01*
X275049D01*
X274934Y307984D01*
X274811Y307960D01*
X274708Y307890D01*
X274593Y307843D01*
X274508Y307758D01*
X274423Y307843D01*
X274308Y307890D01*
X274204Y307960D01*
X274082Y307984D01*
X273967Y308032D01*
X273843D01*
X273721Y308056D01*
X273369D01*
X273240Y308141D01*
X272933Y308203D01*
X272698Y308156D01*
X272172Y308327D01*
X271623Y308551D01*
X271544Y308651D01*
X271473Y308757D01*
X271369Y309317D01*
X271337Y309595D01*
X271338Y309623D01*
X271398Y309958D01*
X271434Y310105D01*
X271848Y310526D01*
X271862Y310547D01*
X272074Y310688D01*
X272288Y310731D01*
X272290Y310731D01*
X275728Y310994D01*
X275759Y311003D01*
X275790Y311000D01*
X275865Y311024D01*
X303150Y311024D01*
X314961Y299213D01*
D02*
G37*
G36*
X279134Y304724D02*
X276354Y304798D01*
X276293Y304887D01*
X276298Y304912D01*
X276339Y305009D01*
Y305114D01*
X276359Y305217D01*
X276339Y305319D01*
Y305424D01*
X276298Y305521D01*
X276278Y305624D01*
X276220Y305711D01*
X276180Y305807D01*
X276106Y305882D01*
X276047Y305969D01*
X275960Y306027D01*
X275886Y306101D01*
X275789Y306141D01*
X275702Y306199D01*
X275600Y306220D01*
X275503Y306260D01*
X275398D01*
X275353Y306269D01*
X275297Y306352D01*
Y307126D01*
X275542D01*
X275998Y307315D01*
X276083Y307400D01*
X276168Y307315D01*
X276623Y307126D01*
X277117D01*
X277573Y307315D01*
X277922Y307664D01*
X278077Y308040D01*
X280217Y308661D01*
X279134Y304724D01*
D02*
G37*
G36*
X270905Y308190D02*
Y308120D01*
X271094Y307664D01*
X271443Y307315D01*
X271899Y307126D01*
X272392D01*
X272848Y307315D01*
X272933Y307400D01*
X273018Y307315D01*
X273474Y307126D01*
X273785D01*
X273773Y306323D01*
X273729Y306280D01*
X273721D01*
X273618Y306260D01*
X273513D01*
X273416Y306220D01*
X273313Y306199D01*
X273226Y306141D01*
X273130Y306101D01*
X273056Y306027D01*
X272968Y305969D01*
X272910Y305882D01*
X272836Y305807D01*
X272796Y305711D01*
X272738Y305624D01*
X272717Y305521D01*
X272677Y305424D01*
Y305319D01*
X272663Y305248D01*
X272171Y304771D01*
X268767Y304657D01*
X270669Y308268D01*
X270905Y308190D01*
D02*
G37*
G36*
X275251Y305587D02*
X275283Y305564D01*
X275299Y305552D01*
X275331Y305524D01*
X275493Y305360D01*
X275564Y305254D01*
X275702Y304999D01*
X275702Y304999D01*
X275702Y304942D01*
X275696Y304912D01*
X275703Y304880D01*
Y304769D01*
X275704Y304767D01*
X275704Y304764D01*
X275749Y304658D01*
X275793Y304552D01*
X275795Y304550D01*
X275796Y304548D01*
X275856Y304460D01*
X275890Y304425D01*
X275917Y304384D01*
X275974Y304344D01*
X276023Y304295D01*
X276023Y304295D01*
X276028Y304293D01*
X276068Y304277D01*
X276108Y304248D01*
X276176Y304233D01*
X276241Y304207D01*
X276290Y304207D01*
X276338Y304196D01*
X276625Y304189D01*
X276663Y304173D01*
X276767D01*
X276870Y304153D01*
X276973Y304173D01*
X277078D01*
X277086Y304176D01*
X279118Y304122D01*
X279163Y304130D01*
X279209Y304127D01*
X279229Y304134D01*
X279248D01*
X279458Y304110D01*
X279539Y304134D01*
X279624D01*
X279819Y304215D01*
X280022Y304273D01*
X280089Y304326D01*
X280167Y304359D01*
X280907Y304034D01*
X283760Y301181D01*
Y293012D01*
X280749Y290001D01*
X280609Y290059D01*
X280021D01*
X279835Y289982D01*
X279724D01*
X279707Y289978D01*
X279528Y290158D01*
X275787D01*
X275000Y289370D01*
Y283858D01*
X275492Y283366D01*
X275000Y282874D01*
Y277362D01*
X275492Y276870D01*
X275000Y276378D01*
Y270866D01*
X274963Y270742D01*
X273718Y270472D01*
X273130D01*
X272441Y271161D01*
X266929D01*
X266240Y270472D01*
X264223D01*
X263436Y270565D01*
X263325Y270964D01*
X263331Y271370D01*
X263475Y271466D01*
X263638Y271710D01*
X263696Y271998D01*
Y273482D01*
X263719Y273530D01*
X264321Y274100D01*
X264772D01*
X264795Y274084D01*
X265256Y273993D01*
X265881D01*
X265903Y273997D01*
X265925Y273993D01*
X266425Y274002D01*
X266525Y274024D01*
X266687Y274045D01*
X266826Y274044D01*
X267294Y274134D01*
X267298Y274136D01*
X267303D01*
X267502Y274219D01*
X268248D01*
X268555Y274280D01*
X268816Y274454D01*
X268990Y274714D01*
X269051Y275022D01*
Y276809D01*
X269429Y277187D01*
Y278762D01*
X269051Y279140D01*
Y279356D01*
X270374Y281958D01*
X270374Y295374D01*
X267556Y298192D01*
X267556Y302300D01*
X269330Y304074D01*
X272083Y304165D01*
X272146Y304153D01*
X272249Y304173D01*
X272353D01*
X272450Y304213D01*
X272553Y304234D01*
X272640Y304292D01*
X272737Y304332D01*
X272811Y304406D01*
X272898Y304464D01*
X272956Y304552D01*
X273030Y304626D01*
X273070Y304722D01*
X273129Y304809D01*
X273146Y304895D01*
X273164Y304913D01*
X273184Y304964D01*
X273216Y305009D01*
X273229Y305071D01*
X273253Y305130D01*
X273268Y305202D01*
X273268Y305261D01*
X273285Y305349D01*
X273319Y305431D01*
X273369Y305505D01*
X273432Y305568D01*
X273506Y305618D01*
X273588Y305652D01*
X273676Y305669D01*
X273735D01*
X273752Y305673D01*
X275095D01*
X275251Y305587D01*
D02*
G37*
G36*
X236221Y288491D02*
X233335Y283677D01*
X230128Y283465D01*
X216929D01*
Y290536D01*
X224409D01*
X224717Y290597D01*
X224977Y290771D01*
X225151Y291031D01*
X225212Y291339D01*
Y298031D01*
X225151Y298339D01*
X224977Y298599D01*
X224717Y298773D01*
X224409Y298834D01*
X219307D01*
Y310221D01*
X222441D01*
X222748Y310282D01*
X223009Y310456D01*
X223183Y310716D01*
X223244Y311024D01*
X236221D01*
Y288491D01*
D02*
G37*
G36*
X139022Y310716D02*
X139196Y310456D01*
X139457Y310282D01*
X139764Y310221D01*
X142898D01*
Y298834D01*
X137795D01*
X137488Y298773D01*
X137228Y298599D01*
X137054Y298339D01*
X136993Y298031D01*
Y291339D01*
X137054Y291031D01*
X137228Y290771D01*
X137402Y290655D01*
Y283465D01*
X129169D01*
X128939Y283602D01*
X128921Y283645D01*
X128871Y283666D01*
X125984Y288046D01*
X125984Y311024D01*
X138961D01*
X139022Y310716D01*
D02*
G37*
G36*
X87210Y301600D02*
X94919Y298782D01*
X101739Y291962D01*
X101794Y291665D01*
X101694Y290627D01*
X101520Y290367D01*
X101459Y290059D01*
Y287303D01*
X101469Y287255D01*
Y279925D01*
X101444Y279834D01*
X101451Y279789D01*
X101442Y279744D01*
X100802Y278642D01*
X96358D01*
Y275590D01*
X91831D01*
Y275984D01*
X91339Y276476D01*
X88386D01*
X87894Y275984D01*
Y275590D01*
X81102D01*
X62596Y284469D01*
X67796Y303131D01*
X87210Y301600D01*
D02*
G37*
G36*
X269291Y281890D02*
X266655Y279254D01*
X265984D01*
X265492Y278762D01*
Y278091D01*
X263779Y276378D01*
Y276304D01*
X263647Y276215D01*
X263440Y275906D01*
X263368Y275541D01*
Y274852D01*
X263440Y274487D01*
X263580Y274278D01*
X263518Y274168D01*
X263375Y274033D01*
X263222Y273959D01*
X262623Y273902D01*
X262559Y273904D01*
X262012Y274043D01*
X261800Y274417D01*
X261855Y274586D01*
X261928Y274951D01*
Y275400D01*
X261985Y275514D01*
X262024Y276061D01*
X261928Y276350D01*
Y276821D01*
X261855Y277186D01*
X261649Y277495D01*
X261339Y277702D01*
X260974Y277774D01*
X260444D01*
X260273Y277906D01*
X260084Y277984D01*
X259974Y278058D01*
X259563Y278233D01*
X258273Y279522D01*
X258190Y279647D01*
X258066Y279730D01*
X255906Y281890D01*
X255906Y285433D01*
X269291D01*
Y281890D01*
D02*
G37*
G36*
X115627Y291214D02*
X116730Y290793D01*
X117025Y290525D01*
X117552Y290025D01*
X118110Y289177D01*
Y271654D01*
X109276D01*
X108823Y271956D01*
X108209Y272078D01*
X107843D01*
X106445Y273476D01*
X106791Y274311D01*
X106791D01*
Y278642D01*
X102362D01*
Y290183D01*
X102377Y290219D01*
X102403Y290250D01*
X102437Y290362D01*
X102481Y290470D01*
Y290511D01*
X102493Y290550D01*
X102569Y291339D01*
X115285D01*
X115627Y291214D01*
D02*
G37*
G36*
X251969Y290090D02*
X251969Y285486D01*
Y279941D01*
X251575D01*
X251191Y279864D01*
X250865Y279647D01*
X250648Y279321D01*
X250571Y278937D01*
Y277362D01*
X250264Y276988D01*
X250197D01*
X249813Y276911D01*
X249487Y276694D01*
X249270Y276368D01*
X249193Y275984D01*
Y274409D01*
X249270Y274025D01*
X249487Y273700D01*
X249813Y273482D01*
X250197Y273406D01*
X251673D01*
Y270669D01*
Y267717D01*
X251969Y267421D01*
Y264567D01*
X252778Y263757D01*
X252736Y263543D01*
Y261653D01*
X252815Y261254D01*
X253042Y260915D01*
X253380Y260689D01*
X253780Y260610D01*
X255669D01*
X255883Y260652D01*
X259194Y257341D01*
X258875Y256359D01*
X258662Y255012D01*
Y253649D01*
X258875Y252303D01*
X259296Y251006D01*
X259915Y249791D01*
X260716Y248688D01*
X261680Y247724D01*
X262783Y246923D01*
X263998Y246304D01*
X265295Y245883D01*
X265748Y245811D01*
X265748Y224720D01*
X258071D01*
X257764Y224659D01*
X257503Y224485D01*
X257329Y224224D01*
X257268Y223917D01*
Y218347D01*
X251851D01*
Y217717D01*
X245630D01*
Y218347D01*
X239725D01*
Y217717D01*
X232283D01*
X232283Y231890D01*
X236200Y235807D01*
X236378D01*
X236592Y235849D01*
X236614Y235827D01*
X238189D01*
X238211Y235849D01*
X238425Y235807D01*
X240315D01*
X240714Y235886D01*
X241053Y236112D01*
X241142Y236246D01*
X242322D01*
X242412Y236112D01*
X242750Y235886D01*
X243150Y235807D01*
X245039D01*
X245439Y235886D01*
X245777Y236112D01*
X246004Y236451D01*
X246083Y236850D01*
Y238740D01*
X246041Y238954D01*
X246063Y238976D01*
Y240551D01*
X246041Y240574D01*
X246083Y240787D01*
Y242677D01*
X246004Y243076D01*
X245777Y243415D01*
X245595Y243537D01*
X244685Y244193D01*
Y245346D01*
X244710Y245472D01*
Y246260D01*
X244685Y246386D01*
Y248327D01*
X239634D01*
X238779Y249114D01*
Y253248D01*
X238780D01*
X238189Y254429D01*
X238189Y259842D01*
X241732Y263386D01*
X244488D01*
X245276Y264173D01*
Y268110D01*
X244488Y268898D01*
X245276Y269685D01*
Y273622D01*
X244488Y274409D01*
X245276Y275197D01*
Y279134D01*
X245602Y279921D01*
X246850D01*
X247638Y280709D01*
Y284646D01*
X247964Y285433D01*
X248819D01*
X249606Y286220D01*
Y290158D01*
X249761Y290531D01*
X251024Y290774D01*
X251969Y290090D01*
D02*
G37*
G36*
X231962Y254897D02*
X232067Y254369D01*
X232366Y253921D01*
X232814Y253622D01*
X233342Y253517D01*
X235151D01*
X236221Y253248D01*
X236221Y252507D01*
Y249114D01*
X236847D01*
X237977Y249081D01*
X238010Y248945D01*
X238038Y248807D01*
X238047Y248793D01*
X238051Y248777D01*
X238134Y248663D01*
X238189Y248581D01*
Y246850D01*
X238121Y246748D01*
X238014Y246211D01*
Y244094D01*
X236614D01*
X236122Y243602D01*
Y240650D01*
X236505Y239961D01*
X236122Y239272D01*
Y236594D01*
X235893Y236548D01*
X235633Y236374D01*
X235633Y236374D01*
X233510Y234252D01*
X232283D01*
X230670Y235866D01*
X230735Y236196D01*
Y239592D01*
X230630Y240120D01*
X230331Y240567D01*
X229883Y240866D01*
X229355Y240971D01*
X225564D01*
X224410Y242126D01*
Y257874D01*
X231962D01*
Y254897D01*
D02*
G37*
G36*
X203697Y248031D02*
X213536Y238193D01*
X214219Y235786D01*
X214248Y235730D01*
X214367Y234825D01*
X214247Y233910D01*
X214177Y233742D01*
X214182Y233741D01*
X210027Y220904D01*
X210009Y220896D01*
X210006Y220889D01*
X208366D01*
Y223130D01*
X207874Y223622D01*
X206299D01*
X206118Y223441D01*
X206102Y223445D01*
X204620D01*
X204596Y223450D01*
X200561Y223647D01*
X200275Y223605D01*
X200271Y223605D01*
X199203Y224272D01*
X199139Y224695D01*
Y226083D01*
X199040Y226582D01*
X199721Y227674D01*
X201531Y228286D01*
X204335Y225483D01*
X210738Y231886D01*
X209873Y232751D01*
X211946Y234825D01*
X209497Y237274D01*
X207423Y235201D01*
X206562Y236062D01*
X201226Y230726D01*
X196891Y229259D01*
X196176Y230199D01*
X198372Y233437D01*
X198373Y233441D01*
X203778Y238845D01*
X203180Y239444D01*
X205253Y241518D01*
X202804Y243968D01*
X200730Y241894D01*
X199602Y243021D01*
X193199Y236618D01*
X195833Y233984D01*
X192079Y228449D01*
X190853Y228746D01*
X190615Y230730D01*
X190556Y231216D01*
X190556Y231216D01*
X190556Y231217D01*
X190556Y231218D01*
X190556Y231219D01*
X190489Y231464D01*
X190433Y231748D01*
X190423Y231764D01*
X190423Y231764D01*
D01*
X190392Y231813D01*
X190423Y231764D01*
X190409Y231786D01*
X190423Y231763D01*
X190388Y231822D01*
X190194Y232210D01*
X189826Y232750D01*
X189814Y232741D01*
X189729Y232826D01*
X188884Y233671D01*
X188885Y233738D01*
X188885Y233738D01*
X188881Y233746D01*
X188212Y234651D01*
Y237099D01*
X188837Y237598D01*
X192126D01*
Y242126D01*
X190039D01*
Y245118D01*
X186575D01*
Y241890D01*
X186575D01*
X187182Y240945D01*
X187205Y240828D01*
Y239377D01*
X186626Y238914D01*
X186582Y238862D01*
X186525Y238824D01*
X186503Y238792D01*
X186448Y238749D01*
X186101Y238297D01*
X185975Y237992D01*
X183088D01*
X183071Y237996D01*
X182421D01*
Y238524D01*
X179193D01*
Y235059D01*
X181890D01*
Y233465D01*
X183574D01*
X183883Y233329D01*
X184651Y232958D01*
X184653Y232954D01*
X184653Y232954D01*
X184897Y232465D01*
X185139Y232150D01*
X185465Y231725D01*
X185466Y231724D01*
X185640Y231534D01*
X185659Y231489D01*
X185572Y230380D01*
X185465Y230142D01*
X185310Y230059D01*
X180873D01*
X180716Y230207D01*
X180716Y230207D01*
X179977Y230904D01*
X179966Y230910D01*
X179959Y230921D01*
X177507Y233342D01*
X177464Y233370D01*
X176920Y234079D01*
X176567Y234932D01*
X176452Y235804D01*
X176460Y235846D01*
Y237736D01*
X176452Y237779D01*
X176567Y238651D01*
X176920Y239503D01*
X177624Y240345D01*
X178474Y241119D01*
X186126Y248031D01*
X203697Y248031D01*
D02*
G37*
G36*
X60903Y137326D02*
X54779Y133790D01*
X51061Y140229D01*
X51038Y140269D01*
X51038Y140269D01*
X50832Y140504D01*
X50551Y140643D01*
X50238Y140663D01*
X49942Y140562D01*
X49942Y140562D01*
X49902Y140540D01*
X44146Y137216D01*
X43910Y137010D01*
X43772Y136729D01*
X43751Y136416D01*
X43852Y136119D01*
X46403Y131700D01*
X36542Y126007D01*
X34975Y128721D01*
X34769Y128957D01*
X34488Y129095D01*
X34175Y129116D01*
X33878Y129015D01*
X27390Y140253D01*
X51257Y154033D01*
X60903Y137326D01*
D02*
G37*
G36*
X334815Y140253D02*
X328326Y129015D01*
X328030Y129116D01*
X328030D01*
D01*
X327717Y129095D01*
X327436Y128957D01*
X327230Y128721D01*
X325663Y126007D01*
X315802Y131700D01*
X318353Y136119D01*
X318454Y136416D01*
Y136416D01*
D01*
X318433Y136729D01*
X318365Y136867D01*
X318295Y137010D01*
X318295Y137010D01*
D01*
X318059Y137216D01*
X312263Y140562D01*
X311966Y140663D01*
X311654Y140643D01*
X311466Y140550D01*
X305239Y144145D01*
X310948Y154033D01*
X334815Y140253D01*
D02*
G37*
G36*
X180807Y73921D02*
X182480Y73921D01*
X182480Y73921D01*
X182878Y73921D01*
X183657Y73766D01*
X184392Y73462D01*
X185053Y73021D01*
X185615Y72459D01*
X186057Y71798D01*
X186361Y71063D01*
X186516Y70283D01*
X186516Y69886D01*
X186516Y63094D01*
X186516Y63094D01*
X186516Y62707D01*
X186364Y61946D01*
X186067Y61230D01*
X185637Y60585D01*
X185089Y60037D01*
X184444Y59606D01*
X183728Y59309D01*
X182967Y59158D01*
X182579Y59157D01*
X180807Y59157D01*
X180807Y59157D01*
X180728Y59157D01*
X180584Y59217D01*
X180473Y59328D01*
X180413Y59473D01*
Y59551D01*
X180413Y73528D01*
D01*
Y73528D01*
Y73528D01*
X180413Y73606D01*
X180473Y73751D01*
X180584Y73861D01*
X180729Y73921D01*
X180807Y73921D01*
D02*
G37*
G36*
X154626Y73922D02*
X154704Y73921D01*
X154849Y73861D01*
X154960Y73751D01*
X155020Y73606D01*
X155020Y73528D01*
X155020Y59551D01*
X155020Y59551D01*
X155020Y59473D01*
X154960Y59328D01*
X154849Y59217D01*
X154704Y59157D01*
X154626Y59157D01*
X152855Y59158D01*
Y59158D01*
X152467Y59158D01*
X151706Y59309D01*
X150990Y59605D01*
X150345Y60036D01*
X149796Y60585D01*
X149365Y61230D01*
X149069Y61946D01*
X148917Y62707D01*
Y63095D01*
X148917Y69984D01*
X148917Y69984D01*
X148917Y70372D01*
X149068Y71132D01*
X149365Y71849D01*
X149796Y72494D01*
X150344Y73042D01*
X150989Y73473D01*
X151706Y73770D01*
X152466Y73921D01*
X152854Y73921D01*
X154626Y73922D01*
X154626Y73922D01*
D02*
G37*
G36*
X106375Y58565D02*
X82508Y44786D01*
X76020Y56024D01*
X76255Y56231D01*
X76394Y56512D01*
X76414Y56824D01*
X76314Y57121D01*
X74747Y59835D01*
X84607Y65528D01*
X87136Y61149D01*
X87159Y61109D01*
X87159Y61109D01*
X87365Y60874D01*
X87646Y60735D01*
X87959Y60715D01*
X88256Y60816D01*
X88256Y60816D01*
X88295Y60838D01*
X94052Y64162D01*
X94287Y64368D01*
X94426Y64649D01*
X94439Y64858D01*
X100666Y68453D01*
X106375Y58565D01*
D02*
G37*
G36*
X268285Y73627D02*
X268376Y73598D01*
X271599Y71737D01*
X267859Y65259D01*
X267859Y65259D01*
X267859Y65259D01*
X267758Y64962D01*
X267779Y64649D01*
X267917Y64368D01*
Y64368D01*
X268153Y64162D01*
X273910Y60838D01*
X273949Y60816D01*
X273949Y60816D01*
X274246Y60715D01*
X274246Y60715D01*
X274558Y60735D01*
X274839Y60874D01*
X275046Y61109D01*
X275046Y61109D01*
X275046Y61109D01*
X275069Y61149D01*
X277597Y65528D01*
X287458Y59835D01*
X285891Y57121D01*
X285891Y57121D01*
X285891Y57121D01*
X285790Y56824D01*
X285811Y56512D01*
X285949Y56231D01*
Y56231D01*
X286075Y56121D01*
X286075Y56121D01*
X286185Y56024D01*
X279697Y44786D01*
X255830Y58565D01*
X265335Y75028D01*
X268285Y73627D01*
D02*
G37*
%LPC*%
G36*
X275295Y303171D02*
X274873Y303087D01*
X274515Y302848D01*
X274424Y302839D01*
X274311Y302951D01*
X273928Y303110D01*
X273513D01*
X273130Y302951D01*
X272933Y302755D01*
X272737Y302951D01*
X272353Y303110D01*
X271938D01*
X271555Y302951D01*
X271261Y302658D01*
X271102Y302274D01*
Y301859D01*
X271167Y301703D01*
X271388Y298817D01*
X271416Y298720D01*
X271484Y298201D01*
X271821Y297387D01*
X272216Y296873D01*
X272251Y296814D01*
X273429Y295515D01*
X273428Y295513D01*
X273482Y295431D01*
X273598Y295354D01*
X273642Y295312D01*
X273819Y295168D01*
Y294962D01*
X274044Y294420D01*
X274459Y294004D01*
X275002Y293779D01*
X275589D01*
X276132Y294004D01*
X276547Y294420D01*
X276772Y294962D01*
Y295550D01*
X277330Y296260D01*
X279429D01*
Y297755D01*
X279626Y298230D01*
Y298484D01*
X279823D01*
Y301319D01*
X278733D01*
X278525Y301820D01*
X278298Y302116D01*
X278239Y302214D01*
X277680Y302817D01*
X277331Y303070D01*
X276913Y303170D01*
X276487Y303102D01*
X276120Y302877D01*
X276098Y302847D01*
X276076Y302848D01*
X275718Y303087D01*
X275295Y303171D01*
D02*
G37*
%LPD*%
D10*
X109467Y268958D02*
G03*
X110143Y270110I-1258J1514D01*
G01*
X165958Y199693D02*
G03*
X166123Y199118I1181J27D01*
G01*
X166877Y197701D02*
G03*
X167211Y197362I992J641D01*
G01*
X166124Y198870D02*
G03*
X166153Y198824I1021J594D01*
G01*
X166122Y198875D02*
G03*
X166096Y198917I-1021J-594D01*
G01*
X79984Y257485D02*
G03*
X80570Y256447I3717J1412D01*
G01*
X84701Y251168D02*
G03*
X85174Y250641I4216J3300D01*
G01*
X77393Y264324D02*
G03*
X77404Y264292I2037J735D01*
G01*
X170998Y202306D02*
G03*
X170310Y201725I361J-1125D01*
G01*
X166060Y203740D02*
G03*
X166114Y203741I0J1181D01*
G01*
X168051Y204021D02*
G03*
X168542Y204925I-689J959D01*
G01*
X167416Y203800D02*
G03*
X168051Y204021I-53J1180D01*
G01*
X168564Y205097D02*
G03*
X168542Y204925I1157J-237D01*
G01*
X267711Y275907D02*
G03*
X267699Y275902I419J-1104D01*
G01*
X267458Y275807D02*
G03*
X267295Y275646I743J-918D01*
G01*
D02*
G03*
X267218Y275544I906J-758D01*
G01*
X266403Y275206D02*
G03*
X266599Y275227I-27J1181D01*
G01*
X265881Y275197D02*
G03*
X265903Y275197I0J1181D01*
G01*
X259723Y276591D02*
G03*
X259426Y276765I-815J-1049D01*
G01*
X255174Y266929D02*
G03*
X255234Y266535I1181J-22D01*
G01*
X254764Y267225D02*
G03*
X255174Y266929I880J788D01*
G01*
X205166Y20856D02*
G03*
X204921Y20136I936J-720D01*
G01*
X205151Y21043D02*
G03*
X205166Y20858I1181J0D01*
G01*
X162302Y63554D02*
G03*
X162293Y63400I1173J-143D01*
G01*
X171638Y14596D02*
G03*
X171246Y14214I607J-1013D01*
G01*
X175437Y16364D02*
G03*
X174115Y16079I-240J-2093D01*
G01*
X201772Y8169D02*
G03*
X202272Y8263I0J1378D01*
G01*
X205215Y10810D02*
G03*
X205315Y10433I1176J109D01*
G01*
X245965Y47146D02*
G03*
X245965Y47157I-1181J-1D01*
G01*
X106299Y279527D02*
G03*
X105618Y279744I-682J-965D01*
G01*
X110144Y270113D02*
X111024Y274803D01*
X110143Y270110D02*
X110144Y270113D01*
X108209Y267913D02*
X109467Y268958D01*
X106595Y267913D02*
X108209D01*
X183110Y102264D02*
X183366Y101673D01*
X183110Y102264D02*
Y102671D01*
X190244Y95472D02*
X190551Y96358D01*
X166123Y199118D02*
X166161Y199053D01*
X166153Y198824D02*
X166877Y197701D01*
X166122Y198875D02*
X166124Y198870D01*
X165945Y200394D02*
X165958Y199693D01*
X167211Y197362D02*
X167225Y197353D01*
X166094Y198920D02*
X166096Y198917D01*
X166060Y198999D02*
X166094Y198920D01*
X79243Y259439D02*
X79984Y257485D01*
X80569Y256447D02*
X84701Y251168D01*
X85174Y250641D02*
X135039Y201870D01*
X77404Y264292D02*
X79243Y259439D01*
X66929Y293307D02*
X68934Y287752D01*
X77393Y264324D01*
X135039Y201870D02*
X135630Y201279D01*
X208760Y222047D02*
X209055Y221654D01*
X208760Y222047D02*
Y222736D01*
X195866Y194488D02*
Y195079D01*
X195374Y193799D02*
X195866Y194488D01*
X195866Y195079D02*
Y197933D01*
X195866Y195079D02*
X195866Y195079D01*
X170308Y201722D02*
X170310Y201725D01*
X170998Y202306D02*
X173524Y202559D01*
X169291Y200787D02*
X170292Y201690D01*
X173480Y202587D02*
X173524Y202559D01*
X170292Y201690D02*
X170308Y201722D01*
X166114Y203741D02*
X167416Y203800D01*
X163622Y203740D02*
X166060D01*
X168661Y205571D02*
X169016Y205807D01*
X168564Y205097D02*
X168661Y205571D01*
X162992Y203720D02*
X163622Y203740D01*
X214941Y53740D02*
X215084Y55078D01*
X189370Y76870D02*
X189489Y78932D01*
X267461Y275907D02*
X267711D01*
X267612Y275868D02*
X267699Y275902D01*
X267458Y275807D02*
X267612Y275868D01*
X267067Y275317D02*
X267218Y275544D01*
X266599Y275227D02*
X267067Y275317D01*
X265903Y275197D02*
X266403Y275206D01*
X265256Y275197D02*
X265881D01*
X195276Y69980D02*
X195473Y67421D01*
X194685Y70374D02*
X195276Y69980D01*
X257087Y277756D02*
X259426Y276765D01*
X256496Y278150D02*
X257087Y277756D01*
X259723Y276591D02*
X260630Y275886D01*
X255174Y266929D02*
X255174Y266929D01*
X254724Y266535D02*
X255234D01*
X254763Y268799D02*
X254921Y269193D01*
X254763Y267227D02*
Y268799D01*
Y267227D02*
X254764Y267225D01*
X254921Y269193D02*
Y272146D01*
X255512Y272736D02*
X257973Y273228D01*
X254921Y272146D02*
X255512Y272736D01*
X255118Y275197D02*
X257973D01*
X205151Y21043D02*
Y21654D01*
X205166Y20858D02*
X205166Y20856D01*
X204921Y17913D02*
Y20136D01*
Y20713D02*
X205166Y20856D01*
X205151Y21654D02*
X205709Y22047D01*
X196438Y31299D02*
X197638D01*
X196438D02*
Y32038D01*
X195276Y23622D02*
Y25394D01*
X162293Y63400D02*
X162338Y60238D01*
X162303Y63554D02*
Y64453D01*
X162302Y63554D02*
X162303D01*
X172146Y62681D02*
X172736Y59474D01*
X172146Y62681D02*
Y63567D01*
Y64453D02*
X173130Y68626D01*
Y69512D01*
X172146Y63567D02*
Y64453D01*
X163287Y68626D02*
Y69512D01*
X162303Y64453D02*
X163287Y68626D01*
X245965Y47146D02*
X245965Y47146D01*
X245950Y48564D02*
X245965Y47157D01*
X245965Y46161D02*
Y47146D01*
X197441Y73032D02*
X198819Y74213D01*
X195276Y70768D02*
X197441Y73032D01*
X194685Y70374D02*
X195276Y70768D01*
X190551Y100295D02*
X193799D01*
X194291Y100394D01*
X106299Y279527D02*
X106299D01*
X102847Y279744D02*
X105618D01*
X195374Y258957D02*
X195965Y259547D01*
X195374Y254527D02*
X195965Y255118D01*
X197047Y255906D01*
X195965Y259547D02*
X200156Y271099D01*
X102847Y279744D02*
X104579Y283268D01*
X161988Y212598D02*
X162816Y213881D01*
X307199Y139862D02*
X307271Y139790D01*
X307087Y139862D02*
X307199D01*
X323285Y138145D02*
Y139181D01*
Y138145D02*
X324059Y137371D01*
X95879Y68871D02*
X95905Y68898D01*
X95965D01*
X208465Y18935D02*
X209842Y20313D01*
X208465Y16339D02*
Y18935D01*
X209842Y20313D02*
Y20472D01*
X214961Y16732D02*
X215945Y17520D01*
X214173Y15945D02*
X214567Y16142D01*
X165059Y264272D02*
Y271555D01*
X165157Y271654D01*
X164961Y264173D02*
X165059Y264272D01*
X239419Y242175D02*
Y246211D01*
X239370Y242126D02*
X239419Y242175D01*
Y246211D02*
X239469Y246260D01*
X165354Y200787D02*
X165945Y200394D01*
X208071Y15945D02*
X208465Y16339D01*
X198308Y85058D02*
X198327Y85078D01*
X196949Y85039D02*
X196968Y85058D01*
X198308D01*
X153339Y71192D02*
X155020Y69512D01*
X157382D01*
X152310Y71192D02*
X153339D01*
X151988Y70870D02*
X152310Y71192D01*
X152677Y62209D02*
X154035Y63567D01*
X156398D01*
X151988Y62209D02*
X152677D01*
X180413Y63567D02*
X182094Y61887D01*
X183123D01*
X178051Y63567D02*
X180413D01*
X183123Y61887D02*
X183445Y62209D01*
X179035Y69512D02*
X181398D01*
X182756Y70870D01*
X183445D01*
X181988Y55610D02*
X182973Y56595D01*
X188780Y61024D01*
X189370Y61614D01*
X188681Y55610D02*
X189665Y56595D01*
X193504Y59744D01*
X257776Y47146D02*
X258253Y47623D01*
X257776Y46161D02*
Y47146D01*
X258253Y47623D02*
Y48115D01*
X258366Y48228D01*
X243322Y47820D02*
X243996Y47146D01*
X243322Y47820D02*
Y48214D01*
X243996Y46161D02*
Y47146D01*
X243209Y48327D02*
X243322Y48214D01*
X201268Y14469D02*
X202716Y15916D01*
X200984Y14469D02*
X201268D01*
X202716Y15916D02*
X202875D01*
X192913Y21299D02*
Y23622D01*
Y21299D02*
X192971Y21242D01*
X203037Y15931D02*
X204907D01*
X204921Y15945D01*
X197835Y23622D02*
X198031Y23425D01*
Y22539D02*
Y23425D01*
X195276Y23622D02*
X197835D01*
X175437Y16364D02*
X180807Y15748D01*
X170473Y12992D02*
X171246Y14214D01*
X171638Y14596D02*
X174115Y16079D01*
X170473Y12303D02*
Y12992D01*
X204528Y222047D02*
X205020Y221654D01*
X200492Y222244D02*
X204528Y222047D01*
X169016Y205807D02*
X169370Y206043D01*
X173524Y206496D01*
X239370Y237795D02*
X244094D01*
X239370D02*
Y242126D01*
X211221Y15945D02*
X214173D01*
X214567Y16142D02*
X214961Y16732D01*
X214567Y12205D02*
Y12402D01*
X214173Y12795D02*
X214567Y12402D01*
X210433Y10236D02*
X211221Y13976D01*
X214173Y12795D01*
X187697Y7579D02*
X188878Y8169D01*
X205315Y9449D02*
X205906Y9843D01*
X188878Y8169D02*
X201772D01*
X187008Y8957D02*
Y12303D01*
X202272Y8263D02*
X205315Y9449D01*
X204921Y13976D02*
X205215Y10810D01*
X168760Y101614D02*
X168996Y101378D01*
X168760Y101614D02*
Y102734D01*
X168996Y101378D02*
X169114D01*
X167717Y103777D02*
X168760Y102734D01*
X167717Y103777D02*
Y103937D01*
X168701Y101083D02*
X168996Y101378D01*
X168701Y98130D02*
Y101083D01*
X209842Y9843D02*
X210433Y10236D01*
X179921Y8661D02*
Y12303D01*
Y8661D02*
X181004Y7579D01*
X187008Y8957D02*
X187697Y7579D01*
X156398Y20965D02*
X160630D01*
X156102Y20669D02*
X156398Y20965D01*
X205315Y10433D02*
X205315Y10433D01*
X290945Y320866D02*
X291535Y320276D01*
X294882Y319685D01*
X295473Y317913D01*
X298622Y329921D02*
X299213Y328150D01*
X285531Y330118D02*
X298622Y329921D01*
X284547Y331496D02*
X285531Y330118D01*
X279134Y331496D02*
X284547D01*
X277165Y332480D02*
X279134Y331496D01*
D11*
X112486Y272367D02*
G03*
X112497Y272344I5336J2529D01*
G01*
X112515Y272306D02*
G03*
X112558Y272218I5320J2565D01*
G01*
X146394Y205555D02*
G03*
X146582Y205203I7729J3909D01*
G01*
X223749Y110068D02*
G03*
X223364Y110959I-7354J-2646D01*
G01*
X109213Y279357D02*
G03*
X109043Y279677I-3209J-1503D01*
G01*
X217923Y120270D02*
G03*
X217221Y121220I-6504J-4080D01*
G01*
X221828Y113986D02*
G03*
X221479Y114601I-6969J-3537D01*
G01*
X226829Y101536D02*
G03*
X233288Y94421I11852J4271D01*
G01*
X109473Y278801D02*
X111287Y274926D01*
X112564Y272207D02*
X146393Y205555D01*
X146394Y205555D01*
X111287Y274926D02*
X112480Y272379D01*
X112486Y272367D01*
X112497Y272344D02*
X112515Y272306D01*
X112558Y272218D02*
X112564Y272207D01*
X109258Y279261D02*
X109473Y278801D01*
X108383Y280777D02*
X108988Y279767D01*
X172918Y172322D02*
X217221Y121220D01*
X146581Y205203D02*
X148118Y202486D01*
X233288Y94421D02*
X269903Y77035D01*
X223749Y110068D02*
X226829Y101536D01*
X108107Y281237D02*
X108383Y280777D01*
X108383Y280777D01*
X217923Y120270D02*
X221479Y114601D01*
X109213Y279357D02*
X109258Y279261D01*
X106299Y284252D02*
X108107Y281237D01*
X108988Y279767D02*
X109043Y279677D01*
X269903Y77035D02*
X272232Y79100D01*
X221828Y113986D02*
X223364Y110959D01*
D12*
X92224Y274946D02*
G03*
X91858Y275399I-1417J-773D01*
G01*
X134323Y273806D02*
G03*
X135835Y273178I1582J1674D01*
G01*
X184252Y106578D02*
G03*
X184711Y105467I1575J0D01*
G01*
X196766Y101985D02*
G03*
X195697Y102813I-1432J-745D01*
G01*
X185248Y104929D02*
G03*
X186221Y104528I972J977D01*
G01*
X118206Y293398D02*
G03*
X117925Y293536I-1530J-2753D01*
G01*
X119977Y291753D02*
G03*
X118206Y293398I-4229J-2777D01*
G01*
X236500Y264073D02*
G03*
X237727Y262869I1738J543D01*
G01*
X213091Y42634D02*
G03*
X213091Y42581I1574J-52D01*
G01*
X213152Y43113D02*
G03*
X213095Y42743I1517J-422D01*
G01*
X188510Y104469D02*
G03*
X187999Y104528I-517J-2244D01*
G01*
X214528Y47577D02*
G03*
X214222Y47015I1023J-923D01*
G01*
X92224Y274946D02*
X94472Y270827D01*
X94665Y270472D01*
X89862Y277165D02*
X90256Y276772D01*
X94665Y270472D02*
X96280D01*
X90256Y276772D02*
X91858Y275399D01*
X135835Y273178D02*
X137402Y273130D01*
X127641Y280124D02*
X134323Y273806D01*
X119977Y291753D02*
X127641Y280124D01*
X184252Y106578D02*
Y108071D01*
X184711Y105467D02*
X185248Y104929D01*
X188510Y104469D02*
X195697Y102813D01*
X196766Y101985D02*
X197441Y100689D01*
X186221Y104528D02*
X187999D01*
X213287Y38267D02*
X216201D01*
X213091Y38189D02*
X213287Y38267D01*
X216201D02*
X216240Y38268D01*
X218221Y53505D02*
X218832Y54343D01*
X220473Y56595D01*
X217830Y52969D02*
X218084Y53317D01*
X218221Y53505D01*
X49468Y321826D02*
X53347D01*
X53543Y321654D01*
X48878Y321850D02*
X49468Y321826D01*
X53740Y321260D02*
X117925Y293536D01*
X53543Y321654D02*
X53740Y321260D01*
X232283Y277559D02*
X236500Y264073D01*
X237727Y262869D02*
X245374Y260630D01*
X246850Y257874D01*
X214528Y47577D02*
X215650Y48819D01*
X216240Y50787D02*
X217830Y52969D01*
X218872Y54314D02*
X220473Y56595D01*
X215945Y49803D02*
X216240Y50787D01*
X220473Y56595D02*
X220571Y58760D01*
X197441Y100689D02*
X197835Y100295D01*
X184252Y108071D02*
Y109843D01*
X213152Y43113D02*
X214222Y47015D01*
X215650Y48819D02*
X215945Y49114D01*
X213091Y42634D02*
X213095Y42743D01*
X213091Y41929D02*
Y42581D01*
D13*
X200142Y123424D02*
G03*
X198032Y124724I-2110J-1061D01*
G01*
X214582Y94146D02*
G03*
X222367Y84580I24099J11661D01*
G01*
X205117Y113672D02*
G03*
X204878Y114125I-7085J-3435D01*
G01*
X239543Y184662D02*
G03*
X239541Y184649I969J-174D01*
G01*
X239548Y184686D02*
G03*
X239543Y184662I964J-198D01*
G01*
X240186Y185417D02*
G03*
X239543Y184662I326J-929D01*
G01*
X236868Y169812D02*
G03*
X236925Y170045I-1823J567D01*
G01*
X233529Y282482D02*
G03*
X234309Y282959I-64J982D01*
G01*
X126159Y279153D02*
G03*
X126547Y278668I2796J1838D01*
G01*
X118506Y290766D02*
G03*
X118500Y290775I-2757J-1790D01*
G01*
D02*
G03*
X117341Y291852I-2752J-1798D01*
G01*
X168716Y194228D02*
G03*
X169141Y194373I-546J2298D01*
G01*
X170980Y194909D02*
G03*
X169983Y194752I-212J-1898D01*
G01*
X168188Y195542D02*
G03*
X169128Y196302I-18J984D01*
G01*
X147248Y195223D02*
G03*
X148273Y195170I889J7229D01*
G01*
X160048Y100859D02*
G03*
X160099Y100581I787J0D01*
G01*
X209055Y77077D02*
G03*
X209027Y77238I-1893J-247D01*
G01*
X209067Y76964D02*
G03*
X209055Y77077I-1905J-135D01*
G01*
X209290Y73646D02*
G03*
X209287Y73855I-1908J74D01*
G01*
X207283Y69567D02*
G03*
X207283Y69529I787J-23D01*
G01*
X207283Y69450D02*
G03*
X207283Y69529I-4134J0D01*
G01*
X185284Y116273D02*
G03*
X185287Y116289I-778J120D01*
G01*
X183464Y118979D02*
G03*
X183465Y119001I-787J23D01*
G01*
X181529Y117488D02*
G03*
X181660Y117780I-821J543D01*
G01*
X181864Y118550D02*
G03*
X181890Y118751I-761J201D01*
G01*
X185287Y116289D02*
G03*
X185282Y116827I-1893J251D01*
G01*
X205517Y115796D02*
G03*
X205755Y115432I1706J857D01*
G01*
X201371Y124046D02*
G03*
X199237Y125903I-3340J-1684D01*
G01*
X188297Y100131D02*
G03*
X188274Y100443I-1909J14D01*
G01*
X193494Y92140D02*
G03*
X194165Y92765I-929J1668D01*
G01*
X191464Y91030D02*
G03*
X191756Y91150I-223J959D01*
G01*
X192098Y91361D02*
G03*
X192097Y91360I618J-1006D01*
G01*
X192142Y91386D02*
G03*
X192098Y91361I575J-1032D01*
G01*
X194270Y92926D02*
G03*
X194376Y93171I-660J430D01*
G01*
X194421Y93358D02*
G03*
X194475Y93810I-1856J450D01*
G01*
X194095Y124724D02*
G03*
X192028Y123506I0J-2362D01*
G01*
X191658Y122839D02*
G03*
X191592Y122690I861J-477D01*
G01*
X204281Y115185D02*
G03*
X204364Y115030I2941J1468D01*
G01*
X204194Y112293D02*
G03*
X203671Y113461I-6162J-2056D01*
G01*
X234054Y61766D02*
G03*
X231968Y64059I-2362J-53D01*
G01*
X203053Y114561D02*
G03*
X203167Y114349I4170J2093D01*
G01*
X198911Y122805D02*
G03*
X198906Y122814I-879J-443D01*
G01*
X215144Y74478D02*
G03*
X215411Y73810I2671J679D01*
G01*
X198906Y122814D02*
G03*
X198032Y123346I-874J-452D01*
G01*
X192958Y122095D02*
G03*
X192913Y121835I743J-261D01*
G01*
X219377Y66758D02*
G03*
X221604Y65276I2572J1450D01*
G01*
X194095Y123346D02*
G03*
X193166Y122688I0J-984D01*
G01*
X209124Y116830D02*
G03*
X209003Y117344I-1901J-176D01*
G01*
X209771Y109950D02*
G03*
X209793Y109822I4608J732D01*
G01*
X209733Y110251D02*
G03*
X209771Y109950I4645J430D01*
G01*
X235102Y77840D02*
G03*
X233972Y79110I-2523J-1108D01*
G01*
X236360Y78403D02*
G03*
X234677Y80294I-3781J-1671D01*
G01*
X211810Y106561D02*
G03*
X212195Y105392I4585J861D01*
G01*
X211093Y110553D02*
G03*
X211149Y110066I3285J128D01*
G01*
X249115Y49449D02*
G03*
X248957Y49892I-3166J-886D01*
G01*
X210986Y113460D02*
G03*
X210985Y113317I1908J-74D01*
G01*
X262982Y38752D02*
G03*
X262931Y38779I-482J-858D01*
G01*
X251421Y48062D02*
G03*
X251391Y48138I-929J-326D01*
G01*
X212495Y110995D02*
G03*
X212503Y110320I1883J-314D01*
G01*
X213166Y106806D02*
G03*
X213435Y105992I3229J616D01*
G01*
X237611Y78980D02*
G03*
X235376Y81481I-5032J-2248D01*
G01*
X209836Y95343D02*
G03*
X209740Y95670I-4521J-1150D01*
G01*
X183255Y91143D02*
G03*
X183537Y91030I505J845D01*
G01*
X195178Y116886D02*
G03*
X195955Y116052I2066J1145D01*
G01*
X232677Y61719D02*
G03*
X231808Y62690I-984J-6D01*
G01*
X230600Y37089D02*
G03*
X231358Y36732I758J627D01*
G01*
X211515Y73309D02*
G03*
X211614Y72978I1871J381D01*
G01*
X215704Y67842D02*
G03*
X215608Y67919I-1531J-1799D01*
G01*
X212595Y70558D02*
G03*
X213200Y69762I1770J717D01*
G01*
X194741Y117706D02*
G03*
X194806Y117558I929J326D01*
G01*
X219139Y64913D02*
G03*
X221445Y63907I2810J3295D01*
G01*
X117341Y291852D02*
G03*
X117149Y291939I-665J-1207D01*
G01*
X119073Y294943D02*
G03*
X118686Y295137I-2396J-4298D01*
G01*
X50355Y324208D02*
G03*
X50256Y324213I-99J-979D01*
G01*
X54817Y323714D02*
G03*
X54444Y323813I-486J-1076D01*
G01*
X127918Y282923D02*
G03*
X128235Y282620I822J542D01*
G01*
X121451Y292735D02*
G03*
X119073Y294943I-5703J-3759D01*
G01*
X47500Y324213D02*
G03*
X47223Y324173I0J-984D01*
G01*
X266580Y311059D02*
G03*
X266642Y311116I-635J752D01*
G01*
X243951Y297855D02*
G03*
X242526Y296671I980J-2628D01*
G01*
X274474Y318692D02*
G03*
X273909Y318411I132J-975D01*
G01*
X251689Y299284D02*
G03*
X254761Y301083I-3657J9771D01*
G01*
X260682Y318690D02*
G03*
X259878Y317978I145J-974D01*
G01*
X169759Y221031D02*
G03*
X170304Y220246I2583J1213D01*
G01*
X171288Y219242D02*
G03*
X171366Y219168I1054J1034D01*
G01*
X172412Y222764D02*
G03*
X173152Y222244I740J268D01*
G01*
X168985Y232105D02*
G03*
X169076Y231848I10995J3741D01*
G01*
X168655Y233273D02*
G03*
X168985Y232105I11325J2574D01*
G01*
X170941Y221781D02*
G03*
X171366Y221137I1402J463D01*
G01*
X167590Y231939D02*
G03*
X167643Y231775I12391J3907D01*
G01*
X172500Y235846D02*
G03*
X174709Y230539I7480J0D01*
G01*
X172772Y228578D02*
G03*
X173287Y228144I2916J2930D01*
G01*
X174709Y230539D02*
G03*
X174917Y230367I980J969D01*
G01*
X173738Y229561D02*
G03*
X174149Y229222I1950J1947D01*
G01*
X171122Y235846D02*
G03*
X173738Y229561I8858J0D01*
G01*
X169744Y235846D02*
G03*
X172772Y228578I10236J0D01*
G01*
X178179Y228121D02*
G03*
X177771Y228453I-1998J-2038D01*
G01*
X171680Y240830D02*
G03*
X171122Y237736I8301J-3094D01*
G01*
X177288Y227059D02*
G03*
X176999Y227311I-1107J-977D01*
G01*
X179257Y227059D02*
G03*
X179183Y227137I-1107J-977D01*
G01*
X173721Y241832D02*
G03*
X172500Y237736I6260J-4095D01*
G01*
X179113Y230064D02*
G03*
X179151Y230027I1793J1826D01*
G01*
X180730Y228539D02*
G03*
X180804Y228478I538J575D01*
G01*
X175256Y235846D02*
G03*
X176661Y232485I4724J0D01*
G01*
X160847Y199829D02*
G03*
X161179Y199482I1535J1136D01*
G01*
X153767Y215256D02*
G03*
X154022Y214049I5535J541D01*
G01*
X155280Y210262D02*
G03*
X155357Y210076I1308J432D01*
G01*
X87794Y253992D02*
G03*
X88917Y253248I1124J476D01*
G01*
X85177Y259311D02*
G03*
X85633Y259089I554J559D01*
G01*
X90807Y253248D02*
G03*
X91094Y253282I0J1221D01*
G01*
X104386Y256532D02*
G03*
X104975Y256871I-292J1185D01*
G01*
X99665Y262787D02*
G03*
X99665Y262795I-1772J8D01*
G01*
Y267913D02*
G03*
X99183Y269128I-1772J0D01*
G01*
X195393Y227481D02*
G03*
X194759Y227059I473J-1398D01*
G01*
X168321Y210007D02*
G03*
X167950Y210573I-959J-223D01*
G01*
X181358Y194515D02*
G03*
X181391Y194607I-1277J518D01*
G01*
X182558Y87268D02*
G03*
X183098Y87346I0J1909D01*
G01*
X178993Y105580D02*
G03*
X179299Y105143I929J326D01*
G01*
X181201Y100728D02*
G03*
X181454Y99984I1221J0D01*
G01*
X181201Y103012D02*
G03*
X180752Y103957I-1221J0D01*
G01*
X252319Y44261D02*
G03*
X252817Y43702I929J326D01*
G01*
X188286Y87032D02*
G03*
X188284Y87001I786J-46D01*
G01*
X188286Y87036D02*
G03*
X188287Y87085I-786J49D01*
G01*
X191465Y79320D02*
G03*
X191394Y80083I-1898J208D01*
G01*
X191383Y80123D02*
G03*
X191393Y80087I764J189D01*
G01*
X190629Y74213D02*
G03*
X190248Y74114I0J-787D01*
G01*
X192530Y69433D02*
G03*
X192674Y69003I1171J154D01*
G01*
X289923Y323029D02*
G03*
X289821Y323018I77J-1218D01*
G01*
X182556Y275179D02*
G03*
X180241Y273254I318J-2737D01*
G01*
X244430Y296563D02*
G03*
X243707Y295960I501J-1336D01*
G01*
X251205Y300574D02*
G03*
X256762Y306653I-3174J8481D01*
G01*
X274173Y296189D02*
G03*
X274278Y296089I729J661D01*
G01*
X272389Y298894D02*
G03*
X272995Y297488I2355J181D01*
G01*
X273762Y299012D02*
G03*
X274415Y298147I982J63D01*
G01*
X273721Y299688D02*
G03*
X273722Y299638I787J0D01*
G01*
X170199Y240755D02*
G03*
X169744Y237736I9781J-3018D01*
G01*
X109486Y261568D02*
G03*
X109487Y264022I-1278J1227D01*
G01*
X99540Y271741D02*
G03*
X99106Y272147I-858J-482D01*
G01*
X100885Y269341D02*
G03*
X100867Y269375I-1220J-641D01*
G01*
X104805Y262971D02*
G03*
X104823Y262953I570J543D01*
G01*
X103412Y264531D02*
G03*
X103698Y264132I1568J824D01*
G01*
X104998Y262103D02*
G03*
X105054Y262402I-731J292D01*
G01*
X101932Y273712D02*
G03*
X102067Y273701I135J776D01*
G01*
X99004Y274407D02*
G03*
X99536Y274129I701J691D01*
G01*
X102854Y273701D02*
G03*
X103001Y273243I787J0D01*
G01*
X283366Y319882D02*
G03*
X283182Y319869I0J-1378D01*
G01*
X309048Y324042D02*
G03*
X308642Y324114I-406J-1109D01*
G01*
X286373Y319722D02*
G03*
X285728Y319882I-645J-1218D01*
G01*
X307067Y324114D02*
G03*
X306992Y324112I0J-1181D01*
G01*
X233737Y281118D02*
G03*
X235489Y282247I-272J2347D01*
G01*
X199492Y16990D02*
G03*
X202368Y19490I-673J3679D01*
G01*
X206354Y25470D02*
G03*
X207072Y26279I-1453J2010D01*
G01*
X207440Y26944D02*
G03*
X207499Y27069I-963J536D01*
G01*
X205547Y26587D02*
G03*
X205924Y27069I-646J893D01*
G01*
X185990Y15906D02*
G03*
X185035Y15498I428J-2323D01*
G01*
X204035Y23794D02*
G03*
X203605Y23212I689J-959D01*
G01*
X199248Y18346D02*
G03*
X201061Y19924I-429J2323D01*
G01*
X192993Y29628D02*
G03*
X193413Y29116I1023J412D01*
G01*
X203224Y24908D02*
G03*
X202298Y23649I1500J-2073D01*
G01*
X199803Y24409D02*
G03*
X199357Y25233I-984J0D01*
G01*
X192014Y37567D02*
G03*
X191846Y37303I2002J-1465D01*
G01*
X191476Y36636D02*
G03*
X191418Y36514I965J-534D01*
G01*
X200369Y110579D02*
G03*
X199036Y112374I-2337J-343D01*
G01*
X204380Y52133D02*
G03*
X204909Y53533I-2264J1657D01*
G01*
X193128Y36756D02*
G03*
X192993Y36514I887J-654D01*
G01*
X205889Y64207D02*
G03*
X205889Y64211I-3920J360D01*
G01*
X203268Y52947D02*
G03*
X203537Y53659I-1152J843D01*
G01*
X205889Y64211D02*
G03*
X205906Y64567I-3921J356D01*
G01*
X187303Y116888D02*
G03*
X187533Y116547I2067J1144D01*
G01*
X186868Y117702D02*
G03*
X186933Y117556I927J329D01*
G01*
X187533Y116547D02*
G03*
X188359Y115897I1837J1485D01*
G01*
X219261Y232097D02*
G03*
X219690Y234681I-8428J2728D01*
G01*
X215328Y233370D02*
G03*
X215378Y236115I-4495J1455D01*
G01*
X210752Y215599D02*
G03*
X215096Y219230I-713J5267D01*
G01*
X216639Y232945D02*
G03*
X216835Y235924I-5806J1879D01*
G01*
X210312Y216939D02*
G03*
X213785Y219654I-273J3928D01*
G01*
X210039Y218307D02*
G03*
X212474Y220078I0J2559D01*
G01*
X217950Y232521D02*
G03*
X218288Y235442I-7117J2303D01*
G01*
X145574Y142157D02*
G03*
X145588Y142150I785J1741D01*
G01*
X145319Y142296D02*
G03*
X145574Y142157I1040J1602D01*
G01*
X192681Y110500D02*
G03*
X192677Y110513I-948J-264D01*
G01*
X192913Y109566D02*
G03*
X192885Y109777I-787J-0D01*
G01*
X192478Y111193D02*
G03*
X192092Y111666I-756J-222D01*
G01*
X196315Y117706D02*
G03*
X196710Y117205I929J326D01*
G01*
X208519Y94927D02*
G03*
X208432Y95239I-3204J-734D01*
G01*
X207186Y94574D02*
G03*
X207126Y94797I-1871J-381D01*
G01*
X201579Y111420D02*
G03*
X200073Y113370I-3548J-1184D01*
G01*
X202888Y111851D02*
G03*
X200825Y114525I-4857J-1615D01*
G01*
X188441Y117706D02*
G03*
X188954Y117140I929J326D01*
G01*
X214487Y107360D02*
G03*
X214675Y106593I1908J62D01*
G01*
X238835Y79618D02*
G03*
X236075Y82669I-6256J-2886D01*
G01*
X205906Y66535D02*
G03*
X205890Y66879I-3937J0D01*
G01*
X189993Y110676D02*
G03*
X189909Y110576I558J-555D01*
G01*
X190412Y111064D02*
G03*
X190252Y110935I533J-827D01*
G01*
X191458Y111713D02*
G03*
X191295Y111633I264J-742D01*
G01*
X204512Y82600D02*
G03*
X204482Y82848I-4167J-365D01*
G01*
X199006Y110377D02*
G03*
X198449Y111128I-974J-140D01*
G01*
X252312Y193291D02*
G03*
X252215Y193251I326J-929D01*
G01*
X186239Y14551D02*
G03*
X185649Y14197I178J-968D01*
G01*
X183481Y14382D02*
G03*
X183286Y14197I574J-799D01*
G01*
X191954Y19625D02*
G03*
X193086Y19336I1017J1616D01*
G01*
X189192Y21433D02*
G03*
X189432Y21217I769J615D01*
G01*
X198878Y19687D02*
G03*
X199803Y20669I-59J982D01*
G01*
X220381Y98036D02*
G03*
X228610Y88665I18300J7771D01*
G01*
X240045Y80282D02*
G03*
X236774Y83856I-7467J-3550D01*
G01*
X247859Y48564D02*
G03*
X247696Y49335I-1909J0D01*
G01*
X217076Y95321D02*
G03*
X226502Y85109I21606J10486D01*
G01*
X218316Y95922D02*
G03*
X227206Y86293I20366J9885D01*
G01*
X253389Y48062D02*
G03*
X253354Y48149I-929J-326D01*
G01*
X210458Y106295D02*
G03*
X210961Y104778I5937J1127D01*
G01*
X215836Y94718D02*
G03*
X225803Y83921I22845J11089D01*
G01*
X255358Y48062D02*
G03*
X255318Y48159I-929J-326D01*
G01*
X197835Y93504D02*
G03*
X198006Y93014I787J0D01*
G01*
X201766Y82359D02*
G03*
X201751Y82474I-1422J-125D01*
G01*
X197545Y59770D02*
G03*
X197604Y59788I-200J762D01*
G01*
X199609Y91003D02*
G03*
X199544Y91092I-987J-648D01*
G01*
X200603Y89199D02*
G03*
X200316Y89926I-1882J-322D01*
G01*
X203150Y66535D02*
G03*
X203145Y66639I-1181J0D01*
G01*
X202898Y63838D02*
G03*
X203150Y64567I-929J729D01*
G01*
X232703Y55384D02*
G03*
X232716Y55623I-1896J226D01*
G01*
X234063Y37376D02*
G03*
X234616Y38767I-1355J1345D01*
G01*
X207377Y183782D02*
G03*
X207462Y183566I1321J391D01*
G01*
X204512Y193460D02*
G03*
X204425Y193709I-2691J-792D01*
G01*
X209668Y208250D02*
G03*
X209666Y208254I-1203J-672D01*
G01*
X237972Y154758D02*
G03*
X237975Y154751I1300J458D01*
G01*
X235336Y162236D02*
G03*
X235334Y162243I-1300J-458D01*
G01*
X209666Y208254D02*
G03*
X209060Y208821I-1201J-675D01*
G01*
X235334Y162243D02*
G03*
X235240Y162450I-1297J-465D01*
G01*
X237975Y154751D02*
G03*
X238073Y154537I1297J465D01*
G01*
X239604Y151824D02*
G03*
X240186Y151276I907J381D01*
G01*
X239603Y151828D02*
G03*
X239567Y151899I-721J-316D01*
G01*
X236866Y153873D02*
G03*
X236869Y153867I2406J1344D01*
G01*
X201695Y210292D02*
G03*
X201245Y210433I-450J-646D01*
G01*
X238451Y151051D02*
G03*
X239368Y150138I2061J1154D01*
G01*
X207852Y205826D02*
G03*
X207850Y205829I-1205J-669D01*
G01*
X240186Y185417D02*
G03*
X239548Y184686I326J-929D01*
G01*
X219554Y96526D02*
G03*
X227905Y87480I19127J9281D01*
G01*
X204517Y64333D02*
G03*
X204528Y64567I-2548J234D01*
G01*
X203139Y82474D02*
G03*
X203118Y82651I-2795J-240D01*
G01*
X231113Y123218D02*
G03*
X230954Y123576I-1326J-374D01*
G01*
X211453Y187915D02*
G03*
X211454Y187912I1231J619D01*
G01*
X215240Y143833D02*
G03*
X215241Y143832I1478J1209D01*
G01*
X189041Y188030D02*
G03*
X189053Y187974I1357J237D01*
G01*
X219127Y172509D02*
G03*
X219177Y172424I703J355D01*
G01*
X173859Y191800D02*
G03*
X173875Y191819I-593J518D01*
G01*
X175649Y191565D02*
G03*
X175938Y191106I1743J779D01*
G01*
X211467Y187887D02*
G03*
X211463Y187895I-1233J-614D01*
G01*
X189296Y186856D02*
G03*
X190095Y185001I5192J1136D01*
G01*
X211429Y187965D02*
G03*
X211453Y187915I1255J569D01*
G01*
X217371Y169853D02*
G03*
X217445Y169724I1231J619D01*
G01*
X217499Y169626D02*
G03*
X217445Y169724I-715J-330D01*
G01*
X208935Y186807D02*
G03*
X208993Y186671I1294J473D01*
G01*
X215495Y167208D02*
G03*
X215585Y167051I1237J607D01*
G01*
X215879Y166597D02*
G03*
X215811Y166711I-1214J-652D01*
G01*
X203219Y192954D02*
G03*
X202561Y193888I-1398J-286D01*
G01*
X213024Y165989D02*
G03*
X213245Y165595I3709J1826D01*
G01*
X205719Y180960D02*
G03*
X205831Y180635I1349J281D01*
G01*
X203062Y203061D02*
G03*
X202650Y203666I-1388J-502D01*
G01*
X204331Y203601D02*
G03*
X204347Y203564I731J293D01*
G01*
X204329Y203605D02*
G03*
X203712Y204557I-2656J-1046D01*
G01*
X232998Y125359D02*
G03*
X232824Y125782I-1343J-307D01*
G01*
X284175Y122704D02*
G03*
X284055Y122051I7679J-1743D01*
G01*
X283307Y116710D02*
G03*
X283297Y116631I4095J-569D01*
G01*
X231097Y128534D02*
G03*
X231019Y128658I-19678J-12343D01*
G01*
X193140Y185426D02*
G03*
X193141Y185425I1139J776D01*
G01*
X219483Y146832D02*
G03*
X219422Y146923I-2775J-1762D01*
G01*
X191987Y187451D02*
G03*
X192371Y186555I2501J541D01*
G01*
X285034Y124897D02*
G03*
X284657Y124157I6819J-3937D01*
G01*
X237529Y105548D02*
G03*
X238681Y104626I1152J259D01*
G01*
X289816Y130637D02*
G03*
X286721Y127818I2871J-6263D01*
G01*
X299008Y134845D02*
G03*
X298924Y134811I326J-929D01*
G01*
X284508Y123821D02*
G03*
X284257Y123063I3779J-1675D01*
G01*
X275886Y104626D02*
G03*
X276724Y104974I0J1181D01*
G01*
X282329Y110580D02*
G03*
X282669Y111280I-833J838D01*
G01*
X236218Y105113D02*
G03*
X238525Y103253I2463J695D01*
G01*
X108425Y106861D02*
G03*
X109684Y109402I-12362J7706D01*
G01*
X192011Y172231D02*
G03*
X191994Y172252I-1067J-872D01*
G01*
X286122Y116942D02*
G03*
X286124Y116952I-1364J197D01*
G01*
X118342Y123964D02*
G03*
X117864Y123184I1736J-1602D01*
G01*
X230601Y112537D02*
G03*
X229844Y114285I-14206J-5115D01*
G01*
X275969Y96359D02*
G03*
X282562Y99121I-83J9448D01*
G01*
X228323Y117282D02*
G03*
X227644Y118481I-13463J-6834D01*
G01*
X261865Y96259D02*
G03*
X262119Y96237I243J1356D01*
G01*
X164438Y189062D02*
G03*
X164436Y189060I568J-545D01*
G01*
X174745Y184632D02*
G03*
X174659Y184736I-1512J-1166D01*
G01*
X233678Y104014D02*
G03*
X237745Y100575I5003J1793D01*
G01*
X275886Y101870D02*
G03*
X278674Y103027I0J3937D01*
G01*
X145669Y270866D02*
G03*
X145702Y270070I9646J0D01*
G01*
X152665Y209393D02*
G03*
X152892Y208845I3924J1301D01*
G01*
X145747Y269540D02*
G03*
X145748Y269531I1373J121D01*
G01*
X145745Y269557D02*
G03*
X145747Y269540I1373J115D01*
G01*
X151023Y214991D02*
G03*
X151407Y213180I8278J807D01*
G01*
X151776Y266340D02*
G03*
X151766Y266424I-2154J-218D01*
G01*
X159660Y201500D02*
G03*
X159868Y201160I2111J1059D01*
G01*
X160517Y283723D02*
G03*
X160668Y283945I-565J549D01*
G01*
X160811Y202344D02*
G03*
X161223Y201742I960J215D01*
G01*
X151181Y270866D02*
G03*
X151219Y270308I4134J0D01*
G01*
X152893Y208841D02*
G03*
X152931Y208772I1229J623D01*
G01*
X151780Y266298D02*
G03*
X151776Y266340I-3528J-329D01*
G01*
X160811Y202344D02*
G03*
X160791Y202415I-767J-177D01*
G01*
X111703Y107118D02*
G03*
X111706Y107126I-1242J596D01*
G01*
X164348Y188966D02*
G03*
X164327Y188943I570J-543D01*
G01*
X224093Y124141D02*
G03*
X222899Y125785I-12674J-7950D01*
G01*
X114609Y132345D02*
G03*
X114587Y132320I1031J-915D01*
G01*
X180992Y228332D02*
G03*
X180911Y228400I-547J-567D01*
G01*
X176813Y241242D02*
G03*
X175256Y237736I3167J-3506D01*
G01*
X207453Y206275D02*
G03*
X207435Y206287I-806J-1118D01*
G01*
X207850Y205829D02*
G03*
X207453Y206275I-1203J-672D01*
G01*
X203842Y219722D02*
G03*
X204134Y219685I292J1144D01*
G01*
X210039D02*
G03*
X211163Y220502I0J1181D01*
G01*
X106474Y157068D02*
G03*
X106467Y157071I-332J-927D01*
G01*
X120473Y118897D02*
G03*
X120473Y118898I-1378J0D01*
G01*
X111727Y107169D02*
G03*
X112260Y108423I-15664J7398D01*
G01*
X111318Y106360D02*
G03*
X111681Y107074I-15255J8207D01*
G01*
X287028Y122705D02*
G03*
X286942Y122444I1259J-559D01*
G01*
X111973Y129239D02*
G03*
X110141Y126135I8106J-6877D01*
G01*
X113847Y131448D02*
G03*
X113847Y131447I599J-511D01*
G01*
X114077Y127459D02*
G03*
X112724Y125174I6002J-5096D01*
G01*
X104344Y110903D02*
G03*
X104350Y110918I-8281J3664D01*
G01*
X102796Y108512D02*
G03*
X104344Y110903I-6733J6055D01*
G01*
X104350Y110918D02*
G03*
X104528Y111353I-8287J3649D01*
G01*
X167914Y189145D02*
G03*
X167966Y189207I-1438J1257D01*
G01*
X117270Y131222D02*
G03*
X117256Y131206I1037J-907D01*
G01*
X228763Y127069D02*
G03*
X227225Y129202I-17343J-10879D01*
G01*
X116222Y125727D02*
G03*
X115288Y124165I3857J-3364D01*
G01*
X286865Y122104D02*
G03*
X286784Y121663I4989J-1144D01*
G01*
X291272Y128258D02*
G03*
X289103Y126432I1415J-3884D01*
G01*
X292618Y125750D02*
G03*
X291494Y125062I70J-1376D01*
G01*
X289817Y122158D02*
G03*
X289513Y121281I2036J-1197D01*
G01*
X275886Y99114D02*
G03*
X280615Y101071I0J6693D01*
G01*
X234972Y104486D02*
G03*
X238228Y101896I3709J1321D01*
G01*
X262155Y99122D02*
G03*
X262303Y99114I149J1370D01*
G01*
X148425Y270866D02*
G03*
X148450Y270288I6890J0D01*
G01*
X149750Y276503D02*
G03*
X148425Y272441I5565J-4062D01*
G01*
X105564Y107551D02*
G03*
X107108Y110383I-9501J7016D01*
G01*
X87161Y91127D02*
G03*
X87112Y91067I586J-526D01*
G01*
X174157Y192163D02*
G03*
X174143Y192147I594J-517D01*
G01*
X261729Y101873D02*
G03*
X261811Y101870I82J1376D01*
G01*
X206301Y32441D02*
G03*
X206299Y32333I2754J-108D01*
G01*
X233012Y36732D02*
G03*
X233705Y37018I0J984D01*
G01*
X230739Y43559D02*
G03*
X231391Y44372I-326J929D01*
G01*
X204528Y66535D02*
G03*
X204517Y66764I-2559J0D01*
G01*
X208010Y40843D02*
G03*
X208011Y40857I-3286J102D01*
G01*
X207282Y63662D02*
G03*
X207283Y63779I-4132J118D01*
G01*
X206632Y40869D02*
G03*
X206633Y40890I-1908J75D01*
G01*
X229005Y121428D02*
G03*
X228869Y121713I-1303J-447D01*
G01*
X226428Y125605D02*
G03*
X225122Y127421I-15008J-9414D01*
G01*
X286219Y106675D02*
G03*
X288145Y110650I-4723J4742D01*
G01*
X186975Y168771D02*
G03*
X187015Y168721I1097J834D01*
G01*
X288177Y104736D02*
G03*
X289679Y106693I-6681J6681D01*
G01*
X286037Y116337D02*
G03*
X286033Y116298I1364J-195D01*
G01*
X287429Y123533D02*
G03*
X287174Y123034I4425J-2572D01*
G01*
X284280Y108633D02*
G03*
X285407Y110965I-2784J2784D01*
G01*
X296252Y130072D02*
G03*
X296241Y130068I326J-929D01*
G01*
X144580Y280739D02*
G03*
X144582Y280883I-3934J143D01*
G01*
X163615Y225813D02*
G03*
X163603Y225834I-1263J-665D01*
G01*
X144291Y270866D02*
G03*
X144317Y270113I11024J0D01*
G01*
X144299Y272847D02*
G03*
X144291Y272441I11016J-406D01*
G01*
X156509Y215530D02*
G03*
X156637Y214918I2792J267D01*
G01*
X152351Y275323D02*
G03*
X151181Y272441I2964J-2882D01*
G01*
X171105Y211597D02*
G03*
X171360Y211299I1238J805D01*
G01*
X170999Y211791D02*
G03*
X171105Y211597I1344J611D01*
G01*
X171953Y210769D02*
G03*
X171920Y210800I-557J-557D01*
G01*
X205403Y204559D02*
G03*
X204696Y205522I-3730J-2000D01*
G01*
X238444Y144763D02*
G03*
X240512Y143543I2067J1142D01*
G01*
X252312Y147622D02*
G03*
X252130Y147536I326J-929D01*
G01*
X202728Y207529D02*
G03*
X202650Y207603I-1054J-1034D01*
G01*
X244843Y143543D02*
G03*
X246061Y143882I0J2362D01*
G01*
X240035Y149769D02*
G03*
X240204Y149695I477J861D01*
G01*
X146405Y276136D02*
G03*
X145669Y272441I8910J-3695D01*
G01*
X187008Y234252D02*
G03*
X187364Y233494I984J0D01*
G01*
X186601Y232318D02*
G03*
X187405Y231407I12388J10123D01*
G01*
X186601Y232318D02*
G03*
X186494Y232425I-610J-498D01*
G01*
X185789Y233400D02*
G03*
X186494Y232426I2203J852D01*
G01*
X185789Y233400D02*
G03*
X185786Y233407I-734J-285D01*
G01*
X185781Y233420D02*
G03*
X185786Y233407I736J279D01*
G01*
X187556Y233316D02*
G03*
X187364Y233494I-1566J-1496D01*
G01*
X187979Y232873D02*
G03*
X187989Y232863I569J544D01*
G01*
X187644Y230859D02*
G03*
X187405Y231407I-888J-61D01*
G01*
X185630Y234271D02*
G03*
X185780Y233423I2362J-19D01*
G01*
X185630Y234271D02*
G03*
X185351Y234882I-787J10D01*
G01*
X189112Y231680D02*
G03*
X188963Y231889I-707J-347D01*
G01*
X189361Y231073D02*
G03*
X189286Y231327I-782J-93D01*
G01*
X187377Y237973D02*
G03*
X187008Y237205I616J-768D01*
G01*
X187378Y237973D02*
G03*
X187377Y237973I615J-769D01*
G01*
X202728Y205561D02*
G03*
X202650Y205635I-1054J-1034D01*
G01*
X216395Y107422D02*
X220381Y98036D01*
X205117Y113672D02*
X214582Y94146D01*
X200142Y123424D02*
X204281Y115185D01*
X239540Y184644D02*
X239543Y184662D01*
X236925Y170045D02*
X239540Y184644D01*
X236162Y167542D02*
X236868Y169812D01*
X240186Y185417D02*
X240906Y185669D01*
X242677D01*
X256762Y306653D02*
X259878Y317978D01*
X243951Y297855D02*
X251205Y300574D01*
X126547Y278668D02*
X142323Y262303D01*
X118506Y290766D02*
X126159Y279153D01*
X52344Y315625D02*
X52355Y315621D01*
X117149Y291939D01*
X49862Y316535D02*
X52344Y315625D01*
X180118Y196752D02*
Y197933D01*
X177392Y192344D02*
X180118Y196752D01*
X176053Y194343D02*
X178150Y196752D01*
X174969Y193096D02*
X176053Y194343D01*
X164250Y193166D02*
X168716Y194228D01*
X169141Y194373D02*
X169983Y194752D01*
X170980Y194909D02*
X176053Y194343D01*
X169128Y196302D02*
X169272Y196920D01*
X136417Y196555D02*
X147248Y195223D01*
X169272Y196920D02*
X169858Y197299D01*
X169272Y196920D02*
X169823Y197353D01*
X148273Y195170D02*
X168188Y195542D01*
X169858Y197299D02*
X169941Y197353D01*
X135630Y197343D02*
X136417Y196555D01*
X160099Y100581D02*
X160728Y98917D01*
X160646Y96659D02*
X160827Y98130D01*
X160728Y98917D02*
X160827Y98130D01*
X160048Y100859D02*
Y102058D01*
X159744Y102362D02*
X160048Y102058D01*
X209067Y76964D02*
X209286Y73860D01*
X209287Y73855D01*
X205315Y94193D02*
X208160Y81199D01*
X209027Y77238D01*
X207776Y33268D02*
X208010Y40843D01*
X207283Y69529D02*
X207283Y69529D01*
X207283Y69567D02*
X207382Y73721D01*
X208011Y40857D02*
X209290Y73646D01*
X185287Y116289D02*
X185287Y116289D01*
X183465Y119001D02*
X183465Y119001D01*
X181890Y118751D02*
Y120197D01*
X183394Y116540D02*
X183464Y118979D01*
X180837Y116442D02*
X181529Y117488D01*
X181890Y118751D02*
X181890Y118751D01*
X184815Y113127D02*
X185284Y116273D01*
X183465Y119001D02*
Y120197D01*
X181660Y117780D02*
X181864Y118550D01*
X145588Y142150D02*
X186319Y124409D01*
X189370Y123749D02*
X189764Y123356D01*
Y120197D02*
Y123356D01*
X146358Y143898D02*
X199237Y125903D01*
X201371Y124046D02*
X205517Y115796D01*
X189370Y123749D02*
Y124016D01*
X181454Y99984D02*
X182579Y98524D01*
X183366Y97736D02*
X184154Y96949D01*
X184188Y93356D01*
X188250Y93359D02*
X188287Y92421D01*
X188297Y93405D02*
Y100131D01*
X187993Y102225D02*
Y102225D01*
Y102225D02*
X188274Y100443D01*
X188287Y92421D02*
X188297Y93405D01*
X186142Y97244D02*
X186673Y93405D01*
X186713Y92421D01*
X184188Y92461D02*
X184646Y92421D01*
X184188Y92461D02*
Y93356D01*
X190512Y92461D02*
Y95571D01*
X190847Y90886D02*
X191464Y91030D01*
X192097Y91360D02*
X192098Y91361D01*
X191756Y91150D02*
X192097Y91360D01*
X194165Y92765D02*
X194270Y92926D01*
X192142Y91386D02*
X193494Y92140D01*
X194475Y93810D02*
Y95571D01*
X194390Y96358D02*
X194475Y95571D01*
X194376Y93171D02*
X194421Y93358D01*
X190354Y90846D02*
X190847Y90886D01*
X190354Y92421D02*
X190512Y92461D01*
X191658Y122839D02*
X192028Y123506D01*
X204194Y112293D02*
X204195Y112287D01*
X231964Y64059D02*
X231968Y64059D01*
X192958Y122095D02*
X193166Y122688D01*
X194095Y123346D02*
X198032D01*
X191339Y120197D02*
Y121969D01*
X198910Y122805D02*
X203053Y114561D01*
X203167Y114349D02*
X203671Y113461D01*
X215411Y73810D02*
X219377Y66758D01*
X234054Y61766D02*
X234616Y38767D01*
X221604Y65276D02*
X231964Y64059D01*
X204195Y112287D02*
X209740Y95670D01*
X192913Y120197D02*
Y121835D01*
X209124Y116830D02*
X209733Y110251D01*
X205755Y115432D02*
X207263Y113621D01*
X191339Y121969D02*
X191592Y122690D01*
X225803Y83921D02*
X233966Y79113D01*
X204364Y115030D02*
X204878Y114125D01*
X233966Y79113D02*
X233972Y79110D01*
X235102Y77840D02*
X247696Y49335D01*
X208349Y119031D02*
X209003Y117344D01*
X226502Y85109D02*
X234677Y80294D01*
X211149Y110066D02*
X211810Y106561D01*
X236360Y78403D02*
X248957Y49892D01*
X210986Y113460D02*
X211092Y116333D01*
X249115Y49449D02*
X249705Y47343D01*
X212195Y105392D02*
X217076Y95321D01*
X252817Y43702D02*
X262931Y38779D01*
X212495Y110995D02*
X212894Y113386D01*
X213435Y105992D02*
X218316Y95922D01*
X210985Y113317D02*
X211093Y110553D01*
X212503Y110320D02*
X213166Y106806D01*
X227206Y86293D02*
X235376Y81481D01*
X237611Y78980D02*
X251391Y48138D01*
X251421Y48062D02*
X251673Y47343D01*
X262982Y38752D02*
X265679Y37237D01*
X209836Y95343D02*
X215144Y74478D01*
X179626Y88090D02*
X180272Y87352D01*
X180315Y87303D01*
X182156Y91800D02*
X183255Y91143D01*
X180217Y91240D02*
X180807Y91800D01*
X182156D01*
X183537Y91030D02*
X184154Y90886D01*
X184646Y90846D01*
X230020Y37795D02*
X230600Y37089D01*
X221445Y63907D02*
X231808Y62690D01*
X213200Y69762D02*
X215608Y67919D01*
X232677Y61719D02*
X232716Y55623D01*
X196710Y117205D02*
X200825Y114525D01*
X211614Y72978D02*
X212595Y70558D01*
X194806Y117558D02*
X195178Y116886D01*
X215704Y67842D02*
X219139Y64913D01*
X195955Y116052D02*
X200073Y113370D01*
X221654Y39665D02*
X224311Y42323D01*
X218996Y39665D02*
X221654D01*
X121451Y292735D02*
X127918Y282923D01*
X50355Y324208D02*
X54444Y323813D01*
X54817Y323714D02*
X118686Y295137D01*
X128235Y282620D02*
X138189Y276673D01*
X48878Y317520D02*
X49862Y316535D01*
X47500Y324213D02*
X50256D01*
X41673Y321850D02*
X42658Y322835D01*
X47223Y324173D01*
X266642Y311116D02*
X273909Y318411D01*
X163484Y277854D02*
X233529Y282482D01*
X254761Y301083D02*
X266580Y311059D01*
X260682Y318690D02*
X289821Y323018D01*
X274474Y318692D02*
X283182Y319869D01*
X244430Y296563D02*
X251689Y299284D01*
X105748Y204567D02*
X105788Y204527D01*
X103976Y204567D02*
X105748D01*
X105788Y204527D02*
X107874D01*
X161811Y263386D02*
X168655Y233273D01*
X160236Y264961D02*
X161024Y264173D01*
X160236Y270866D02*
X160236Y264961D01*
X160236Y270866D02*
Y271654D01*
X157677Y246752D02*
X169759Y221031D01*
X170304Y220246D02*
X171288Y219242D01*
X171366Y219168D02*
X172343Y218307D01*
X169076Y231848D02*
X172412Y222764D01*
X172343Y218307D02*
X173524D01*
X173152Y222244D02*
X173524D01*
X171366Y221137D02*
X172343Y220276D01*
X167643Y231775D02*
X170940Y221781D01*
X155315Y270866D02*
X167590Y231939D01*
X155315Y270866D02*
Y271654D01*
X172343Y220276D02*
X173524D01*
X174917Y230367D02*
X177771Y228453D01*
X174149Y229222D02*
X176999Y227311D01*
X174709Y230539D02*
X174709Y230539D01*
X171122Y235846D02*
Y237736D01*
X173287Y228144D02*
X176181Y226083D01*
X172500Y235846D02*
Y237736D01*
X161024Y264173D02*
X161811Y263386D01*
X172772Y228578D02*
X172772Y228578D01*
X169744Y235846D02*
Y237736D01*
X176181Y224902D02*
Y226083D01*
X171680Y240830D02*
X182874Y270866D01*
Y271654D01*
X178179Y228121D02*
X179183Y227137D01*
X178150Y224902D02*
Y226083D01*
X177288Y227059D02*
X178150Y226083D01*
X173721Y241832D02*
X192717Y270866D01*
Y271654D01*
X179257Y227059D02*
X180118Y226083D01*
Y224902D02*
Y226083D01*
X180804Y228478D02*
X180911Y228399D01*
X176661Y232485D02*
X179113Y230064D01*
X179890Y229331D02*
X180730Y228539D01*
X159868Y201160D02*
X160733Y199984D01*
X161179Y199482D02*
X162576Y198348D01*
X160733Y199984D02*
X160847Y199829D01*
X155357Y210076D02*
X159660Y201500D01*
X154022Y214049D02*
X155280Y210262D01*
X148491Y269790D02*
X153767Y215256D01*
X169941Y197353D02*
X170374Y197786D01*
X130807Y197343D02*
X134843D01*
X135630Y197343D01*
X161223Y201742D02*
X162382Y200965D01*
X84646Y263779D02*
Y269488D01*
X84252Y269882D02*
X84646Y269488D01*
X88917Y253248D02*
X90807D01*
X85176Y259312D02*
X85177Y259311D01*
X85633Y259089D02*
X87794Y253992D01*
X91094Y253282D02*
X104386Y256532D01*
X84646Y259842D02*
X85176Y259312D01*
X85433Y277280D02*
X89075D01*
X98287Y270079D02*
X99183Y269128D01*
X99665Y259449D02*
Y262787D01*
X89075Y277280D02*
X89862Y277165D01*
X99665Y262795D02*
Y267913D01*
X84252Y276575D02*
X85433Y277280D01*
X96280Y270472D02*
X98287Y270079D01*
X99213Y258661D02*
X99665Y259449D01*
X164173Y24016D02*
Y24803D01*
X164173Y22539D02*
X164173Y24016D01*
X185827Y21358D02*
Y23622D01*
X168110Y12303D02*
X168123Y13189D01*
Y14132D01*
X175197Y12303D02*
Y14272D01*
X166407Y207355D02*
X166417Y205807D01*
X166407Y207355D02*
Y208524D01*
X166417Y208957D01*
X176969Y56224D02*
X176970Y55300D01*
X181201Y103012D02*
X181201Y100728D01*
X178740Y106299D02*
X178993Y105580D01*
X182579Y98524D02*
X183366Y97736D01*
X178937Y100686D02*
X179035Y102067D01*
X222367Y84580D02*
X232579Y76732D01*
Y75945D02*
Y76732D01*
X177756Y77165D02*
X177756Y77165D01*
X177756Y75984D02*
Y77165D01*
X157973Y76968D02*
X157973Y76968D01*
X157973Y75984D02*
Y76968D01*
X252220Y44546D02*
X252319Y44261D01*
X265679Y37237D02*
X267084Y35686D01*
X252067Y44980D02*
X252220Y44546D01*
X251870Y46161D02*
X252067Y44980D01*
X188286Y87032D02*
X188286Y87036D01*
X188189Y81693D02*
X188284Y87001D01*
X191393Y80087D02*
X191394Y80083D01*
X190157Y84941D02*
X191383Y80123D01*
X185630Y76279D02*
X186673Y86713D01*
X186713Y87697D01*
X188287Y87085D02*
X188287Y87085D01*
Y87697D01*
X191240Y77264D02*
X191465Y79320D01*
X191142Y76870D02*
X191240Y77264D01*
X190629Y74213D02*
X190629Y74213D01*
X191902D01*
X194291D01*
X191902D02*
X192530Y69433D01*
X192674Y69003D02*
X192805Y68772D01*
X192805Y68772D01*
X193405Y67716D02*
X193504Y67421D01*
X192805Y68772D02*
X193405Y67716D01*
X192805Y68772D02*
X192805D01*
X179231Y88476D02*
X179626Y88090D01*
X234309Y282959D02*
X242526Y296671D01*
X235489Y282247D02*
X243707Y295960D01*
X274278Y296089D02*
X275295Y295256D01*
X272995Y297488D02*
X274173Y296189D01*
X273721Y299688D02*
Y302067D01*
X274415Y298147D02*
X275295Y297835D01*
X272146Y302067D02*
X272389Y298894D01*
X273722Y299638D02*
X273744Y299296D01*
X273762Y299012D01*
X275295Y297835D02*
X275689Y297539D01*
X89961Y264370D02*
X90748Y265158D01*
X182556Y275179D02*
X233737Y281118D01*
X283366Y319882D02*
X285728D01*
X307067Y324114D02*
X308642D01*
X290158Y317717D02*
X290945Y316929D01*
X309048Y324042D02*
X312343Y322835D01*
X286373Y319722D02*
X290158Y317717D01*
X312343Y322835D02*
X313327Y321850D01*
X289923Y323029D02*
X306992Y324112D01*
X170199Y240755D02*
X180241Y273254D01*
X202067Y28500D02*
X204626D01*
X201476Y28445D02*
X202067Y28500D01*
X204626D02*
Y28740D01*
X209350Y28579D02*
X212008D01*
X212598Y28543D01*
X209350Y28579D02*
Y28740D01*
Y32445D02*
X212008D01*
X209350Y32283D02*
Y32445D01*
X212008D02*
X212598Y32480D01*
X204035Y35728D02*
X204626Y33268D01*
X203445Y36516D02*
X204035Y35728D01*
X204626Y32283D02*
Y33268D01*
X204035Y23794D02*
X206354Y25470D01*
X186239Y14551D02*
X199492Y16990D01*
X207072Y26279D02*
X207440Y26944D01*
X203224Y24908D02*
X205547Y26587D01*
X206201Y27756D02*
Y28740D01*
X207499Y27069D02*
X207776Y27756D01*
Y28740D01*
X185990Y15906D02*
X199248Y18346D01*
X202368Y19490D02*
X203605Y23212D01*
X189432Y21217D02*
X191954Y19625D01*
X199803Y20669D02*
Y24409D01*
X183481Y14382D02*
X185035Y15498D01*
X201061Y19924D02*
X202298Y23649D01*
X205924Y27069D02*
X206201Y27756D01*
X194291Y35149D02*
X197047D01*
X197638Y35236D01*
X194291Y34843D02*
Y35149D01*
Y31299D02*
X196438D01*
X190748Y24803D02*
X191142Y30315D01*
Y31299D01*
X190551Y23622D02*
X190748Y24803D01*
X192717Y30315D02*
X192993Y29628D01*
X192717Y30315D02*
Y31299D01*
X191476Y36636D02*
X191846Y37303D01*
X191142Y35827D02*
X191418Y36514D01*
X204909Y53533D02*
X205889Y64207D01*
X199028Y112378D02*
X199036Y112374D01*
X193128Y36756D02*
X204380Y52133D01*
X192717Y34843D02*
Y35827D01*
X191142Y34843D02*
Y35827D01*
X192014Y37567D02*
X203268Y52947D01*
X188954Y117140D02*
X199028Y112378D01*
X200369Y110579D02*
X204482Y82848D01*
X192717Y35827D02*
X192993Y36514D01*
X186865Y117711D02*
X186868Y117702D01*
X186614Y118425D02*
X186865Y117711D01*
X186933Y117556D02*
X187303Y116888D01*
X199006Y110377D02*
X203118Y82651D01*
X203139Y82474D02*
X204517Y66764D01*
X186909Y30977D02*
X189567D01*
Y31299D01*
X186319Y30906D02*
X186909Y30977D01*
X188878Y38780D02*
X189469Y37992D01*
X189567Y34843D02*
Y35827D01*
X189469Y37992D02*
X189567Y35827D01*
X194095Y124724D02*
X198032D01*
X205512Y270866D02*
X215378Y236115D01*
X219690Y234681D02*
X220276Y270866D01*
Y271654D01*
X210433Y270866D02*
X216835Y235924D01*
X205512Y270866D02*
Y271654D01*
X213785Y219654D02*
X217950Y232521D01*
X215354Y270866D02*
X218288Y235442D01*
X212474Y220078D02*
X216639Y232945D01*
X210433Y270866D02*
Y271654D01*
X215096Y219230D02*
X219261Y232097D01*
X215354Y270866D02*
Y271654D01*
X185039Y118425D02*
Y120197D01*
X186614Y108071D02*
Y111308D01*
X192681Y110500D02*
X192885Y109777D01*
X192913Y108071D02*
Y109566D01*
X192478Y111193D02*
X192677Y110513D01*
X191785Y111830D02*
X192092Y111666D01*
X192913Y109566D02*
X192913Y109566D01*
X191091Y66962D02*
X191280Y67151D01*
X189370Y65551D02*
X190781Y66962D01*
X191091D01*
X194488Y118425D02*
X194741Y117706D01*
X207186Y94574D02*
X211515Y73309D01*
X201579Y111420D02*
X207126Y94797D01*
X208519Y94927D02*
X213386Y73690D01*
X202888Y111851D02*
X208432Y95239D01*
X204528Y64567D02*
Y66535D01*
X204512Y82600D02*
X205890Y66879D01*
X227905Y87480D02*
X236075Y82669D01*
X214378Y110681D02*
X214487Y107360D01*
X238835Y79618D02*
X253354Y48149D01*
X197638Y119162D02*
X198182D01*
X197638D02*
Y120197D01*
X189764Y110371D02*
X189909Y110576D01*
X189993Y110676D02*
X190252Y110935D01*
X191458Y111713D02*
X191785Y111830D01*
X190412Y111064D02*
X191295Y111633D01*
X189764Y108071D02*
Y110371D01*
X206301Y32441D02*
X206632Y40869D01*
X203537Y53659D02*
X204517Y64333D01*
X246752Y190650D02*
X252215Y193251D01*
X252312Y193291D02*
X253032Y193543D01*
X254803D01*
X165256Y69512D02*
X165404Y69364D01*
Y66880D02*
Y69364D01*
Y66880D02*
X165551Y66732D01*
X169803Y57894D02*
X170030Y58120D01*
X169580Y57894D02*
X169803D01*
X164370Y9252D02*
X164665Y8957D01*
X177559Y9843D02*
Y12303D01*
X176673Y8957D02*
X177559Y9843D01*
X164665Y8957D02*
X176673D01*
X209793Y109822D02*
X210458Y106295D01*
X251673Y47343D02*
X251870Y46161D01*
X253642Y47343D02*
X253839Y46161D01*
X228610Y88665D02*
X236774Y83856D01*
X249705Y47343D02*
X249902Y46161D01*
X253389Y48062D02*
X253642Y47343D01*
X255358Y48062D02*
X255610Y47343D01*
X240045Y80282D02*
X255318Y48159D01*
X255610Y47343D02*
X255807Y46161D01*
X247859Y47343D02*
X247933Y46161D01*
X210961Y104778D02*
X215836Y94718D01*
X194095Y55315D02*
X195423Y56840D01*
X197539Y59770D02*
X197545D01*
X203150Y64567D02*
Y66535D01*
X196063Y118425D02*
Y120197D01*
Y118425D02*
X196315Y117706D01*
X231391Y44372D02*
X232703Y55384D01*
X230020Y43307D02*
X230739Y43559D01*
X194488Y118425D02*
Y120197D01*
X213245Y165595D02*
X223178Y149991D01*
X204512Y193460D02*
X207377Y183782D01*
X207462Y183566D02*
X215495Y167208D01*
X201673Y200591D02*
X204425Y193709D01*
X215585Y167051D02*
X215811Y166711D01*
X239603Y151828D02*
X239604Y151824D01*
X239283Y152402D02*
X239567Y151899D01*
X209668Y208250D02*
X235240Y162450D01*
X235336Y162236D02*
X237972Y154758D01*
X238073Y154537D02*
X239283Y152402D01*
X201695Y210292D02*
X203320Y209159D01*
X201245Y210433D02*
X201245Y210433D01*
X236869Y153867D02*
X238451Y151051D01*
X200492Y210433D02*
X201245D01*
X201673Y212402D02*
X209060Y208821D01*
X207852Y205826D02*
X236866Y153873D01*
X203320Y209159D02*
X207435Y206287D01*
X229724Y43209D02*
X230020Y43307D01*
X247859Y47343D02*
Y48564D01*
X214675Y106593D02*
X219554Y96526D01*
X174969Y193096D02*
X175649Y191565D01*
X190095Y185001D02*
X190174Y184885D01*
X109684Y109402D02*
X115288Y124165D01*
X215334Y147130D02*
X216718Y145042D01*
X190174Y184885D02*
X215334Y147130D01*
X192011Y172231D02*
X215240Y143833D01*
X188051Y193701D02*
X189041Y188030D01*
X189053Y187974D02*
X189053Y187970D01*
X189293Y186873D01*
X211454Y187912D02*
X211463Y187895D01*
X219177Y172424D02*
X220511Y170420D01*
X211470Y187881D02*
X219127Y172509D01*
X211467Y187887D02*
X211470Y187881D01*
X189293Y186873D02*
X189296Y186856D01*
X286037Y116337D02*
X286122Y116942D01*
X203062Y203061D02*
X208935Y186807D01*
X208993Y186671D02*
X217371Y169853D01*
X217499Y169626D02*
X220866Y162401D01*
X203219Y192954D02*
X205719Y180960D01*
X197835Y196752D02*
X202561Y193888D01*
X205831Y180635D02*
X213024Y165989D01*
X215879Y166597D02*
X221324Y156465D01*
X200492Y200591D02*
X201673D01*
Y204528D02*
X202650Y203666D01*
X204347Y203564D02*
X211429Y187965D01*
X204329Y203605D02*
X204331Y203601D01*
X219483Y146832D02*
X231019Y128658D01*
X232998Y125359D02*
X237529Y105548D01*
X284175Y122704D02*
X284257Y123063D01*
X283307Y116710D02*
X284055Y122051D01*
X193141Y185425D02*
X219422Y146923D01*
X231097Y128534D02*
X232824Y125782D01*
X189961Y196752D02*
X191987Y187451D01*
X285034Y124897D02*
X286721Y127818D01*
X300659Y135424D02*
X304515Y135017D01*
X276724Y104974D02*
X282329Y110580D01*
X192371Y186555D02*
X193140Y185426D01*
X282669Y111280D02*
X283297Y116631D01*
X238681Y104626D02*
X275886Y104626D01*
X284508Y123821D02*
X284657Y124157D01*
X289816Y130637D02*
X298924Y134811D01*
X189961Y196752D02*
Y197933D01*
X299008Y134845D02*
X300659Y135424D01*
X286124Y116952D02*
X286784Y121663D01*
X286865Y122104D02*
X286942Y122444D01*
X178150Y196752D02*
Y197933D01*
X177165Y123436D02*
X177205Y123475D01*
X162992Y124016D02*
X163091Y124114D01*
X118342Y123964D02*
X173233Y183466D01*
X174745Y184632D02*
X186975Y168771D01*
X228323Y117282D02*
X229844Y114285D01*
X237745Y100575D02*
X261865Y96259D01*
X282562Y99121D02*
X288177Y104736D01*
X224093Y124141D02*
X227644Y118481D01*
X262119Y96237D02*
X275969Y96359D01*
X164348Y188966D02*
X164436Y189060D01*
X164438Y189062D02*
X166140Y190836D01*
X173031Y186614D02*
X174659Y184736D01*
X230601Y112537D02*
X233678Y104014D01*
X116222Y125727D02*
X173859Y191800D01*
X174157Y192163D02*
X174969Y193096D01*
X228763Y127069D02*
X230954Y123576D01*
X215241Y143832D02*
X227225Y129202D01*
X231113Y123218D02*
X236218Y105113D01*
X145748Y269531D02*
X151023Y214991D01*
X152892Y208845D02*
X152893Y208841D01*
X145702Y270070D02*
X145745Y269557D01*
X145747Y269540D02*
X145747Y269540D01*
X151407Y213180D02*
X152665Y209393D01*
X152931Y208772D02*
X158760Y198721D01*
X152351Y275323D02*
X159155Y282320D01*
X160668Y283945D02*
X160670Y283948D01*
X151780Y266298D02*
X156509Y215530D01*
X160670Y283948D02*
X162205Y287402D01*
X151219Y270308D02*
X151766Y266424D01*
X151776Y266340D02*
X151776D01*
X159155Y282320D02*
X160517Y283723D01*
X156637Y214918D02*
X160791Y202415D01*
X111681Y107074D02*
X111703Y107118D01*
X95404Y76780D02*
X111318Y106360D01*
X187015Y168721D02*
X222899Y125785D01*
X114609Y132345D02*
X164327Y188943D01*
X180992Y228332D02*
X180997Y228327D01*
Y228327D02*
X181453Y227870D01*
X175256Y235846D02*
Y237736D01*
X179151Y230027D02*
X179890Y229331D01*
X176813Y241242D02*
X190650Y253740D01*
X191437Y254527D01*
X190650Y255315D02*
X191437Y254527D01*
X190650Y255315D02*
Y258169D01*
X191437Y258957D01*
X105118Y73373D02*
X107973D01*
X104331Y73819D02*
X105118Y73373D01*
X107973D02*
X109154Y73228D01*
X200492Y212402D02*
X201673D01*
X106474Y157068D02*
X126673Y149901D01*
X103976Y157323D02*
X105748D01*
X106467Y157071D01*
X141931Y144495D02*
X145319Y142296D01*
X120472Y116961D02*
X120473Y118897D01*
X120473Y118898D02*
Y120197D01*
X112260Y108423D02*
X117864Y123184D01*
X111706Y107126D02*
X111727Y107169D01*
X238525Y103253D02*
X261729Y101873D01*
X111973Y129239D02*
X113847Y131447D01*
X104528Y111353D02*
X110141Y126135D01*
X113847Y131448D02*
X114587Y132320D01*
X114077Y127459D02*
X117256Y131206D01*
X89892Y86327D02*
X105564Y107551D01*
X87161Y91127D02*
X102796Y108512D01*
X117270Y131222D02*
X167914Y189145D01*
X167966Y189207D02*
X169238Y190794D01*
X287429Y123533D02*
X289103Y126432D01*
X289817Y122158D02*
X291494Y125062D01*
X289817Y122158D02*
X289817Y122158D01*
X289513Y121281D02*
X289513Y121281D01*
X288768Y115955D02*
X289513Y121281D01*
X280615Y101071D02*
X286219Y106675D01*
X262303Y99114D02*
X275886D01*
X238228Y101896D02*
X262142Y99124D01*
X262155Y99122D01*
X149750Y276503D02*
X155118Y283858D01*
X148425Y270866D02*
Y272441D01*
X148450Y270288D02*
X148491Y269790D01*
X107108Y110383D02*
X112724Y125174D01*
X84855Y87965D02*
X87112Y91067D01*
X87611Y83192D02*
X89892Y86327D01*
X90367Y78418D02*
X92648Y81554D01*
X173875Y191819D02*
X174143Y192147D01*
X93123Y73645D02*
X95404Y76780D01*
X92648Y81554D02*
X108425Y106861D01*
X231358Y36732D02*
X233012D01*
X233705Y37018D02*
X234063Y37376D01*
X207678Y32387D02*
X207776Y33268D01*
X229626Y37894D02*
X230020Y37795D01*
X224213Y50787D02*
X224337Y50911D01*
Y52274D01*
X206633Y40890D02*
X207282Y63662D01*
X188189Y118425D02*
Y120197D01*
X205906Y64567D02*
Y66535D01*
X188189Y118425D02*
X188441Y117706D01*
X186614Y118425D02*
Y120197D01*
X188359Y115897D02*
X198449Y111128D01*
X229675Y41388D02*
X231447D01*
X231496Y41339D01*
X216920Y43209D02*
X216920Y43209D01*
X218996D01*
X218996Y43209D01*
X216535Y45472D02*
X218602Y45079D01*
X216240Y45866D02*
X216535Y45472D01*
X218602Y45079D02*
X218996Y44980D01*
X229626Y41437D02*
X229675Y41388D01*
X285407Y110965D02*
X286033Y116298D01*
X229005Y121428D02*
X231897Y113004D01*
X174508Y189173D02*
X225122Y127421D01*
X231897Y113004D02*
X234972Y104486D01*
X288145Y110650D02*
X288764Y115925D01*
X226428Y125605D02*
X228869Y121713D01*
X296247Y120696D02*
X296597Y118676D01*
X289679Y106693D02*
X296597Y118676D01*
X288764Y115925D02*
X288768Y115955D01*
X261811Y101870D02*
X275886D01*
X175938Y191106D02*
X191994Y172252D01*
X278674Y103027D02*
X284280Y108633D01*
X291272Y128258D02*
X296241Y130068D01*
X287028Y122705D02*
X287174Y123034D01*
X297903Y130651D02*
X301759Y130243D01*
X296252Y130072D02*
X297903Y130651D01*
X144582Y283858D02*
X145669Y287402D01*
X163615Y225813D02*
X170998Y211791D01*
X157880Y236260D02*
X163603Y225834D01*
X162352Y222490D02*
X162525Y222072D01*
X160827Y223819D02*
X162352Y222490D01*
X144317Y270113D02*
X145635Y250864D01*
X149606Y283858D02*
X151181Y287402D01*
X144291Y270866D02*
Y272441D01*
X145669Y270866D02*
Y272441D01*
X144582Y280883D02*
Y283858D01*
X144299Y272847D02*
X144580Y280739D01*
X151181Y270866D02*
Y272441D01*
X155118Y283858D02*
X156693Y287402D01*
X146405Y276136D02*
X149606Y283858D01*
X162352Y218110D02*
X162463D01*
X160827Y217126D02*
X162352Y218110D01*
X171953Y210769D02*
X171953Y210769D01*
X172289Y210433D01*
X171360Y211299D02*
X171920Y210800D01*
X202728Y207529D02*
X204696Y205522D01*
X205403Y204559D02*
X238444Y144763D01*
X240512Y143543D02*
X244843D01*
X246061Y143882D02*
X252130Y147536D01*
X252312Y147622D02*
X253032Y147874D01*
X200492Y208465D02*
X201673D01*
X253032Y147874D02*
X254803D01*
X200492Y204528D02*
X201673D01*
Y208465D02*
X202650Y207603D01*
X240204Y149695D02*
X240906Y149449D01*
X239368Y150138D02*
X240035Y149769D01*
X240906Y151024D02*
X242677D01*
X240186Y151276D02*
X240906Y151024D01*
X292618Y125750D02*
X295147Y125878D01*
X299003Y125470D01*
X202728Y205561D02*
X203712Y204557D01*
X125197Y116960D02*
X125197Y119421D01*
Y120197D01*
X186024Y196752D02*
Y197933D01*
X183227Y190096D02*
X186024Y196752D01*
X119283Y105110D02*
X120473Y106299D01*
Y108071D01*
X119095Y104626D02*
X119283Y104814D01*
Y105110D01*
X134646Y123622D02*
X134646Y123622D01*
X134646Y120197D02*
Y123622D01*
X103976Y154173D02*
X105748D01*
X122835Y149114D01*
X187644Y230859D02*
X187644Y230853D01*
X187730Y229672D01*
X187747Y229438D01*
X187817Y228482D01*
X187817Y228482D02*
X187992Y226083D01*
Y224902D02*
Y226083D01*
X187991Y232861D02*
X188962Y231890D01*
X187556Y233316D02*
X187979Y232873D01*
X187989Y232863D02*
X187991Y232861D01*
X186494Y232425D02*
X186494Y232425D01*
X185780Y233423D02*
X185781Y233420D01*
X186601Y232318D02*
X186601Y232318D01*
X184350Y235728D02*
X185351Y234882D01*
X185630Y234271D02*
X185630Y234271D01*
X188962Y231890D02*
X188963Y231889D01*
X189361Y231073D02*
X189361Y231072D01*
X187008Y234252D02*
Y237205D01*
X189361Y231072D02*
X189764Y227720D01*
X189112Y231680D02*
X189286Y231327D01*
X187378Y237973D02*
X188386Y238779D01*
X189764Y227720D02*
X189953Y226143D01*
X189961Y226083D01*
X188386Y238779D02*
X189665Y239862D01*
X189961Y224902D02*
Y226083D01*
X180807Y236791D02*
X183071D01*
X181453Y227870D02*
X182087Y227776D01*
Y224902D02*
Y227776D01*
X188386Y240945D02*
X189469Y239862D01*
X188386Y240945D02*
Y243071D01*
X188307Y243504D02*
X188386Y243071D01*
X211163Y220502D02*
X215328Y233370D01*
X95351Y205413D02*
X95473D01*
X95368Y202264D02*
X95635D01*
X102165Y202953D02*
X102205Y202992D01*
X100197Y199803D02*
X102165D01*
X95351Y199114D02*
X95571D01*
X102165Y199803D02*
X102205Y199843D01*
Y202992D02*
X103976D01*
X100197Y202953D02*
X102165D01*
X91851Y202992D02*
X94640D01*
X94505Y204567D02*
X95351Y205413D01*
X102205Y199843D02*
X103976D01*
X102205Y206142D02*
X103976D01*
X102165Y206102D02*
X102205Y206142D01*
X100099Y206102D02*
X102165D01*
X91851Y206142D02*
X94505D01*
X94522Y201417D02*
X95368Y202264D01*
X148142Y104659D02*
X148819Y105336D01*
Y108071D01*
X148142Y104393D02*
Y104659D01*
X153543Y105280D02*
Y108071D01*
X152955Y104426D02*
Y104692D01*
X153543Y105280D01*
X202944Y37016D02*
X203445Y36516D01*
X202756Y37411D02*
X202944Y37222D01*
X202756Y37411D02*
Y37677D01*
X202944Y37016D02*
Y37222D01*
X103839Y144390D02*
Y146299D01*
X103976D01*
X91634Y144390D02*
Y146299D01*
X91851D01*
Y151024D02*
X95087D01*
X91851Y165197D02*
X95630D01*
X95669Y165157D01*
X100236Y179370D02*
X103976D01*
X100686Y176170D02*
X100737Y176221D01*
X103976D01*
X91851Y176221D02*
X95087D01*
X95516Y195866D02*
X95595D01*
X95684D01*
X91851Y196693D02*
X94768D01*
X95595Y195866D01*
X91851Y195118D02*
X94768D01*
X95516Y195866D01*
X95305Y199114D02*
X95351D01*
X94576Y199843D02*
X95305Y199114D01*
X91851Y199843D02*
X94576D01*
X91851Y198268D02*
X94505D01*
X95351Y199114D01*
X94640Y202992D02*
X95368Y202264D01*
X91851Y201417D02*
X94522D01*
X95233Y205413D02*
X95351D01*
X94505Y206142D02*
X95233Y205413D01*
X91851Y204567D02*
X94505D01*
X105748Y198268D02*
X105788Y198228D01*
X107776D01*
X103976Y198268D02*
X105748D01*
Y201417D02*
X105788Y201378D01*
X103976Y201417D02*
X105748D01*
X105788Y201378D02*
X107874D01*
X105847Y207717D02*
X105905Y207776D01*
X103976Y207717D02*
X105847D01*
X105905Y207776D02*
X107973D01*
X100197Y196653D02*
X100236Y196693D01*
X103976D01*
X107834Y195118D02*
X107874Y195079D01*
X103976Y195118D02*
X107834D01*
X102146Y193602D02*
X102205Y193543D01*
X100197Y193602D02*
X102146D01*
X102205Y193543D02*
X103976D01*
X105788Y188779D02*
X107874D01*
X103976Y188819D02*
X105748D01*
X105788Y188779D01*
X102165Y184055D02*
X102205Y184095D01*
X103976D01*
X100197Y184055D02*
X102165D01*
X107913Y180945D02*
X107973Y181004D01*
X103976Y180945D02*
X107913D01*
X103976Y177795D02*
X107736D01*
X107874Y177657D01*
X251567Y206142D02*
X254803D01*
X242677Y152599D02*
X245914D01*
X251567Y152599D02*
X254803D01*
X251567Y196693D02*
X254803D01*
X239441Y196693D02*
X242677D01*
X239441Y196693D02*
X239441Y196693D01*
X251567Y201417D02*
X254803D01*
X251567Y210866D02*
X254803D01*
X242677D02*
X245914D01*
X245914Y206142D02*
X245914Y206142D01*
X242677Y206142D02*
X245914D01*
X242677Y201417D02*
X245916D01*
X172343Y200591D02*
X173524D01*
X170374Y197786D02*
X172343Y200591D01*
X201673Y206496D02*
X202650Y205635D01*
X200492Y216339D02*
X201673D01*
X204134Y219685D02*
X210039D01*
X201673Y214370D02*
X210752Y215599D01*
X200492Y214370D02*
X201673D01*
X193898Y226083D02*
X194759Y227059D01*
X207813Y233140D02*
X209274Y234602D01*
X198489Y237732D02*
X201119Y239834D01*
X184547Y239862D02*
X185709Y241024D01*
Y243504D01*
X184350Y239862D02*
X184547D01*
X180807Y239390D02*
X183878D01*
X184350Y239862D01*
X240906Y149449D02*
X242677D01*
X172289Y210433D02*
X173524D01*
X177165Y120197D02*
Y123436D01*
X185039Y118425D02*
X185282Y116827D01*
X139370Y104823D02*
X139469Y104724D01*
X139370Y104823D02*
Y108071D01*
X134350Y111348D02*
X134646Y111053D01*
Y108071D02*
Y111053D01*
X134350Y111348D02*
Y111614D01*
X129921Y118425D02*
X129921Y118425D01*
Y116634D02*
Y118425D01*
X129921Y118425D02*
Y120197D01*
X134756Y104782D02*
X135531Y104007D01*
Y103740D02*
Y104007D01*
X134646Y105290D02*
Y108071D01*
Y105290D02*
X134756Y105180D01*
Y104782D02*
Y105180D01*
X129921Y103642D02*
Y108071D01*
X129823Y103543D02*
X129921Y103642D01*
X125197Y111516D02*
X125197Y111516D01*
Y108071D02*
Y111516D01*
X162992Y120197D02*
Y124016D01*
X158268Y120197D02*
Y123622D01*
X158366Y123721D01*
X153543Y116831D02*
Y120197D01*
Y116831D02*
X153543Y116831D01*
X148819Y116732D02*
X148819Y116732D01*
X148819Y116732D02*
Y120197D01*
X139370Y117195D02*
X139665Y116900D01*
X139370Y117195D02*
Y120197D01*
X139665Y116634D02*
Y116900D01*
X144095Y116831D02*
X144095Y116831D01*
X144095Y116831D02*
Y120197D01*
X144095Y108071D02*
Y111417D01*
X144193Y111516D01*
X172441Y116831D02*
X172441Y116831D01*
X172441Y116831D02*
Y120197D01*
X167717Y116831D02*
Y120197D01*
Y116831D02*
X167717Y116831D01*
X156693Y112827D02*
X158268Y111252D01*
Y108071D02*
Y111252D01*
X156693Y112827D02*
Y112992D01*
X162992Y111129D02*
X164665Y112802D01*
X162992Y108071D02*
Y111129D01*
X164665Y112802D02*
Y112894D01*
X172441Y111516D02*
X172539Y111614D01*
X172441Y108071D02*
Y111516D01*
X177165Y108071D02*
Y111614D01*
X177165Y111614D02*
X177165Y111614D01*
X190847Y87657D02*
X192225Y85827D01*
X190354Y87697D02*
X190847Y87657D01*
X192225Y85827D02*
X193012Y85039D01*
X170030Y58120D02*
Y63321D01*
X199609Y91003D02*
X200316Y89926D01*
X197602Y93272D02*
X197835Y93504D01*
X180807Y87268D02*
X182558D01*
X183098Y87346D02*
X184154Y87657D01*
X180315Y87303D02*
X180807Y87268D01*
X184606Y89232D02*
X184646Y89272D01*
X182558Y89178D02*
X182613Y89232D01*
X184154Y87657D02*
X184646Y87697D01*
X182613Y89232D02*
X184606D01*
X184843Y13189D02*
X185649Y14197D01*
X182283Y12303D02*
X182480Y13189D01*
X193413Y29116D02*
X199357Y25233D01*
X188189Y23622D02*
X188386Y22441D01*
X184646Y12303D02*
X184843Y13189D01*
X182480D02*
X183286Y14197D01*
X193086Y19336D02*
X198878Y19687D01*
X206299Y32283D02*
X206299Y32333D01*
X188386Y22441D02*
X189192Y21433D01*
X195423Y59449D02*
X195473Y59744D01*
X197604Y59788D02*
X200591Y60827D01*
X195473Y59744D02*
X197441D01*
X198006Y93014D02*
X199544Y91092D01*
X193504Y54724D02*
X194095Y55315D01*
X201181Y61614D02*
X201772Y62402D01*
X194488Y90158D02*
X197602Y93272D01*
X207283Y63779D02*
Y69450D01*
X197835Y196752D02*
Y197933D01*
X197835Y93504D02*
Y96358D01*
X197441Y59744D02*
X197539Y59770D01*
X197453Y104661D02*
X197638Y104845D01*
Y108071D01*
X200591Y60827D02*
X201181Y61614D01*
X192913Y89311D02*
X193701Y89567D01*
X193898D02*
X194488Y90158D01*
X201766Y82359D02*
X203145Y66639D01*
X179299Y105143D02*
X180752Y103957D01*
X178740Y106299D02*
Y108071D01*
X283082Y35827D02*
X283223Y35968D01*
X200492Y218307D02*
X201673D01*
X172343Y208465D02*
X173524D01*
X168465Y209390D02*
X169016Y208957D01*
X169567Y208524D02*
X172343Y208465D01*
X165571Y212598D02*
X166339Y211772D01*
X168321Y210007D02*
X168465Y209390D01*
X201673Y216339D02*
X210312Y216939D01*
X201673Y218307D02*
X210039Y218307D01*
X209274Y234602D02*
X209580Y234908D01*
X193898Y224902D02*
Y226083D01*
X195393Y227481D02*
X201829Y229659D01*
X191929Y226083D02*
X197375Y234113D01*
X205448Y230772D02*
X207813Y233140D01*
X191929Y224902D02*
Y226083D01*
X197375Y234113D02*
X198489Y237732D01*
X201829Y229659D02*
X205448Y230772D01*
X201119Y239834D02*
X202887Y241601D01*
X201673Y220276D02*
X203842Y219722D01*
X200492Y206496D02*
X201673D01*
X169016Y208957D02*
X169567Y208524D01*
X183071Y236791D02*
X184350Y235728D01*
X166339Y211772D02*
X167950Y210573D01*
X182087Y196752D02*
Y197933D01*
X181391Y194607D02*
X182087Y196752D01*
X180709Y192913D02*
X181358Y194515D01*
X185177Y227776D02*
Y227898D01*
X186024Y224902D02*
Y226083D01*
X185177Y227776D02*
X186024Y226083D01*
X180997Y228327D02*
X181791D01*
X200492Y220276D02*
X201673D01*
X104975Y256871D02*
X109486Y261568D01*
X106595Y265354D02*
X108209D01*
X181890Y108071D02*
Y111308D01*
X167717Y103937D02*
X167717Y103937D01*
Y108071D01*
X166634Y98228D02*
Y101260D01*
Y98228D02*
X166732Y98130D01*
X166516Y101378D02*
X166634Y101260D01*
X174705Y101673D02*
X175099Y102067D01*
X174606Y98130D02*
X174705Y98228D01*
Y101673D01*
X159646Y10039D02*
X160433Y9252D01*
X157480Y11811D02*
X159646Y10039D01*
X156102Y13583D02*
X157480Y11811D01*
X190847Y89311D02*
X192913D01*
X99540Y271741D02*
X100867Y269375D01*
X105054Y262432D02*
Y262795D01*
Y262432D02*
X106595Y262795D01*
X103150Y258661D02*
X103937Y259449D01*
X108209Y265354D02*
X109487Y264022D01*
X89862Y259350D02*
X89912Y260138D01*
X94665Y265354D02*
X96280D01*
X90748Y265158D02*
X94665Y265354D01*
X89912Y269094D02*
Y272441D01*
X90748Y267913D02*
X96280D01*
X89961Y268307D02*
X90748Y267913D01*
X89862Y273228D02*
X89912Y272441D01*
Y269094D02*
X89961Y268307D01*
X89912Y260138D02*
Y263583D01*
X89961Y264370D01*
X103698Y264132D02*
X104805Y262971D01*
X96850Y273228D02*
X99106Y272147D01*
X104823Y262953D02*
X104980Y262795D01*
X103937Y259449D02*
X104998Y262103D01*
X100885Y269341D02*
X103412Y264531D01*
X105054Y262402D02*
X105054Y262795D01*
X201772Y62402D02*
X202898Y63838D01*
X190354Y89272D02*
X190847Y89311D01*
X104980Y270472D02*
X106595D01*
X103001Y273243D02*
X104980Y270472D01*
X102854Y273701D02*
Y276476D01*
X97933Y275492D02*
X99004Y274407D01*
X97736Y276476D02*
X97933Y275492D01*
X99536Y274129D02*
X101932Y273712D01*
X102067Y273701D02*
X102854D01*
X165551Y58071D02*
Y58268D01*
X165354Y57874D02*
X165551Y58071D01*
X165354Y57677D02*
Y57874D01*
X200603Y89199D02*
X201751Y82474D01*
X195423Y56840D02*
Y59449D01*
X168110Y75984D02*
Y76772D01*
D14*
X217505Y39084D02*
D03*
D15*
X217297Y39005D02*
G03*
X217505Y39084I-230J917D01*
G01*
X217877Y39271D02*
G03*
X217771Y39223I332J-885D01*
G01*
X217505Y39084D02*
X217771Y39223D01*
X217505Y39084D02*
X217505Y39084D01*
X216713Y38858D02*
X217297Y39005D01*
X218563Y39527D02*
X218996Y39665D01*
X216240Y38268D02*
X216713Y38858D01*
X217877Y39271D02*
X218563Y39527D01*
D16*
X213393Y41627D02*
G03*
X214114Y41330I721J727D01*
G01*
X217014Y41326D02*
G03*
X217059Y41328I-8J1024D01*
G01*
X217006Y41326D02*
G03*
X217014Y41326I0J1024D01*
G01*
X214114Y41330D02*
X215925D01*
X216240Y40964D01*
X217059Y41328D02*
X218996Y41437D01*
X216555Y41326D02*
X217006D01*
X216240Y40964D02*
X216555Y41326D01*
X213366Y41653D02*
X213393Y41627D01*
X213091Y41929D02*
X213366Y41653D01*
D17*
X304134Y313976D02*
G03*
X305383Y314593I0J1575D01*
G01*
X294219Y313978D02*
G03*
X294291Y313976I72J1573D01*
G01*
X289339Y314298D02*
G03*
X289917Y314175I661J1686D01*
G01*
X272152Y312532D02*
G03*
X270561Y311793I191J-2493D01*
G01*
X307854Y317815D02*
X312933D01*
X313327Y317520D01*
X294291Y313976D02*
X304134D01*
X289917Y314175D02*
X294219Y313978D01*
X285138Y315945D02*
X289339Y314298D01*
X307854Y317815D02*
Y318012D01*
X305383Y314593D02*
X307854Y317815D01*
X284547Y316929D02*
X285138Y315945D01*
X278740Y316732D02*
X283957D01*
X277165Y314764D02*
X278740Y316732D01*
X283957D02*
X284547Y316929D01*
X254143Y295096D02*
X257722Y298745D01*
X270561Y311793D01*
X272152Y312532D02*
X275591Y312795D01*
X277165Y314764D01*
X253740Y294685D02*
X254143Y295096D01*
X252953Y293701D02*
X253740Y294685D01*
X140157Y287402D02*
X140945Y284449D01*
Y271358D02*
Y284449D01*
X261783Y228748D02*
Y230287D01*
X261811Y230315D01*
D18*
X268908Y305627D02*
G03*
X268902Y305617I1532J-890D01*
G01*
X269646Y306782D02*
G03*
X269368Y306420I1255J-1251D01*
G01*
X268908Y305627D02*
X269368Y306420D01*
X269646Y306782D02*
X270315Y307451D01*
X279331Y305610D02*
X280020Y307776D01*
D19*
X178538Y239351D02*
G03*
X177815Y237736I1443J-1615D01*
G01*
Y235846D02*
G03*
X178440Y234324I2165J0D01*
G01*
D02*
G03*
X178459Y234306I1540J1522D01*
G01*
X193223Y246438D02*
G03*
X192993Y246462I-440J-3119D01*
G01*
X192957Y246464D02*
G03*
X192791Y246471I-210J-3143D01*
G01*
X228593Y250644D02*
G03*
X229497Y252746I-2244J2210D01*
G01*
X211155Y230354D02*
G03*
X211627Y231062I-1531J1531D01*
G01*
X189267Y246496D02*
G03*
X189252Y246496I-15J-2165D01*
G01*
X187362D02*
G03*
X185920Y245946I0J-2165D01*
G01*
X204335Y244385D02*
G03*
X203116Y244997I-1531J-1531D01*
G01*
X212836Y234001D02*
G03*
X212364Y236356I-2003J824D01*
G01*
X178459Y234306D02*
X179221Y233553D01*
X177815Y235846D02*
Y237736D01*
X179221Y233553D02*
X180905Y231890D01*
X192957Y246464D02*
X192993Y246462D01*
X193230Y246437D02*
X201679Y245206D01*
X193223Y246438D02*
X193230Y246437D01*
X179819Y240496D02*
X182025Y242466D01*
X182434Y242832D01*
X184589Y244757D01*
X189267Y246496D02*
X192780Y246471D01*
X204335Y244385D02*
X212364Y236356D01*
X192780Y246471D02*
X192791Y246471D01*
X228346Y250394D02*
X228593Y250644D01*
X229497Y252746D02*
X230118Y270866D01*
X226772Y249705D02*
X228346Y250394D01*
X230118Y270866D02*
Y271654D01*
X205866Y225065D02*
X211155Y230354D01*
X201679Y245206D02*
X203116Y244997D01*
X184589Y244757D02*
X185920Y245946D01*
X178538Y239351D02*
X179819Y240496D01*
X187362Y246496D02*
X189252D01*
X211627Y231062D02*
X212836Y234001D01*
X226378Y249705D02*
X226772D01*
D20*
X72828Y293307D02*
G03*
X72828Y293307I-5899J0D01*
G01*
X274410Y275197D02*
Y289665D01*
D21*
X271949Y267520D02*
G03*
X272594Y267589I0J3051D01*
G01*
X276235Y268376D02*
G03*
X277816Y269271I-645J2982D01*
G01*
X267066Y267540D02*
G03*
X267421Y267520I355J3030D01*
G01*
X233684Y193916D02*
G03*
X233668Y193762I2773J-353D01*
G01*
X281201Y272835D02*
X281201Y273622D01*
X272594Y267589D02*
X276235Y268376D01*
X264905Y267794D02*
X267066Y267540D01*
X262205Y268110D02*
X264905Y267794D01*
X267421Y267520D02*
X271949D01*
X279768Y271326D02*
X280387Y271978D01*
X281201Y272835D01*
X277816Y269271D02*
X279768Y271326D01*
X232490Y176820D02*
X233668Y193762D01*
X232469Y176510D02*
X232490Y176820D01*
X233684Y193916D02*
X235925Y211220D01*
X236221Y212795D02*
Y221654D01*
X235925Y211220D02*
X236221Y212795D01*
D22*
X246513Y277373D02*
G03*
X246260Y275984I3684J-1389D01*
G01*
X252953Y293701D02*
X262598Y293962D01*
X248526Y282713D02*
X250591Y288189D01*
X246513Y277373D02*
X248526Y282713D01*
X246260Y271654D02*
Y275984D01*
X250591Y288189D02*
X252953Y293701D01*
X246260Y266142D02*
X246260Y271654D01*
D23*
X277698Y300928D02*
G03*
X277429Y301464I-1064J-200D01*
G01*
X196935Y64326D02*
G03*
X197183Y64506I-446J877D01*
G01*
X277904Y299830D02*
X278150Y298524D01*
X275295Y300236D02*
Y302067D01*
Y300236D02*
X275689Y299902D01*
X277698Y300928D02*
X277904Y299830D01*
X276870Y302067D02*
X277429Y301464D01*
X195473Y63583D02*
X196935Y64326D01*
X242670Y243156D02*
Y243550D01*
X242520Y243701D02*
X242670Y243550D01*
Y243156D02*
X244094Y241732D01*
X242670Y244737D02*
X243406Y245472D01*
Y246260D01*
X242670Y243851D02*
Y244737D01*
X242520Y243701D02*
X242670Y243851D01*
X241437Y245472D02*
X242369Y244540D01*
X241437Y245472D02*
Y246260D01*
X242369Y243851D02*
Y244540D01*
Y243851D02*
X242520Y243701D01*
X171949Y93504D02*
X172835Y92618D01*
X176181D01*
X159252D02*
X162697D01*
X163484Y93405D01*
X167421Y55118D02*
X169488D01*
X169488Y55118D01*
X165354Y54134D02*
X165847Y54626D01*
X166716D02*
X167208Y55118D01*
X165354Y53937D02*
Y54134D01*
X165847Y54626D02*
X166716D01*
X167208Y55118D02*
X167421D01*
X197183Y64506D02*
X198130Y65453D01*
X197441Y65453D02*
Y67421D01*
X197441Y67618D02*
X197933Y69882D01*
X200689Y65453D02*
X201181Y65551D01*
X197441Y67421D02*
X197441Y67618D01*
X198130Y65453D02*
X200689D01*
X197933Y69882D02*
X198622Y70374D01*
D24*
X162600Y52693D02*
G03*
X164341Y50985I1770J63D01*
G01*
X189862Y52264D02*
G03*
X191194Y52722I0J2165D01*
G01*
X170332Y50886D02*
G03*
X172048Y51581I42J2362D01*
G01*
X162357Y58854D02*
X162600Y52693D01*
X162338Y60238D02*
X162357Y58854D01*
X164900Y50975D02*
X170332Y50886D01*
X164341Y50985D02*
X164900Y50975D01*
X172048Y51581D02*
X172736Y52270D01*
X172730Y52264D02*
X189862D01*
X172736Y52270D02*
Y59474D01*
X193504Y54527D02*
Y54724D01*
X191194Y52722D02*
X193504Y54527D01*
D25*
X197602Y93272D02*
D03*
X187817Y228482D02*
D03*
D26*
X125295Y84796D02*
G03*
X127992Y87493I0J2697D01*
G01*
X125295Y84796D02*
G03*
X124055Y83556I0J-1240D01*
G01*
Y83556D02*
G03*
X125295Y82316I1240J0D01*
G01*
X129961Y79619D02*
G03*
X127264Y82316I-2697J0D01*
G01*
Y76922D02*
G03*
X129961Y79619I0J2697D01*
G01*
X125295Y76922D02*
G03*
X124055Y75682I0J-1240D01*
G01*
Y75682D02*
G03*
X125295Y74442I1240J0D01*
G01*
X127992Y71745D02*
G03*
X125295Y74442I-2697J0D01*
G01*
Y86253D02*
G03*
X126535Y87493I0J1240D01*
G01*
X125295Y86253D02*
G03*
X122598Y83556I0J-2697D01*
G01*
Y83556D02*
G03*
X125295Y80859I2697J0D01*
G01*
X128504Y79619D02*
G03*
X127264Y80859I-1240J0D01*
G01*
Y78379D02*
G03*
X128504Y79619I0J1240D01*
G01*
X125295Y78379D02*
G03*
X122598Y75682I0J-2697D01*
G01*
Y75682D02*
G03*
X125295Y72985I2697J0D01*
G01*
X126535Y71745D02*
G03*
X125295Y72985I-1240J0D01*
G01*
X134055Y83563D02*
G03*
X135295Y82323I1240J0D01*
G01*
X137205Y76929D02*
G03*
X137205Y82323I0J2697D01*
G01*
X135197Y76929D02*
G03*
X135197Y74449I0J-1240D01*
G01*
X137205Y69055D02*
G03*
X137205Y74449I0J2697D01*
G01*
X135295Y69055D02*
G03*
X134055Y67815I0J-1240D01*
G01*
X132598Y83563D02*
G03*
X135295Y80866I2697J0D01*
G01*
X137205Y78386D02*
G03*
X137205Y80866I0J1240D01*
G01*
X135197Y78386D02*
G03*
X135197Y72992I0J-2697D01*
G01*
X137205Y70512D02*
G03*
X137205Y72992I0J1240D01*
G01*
X135295Y70512D02*
G03*
X132598Y67815I0J-2697D01*
G01*
Y90158D02*
Y92771D01*
X132283Y93701D02*
X132525Y93460D01*
Y92845D02*
X132598Y92771D01*
X132525Y92845D02*
Y93460D01*
X134055Y90158D02*
Y92572D01*
X134843Y93360D01*
Y93701D01*
X131555Y104567D02*
X132059Y104063D01*
X133012Y105170D02*
Y108012D01*
X133516Y100992D02*
Y104666D01*
X131555Y104567D02*
Y108012D01*
X132059Y100388D02*
Y104063D01*
X133012Y105170D02*
X133516Y104666D01*
X127461Y103937D02*
X128287Y104764D01*
X126831Y105367D02*
Y108012D01*
X126004Y104540D02*
X126831Y105367D01*
X127461Y100697D02*
Y103937D01*
X128287Y104764D02*
Y108012D01*
X126004Y100094D02*
Y104540D01*
X183130Y23957D02*
X183465Y23622D01*
X181555Y25241D02*
Y39712D01*
X177763Y43504D02*
X181555Y39712D01*
X149318Y43504D02*
X177763D01*
X132598Y60223D02*
X149318Y43504D01*
X132598Y60223D02*
Y62894D01*
X178366Y44961D02*
X183012Y40315D01*
X134055Y60827D02*
Y62894D01*
X183012Y25241D02*
Y40315D01*
X149921Y44961D02*
X178366D01*
X134055Y60827D02*
X149921Y44961D01*
X147054Y37106D02*
X175794D01*
X147658Y38563D02*
X176398D01*
X126535Y57625D02*
X147054Y37106D01*
X126535Y57625D02*
Y70761D01*
X127992Y58228D02*
Y70761D01*
Y58228D02*
X147658Y38563D01*
X167953Y30118D02*
X172106Y25965D01*
X173681Y23957D02*
X174016Y23622D01*
X146168Y30118D02*
X167953D01*
X119016Y57271D02*
X146168Y30118D01*
X119016Y57271D02*
Y97828D01*
X168556Y31575D02*
X173563Y26568D01*
Y25241D02*
Y26568D01*
X146772Y31575D02*
X168556D01*
X120473Y57874D02*
X146772Y31575D01*
X120473Y57874D02*
Y97828D01*
X171654Y23622D02*
X171988Y23957D01*
Y25123D01*
X172106Y25241D01*
Y25965D01*
X183130Y23957D02*
Y25123D01*
X183012Y25241D02*
X183130Y25123D01*
X181102Y23622D02*
X181437Y23957D01*
Y25123D01*
X181555Y25241D01*
X176378Y23622D02*
X176713Y23957D01*
Y25123D01*
X176831Y25241D01*
Y36070D01*
X175794Y37106D02*
X176831Y36070D01*
X178405Y23957D02*
X178740Y23622D01*
X178405Y23957D02*
Y25123D01*
X178287Y25241D02*
X178405Y25123D01*
X178287Y25241D02*
Y36673D01*
X176398Y38563D02*
X178287Y36673D01*
X173681Y23957D02*
Y25123D01*
X173563Y25241D02*
X173681Y25123D01*
X121024Y98379D02*
Y98721D01*
X120473Y97828D02*
X121024Y98379D01*
X118465D02*
Y98721D01*
Y98379D02*
X119016Y97828D01*
X127992Y87493D02*
Y92166D01*
X125295Y84796D02*
X125295D01*
X124055Y83556D02*
Y83556D01*
X125295Y82316D02*
X127264D01*
X129961Y79619D02*
Y79619D01*
X125295Y76922D02*
X127264D01*
X124055Y75682D02*
Y75682D01*
X125295Y74442D02*
X125295D01*
X127992Y70761D02*
Y71745D01*
X126535Y92166D02*
X126535D01*
Y87493D02*
Y92166D01*
X125295Y86253D02*
X125295D01*
X122598Y83556D02*
Y83556D01*
X125295Y80859D02*
X127264D01*
X128504Y79619D02*
Y79619D01*
X125295Y78379D02*
X127264D01*
X122598Y75682D02*
Y75682D01*
X125295Y72985D02*
X125295D01*
X126535Y70761D02*
Y71745D01*
X126535Y70761D02*
X126535D01*
X127992Y92166D02*
Y92710D01*
X126535Y92166D02*
Y92710D01*
X134055Y83563D02*
Y90158D01*
X135295Y82323D02*
X137205D01*
X135197Y76929D02*
X137205D01*
X135197Y74449D02*
X137205D01*
X135295Y69055D02*
X137205D01*
X134055Y62894D02*
Y67815D01*
X132598Y83563D02*
Y90158D01*
X135295Y80866D02*
X137205D01*
X135197Y78386D02*
X137205D01*
X135197Y72992D02*
X137205D01*
X135295Y70512D02*
X137205D01*
X132598Y62894D02*
Y67815D01*
X137736Y114921D02*
X137795Y114862D01*
X135796Y116017D02*
X136279Y116500D01*
X137736Y114921D02*
Y120138D01*
X136781Y112415D02*
Y112756D01*
X135796Y113741D02*
X136781Y112756D01*
X135796Y113741D02*
Y116017D01*
X136279Y116500D02*
Y120138D01*
X137736Y120138D02*
X137795Y120197D01*
X136221D02*
X136279Y120138D01*
X134639Y99173D02*
X135191Y98622D01*
X132059Y100388D02*
X133275Y99173D01*
X135191Y101181D02*
X135531D01*
X133878Y100630D02*
X134639D01*
X135191Y101181D01*
X133275Y99173D02*
X134639D01*
X135191Y98622D02*
X135531D01*
X133516Y100992D02*
X133878Y100630D01*
X133012Y108012D02*
X133071Y108071D01*
X126772D02*
X126831Y108012D01*
X128287Y108012D02*
X128347Y108071D01*
X128895Y100397D02*
X129482Y100984D01*
X127761Y100397D02*
X128895D01*
X128797Y98940D02*
X129384Y98353D01*
X127157Y98940D02*
X128797D01*
X127461Y100697D02*
X127761Y100397D01*
X126004Y100094D02*
X127157Y98940D01*
X129384Y98353D02*
X129725D01*
X129482Y100984D02*
X129823D01*
X125984Y93261D02*
Y93602D01*
Y93261D02*
X126535Y92710D01*
X128543Y93261D02*
Y93602D01*
X127992Y92710D02*
X128543Y93261D01*
X131496Y108071D02*
X131555Y108012D01*
D27*
X155807Y102362D02*
D03*
X159744D02*
D03*
X254921Y272146D02*
D03*
X250984D02*
D03*
X196949Y85039D02*
D03*
X193012D02*
D03*
X160433Y9252D02*
D03*
X164370D02*
D03*
X175099Y102067D02*
D03*
X179035D02*
D03*
X195374Y258957D02*
D03*
X191437D02*
D03*
X195374Y254527D02*
D03*
X191437D02*
D03*
X103150Y258661D02*
D03*
X99213D02*
D03*
X235433Y237795D02*
D03*
X239370D02*
D03*
X164961Y264173D02*
D03*
X161024D02*
D03*
D28*
X103976Y215591D02*
D03*
Y214016D02*
D03*
Y210866D02*
D03*
Y212441D02*
D03*
Y206142D02*
D03*
Y204567D02*
D03*
Y207717D02*
D03*
Y209291D02*
D03*
Y199843D02*
D03*
Y198268D02*
D03*
Y201417D02*
D03*
Y202992D02*
D03*
Y193543D02*
D03*
Y191969D02*
D03*
Y195118D02*
D03*
Y196693D02*
D03*
Y187244D02*
D03*
Y185669D02*
D03*
Y188819D02*
D03*
Y190394D02*
D03*
Y180945D02*
D03*
Y179370D02*
D03*
Y182520D02*
D03*
Y184095D02*
D03*
Y177795D02*
D03*
X91851Y176221D02*
D03*
Y182520D02*
D03*
Y180945D02*
D03*
Y177795D02*
D03*
Y179370D02*
D03*
Y188819D02*
D03*
Y187244D02*
D03*
Y184095D02*
D03*
Y185669D02*
D03*
Y195118D02*
D03*
Y193543D02*
D03*
Y190394D02*
D03*
Y191969D02*
D03*
Y201417D02*
D03*
Y199843D02*
D03*
Y196693D02*
D03*
Y198268D02*
D03*
Y209291D02*
D03*
Y207717D02*
D03*
Y202992D02*
D03*
Y206142D02*
D03*
Y212441D02*
D03*
Y210866D02*
D03*
Y214016D02*
D03*
Y215591D02*
D03*
Y174646D02*
D03*
Y173071D02*
D03*
Y169921D02*
D03*
Y171496D02*
D03*
Y165197D02*
D03*
Y163622D02*
D03*
Y166772D02*
D03*
Y168347D02*
D03*
Y158898D02*
D03*
Y157323D02*
D03*
Y160473D02*
D03*
Y162047D02*
D03*
Y204567D02*
D03*
Y154173D02*
D03*
Y155748D02*
D03*
X103976Y157323D02*
D03*
Y155748D02*
D03*
Y154173D02*
D03*
Y163622D02*
D03*
Y162047D02*
D03*
Y158898D02*
D03*
Y160473D02*
D03*
Y169921D02*
D03*
Y168347D02*
D03*
Y165197D02*
D03*
Y166772D02*
D03*
Y173071D02*
D03*
Y171496D02*
D03*
Y174646D02*
D03*
Y176221D02*
D03*
X91851Y217165D02*
D03*
X103976D02*
D03*
Y152599D02*
D03*
X91851Y152599D02*
D03*
X103976Y218740D02*
D03*
X91851D02*
D03*
Y151024D02*
D03*
X103976Y151024D02*
D03*
X91851Y220315D02*
D03*
X103976D02*
D03*
Y149449D02*
D03*
X91851Y149449D02*
D03*
X103976Y223465D02*
D03*
X91851D02*
D03*
Y221890D02*
D03*
X103976D02*
D03*
X91851Y146299D02*
D03*
X103976Y146299D02*
D03*
Y147874D02*
D03*
X91851Y147874D02*
D03*
X254803Y215591D02*
D03*
Y214016D02*
D03*
Y210866D02*
D03*
Y212441D02*
D03*
Y206142D02*
D03*
Y204567D02*
D03*
Y207717D02*
D03*
Y209291D02*
D03*
Y199843D02*
D03*
Y198268D02*
D03*
Y201417D02*
D03*
Y202992D02*
D03*
Y193543D02*
D03*
Y191969D02*
D03*
Y195118D02*
D03*
Y196693D02*
D03*
Y187244D02*
D03*
Y185669D02*
D03*
Y188819D02*
D03*
Y190394D02*
D03*
Y180945D02*
D03*
Y179370D02*
D03*
Y182520D02*
D03*
Y184095D02*
D03*
Y177795D02*
D03*
X242677Y176221D02*
D03*
Y182520D02*
D03*
Y180945D02*
D03*
Y177795D02*
D03*
Y179370D02*
D03*
Y188819D02*
D03*
Y187244D02*
D03*
Y184095D02*
D03*
Y185669D02*
D03*
Y195118D02*
D03*
Y193543D02*
D03*
Y190394D02*
D03*
Y191969D02*
D03*
Y201417D02*
D03*
Y199843D02*
D03*
Y196693D02*
D03*
Y198268D02*
D03*
Y209291D02*
D03*
Y207717D02*
D03*
Y202992D02*
D03*
Y206142D02*
D03*
Y212441D02*
D03*
Y210866D02*
D03*
Y214016D02*
D03*
Y215591D02*
D03*
Y174646D02*
D03*
Y173071D02*
D03*
Y169921D02*
D03*
Y171496D02*
D03*
Y165197D02*
D03*
Y163622D02*
D03*
Y166772D02*
D03*
Y168347D02*
D03*
Y158898D02*
D03*
Y157323D02*
D03*
Y160473D02*
D03*
Y162047D02*
D03*
Y204567D02*
D03*
Y154173D02*
D03*
Y155748D02*
D03*
X254803Y157323D02*
D03*
Y155748D02*
D03*
Y154173D02*
D03*
Y163622D02*
D03*
Y162047D02*
D03*
Y158898D02*
D03*
Y160473D02*
D03*
Y169921D02*
D03*
Y168347D02*
D03*
Y165197D02*
D03*
Y166772D02*
D03*
Y173071D02*
D03*
Y171496D02*
D03*
Y174646D02*
D03*
Y176221D02*
D03*
X242677Y217165D02*
D03*
X254803D02*
D03*
Y152599D02*
D03*
X242677Y152599D02*
D03*
X254803Y218740D02*
D03*
X242677D02*
D03*
Y151024D02*
D03*
X254803Y151024D02*
D03*
X242677Y220315D02*
D03*
X254803D02*
D03*
Y149449D02*
D03*
X242677Y149449D02*
D03*
X254803Y223465D02*
D03*
X242677D02*
D03*
Y221890D02*
D03*
X254803D02*
D03*
X242677Y146299D02*
D03*
X254803Y146299D02*
D03*
Y147874D02*
D03*
X242677Y147874D02*
D03*
D29*
X189764Y108071D02*
D03*
X188189D02*
D03*
X185039D02*
D03*
X186614D02*
D03*
X180315D02*
D03*
X178740D02*
D03*
X181890D02*
D03*
X183465D02*
D03*
X174016D02*
D03*
X172441D02*
D03*
X175591D02*
D03*
X177165D02*
D03*
X167717D02*
D03*
X166142D02*
D03*
X169291D02*
D03*
X170866D02*
D03*
X161417D02*
D03*
X159843D02*
D03*
X162992D02*
D03*
X164567D02*
D03*
X155118D02*
D03*
X153543D02*
D03*
X156693D02*
D03*
X158268D02*
D03*
X151969D02*
D03*
X150394Y120197D02*
D03*
X156693D02*
D03*
X155118D02*
D03*
X151969D02*
D03*
X153543D02*
D03*
X162992D02*
D03*
X161417D02*
D03*
X158268D02*
D03*
X159843D02*
D03*
X169291D02*
D03*
X167717D02*
D03*
X164567D02*
D03*
X166142D02*
D03*
X175591D02*
D03*
X174016D02*
D03*
X170866D02*
D03*
X172441D02*
D03*
X183465D02*
D03*
X181890D02*
D03*
X177165D02*
D03*
X180315D02*
D03*
X186614D02*
D03*
X185039D02*
D03*
X188189D02*
D03*
X189764D02*
D03*
X148819D02*
D03*
X147244D02*
D03*
X144095D02*
D03*
X145669D02*
D03*
X139370D02*
D03*
X137795D02*
D03*
X140945D02*
D03*
X142520D02*
D03*
X133071D02*
D03*
X131496D02*
D03*
X134646D02*
D03*
X136221D02*
D03*
X178740D02*
D03*
X128347D02*
D03*
X129921D02*
D03*
X131496Y108071D02*
D03*
X129921D02*
D03*
X128347D02*
D03*
X137795D02*
D03*
X136221D02*
D03*
X133071D02*
D03*
X134646D02*
D03*
X144095D02*
D03*
X142520D02*
D03*
X139370D02*
D03*
X140945D02*
D03*
X147244D02*
D03*
X145669D02*
D03*
X148819D02*
D03*
X150394D02*
D03*
X191339Y120197D02*
D03*
Y108071D02*
D03*
X126772D02*
D03*
X126772Y120197D02*
D03*
X192913Y108071D02*
D03*
Y120197D02*
D03*
X125197D02*
D03*
X125197Y108071D02*
D03*
X194488Y120197D02*
D03*
Y108071D02*
D03*
X123622D02*
D03*
X123622Y120197D02*
D03*
X197638Y108071D02*
D03*
Y120197D02*
D03*
X196063D02*
D03*
Y108071D02*
D03*
X120473Y120197D02*
D03*
X120473Y108071D02*
D03*
X122047D02*
D03*
X122047Y120197D02*
D03*
D30*
X157382Y69512D02*
D03*
X159350D02*
D03*
X161319D02*
D03*
X163287D02*
D03*
X165256D02*
D03*
X167225D02*
D03*
X169193D02*
D03*
X171161D02*
D03*
X173130D02*
D03*
X175099D02*
D03*
X177067D02*
D03*
X179035D02*
D03*
X178051Y63567D02*
D03*
X176083D02*
D03*
X174114D02*
D03*
X172146D02*
D03*
X170177D02*
D03*
X168209D02*
D03*
X166240D02*
D03*
X164272D02*
D03*
X162303D02*
D03*
X160335D02*
D03*
X158366D02*
D03*
X156398D02*
D03*
D31*
X191142Y76870D02*
D03*
X189370D02*
D03*
D32*
X190256Y74114D02*
D03*
D33*
X281201Y273622D02*
D03*
X274114D02*
D03*
X274114Y286614D02*
D03*
X281201D02*
D03*
X274114Y280118D02*
D03*
X281201D02*
D03*
D34*
X275689Y297539D02*
D03*
X278051D02*
D03*
D35*
X275689Y299902D02*
D03*
X278288D02*
D03*
X214941Y53740D02*
D03*
X217539D02*
D03*
X188307Y243504D02*
D03*
X185709D02*
D03*
X169016Y205807D02*
D03*
X166417D02*
D03*
X167225Y197353D02*
D03*
X169823D02*
D03*
X166417Y208957D02*
D03*
X169016D02*
D03*
X166516Y101378D02*
D03*
X169114D02*
D03*
D36*
X272146Y308366D02*
D03*
X273721D02*
D03*
X275295D02*
D03*
X276870D02*
D03*
X272146Y306791D02*
D03*
X273721D02*
D03*
X275295D02*
D03*
X276870D02*
D03*
X272146Y305217D02*
D03*
X273721D02*
D03*
X275295D02*
D03*
X276870D02*
D03*
X272146Y303642D02*
D03*
X273721D02*
D03*
X275295D02*
D03*
X276870D02*
D03*
X272146Y302067D02*
D03*
X273721D02*
D03*
X275295D02*
D03*
X276870D02*
D03*
D37*
X246260Y293701D02*
D03*
X252953D02*
D03*
X246260Y266142D02*
D03*
X239567D02*
D03*
X181004Y7579D02*
D03*
X187697D02*
D03*
X239567Y271654D02*
D03*
X246260D02*
D03*
X239567Y277165D02*
D03*
X246260D02*
D03*
X241929Y282677D02*
D03*
X248622D02*
D03*
X243898Y288189D02*
D03*
X250591D02*
D03*
X194095Y55315D02*
D03*
X200787D02*
D03*
D38*
X255118Y275197D02*
D03*
X251181D02*
D03*
X250984Y269193D02*
D03*
X254921D02*
D03*
X256496Y278150D02*
D03*
X252559D02*
D03*
X209055Y221654D02*
D03*
X205118D02*
D03*
X169291Y200787D02*
D03*
X165354D02*
D03*
X209842Y9843D02*
D03*
X205906D02*
D03*
X209646Y22047D02*
D03*
X205709D02*
D03*
X194685Y70374D02*
D03*
X198622D02*
D03*
X197638Y89567D02*
D03*
X193701D02*
D03*
X239370Y242126D02*
D03*
X235433D02*
D03*
D39*
X262598Y284631D02*
D03*
Y293962D02*
D03*
D40*
X257973Y271260D02*
D03*
Y273228D02*
D03*
Y275197D02*
D03*
X265256Y271260D02*
D03*
Y273228D02*
D03*
Y275197D02*
D03*
D41*
X260630Y275886D02*
D03*
D42*
X262598Y274409D02*
D03*
D43*
X260630Y271457D02*
D03*
D44*
X267461Y279943D02*
D03*
Y276006D02*
D03*
X213091Y38189D02*
D03*
Y42126D02*
D03*
X188878Y38780D02*
D03*
Y42717D02*
D03*
X186319Y30906D02*
D03*
Y34843D02*
D03*
X197638Y35236D02*
D03*
Y31299D02*
D03*
X195276Y189764D02*
D03*
Y193701D02*
D03*
X200984Y10531D02*
D03*
Y14469D02*
D03*
X160630Y17028D02*
D03*
Y20965D02*
D03*
X212598Y28543D02*
D03*
Y32480D02*
D03*
X203445Y40453D02*
D03*
Y36516D02*
D03*
X201476Y32382D02*
D03*
Y28445D02*
D03*
X214567Y12205D02*
D03*
Y16142D02*
D03*
X201181Y61614D02*
D03*
Y65551D02*
D03*
X307854Y321949D02*
D03*
Y318012D02*
D03*
X53543Y321654D02*
D03*
Y317717D02*
D03*
X180217Y91240D02*
D03*
Y87303D02*
D03*
D45*
X254724Y262598D02*
D03*
Y266535D02*
D03*
X190551Y96358D02*
D03*
Y100295D02*
D03*
X135630Y197343D02*
D03*
Y201279D02*
D03*
X130807Y201279D02*
D03*
Y197343D02*
D03*
X84646Y259842D02*
D03*
Y263779D02*
D03*
X194291Y78150D02*
D03*
Y74213D02*
D03*
X189370Y65551D02*
D03*
Y61614D02*
D03*
X89862Y255413D02*
D03*
Y259350D02*
D03*
X89961Y264370D02*
D03*
Y268307D02*
D03*
X89862Y273228D02*
D03*
Y277165D02*
D03*
X197835Y100295D02*
D03*
Y96358D02*
D03*
X183366Y97736D02*
D03*
Y101673D02*
D03*
X194390Y96358D02*
D03*
Y100295D02*
D03*
X104331Y69882D02*
D03*
Y73819D02*
D03*
X244094Y237795D02*
D03*
Y241732D02*
D03*
X290945Y316929D02*
D03*
Y320866D02*
D03*
X237402Y192618D02*
D03*
Y188681D02*
D03*
D46*
X209350Y32283D02*
D03*
X207776D02*
D03*
X206201D02*
D03*
X204626D02*
D03*
X209350Y28740D02*
D03*
X207776D02*
D03*
X206201D02*
D03*
X204626D02*
D03*
X194291Y34843D02*
D03*
X192717D02*
D03*
X191142D02*
D03*
X189567D02*
D03*
X194291Y31299D02*
D03*
X192717D02*
D03*
X191142D02*
D03*
X189567D02*
D03*
D47*
X109154Y73228D02*
D03*
Y66535D02*
D03*
X84252Y269882D02*
D03*
Y276575D02*
D03*
D48*
X215945Y49803D02*
D03*
X211024D02*
D03*
D49*
X218996Y46752D02*
D03*
Y44980D02*
D03*
Y43209D02*
D03*
Y41437D02*
D03*
Y39665D02*
D03*
Y37894D02*
D03*
X229626D02*
D03*
Y39665D02*
D03*
Y41437D02*
D03*
Y43209D02*
D03*
Y44980D02*
D03*
Y46752D02*
D03*
D50*
X224311Y42323D02*
D03*
D51*
X216240Y38268D02*
D03*
Y40866D02*
D03*
X232185Y38661D02*
D03*
Y41260D02*
D03*
X184744Y228327D02*
D03*
Y230925D02*
D03*
X180807Y239390D02*
D03*
Y236791D02*
D03*
X181791Y230925D02*
D03*
Y228327D02*
D03*
X171654Y83976D02*
D03*
Y81378D02*
D03*
X168504Y83976D02*
D03*
Y81378D02*
D03*
X162992Y83976D02*
D03*
Y81378D02*
D03*
X159843Y83976D02*
D03*
Y81378D02*
D03*
D52*
X216240Y43504D02*
D03*
Y45866D02*
D03*
D53*
X222998Y53455D02*
D03*
X224337Y52274D02*
D03*
X225675Y53455D02*
D03*
X178307Y57406D02*
D03*
X176969Y56224D02*
D03*
X175630Y57406D02*
D03*
X169449Y74803D02*
D03*
X168110Y75984D02*
D03*
X166772Y74803D02*
D03*
X156634Y74803D02*
D03*
X157973Y75984D02*
D03*
X159311Y74803D02*
D03*
X179095Y74803D02*
D03*
X177756Y75984D02*
D03*
X176417Y74803D02*
D03*
X156929Y57209D02*
D03*
X158268Y56028D02*
D03*
X159606Y57209D02*
D03*
D54*
X299003Y125470D02*
D03*
X296247Y120696D02*
D03*
X304515Y135017D02*
D03*
X301759Y130243D02*
D03*
X307271Y139790D02*
D03*
D55*
X323285Y139181D02*
D03*
X311011Y146268D02*
D03*
X274860Y55307D02*
D03*
D56*
X272232Y79100D02*
D03*
D57*
X264554Y65803D02*
D03*
D58*
X198489Y237732D02*
D03*
X205448Y230772D02*
D03*
D59*
X243996Y46161D02*
D03*
X245965D02*
D03*
X247933D02*
D03*
X249902D02*
D03*
X251870D02*
D03*
X253839D02*
D03*
X255807D02*
D03*
X257776D02*
D03*
X195276Y23622D02*
D03*
X192913D02*
D03*
X190551D02*
D03*
X188189D02*
D03*
X185827D02*
D03*
X183465D02*
D03*
X181102D02*
D03*
X178740D02*
D03*
X176378D02*
D03*
X174016D02*
D03*
X171654D02*
D03*
X169291D02*
D03*
X166929D02*
D03*
D60*
X240059Y36319D02*
D03*
X261713Y36319D02*
D03*
D61*
X230807Y58760D02*
D03*
X228248D02*
D03*
X225689D02*
D03*
X223130D02*
D03*
X220571D02*
D03*
D62*
X283223Y35968D02*
D03*
X267084Y35686D02*
D03*
X283113Y42266D02*
D03*
X266974Y41985D02*
D03*
D63*
X161988Y212598D02*
D03*
X165571D02*
D03*
D64*
X187008Y211417D02*
D03*
D65*
X200492Y222244D02*
D03*
Y220276D02*
D03*
Y218307D02*
D03*
Y216339D02*
D03*
Y214370D02*
D03*
Y212402D02*
D03*
Y210433D02*
D03*
Y208465D02*
D03*
Y206496D02*
D03*
Y204528D02*
D03*
Y202559D02*
D03*
Y200591D02*
D03*
X173524D02*
D03*
Y202559D02*
D03*
Y204528D02*
D03*
Y206496D02*
D03*
Y208465D02*
D03*
Y210433D02*
D03*
Y212402D02*
D03*
Y214370D02*
D03*
Y216339D02*
D03*
Y218307D02*
D03*
Y220276D02*
D03*
Y222244D02*
D03*
D66*
X197835Y197933D02*
D03*
X195866D02*
D03*
X193898D02*
D03*
X191929D02*
D03*
X189961D02*
D03*
X187992D02*
D03*
X186024D02*
D03*
X184055D02*
D03*
X182087D02*
D03*
X180118D02*
D03*
X178150D02*
D03*
X176181D02*
D03*
Y224902D02*
D03*
X178150D02*
D03*
X180118D02*
D03*
X182087D02*
D03*
X184055D02*
D03*
X186024D02*
D03*
X187992D02*
D03*
X189961D02*
D03*
X191929D02*
D03*
X193898D02*
D03*
X195866D02*
D03*
X197835D02*
D03*
D67*
X160827Y223819D02*
D03*
Y217126D02*
D03*
X200295Y184646D02*
D03*
Y191339D02*
D03*
X198819Y74213D02*
D03*
Y80905D02*
D03*
D68*
X189665Y239862D02*
D03*
Y235728D02*
D03*
X184350D02*
D03*
Y239862D02*
D03*
D69*
X209580Y234908D02*
D03*
X207743Y236746D02*
D03*
X202887Y241601D02*
D03*
X204725Y239764D02*
D03*
D70*
X162992Y207303D02*
D03*
Y203720D02*
D03*
D71*
X236221Y212795D02*
D03*
X224410D02*
D03*
Y221654D02*
D03*
X236221D02*
D03*
X224410Y230315D02*
D03*
X236221D02*
D03*
X273622Y230315D02*
D03*
X261811D02*
D03*
X273622Y238976D02*
D03*
X261811D02*
D03*
X235039Y257874D02*
D03*
X246850D02*
D03*
D72*
X194095Y12303D02*
D03*
X191732D02*
D03*
X189370D02*
D03*
X187008D02*
D03*
X184646D02*
D03*
X182283D02*
D03*
X179921D02*
D03*
X177559D02*
D03*
X175197D02*
D03*
X172835D02*
D03*
X170473D02*
D03*
X168110D02*
D03*
D73*
X198031Y22539D02*
D03*
X164173D02*
D03*
D74*
X150591Y20669D02*
D03*
Y13583D02*
D03*
X156102D02*
D03*
Y20669D02*
D03*
D75*
X208071Y15945D02*
D03*
D76*
X204921Y17913D02*
D03*
Y15945D02*
D03*
Y13976D02*
D03*
X211221Y17913D02*
D03*
Y15945D02*
D03*
Y13976D02*
D03*
D77*
X269685Y264961D02*
D03*
Y272047D02*
D03*
D78*
X320532Y317520D02*
D03*
Y321850D02*
D03*
X313327D02*
D03*
Y317520D02*
D03*
X48878Y321850D02*
D03*
Y317520D02*
D03*
X41673D02*
D03*
Y321850D02*
D03*
D79*
X263386Y314764D02*
D03*
X277165Y332480D02*
D03*
Y314764D02*
D03*
D80*
X181988Y55610D02*
D03*
X188681D02*
D03*
D81*
X195473Y63583D02*
D03*
D82*
X193504Y59744D02*
D03*
X195473D02*
D03*
X197441D02*
D03*
X193504Y67421D02*
D03*
X195473D02*
D03*
X197441D02*
D03*
D83*
X97736Y276476D02*
D03*
X100295D02*
D03*
X102854D02*
D03*
X105413D02*
D03*
D84*
X98571Y283268D02*
D03*
X104579D02*
D03*
D85*
X106595Y262795D02*
D03*
Y265354D02*
D03*
Y267913D02*
D03*
Y270472D02*
D03*
X96280Y262795D02*
D03*
Y265354D02*
D03*
Y267913D02*
D03*
D86*
Y270472D02*
D03*
D87*
X169488Y59055D02*
D03*
Y55118D02*
D03*
X165354Y53937D02*
D03*
Y57874D02*
D03*
D88*
X167717Y93602D02*
D03*
D89*
X176181Y94587D02*
D03*
Y92618D02*
D03*
X159252D02*
D03*
Y94587D02*
D03*
D90*
X174606Y89075D02*
D03*
X172638D02*
D03*
X170669D02*
D03*
X168701D02*
D03*
X166732D02*
D03*
X164764D02*
D03*
X162795D02*
D03*
X160827D02*
D03*
Y98130D02*
D03*
X162795D02*
D03*
X164764D02*
D03*
X166732D02*
D03*
X168701D02*
D03*
X170669D02*
D03*
X172638D02*
D03*
X174606D02*
D03*
D91*
X186713Y87697D02*
D03*
X188287D02*
D03*
Y92421D02*
D03*
X186713D02*
D03*
D92*
X190354Y87697D02*
D03*
Y89272D02*
D03*
Y90846D02*
D03*
Y92421D02*
D03*
X184646D02*
D03*
Y90846D02*
D03*
Y89272D02*
D03*
Y87697D02*
D03*
D93*
X87611Y83192D02*
D03*
X84855Y87965D02*
D03*
X93123Y73645D02*
D03*
X90367Y78418D02*
D03*
X95879Y68871D02*
D03*
D94*
X156693Y287402D02*
D03*
X162205D02*
D03*
X145669D02*
D03*
X151181D02*
D03*
X140157D02*
D03*
D95*
X132677Y301575D02*
D03*
Y287402D02*
D03*
X229528Y301575D02*
D03*
D96*
X210236Y287402D02*
D03*
D97*
X225591D02*
D03*
D98*
X87345Y55307D02*
D03*
X99619Y62393D02*
D03*
X38919Y139181D02*
D03*
D99*
X60839Y129561D02*
D03*
D100*
X53162Y142859D02*
D03*
D101*
X243406Y251181D02*
D03*
X241437D02*
D03*
X239469D02*
D03*
X237500D02*
D03*
X235531D02*
D03*
Y246260D02*
D03*
X237500D02*
D03*
X239469D02*
D03*
X241437D02*
D03*
X243406D02*
D03*
D102*
X226378Y237894D02*
D03*
Y249705D02*
D03*
D103*
X284547Y331496D02*
D03*
Y316929D02*
D03*
D104*
X295473Y317913D02*
D03*
X302953D02*
D03*
X299213Y328150D02*
D03*
D105*
X167126Y69512D02*
X167225Y69610D01*
X167126Y69512D02*
X167382Y69256D01*
X169419Y74774D02*
X169449Y74803D01*
X169419Y73628D02*
Y74774D01*
X169390Y73289D02*
Y73598D01*
X169419Y73628D01*
X168986Y72886D02*
X169390Y73289D01*
X168986Y69718D02*
X169193Y69512D01*
X168986Y69718D02*
Y72886D01*
X166240Y61288D02*
Y63567D01*
X166240Y61288D02*
X166240Y61288D01*
X162041Y112878D02*
Y113187D01*
X161458Y113771D02*
X162041Y113187D01*
X161407Y120187D02*
X161417Y120197D01*
X161407Y117087D02*
Y120187D01*
X161458Y113771D02*
Y117036D01*
X161407Y117087D02*
X161458Y117036D01*
X166831Y73303D02*
Y73612D01*
Y73303D02*
X167431Y72703D01*
X166772Y74803D02*
X166801Y74774D01*
Y73642D02*
X166831Y73612D01*
X166801Y73642D02*
Y74774D01*
X167225Y69512D02*
X167431Y69718D01*
X167382Y67012D02*
X168209Y66185D01*
Y63567D02*
Y66185D01*
X167431Y69718D02*
Y72703D01*
X167225Y69512D02*
Y69610D01*
X167382Y67012D02*
Y69256D01*
X159852Y116443D02*
X159903Y116392D01*
Y113794D02*
Y116392D01*
X159319Y113210D02*
X159903Y113794D01*
X159843Y120197D02*
X159852Y120187D01*
Y116443D02*
Y120187D01*
X159319Y112901D02*
Y113210D01*
X166555Y88898D02*
X166732Y89075D01*
X166555Y87869D02*
Y88898D01*
X166526Y87840D02*
X166555Y87869D01*
X166526Y79660D02*
Y87840D01*
X164558Y77692D02*
X166526Y79660D01*
X164558Y77692D02*
X164558D01*
X163967Y77101D02*
X164558Y77692D01*
X160059Y63291D02*
X160335Y63567D01*
X160059Y61682D02*
Y63291D01*
X159115Y60737D02*
X160059Y61682D01*
X159577Y57238D02*
X159606Y57209D01*
X159547Y59276D02*
X159577Y59246D01*
X159115Y60017D02*
Y60737D01*
X159577Y57238D02*
Y59246D01*
X164941Y87869D02*
X164971Y87840D01*
Y80304D02*
Y87840D01*
X163913Y79247D02*
X164971Y80304D01*
X164941Y87869D02*
Y88898D01*
X164764Y89075D02*
X164941Y88898D01*
X163913Y79247D02*
X163913D01*
X162411Y77745D02*
X163913Y79247D01*
X158091Y63291D02*
X158366Y63567D01*
X157560Y61382D02*
X158091Y61912D01*
Y63291D01*
X157560Y60156D02*
Y61382D01*
X156988Y59585D02*
X157560Y60156D01*
X156959Y59246D02*
X156988Y59276D01*
Y59585D01*
X156959Y57238D02*
Y59246D01*
X156929Y57209D02*
X156959Y57238D01*
X164469Y75099D02*
Y75407D01*
X161909Y75099D02*
Y75407D01*
X162411Y75909D01*
Y77745D01*
X163967Y75909D02*
X164469Y75407D01*
X163967Y75909D02*
Y77101D01*
X171654Y75098D02*
Y75407D01*
X172155Y75909D01*
Y76929D01*
X174340Y60837D02*
X175689Y59488D01*
X174340Y60837D02*
Y63341D01*
X174114Y63567D02*
X174340Y63341D01*
X169872Y79213D02*
X172155Y76929D01*
X169872Y79213D02*
Y79892D01*
X168504Y81260D02*
X169872Y79892D01*
X175660Y57435D02*
Y59443D01*
X175630Y57406D02*
X175660Y57435D01*
X168504Y81260D02*
Y81378D01*
X174213Y75098D02*
Y75407D01*
X173711Y75909D02*
X174213Y75407D01*
X173711Y77573D02*
X173711Y77573D01*
X173711Y75909D02*
Y77573D01*
X176358Y61408D02*
Y63291D01*
Y61408D02*
X178248Y59518D01*
X178278Y57435D02*
Y59443D01*
Y57435D02*
X178307Y57406D01*
X178248Y59473D02*
X178278Y59443D01*
X171427Y79857D02*
X173711Y77573D01*
X171427Y81151D02*
X171654Y81378D01*
X171427Y79857D02*
Y81151D01*
X176083Y63567D02*
X176358Y63291D01*
X178248Y59473D02*
Y59488D01*
Y59518D01*
X173711Y77573D02*
Y77573D01*
X226142Y49941D02*
X229331Y46752D01*
X229626D01*
X219291D02*
X222480Y49941D01*
X218996Y46752D02*
X219291D01*
X225754Y52116D02*
Y53376D01*
Y52116D02*
X226142Y51728D01*
X225675Y53455D02*
X225754Y53376D01*
X226142Y49941D02*
Y51728D01*
X225187Y58258D02*
X225689Y58760D01*
X225187Y53903D02*
Y58258D01*
Y53903D02*
X225556Y53534D01*
X225596D02*
X225675Y53455D01*
X225556Y53534D02*
X225596D01*
X223632Y53967D02*
Y58258D01*
X223198Y53534D02*
X223632Y53967D01*
X223130Y58760D02*
X223632Y58258D01*
X223077Y53534D02*
X223198D01*
X222998Y53455D02*
X223077Y53534D01*
X222919Y53376D02*
X222998Y53455D01*
X222919Y52116D02*
Y53376D01*
X222480Y51677D02*
X222919Y52116D01*
X222480Y49941D02*
Y51677D01*
X175768Y77989D02*
X176978Y79199D01*
X175768Y76342D02*
Y77989D01*
Y76342D02*
X176339Y75771D01*
Y74882D02*
Y75771D01*
X178533Y79199D02*
X179744Y77989D01*
Y76342D02*
Y77989D01*
X179173Y75771D02*
X179744Y76342D01*
X179173Y74882D02*
Y75771D01*
X159961Y76145D02*
Y78228D01*
X159921Y76105D02*
X159961Y76145D01*
X159921Y75413D02*
Y76105D01*
X159311Y74803D02*
X159921Y75413D01*
X155984Y77792D02*
X158940Y80748D01*
X155984Y75453D02*
Y77792D01*
X164655Y103695D02*
X166063Y105103D01*
X164488Y105727D02*
Y107992D01*
X164685Y98307D02*
X164862Y98130D01*
X166063Y106221D02*
X166142Y106299D01*
X166063Y105103D02*
Y106221D01*
X163100Y104340D02*
X164488Y105727D01*
X163100Y99365D02*
Y104340D01*
X164488Y107992D02*
X164567Y108071D01*
X166142Y106299D02*
Y108071D01*
X169370Y105103D02*
Y106221D01*
X170945Y105727D02*
Y107992D01*
X172559Y98307D02*
X172736Y98130D01*
X169370Y105103D02*
X170974Y103499D01*
X170945Y105727D02*
X172530Y104143D01*
Y99365D02*
Y104143D01*
X169291Y106299D02*
X169370Y106221D01*
X169291Y106299D02*
Y108071D01*
X170866D02*
X170945Y107992D01*
X178533Y79199D02*
Y82348D01*
X179095Y74803D02*
X179173Y74882D01*
X174429Y88898D02*
X174606Y89075D01*
X174429Y87869D02*
Y88898D01*
X174400Y87840D02*
X174429Y87869D01*
X174400Y86482D02*
X178533Y82348D01*
X174400Y86482D02*
Y87840D01*
X176978Y79199D02*
Y81704D01*
X176339Y74882D02*
X176417Y74803D01*
X172815Y87869D02*
X172845Y87840D01*
X172638Y89075D02*
X172815Y88898D01*
Y87869D02*
Y88898D01*
X172845Y85838D02*
X176978Y81704D01*
X172845Y85838D02*
Y87840D01*
X175099Y69512D02*
X175374Y69787D01*
Y71692D01*
X176978Y73296D01*
Y74355D01*
X176609Y74724D02*
X176978Y74355D01*
X176496Y74724D02*
X176609D01*
X176417Y74803D02*
X176496Y74724D01*
X178902D02*
X179016D01*
X177210Y71328D02*
X178533Y72652D01*
X177067Y69512D02*
X177210Y69654D01*
Y71328D01*
X178533Y74355D02*
X178902Y74724D01*
X178533Y72652D02*
Y74355D01*
X179016Y74724D02*
X179095Y74803D01*
X159843Y81260D02*
Y81378D01*
X159331Y80748D02*
X159843Y81260D01*
X158940Y80748D02*
X159331D01*
X155984Y75453D02*
X156634Y74803D01*
X159961Y78228D02*
X162992Y81260D01*
Y81378D01*
X159311Y74803D02*
X159390Y74724D01*
X159759Y73857D02*
X159832D01*
X161112Y69718D02*
Y72577D01*
Y69718D02*
X161319Y69512D01*
X159832Y73857D02*
X161112Y72577D01*
X156634Y74803D02*
X156713Y74724D01*
X159390Y74226D02*
X159759Y73857D01*
X156713Y74724D02*
X156826D01*
X157835Y73582D02*
Y73716D01*
Y73582D02*
X159115Y72302D01*
X159188D01*
X159557Y71933D01*
X159350Y69512D02*
X159557Y69718D01*
Y71933D01*
X156826Y74724D02*
X157835Y73716D01*
X159390Y74226D02*
Y74724D01*
X162618Y87869D02*
Y88898D01*
X162589Y87840D02*
X162618Y87869D01*
X162195Y84892D02*
Y86231D01*
X162589Y86625D02*
Y87840D01*
X162195Y84892D02*
X162992Y84095D01*
X161033Y87269D02*
Y87840D01*
X161004Y87869D02*
X161033Y87840D01*
X162992Y83976D02*
Y84095D01*
X159843Y83976D02*
Y84095D01*
X162195Y86231D02*
X162589Y86625D01*
X159843Y84095D02*
X160640Y84892D01*
Y86875D02*
X161033Y87269D01*
X161004Y87869D02*
Y88898D01*
X162618D02*
X162795Y89075D01*
X160827D02*
X161004Y88898D01*
X160640Y84892D02*
Y86875D01*
X168504Y83976D02*
X169016Y84488D01*
Y84897D02*
X169094Y84975D01*
X168907Y85684D02*
Y87840D01*
X168878Y87869D02*
X168907Y87840D01*
X170492Y87869D02*
Y88898D01*
X169016Y84488D02*
Y84897D01*
X170649Y85099D02*
Y86141D01*
X171654Y83976D02*
Y84095D01*
X170463Y86328D02*
Y87840D01*
X168878Y87869D02*
Y88898D01*
X169094Y84975D02*
Y85497D01*
X168701Y89075D02*
X168878Y88898D01*
X170492D02*
X170669Y89075D01*
X170463Y87840D02*
X170492Y87869D01*
X168907Y85684D02*
X169094Y85497D01*
X170463Y86328D02*
X170649Y86141D01*
Y85099D02*
X171654Y84095D01*
X172530Y99365D02*
X172559Y99335D01*
Y98307D02*
Y99335D01*
X170974Y99365D02*
Y103499D01*
X170945Y99335D02*
X170974Y99365D01*
X170945Y98307D02*
Y99335D01*
X170768Y98130D02*
X170945Y98307D01*
X164655Y99365D02*
Y103695D01*
Y99365D02*
X164685Y99335D01*
Y98307D02*
Y99335D01*
X163071Y99335D02*
X163100Y99365D01*
X163071Y98307D02*
Y99335D01*
X162894Y98130D02*
X163071Y98307D01*
D106*
X272146Y305217D02*
Y306791D01*
X273721Y305217D02*
X275295D01*
Y306791D02*
X276870D01*
X272146D02*
X273721D01*
X276870Y305217D02*
Y306791D01*
D107*
X102852Y288681D02*
D03*
X105413Y288679D02*
D03*
X100293Y288681D02*
D03*
X97736Y288679D02*
D03*
D108*
X224410Y7874D02*
D03*
X137795D02*
D03*
X248031Y309055D02*
D03*
Y328740D02*
D03*
X267323Y254331D02*
D03*
X96063Y114567D02*
D03*
D109*
X155315Y271654D02*
D03*
X160236D02*
D03*
X165157D02*
D03*
X170079D02*
D03*
X217815Y75945D02*
D03*
X222736D02*
D03*
X227658D02*
D03*
X232579D02*
D03*
X205512Y271654D02*
D03*
X210433D02*
D03*
X215354D02*
D03*
X220276D02*
D03*
X225197D02*
D03*
X230118D02*
D03*
X182874D02*
D03*
X192717D02*
D03*
X187795D02*
D03*
D110*
X151988Y70870D02*
D03*
X183445Y62209D02*
D03*
D111*
X151988D02*
D03*
X183445Y70870D02*
D03*
D112*
X152854Y66539D02*
D03*
X182579D02*
D03*
D113*
X66929Y293307D02*
D03*
X19685D02*
D03*
X350394D02*
D03*
X303150D02*
D03*
D114*
X225689Y68209D02*
D03*
D115*
X237205Y66043D02*
D03*
D116*
X214173D02*
D03*
D117*
X238209Y61516D02*
D03*
X213169D02*
D03*
D118*
X116535Y307716D02*
D03*
Y327716D02*
D03*
Y317717D02*
D03*
D119*
X218133Y109711D02*
D03*
X221850Y167913D02*
D03*
X221949Y159547D02*
D03*
X224311Y152854D02*
D03*
X235045Y170379D02*
D03*
X236078Y178135D02*
D03*
X229003D02*
D03*
X163484Y277854D02*
D03*
X165059Y275689D02*
D03*
X135905Y275480D02*
D03*
X137402Y273130D02*
D03*
X246850Y187992D02*
D03*
X201673Y268996D02*
D03*
X266831Y303740D02*
D03*
X140945Y268799D02*
D03*
X142224Y259646D02*
D03*
X145177Y248327D02*
D03*
X157973Y249311D02*
D03*
X158465Y238779D02*
D03*
X179331Y190650D02*
D03*
X177392Y192344D02*
D03*
X186024Y191634D02*
D03*
X170768Y193012D02*
D03*
X163189Y190748D02*
D03*
X170965Y184941D02*
D03*
X156201Y197933D02*
D03*
X152756Y203543D02*
D03*
X151349Y206229D02*
D03*
X144206Y199470D02*
D03*
X143186Y202123D02*
D03*
X177159Y174865D02*
D03*
X175000Y176870D02*
D03*
X170805Y167851D02*
D03*
X168504Y170177D02*
D03*
X128248Y151969D02*
D03*
X121260Y146850D02*
D03*
X144390Y145669D02*
D03*
X169390Y73598D02*
D03*
X166240Y61288D02*
D03*
X166831Y73612D02*
D03*
X162041Y112878D02*
D03*
X159319Y112901D02*
D03*
X160646Y96659D02*
D03*
X207162Y76829D02*
D03*
X207382Y73721D02*
D03*
X184815Y113127D02*
D03*
X180837Y116442D02*
D03*
X183394Y116540D02*
D03*
X186319Y124409D02*
D03*
X189370Y124016D02*
D03*
X146358Y143898D02*
D03*
X183110Y102671D02*
D03*
X186388Y100145D02*
D03*
X186142Y97244D02*
D03*
X184188Y93356D02*
D03*
X190244Y95472D02*
D03*
X187993Y102225D02*
D03*
X192565Y93808D02*
D03*
X207223Y116654D02*
D03*
X211092Y116333D02*
D03*
X208349Y119031D02*
D03*
X207263Y113621D02*
D03*
X212894Y113386D02*
D03*
X204429Y96752D02*
D03*
X182558Y89178D02*
D03*
X182973Y76083D02*
D03*
X213386Y73690D02*
D03*
X214365Y71275D02*
D03*
X214665Y38267D02*
D03*
X216822Y43406D02*
D03*
X222539Y42717D02*
D03*
Y38780D02*
D03*
Y45866D02*
D03*
X181496Y18504D02*
D03*
X159547Y59276D02*
D03*
X156988D02*
D03*
X161909Y75099D02*
D03*
X171654Y75098D02*
D03*
X174213Y75098D02*
D03*
X175689Y59488D02*
D03*
X178248D02*
D03*
X164469Y75099D02*
D03*
X138189Y276673D02*
D03*
X272342Y310039D02*
D03*
X268902Y305617D02*
D03*
X270315Y307451D02*
D03*
X107874Y204527D02*
D03*
X230315Y248819D02*
D03*
X225591Y256693D02*
D03*
X232677Y236221D02*
D03*
X230709Y254724D02*
D03*
X226772Y245669D02*
D03*
X179134Y233465D02*
D03*
X178445Y238405D02*
D03*
X166161Y199053D02*
D03*
X162576Y198348D02*
D03*
X162382Y200965D02*
D03*
X164250Y193166D02*
D03*
X150000Y202756D02*
D03*
X146937Y200911D02*
D03*
X90945Y255315D02*
D03*
X208760Y222736D02*
D03*
X198819Y186516D02*
D03*
X199016Y189961D02*
D03*
X215084Y55078D02*
D03*
X200000Y70669D02*
D03*
X197954Y79181D02*
D03*
X93898Y262894D02*
D03*
X246260Y293701D02*
D03*
X274803Y310138D02*
D03*
X301575Y319783D02*
D03*
X277756Y309941D02*
D03*
X189489Y78932D02*
D03*
X188189Y81693D02*
D03*
X190157Y84941D02*
D03*
X185630Y76279D02*
D03*
X194883Y78145D02*
D03*
X179231Y88476D02*
D03*
X182156Y91800D02*
D03*
X241787Y283623D02*
D03*
X239567Y277165D02*
D03*
X275295Y295256D02*
D03*
X280315Y272047D02*
D03*
Y275197D02*
D03*
X278150Y298524D02*
D03*
X279331Y305610D02*
D03*
X280020Y307776D02*
D03*
X268110Y264961D02*
D03*
X183465Y232283D02*
D03*
X185039Y228346D02*
D03*
X146063Y203543D02*
D03*
X148425Y204724D02*
D03*
X172835Y170472D02*
D03*
X175197Y172441D02*
D03*
X173228Y174409D02*
D03*
X233858Y176378D02*
D03*
X271260Y264961D02*
D03*
X254724Y262598D02*
D03*
X251181Y275197D02*
D03*
X252953Y278150D02*
D03*
X264665Y265748D02*
D03*
X243898Y288189D02*
D03*
X275098Y264764D02*
D03*
X262205Y268110D02*
D03*
X281496Y269685D02*
D03*
X205166Y20856D02*
D03*
X195276Y25394D02*
D03*
X198143Y34830D02*
D03*
X201366Y31342D02*
D03*
X200492Y28937D02*
D03*
X196438Y32038D02*
D03*
X267834Y67546D02*
D03*
X263440Y67810D02*
D03*
X265409Y71219D02*
D03*
X53032Y139147D02*
D03*
X57426Y139410D02*
D03*
X55458Y142820D02*
D03*
X224410Y287402D02*
D03*
X220473Y285433D02*
D03*
Y289370D02*
D03*
X210236Y289370D02*
D03*
X214173Y285433D02*
D03*
X206299D02*
D03*
X214173Y289370D02*
D03*
X206299D02*
D03*
X210236Y285433D02*
D03*
X306791Y322047D02*
D03*
X205315Y94193D02*
D03*
X236162Y167542D02*
D03*
X197689Y75317D02*
D03*
X199968Y64633D02*
D03*
X186614Y111308D02*
D03*
X191785Y111830D02*
D03*
X200000Y73327D02*
D03*
X191280Y67151D02*
D03*
X214378Y110681D02*
D03*
X198182Y119162D02*
D03*
X165551Y66732D02*
D03*
X169580Y57894D02*
D03*
X115748Y288976D02*
D03*
X111024Y288976D02*
D03*
X115252Y284115D02*
D03*
X106299Y288976D02*
D03*
X216395Y107422D02*
D03*
X280315Y288583D02*
D03*
Y285433D02*
D03*
Y281890D02*
D03*
Y278740D02*
D03*
X245950Y48564D02*
D03*
X275591Y240945D02*
D03*
X271654Y237008D02*
D03*
X221324Y156465D02*
D03*
X223178Y149991D02*
D03*
X231288Y176904D02*
D03*
X199879Y81790D02*
D03*
X192421Y100295D02*
D03*
X216718Y145042D02*
D03*
X220511Y170420D02*
D03*
X220866Y162401D02*
D03*
X195217Y190414D02*
D03*
X170950Y172322D02*
D03*
X177205Y123475D02*
D03*
X163091Y124114D02*
D03*
X173031Y186614D02*
D03*
X173233Y183466D02*
D03*
X166140Y190836D02*
D03*
X158760Y198721D02*
D03*
X197047Y255906D02*
D03*
X182434Y242832D02*
D03*
X107382Y65551D02*
D03*
X105118Y68405D02*
D03*
X126673Y149901D02*
D03*
X141931Y144495D02*
D03*
X122835Y149114D02*
D03*
X120472Y116961D02*
D03*
X230807Y55610D02*
D03*
X224311Y50886D02*
D03*
X232707Y38721D02*
D03*
X212402Y50000D02*
D03*
X226083Y42717D02*
D03*
Y38780D02*
D03*
X231496Y41339D02*
D03*
X226083Y45866D02*
D03*
X140945Y271358D02*
D03*
X145635Y250864D02*
D03*
X157880Y236260D02*
D03*
X162525Y222072D02*
D03*
X162816Y213881D02*
D03*
X162463Y218110D02*
D03*
X157677Y246752D02*
D03*
X174508Y189173D02*
D03*
X125197Y116960D02*
D03*
X307087Y139862D02*
D03*
X271437Y54101D02*
D03*
X264617Y58038D02*
D03*
X263176Y63416D02*
D03*
X324059Y137371D02*
D03*
X276815Y55542D02*
D03*
X310420Y145245D02*
D03*
X322618Y142749D02*
D03*
X315798Y146686D02*
D03*
X111024Y279527D02*
D03*
Y274803D02*
D03*
X115748D02*
D03*
X169238Y190794D02*
D03*
X183227Y190096D02*
D03*
X134646Y123622D02*
D03*
X205610Y237500D02*
D03*
X193927Y238499D02*
D03*
X194141Y233529D02*
D03*
X95635Y202264D02*
D03*
X95473Y205413D02*
D03*
X95684Y195866D02*
D03*
X95571Y199114D02*
D03*
X100197Y202953D02*
D03*
Y199803D02*
D03*
X100099Y206102D02*
D03*
X95965Y68898D02*
D03*
X246752Y190650D02*
D03*
X133858Y295276D02*
D03*
X85390Y55542D02*
D03*
X148142Y104393D02*
D03*
X155504Y104194D02*
D03*
X152955Y104426D02*
D03*
X209842Y20472D02*
D03*
X204724Y40945D02*
D03*
X202756Y37677D02*
D03*
X215945Y17520D02*
D03*
X95087Y151024D02*
D03*
X100236Y179370D02*
D03*
X100686Y176170D02*
D03*
X95087Y176221D02*
D03*
X245914Y152599D02*
D03*
X251567Y152599D02*
D03*
Y196693D02*
D03*
X239441Y196693D02*
D03*
X251567Y201417D02*
D03*
Y206142D02*
D03*
Y210866D02*
D03*
X245914D02*
D03*
X245914Y206142D02*
D03*
X245916Y201417D02*
D03*
X131890Y200787D02*
D03*
X242520Y243701D02*
D03*
X281496Y265748D02*
D03*
X235039Y260236D02*
D03*
Y255512D02*
D03*
X224016Y237894D02*
D03*
X228740D02*
D03*
X275591Y232283D02*
D03*
X271654Y228346D02*
D03*
X222441Y232283D02*
D03*
X226378Y228346D02*
D03*
X222441Y223622D02*
D03*
X226378Y219685D02*
D03*
X222441Y214567D02*
D03*
X226378Y210630D02*
D03*
X200156Y271099D02*
D03*
X232283Y277559D02*
D03*
X187008Y221457D02*
D03*
Y201772D02*
D03*
X177165Y211614D02*
D03*
X196850D02*
D03*
X190945Y215354D02*
D03*
X183071Y207480D02*
D03*
X190945D02*
D03*
X177165Y206496D02*
D03*
X182087Y201575D02*
D03*
X191929D02*
D03*
X196850Y216339D02*
D03*
X183071Y215354D02*
D03*
X182087Y221260D02*
D03*
X177165Y216339D02*
D03*
X196850Y206496D02*
D03*
X191929Y221260D02*
D03*
X177165D02*
D03*
X196850D02*
D03*
X177165Y201575D02*
D03*
X196850D02*
D03*
X200689Y232972D02*
D03*
X213386Y233858D02*
D03*
X166407Y207355D02*
D03*
X260531Y36122D02*
D03*
X241142Y36220D02*
D03*
X198327Y85078D02*
D03*
X198721Y88878D02*
D03*
X176970Y55300D02*
D03*
X163484Y93405D02*
D03*
X171949Y93504D02*
D03*
X158211Y55031D02*
D03*
X198819Y56890D02*
D03*
X266929Y44094D02*
D03*
X258366Y48228D02*
D03*
X243209Y48327D02*
D03*
X192971Y21242D02*
D03*
X201871Y11607D02*
D03*
X202875Y15916D02*
D03*
X187697Y39370D02*
D03*
X187697Y42126D02*
D03*
X185136Y31232D02*
D03*
X185288Y33880D02*
D03*
X164173Y24803D02*
D03*
X180807Y15748D02*
D03*
X215059Y12697D02*
D03*
X213497Y29138D02*
D03*
X213497Y31839D02*
D03*
X152389Y11379D02*
D03*
X161819Y17341D02*
D03*
X161614Y19980D02*
D03*
X142323Y262303D02*
D03*
X197453Y104661D02*
D03*
X177756Y77165D02*
D03*
X168110Y77264D02*
D03*
X157973Y76968D02*
D03*
X178937Y100686D02*
D03*
X210352Y229043D02*
D03*
X188051Y193701D02*
D03*
X186903Y246247D02*
D03*
X191732Y229528D02*
D03*
X192028Y243406D02*
D03*
X196555Y241831D02*
D03*
X201575Y244488D02*
D03*
X195374Y193799D02*
D03*
X200394Y224803D02*
D03*
X170292Y201690D02*
D03*
X180709Y192913D02*
D03*
X205020Y221654D02*
D03*
X205906Y225591D02*
D03*
X210236Y238189D02*
D03*
X206693Y242126D02*
D03*
X162992Y207579D02*
D03*
X107874Y195079D02*
D03*
X107776Y198228D02*
D03*
X234252Y240158D02*
D03*
X233858Y245669D02*
D03*
X230315Y242520D02*
D03*
X185827Y21358D02*
D03*
X181890Y111308D02*
D03*
X237697Y188779D02*
D03*
X205870Y8724D02*
D03*
X185724Y8702D02*
D03*
X137795Y114862D02*
D03*
X136781Y112415D02*
D03*
X118465Y98721D02*
D03*
X121024D02*
D03*
X135531Y98622D02*
D03*
X135531Y101181D02*
D03*
X129725Y98353D02*
D03*
X129823Y100984D02*
D03*
X134843Y93701D02*
D03*
X132283D02*
D03*
X125984Y93602D02*
D03*
X128543D02*
D03*
X62992Y130709D02*
D03*
X64961Y126772D02*
D03*
X61024Y124803D02*
D03*
X59055Y128740D02*
D03*
X57087Y132677D02*
D03*
X61024Y134646D02*
D03*
X106299Y279527D02*
D03*
Y284252D02*
D03*
X115748Y279527D02*
D03*
X111024Y284252D02*
D03*
X226772Y251969D02*
D03*
X233858D02*
D03*
X237402Y192618D02*
D03*
X166516Y101378D02*
D03*
X96850Y273228D02*
D03*
X165551Y58268D02*
D03*
X156693Y112992D02*
D03*
X158366Y123721D02*
D03*
X177165Y111614D02*
D03*
X107973Y207776D02*
D03*
X107874Y201378D02*
D03*
X100197Y196653D02*
D03*
Y193602D02*
D03*
X107874Y188779D02*
D03*
X100197Y184055D02*
D03*
X107973Y181004D02*
D03*
X107874Y177657D02*
D03*
X95669Y165157D02*
D03*
X103839Y144390D02*
D03*
X91634D02*
D03*
X119095Y104626D02*
D03*
X125197Y111516D02*
D03*
X139469Y104724D02*
D03*
X129921Y116634D02*
D03*
X144193Y111516D02*
D03*
X144095Y116831D02*
D03*
X148819Y116732D02*
D03*
X153543Y116831D02*
D03*
X167717D02*
D03*
X172441D02*
D03*
X164665Y112894D02*
D03*
X172539Y111614D02*
D03*
X182873Y8670D02*
D03*
X175197Y14272D02*
D03*
X168123Y14132D02*
D03*
X208878Y8667D02*
D03*
X123622Y98721D02*
D03*
X115847D02*
D03*
X134350Y111614D02*
D03*
X130807Y91535D02*
D03*
X123425Y93701D02*
D03*
X129921Y95768D02*
D03*
X136024Y96063D02*
D03*
X129823Y103543D02*
D03*
X135531Y103740D02*
D03*
X139665Y116634D02*
D03*
X317240Y141308D02*
D03*
X269995Y59479D02*
D03*
X90768Y54101D02*
D03*
X97587Y58038D02*
D03*
X99028Y63416D02*
D03*
X92209Y59479D02*
D03*
X38146Y137371D02*
D03*
X46406Y146686D02*
D03*
X39587Y142749D02*
D03*
X44965Y141308D02*
D03*
X51784Y145245D02*
D03*
X232283Y291339D02*
D03*
X228346Y303150D02*
D03*
X232283Y299213D02*
D03*
X228346Y295276D02*
D03*
Y287402D02*
D03*
X129921Y291339D02*
D03*
Y299213D02*
D03*
X133858Y303150D02*
D03*
Y287402D02*
D03*
X54331Y317717D02*
D03*
X41732Y316142D02*
D03*
X239567Y266142D02*
D03*
Y271654D02*
D03*
X322047Y321654D02*
D03*
X167421Y55118D02*
D03*
X167717Y103937D02*
D03*
M02*
