G04*
G04 #@! TF.GenerationSoftware,Altium Limited,Altium Designer,21.2.2 (38)*
G04*
G04 Layer_Color=8388736*
%FSLAX25Y25*%
%MOIN*%
G70*
G04*
G04 #@! TF.SameCoordinates,0FD90602-BBB3-4F14-90EE-D32430874176*
G04*
G04*
G04 #@! TF.FilePolarity,Negative*
G04*
G01*
G75*
G04:AMPARAMS|DCode=110|XSize=47.24mil|YSize=27.56mil|CornerRadius=0mil|HoleSize=0mil|Usage=FLASHONLY|Rotation=45.000|XOffset=0mil|YOffset=0mil|HoleType=Round|Shape=Round|*
%AMOVALD110*
21,1,0.01968,0.02756,0.00000,0.00000,45.0*
1,1,0.02756,-0.00696,-0.00696*
1,1,0.02756,0.00696,0.00696*
%
%ADD110OVALD110*%

G04:AMPARAMS|DCode=111|XSize=47.24mil|YSize=27.56mil|CornerRadius=0mil|HoleSize=0mil|Usage=FLASHONLY|Rotation=135.000|XOffset=0mil|YOffset=0mil|HoleType=Round|Shape=Round|*
%AMOVALD111*
21,1,0.01968,0.02756,0.00000,0.00000,135.0*
1,1,0.02756,0.00696,-0.00696*
1,1,0.02756,-0.00696,0.00696*
%
%ADD111OVALD111*%

%ADD112O,0.02559X0.01772*%
%ADD119C,0.01772*%
G04:AMPARAMS|DCode=124|XSize=31.5mil|YSize=31.5mil|CornerRadius=6.3mil|HoleSize=0mil|Usage=FLASHONLY|Rotation=270.000|XOffset=0mil|YOffset=0mil|HoleType=Round|Shape=RoundedRectangle|*
%AMROUNDEDRECTD124*
21,1,0.03150,0.01890,0,0,270.0*
21,1,0.01890,0.03150,0,0,270.0*
1,1,0.01260,-0.00945,-0.00945*
1,1,0.01260,-0.00945,0.00945*
1,1,0.01260,0.00945,0.00945*
1,1,0.01260,0.00945,-0.00945*
%
%ADD124ROUNDEDRECTD124*%
%ADD125R,0.05118X0.01575*%
%ADD126R,0.01575X0.05118*%
%ADD127R,0.01968X0.03740*%
%ADD128R,0.01772X0.02362*%
%ADD129R,0.03543X0.02362*%
G04:AMPARAMS|DCode=130|XSize=62.99mil|YSize=47.24mil|CornerRadius=8.86mil|HoleSize=0mil|Usage=FLASHONLY|Rotation=90.000|XOffset=0mil|YOffset=0mil|HoleType=Round|Shape=RoundedRectangle|*
%AMROUNDEDRECTD130*
21,1,0.06299,0.02953,0,0,90.0*
21,1,0.04528,0.04724,0,0,90.0*
1,1,0.01772,0.01476,0.02264*
1,1,0.01772,0.01476,-0.02264*
1,1,0.01772,-0.01476,-0.02264*
1,1,0.01772,-0.01476,0.02264*
%
%ADD130ROUNDEDRECTD130*%
%ADD131R,0.02362X0.02165*%
%ADD132R,0.02677X0.02441*%
%ADD133C,0.01693*%
G04:AMPARAMS|DCode=134|XSize=47.24mil|YSize=43.31mil|CornerRadius=8.37mil|HoleSize=0mil|Usage=FLASHONLY|Rotation=270.000|XOffset=0mil|YOffset=0mil|HoleType=Round|Shape=RoundedRectangle|*
%AMROUNDEDRECTD134*
21,1,0.04724,0.02657,0,0,270.0*
21,1,0.03051,0.04331,0,0,270.0*
1,1,0.01673,-0.01329,-0.01526*
1,1,0.01673,-0.01329,0.01526*
1,1,0.01673,0.01329,0.01526*
1,1,0.01673,0.01329,-0.01526*
%
%ADD134ROUNDEDRECTD134*%
G04:AMPARAMS|DCode=135|XSize=27.56mil|YSize=31.5mil|CornerRadius=5.91mil|HoleSize=0mil|Usage=FLASHONLY|Rotation=90.000|XOffset=0mil|YOffset=0mil|HoleType=Round|Shape=RoundedRectangle|*
%AMROUNDEDRECTD135*
21,1,0.02756,0.01968,0,0,90.0*
21,1,0.01575,0.03150,0,0,90.0*
1,1,0.01181,0.00984,0.00787*
1,1,0.01181,0.00984,-0.00787*
1,1,0.01181,-0.00984,-0.00787*
1,1,0.01181,-0.00984,0.00787*
%
%ADD135ROUNDEDRECTD135*%
G04:AMPARAMS|DCode=136|XSize=47.24mil|YSize=141.73mil|CornerRadius=9.84mil|HoleSize=0mil|Usage=FLASHONLY|Rotation=90.000|XOffset=0mil|YOffset=0mil|HoleType=Round|Shape=RoundedRectangle|*
%AMROUNDEDRECTD136*
21,1,0.04724,0.12205,0,0,90.0*
21,1,0.02756,0.14173,0,0,90.0*
1,1,0.01968,0.06102,0.01378*
1,1,0.01968,0.06102,-0.01378*
1,1,0.01968,-0.06102,-0.01378*
1,1,0.01968,-0.06102,0.01378*
%
%ADD136ROUNDEDRECTD136*%
G04:AMPARAMS|DCode=137|XSize=29.53mil|YSize=17.72mil|CornerRadius=5.41mil|HoleSize=0mil|Usage=FLASHONLY|Rotation=0.000|XOffset=0mil|YOffset=0mil|HoleType=Round|Shape=RoundedRectangle|*
%AMROUNDEDRECTD137*
21,1,0.02953,0.00689,0,0,0.0*
21,1,0.01870,0.01772,0,0,0.0*
1,1,0.01083,0.00935,-0.00345*
1,1,0.01083,-0.00935,-0.00345*
1,1,0.01083,-0.00935,0.00345*
1,1,0.01083,0.00935,0.00345*
%
%ADD137ROUNDEDRECTD137*%
G04:AMPARAMS|DCode=138|XSize=17.72mil|YSize=29.53mil|CornerRadius=5.41mil|HoleSize=0mil|Usage=FLASHONLY|Rotation=0.000|XOffset=0mil|YOffset=0mil|HoleType=Round|Shape=RoundedRectangle|*
%AMROUNDEDRECTD138*
21,1,0.01772,0.01870,0,0,0.0*
21,1,0.00689,0.02953,0,0,0.0*
1,1,0.01083,0.00345,-0.00935*
1,1,0.01083,-0.00345,-0.00935*
1,1,0.01083,-0.00345,0.00935*
1,1,0.01083,0.00345,0.00935*
%
%ADD138ROUNDEDRECTD138*%
G04:AMPARAMS|DCode=139|XSize=17.72mil|YSize=59.06mil|CornerRadius=5.41mil|HoleSize=0mil|Usage=FLASHONLY|Rotation=0.000|XOffset=0mil|YOffset=0mil|HoleType=Round|Shape=RoundedRectangle|*
%AMROUNDEDRECTD139*
21,1,0.01772,0.04823,0,0,0.0*
21,1,0.00689,0.05906,0,0,0.0*
1,1,0.01083,0.00345,-0.02411*
1,1,0.01083,-0.00345,-0.02411*
1,1,0.01083,-0.00345,0.02411*
1,1,0.01083,0.00345,0.02411*
%
%ADD139ROUNDEDRECTD139*%
G04:AMPARAMS|DCode=140|XSize=17.72mil|YSize=47.24mil|CornerRadius=5.41mil|HoleSize=0mil|Usage=FLASHONLY|Rotation=0.000|XOffset=0mil|YOffset=0mil|HoleType=Round|Shape=RoundedRectangle|*
%AMROUNDEDRECTD140*
21,1,0.01772,0.03642,0,0,0.0*
21,1,0.00689,0.04724,0,0,0.0*
1,1,0.01083,0.00345,-0.01821*
1,1,0.01083,-0.00345,-0.01821*
1,1,0.01083,-0.00345,0.01821*
1,1,0.01083,0.00345,0.01821*
%
%ADD140ROUNDEDRECTD140*%
G04:AMPARAMS|DCode=141|XSize=27.56mil|YSize=31.5mil|CornerRadius=5.91mil|HoleSize=0mil|Usage=FLASHONLY|Rotation=180.000|XOffset=0mil|YOffset=0mil|HoleType=Round|Shape=RoundedRectangle|*
%AMROUNDEDRECTD141*
21,1,0.02756,0.01968,0,0,180.0*
21,1,0.01575,0.03150,0,0,180.0*
1,1,0.01181,-0.00787,0.00984*
1,1,0.01181,0.00787,0.00984*
1,1,0.01181,0.00787,-0.00984*
1,1,0.01181,-0.00787,-0.00984*
%
%ADD141ROUNDEDRECTD141*%
G04:AMPARAMS|DCode=142|XSize=31.5mil|YSize=31.5mil|CornerRadius=6.3mil|HoleSize=0mil|Usage=FLASHONLY|Rotation=180.000|XOffset=0mil|YOffset=0mil|HoleType=Round|Shape=RoundedRectangle|*
%AMROUNDEDRECTD142*
21,1,0.03150,0.01890,0,0,180.0*
21,1,0.01890,0.03150,0,0,180.0*
1,1,0.01260,-0.00945,0.00945*
1,1,0.01260,0.00945,0.00945*
1,1,0.01260,0.00945,-0.00945*
1,1,0.01260,-0.00945,-0.00945*
%
%ADD142ROUNDEDRECTD142*%
G04:AMPARAMS|DCode=143|XSize=15.75mil|YSize=35.43mil|CornerRadius=5.12mil|HoleSize=0mil|Usage=FLASHONLY|Rotation=180.000|XOffset=0mil|YOffset=0mil|HoleType=Round|Shape=RoundedRectangle|*
%AMROUNDEDRECTD143*
21,1,0.01575,0.02520,0,0,180.0*
21,1,0.00551,0.03543,0,0,180.0*
1,1,0.01024,-0.00276,0.01260*
1,1,0.01024,0.00276,0.01260*
1,1,0.01024,0.00276,-0.01260*
1,1,0.01024,-0.00276,-0.01260*
%
%ADD143ROUNDEDRECTD143*%
G04:AMPARAMS|DCode=144|XSize=39.37mil|YSize=39.37mil|CornerRadius=7.87mil|HoleSize=0mil|Usage=FLASHONLY|Rotation=270.000|XOffset=0mil|YOffset=0mil|HoleType=Round|Shape=RoundedRectangle|*
%AMROUNDEDRECTD144*
21,1,0.03937,0.02362,0,0,270.0*
21,1,0.02362,0.03937,0,0,270.0*
1,1,0.01575,-0.01181,-0.01181*
1,1,0.01575,-0.01181,0.01181*
1,1,0.01575,0.01181,0.01181*
1,1,0.01575,0.01181,-0.01181*
%
%ADD144ROUNDEDRECTD144*%
%ADD145R,0.02953X0.04331*%
%ADD146R,0.02362X0.01772*%
%ADD147R,0.07102X0.10646*%
%ADD148R,0.02441X0.02677*%
%ADD149R,0.02165X0.02362*%
%ADD150R,0.01575X0.01575*%
G04:AMPARAMS|DCode=151|XSize=47.24mil|YSize=86.61mil|CornerRadius=0mil|HoleSize=0mil|Usage=FLASHONLY|Rotation=240.000|XOffset=0mil|YOffset=0mil|HoleType=Round|Shape=Rectangle|*
%AMROTATEDRECTD151*
4,1,4,-0.02569,0.04211,0.04932,-0.00120,0.02569,-0.04211,-0.04932,0.00120,-0.02569,0.04211,0.0*
%
%ADD151ROTATEDRECTD151*%

%ADD152P,0.12249X4X285.0*%
G04:AMPARAMS|DCode=153|XSize=125.98mil|YSize=86.61mil|CornerRadius=0mil|HoleSize=0mil|Usage=FLASHONLY|Rotation=240.000|XOffset=0mil|YOffset=0mil|HoleType=Round|Shape=Rectangle|*
%AMROTATEDRECTD153*
4,1,4,-0.00601,0.07621,0.06900,0.03290,0.00601,-0.07621,-0.06900,-0.03290,-0.00601,0.07621,0.0*
%
%ADD153ROTATEDRECTD153*%

G04:AMPARAMS|DCode=154|XSize=165.35mil|YSize=86.61mil|CornerRadius=0mil|HoleSize=0mil|Usage=FLASHONLY|Rotation=240.000|XOffset=0mil|YOffset=0mil|HoleType=Round|Shape=Rectangle|*
%AMROTATEDRECTD154*
4,1,4,0.00383,0.09325,0.07884,0.04995,-0.00383,-0.09325,-0.07884,-0.04995,0.00383,0.09325,0.0*
%
%ADD154ROTATEDRECTD154*%

G04:AMPARAMS|DCode=155|XSize=51.18mil|YSize=82.68mil|CornerRadius=0mil|HoleSize=0mil|Usage=FLASHONLY|Rotation=315.000|XOffset=0mil|YOffset=0mil|HoleType=Round|Shape=Rectangle|*
%AMROTATEDRECTD155*
4,1,4,-0.04733,-0.01114,0.01114,0.04733,0.04733,0.01114,-0.01114,-0.04733,-0.04733,-0.01114,0.0*
%
%ADD155ROTATEDRECTD155*%

%ADD156R,0.01981X0.03950*%
%ADD157R,0.02375X0.03950*%
%ADD158R,0.02559X0.06693*%
G04:AMPARAMS|DCode=159|XSize=47.24mil|YSize=43.31mil|CornerRadius=0mil|HoleSize=0mil|Usage=FLASHONLY|Rotation=91.000|XOffset=0mil|YOffset=0mil|HoleType=Round|Shape=Rectangle|*
%AMROTATEDRECTD159*
4,1,4,0.02206,-0.02324,-0.02124,-0.02400,-0.02206,0.02324,0.02124,0.02400,0.02206,-0.02324,0.0*
%
%ADD159ROTATEDRECTD159*%

%ADD160R,0.03110X0.03228*%
%ADD161R,0.22835X0.22835*%
%ADD162O,0.04134X0.01772*%
%ADD163O,0.01772X0.04134*%
G04:AMPARAMS|DCode=164|XSize=47.24mil|YSize=43.31mil|CornerRadius=8.37mil|HoleSize=0mil|Usage=FLASHONLY|Rotation=180.000|XOffset=0mil|YOffset=0mil|HoleType=Round|Shape=RoundedRectangle|*
%AMROUNDEDRECTD164*
21,1,0.04724,0.02657,0,0,180.0*
21,1,0.03051,0.04331,0,0,180.0*
1,1,0.01673,-0.01526,0.01329*
1,1,0.01673,0.01526,0.01329*
1,1,0.01673,0.01526,-0.01329*
1,1,0.01673,-0.01526,-0.01329*
%
%ADD164ROUNDEDRECTD164*%
%ADD165R,0.04134X0.03740*%
G04:AMPARAMS|DCode=166|XSize=24.41mil|YSize=26.77mil|CornerRadius=0mil|HoleSize=0mil|Usage=FLASHONLY|Rotation=45.000|XOffset=0mil|YOffset=0mil|HoleType=Round|Shape=Rectangle|*
%AMROTATEDRECTD166*
4,1,4,0.00084,-0.01810,-0.01810,0.00084,-0.00084,0.01810,0.01810,-0.00084,0.00084,-0.01810,0.0*
%
%ADD166ROTATEDRECTD166*%

%ADD167R,0.03228X0.03110*%
G04:AMPARAMS|DCode=168|XSize=78.74mil|YSize=53.15mil|CornerRadius=9.6mil|HoleSize=0mil|Usage=FLASHONLY|Rotation=270.000|XOffset=0mil|YOffset=0mil|HoleType=Round|Shape=RoundedRectangle|*
%AMROUNDEDRECTD168*
21,1,0.07874,0.03396,0,0,270.0*
21,1,0.05955,0.05315,0,0,270.0*
1,1,0.01919,-0.01698,-0.02977*
1,1,0.01919,-0.01698,0.02977*
1,1,0.01919,0.01698,0.02977*
1,1,0.01919,0.01698,-0.02977*
%
%ADD168ROUNDEDRECTD168*%
%ADD169R,0.01968X0.03937*%
%ADD170R,0.01968X0.03347*%
%ADD171R,0.02362X0.04528*%
%ADD172R,0.04331X0.05118*%
%ADD173R,0.02756X0.05748*%
%ADD174R,0.03543X0.01772*%
G04:AMPARAMS|DCode=175|XSize=62.99mil|YSize=47.24mil|CornerRadius=8.86mil|HoleSize=0mil|Usage=FLASHONLY|Rotation=0.000|XOffset=0mil|YOffset=0mil|HoleType=Round|Shape=RoundedRectangle|*
%AMROUNDEDRECTD175*
21,1,0.06299,0.02953,0,0,0.0*
21,1,0.04528,0.04724,0,0,0.0*
1,1,0.01772,0.02264,-0.01476*
1,1,0.01772,-0.02264,-0.01476*
1,1,0.01772,-0.02264,0.01476*
1,1,0.01772,0.02264,0.01476*
%
%ADD175ROUNDEDRECTD175*%
%ADD176R,0.03543X0.03543*%
%ADD177R,0.05906X0.06693*%
G04:AMPARAMS|DCode=178|XSize=39.37mil|YSize=39.37mil|CornerRadius=7.87mil|HoleSize=0mil|Usage=FLASHONLY|Rotation=0.000|XOffset=0mil|YOffset=0mil|HoleType=Round|Shape=RoundedRectangle|*
%AMROUNDEDRECTD178*
21,1,0.03937,0.02362,0,0,0.0*
21,1,0.02362,0.03937,0,0,0.0*
1,1,0.01575,0.01181,-0.01181*
1,1,0.01575,-0.01181,-0.01181*
1,1,0.01575,-0.01181,0.01181*
1,1,0.01575,0.01181,0.01181*
%
%ADD178ROUNDEDRECTD178*%
%ADD179R,0.07099X0.05524*%
%ADD180R,0.01772X0.02165*%
%ADD181R,0.01968X0.03543*%
%ADD182R,0.05433X0.09016*%
%ADD183O,0.05591X0.02362*%
%ADD184R,0.05591X0.02362*%
%ADD185R,0.02756X0.03150*%
%ADD186R,0.12598X0.04724*%
%ADD187R,0.03150X0.01772*%
%ADD188R,0.01772X0.03150*%
%ADD189R,0.01654X0.03543*%
%ADD190R,0.02559X0.01654*%
G04:AMPARAMS|DCode=191|XSize=47.24mil|YSize=86.61mil|CornerRadius=0mil|HoleSize=0mil|Usage=FLASHONLY|Rotation=120.000|XOffset=0mil|YOffset=0mil|HoleType=Round|Shape=Rectangle|*
%AMROTATEDRECTD191*
4,1,4,0.04932,0.00120,-0.02569,-0.04211,-0.04932,-0.00120,0.02569,0.04211,0.04932,0.00120,0.0*
%
%ADD191ROTATEDRECTD191*%

%ADD192R,0.04724X0.08661*%
%ADD193R,0.08661X0.08661*%
%ADD194R,0.12598X0.08661*%
%ADD195R,0.16535X0.08661*%
%ADD196P,0.12249X4X165.0*%
G04:AMPARAMS|DCode=197|XSize=125.98mil|YSize=86.61mil|CornerRadius=0mil|HoleSize=0mil|Usage=FLASHONLY|Rotation=120.000|XOffset=0mil|YOffset=0mil|HoleType=Round|Shape=Rectangle|*
%AMROTATEDRECTD197*
4,1,4,0.06900,-0.03290,-0.00601,-0.07621,-0.06900,0.03290,0.00601,0.07621,0.06900,-0.03290,0.0*
%
%ADD197ROTATEDRECTD197*%

G04:AMPARAMS|DCode=198|XSize=165.35mil|YSize=86.61mil|CornerRadius=0mil|HoleSize=0mil|Usage=FLASHONLY|Rotation=120.000|XOffset=0mil|YOffset=0mil|HoleType=Round|Shape=Rectangle|*
%AMROTATEDRECTD198*
4,1,4,0.07884,-0.04995,0.00383,-0.09325,-0.07884,0.04995,-0.00383,0.09325,0.07884,-0.04995,0.0*
%
%ADD198ROTATEDRECTD198*%

%ADD199R,0.01772X0.03347*%
G04:AMPARAMS|DCode=200|XSize=78.74mil|YSize=53.15mil|CornerRadius=9.6mil|HoleSize=0mil|Usage=FLASHONLY|Rotation=0.000|XOffset=0mil|YOffset=0mil|HoleType=Round|Shape=RoundedRectangle|*
%AMROUNDEDRECTD200*
21,1,0.07874,0.03396,0,0,0.0*
21,1,0.05955,0.05315,0,0,0.0*
1,1,0.01919,0.02977,-0.01698*
1,1,0.01919,-0.02977,-0.01698*
1,1,0.01919,-0.02977,0.01698*
1,1,0.01919,0.02977,0.01698*
%
%ADD200ROUNDEDRECTD200*%
G04:AMPARAMS|DCode=201|XSize=39.37mil|YSize=47.24mil|CornerRadius=7.87mil|HoleSize=0mil|Usage=FLASHONLY|Rotation=0.000|XOffset=0mil|YOffset=0mil|HoleType=Round|Shape=RoundedRectangle|*
%AMROUNDEDRECTD201*
21,1,0.03937,0.03150,0,0,0.0*
21,1,0.02362,0.04724,0,0,0.0*
1,1,0.01575,0.01181,-0.01575*
1,1,0.01575,-0.01181,-0.01575*
1,1,0.01575,-0.01181,0.01575*
1,1,0.01575,0.01181,0.01575*
%
%ADD201ROUNDEDRECTD201*%
%ADD202R,0.03150X0.05512*%
%ADD203R,0.01968X0.03543*%
%ADD204C,0.00800*%
%ADD205C,0.16535*%
%ADD206O,0.03937X0.05512*%
%ADD207C,0.14961*%
%ADD208O,0.11811X0.04331*%
%ADD209C,0.03740*%
%ADD210C,0.03150*%
%ADD211C,0.05709*%
%ADD212C,0.06693*%
G36*
X154628Y74316D02*
X154705Y74316D01*
X154720Y74315D01*
X154756Y74313D01*
X154807Y74302D01*
X154807D01*
X154807Y74302D01*
X154833Y74294D01*
X154856Y74286D01*
X155000Y74226D01*
X155000D01*
X155000Y74226D01*
X155000Y74226D01*
X155011Y74221D01*
X155047Y74203D01*
X155060Y74194D01*
X155089Y74174D01*
X155120Y74148D01*
X155128Y74140D01*
X155128Y74140D01*
D01*
D01*
X155239Y74030D01*
X155239Y74030D01*
X155273Y73991D01*
X155302Y73948D01*
D01*
X155302Y73948D01*
X155311Y73928D01*
X155324Y73902D01*
X155384Y73757D01*
X155384Y73757D01*
X155401Y73708D01*
X155409Y73668D01*
X155411Y73657D01*
X155413Y73621D01*
X155414Y73606D01*
X155414Y73528D01*
Y73528D01*
Y73528D01*
X155414Y59551D01*
X155414Y59551D01*
X155414Y59473D01*
Y59473D01*
Y59473D01*
X155411Y59421D01*
X155405Y59391D01*
X155401Y59371D01*
X155401Y59371D01*
D01*
X155400Y59369D01*
X155384Y59322D01*
X155384Y59322D01*
X155324Y59177D01*
X155324Y59177D01*
X155301Y59131D01*
X155287Y59109D01*
X155273Y59088D01*
X155249Y59061D01*
X155239Y59049D01*
X155128Y58938D01*
X155128Y58938D01*
X155089Y58904D01*
X155068Y58890D01*
X155046Y58876D01*
X155000Y58853D01*
X155000Y58853D01*
X155000Y58853D01*
X154855Y58793D01*
X154855Y58793D01*
X154855Y58793D01*
X154809Y58777D01*
X154806Y58776D01*
D01*
X154806Y58776D01*
X154779Y58771D01*
X154756Y58766D01*
X154756Y58766D01*
X154756D01*
X154745Y58765D01*
X154704Y58763D01*
X154704D01*
X154704D01*
X154626Y58763D01*
D01*
X152855Y58763D01*
X152855Y58763D01*
X152467Y58763D01*
X152454Y58764D01*
X152441D01*
X152428Y58766D01*
X152416Y58766D01*
X152403Y58769D01*
X152390Y58771D01*
X151629Y58922D01*
X151617Y58925D01*
X151604Y58928D01*
X151592Y58932D01*
X151579Y58935D01*
X151568Y58940D01*
X151555Y58944D01*
X150839Y59241D01*
X150827Y59247D01*
X150815Y59252D01*
X150804Y59258D01*
X150792Y59264D01*
X150782Y59271D01*
X150770Y59277D01*
X150126Y59708D01*
X150115Y59716D01*
X150105Y59723D01*
X150095Y59732D01*
X150085Y59740D01*
X150075Y59749D01*
X150066Y59757D01*
X149517Y60306D01*
X149509Y60316D01*
X149500Y60325D01*
X149492Y60335D01*
X149483Y60345D01*
X149476Y60355D01*
X149468Y60366D01*
X149037Y61010D01*
X149031Y61022D01*
X149024Y61032D01*
X149018Y61044D01*
X149012Y61055D01*
X149007Y61067D01*
X149001Y61079D01*
X148704Y61795D01*
X148700Y61807D01*
X148695Y61819D01*
X148692Y61832D01*
X148688Y61844D01*
X148685Y61857D01*
X148682Y61869D01*
X148530Y62630D01*
X148529Y62643D01*
X148526Y62655D01*
X148525Y62668D01*
X148524Y62681D01*
Y62694D01*
X148523Y62707D01*
Y63095D01*
X148523Y69984D01*
X148523Y69984D01*
X148523Y70372D01*
X148523Y70385D01*
Y70398D01*
X148525Y70411D01*
X148526Y70423D01*
X148529Y70436D01*
X148530Y70449D01*
X148681Y71209D01*
X148685Y71222D01*
X148687Y71235D01*
X148691Y71247D01*
X148695Y71259D01*
X148700Y71271D01*
X148704Y71284D01*
X149001Y72000D01*
X149006Y72012D01*
X149011Y72023D01*
X149018Y72035D01*
X149023Y72046D01*
X149031Y72057D01*
X149037Y72068D01*
X149468Y72713D01*
X149476Y72723D01*
X149483Y72734D01*
X149492Y72744D01*
X149499Y72754D01*
X149509Y72763D01*
X149517Y72773D01*
X150065Y73321D01*
X150075Y73330D01*
X150084Y73339D01*
X150094Y73347D01*
X150104Y73355D01*
X150115Y73362D01*
X150125Y73370D01*
X150770Y73801D01*
X150781Y73808D01*
X150792Y73815D01*
X150803Y73820D01*
X150815Y73827D01*
X150826Y73832D01*
X150838Y73838D01*
X151555Y74134D01*
X151567Y74138D01*
X151579Y74143D01*
X151591Y74147D01*
X151603Y74151D01*
X151616Y74154D01*
X151628Y74157D01*
X152389Y74308D01*
X152402Y74310D01*
X152415Y74312D01*
X152427Y74313D01*
X152440Y74315D01*
X152453D01*
X152466Y74316D01*
X152854Y74316D01*
D01*
X154626Y74316D01*
X154628Y74316D01*
D02*
G37*
G36*
X180807Y74316D02*
D01*
X182480Y74316D01*
X182481Y74316D01*
X182878Y74316D01*
X182890Y74315D01*
X182903D01*
X182916Y74313D01*
X182929Y74313D01*
X182942Y74310D01*
X182955Y74308D01*
X183734Y74153D01*
X183747Y74150D01*
X183759Y74147D01*
X183772Y74143D01*
X183784Y74140D01*
X183796Y74135D01*
X183808Y74131D01*
X184543Y73827D01*
X184554Y73821D01*
X184566Y73816D01*
X184578Y73810D01*
X184589Y73804D01*
X184600Y73797D01*
X184611Y73790D01*
X185272Y73349D01*
X185282Y73341D01*
X185293Y73334D01*
X185303Y73325D01*
X185313Y73317D01*
X185322Y73308D01*
X185332Y73300D01*
X185894Y72738D01*
X185903Y72728D01*
X185912Y72719D01*
X185919Y72708D01*
X185928Y72699D01*
X185935Y72688D01*
X185943Y72678D01*
X186385Y72017D01*
X186391Y72006D01*
X186398Y71995D01*
X186404Y71983D01*
X186411Y71972D01*
X186416Y71960D01*
X186421Y71949D01*
X186725Y71214D01*
X186730Y71202D01*
X186734Y71190D01*
X186738Y71177D01*
X186742Y71165D01*
X186745Y71153D01*
X186748Y71140D01*
X186903Y70360D01*
X186905Y70347D01*
X186907Y70335D01*
X186908Y70322D01*
X186910Y70309D01*
Y70296D01*
X186911Y70283D01*
X186910Y69886D01*
D01*
X186910Y63094D01*
X186910Y63094D01*
X186910Y62707D01*
X186909Y62694D01*
Y62681D01*
X186908Y62668D01*
X186907Y62655D01*
X186904Y62643D01*
X186902Y62630D01*
X186751Y61869D01*
X186748Y61857D01*
X186745Y61844D01*
X186741Y61832D01*
X186738Y61819D01*
X186733Y61807D01*
X186729Y61795D01*
X186432Y61079D01*
X186426Y61067D01*
X186421Y61055D01*
X186415Y61044D01*
X186409Y61032D01*
X186402Y61022D01*
X186396Y61011D01*
X185965Y60366D01*
X185957Y60356D01*
X185950Y60345D01*
X185941Y60335D01*
X185933Y60325D01*
X185924Y60316D01*
X185916Y60306D01*
X185368Y59758D01*
X185358Y59749D01*
X185349Y59740D01*
X185338Y59732D01*
X185329Y59724D01*
X185318Y59717D01*
X185308Y59709D01*
X184663Y59278D01*
X184652Y59271D01*
X184641Y59264D01*
X184630Y59259D01*
X184618Y59252D01*
X184606Y59247D01*
X184595Y59241D01*
X183879Y58944D01*
X183866Y58940D01*
X183854Y58935D01*
X183842Y58932D01*
X183830Y58928D01*
X183817Y58925D01*
X183805Y58922D01*
X183044Y58771D01*
X183031Y58769D01*
X183019Y58766D01*
X183006Y58766D01*
X182993Y58764D01*
X182980D01*
X182967Y58763D01*
X182579Y58763D01*
X182579D01*
X182579D01*
X180807Y58763D01*
X180807Y58763D01*
X180806Y58763D01*
X180728Y58763D01*
X180704Y58764D01*
X180677Y58766D01*
X180677Y58766D01*
X180677D01*
X180626Y58776D01*
X180577Y58793D01*
X180577Y58793D01*
X180433Y58853D01*
X180433Y58853D01*
X180433Y58853D01*
X180433Y58853D01*
X180426Y58856D01*
X180386Y58876D01*
X180361Y58893D01*
X180343Y58905D01*
X180315Y58930D01*
X180305Y58939D01*
X180305Y58939D01*
D01*
D01*
X180194Y59049D01*
X180194Y59049D01*
X180160Y59088D01*
X180160Y59088D01*
X180160Y59088D01*
X180131Y59131D01*
X180113Y59169D01*
X180109Y59177D01*
X180109Y59177D01*
X180109Y59177D01*
X180109Y59177D01*
X180049Y59322D01*
X180049Y59322D01*
X180049Y59322D01*
X180049Y59322D01*
X180044Y59335D01*
X180032Y59371D01*
X180022Y59421D01*
Y59421D01*
X180022Y59421D01*
X180020Y59454D01*
X180019Y59473D01*
Y59551D01*
X180019Y73527D01*
X180019Y73606D01*
Y73606D01*
Y73606D01*
X180022Y73656D01*
X180022Y73657D01*
D01*
X180022Y73657D01*
X180027Y73681D01*
X180032Y73708D01*
X180049Y73757D01*
X180049Y73757D01*
X180049Y73757D01*
X180109Y73901D01*
X180109Y73902D01*
X180109Y73902D01*
X180132Y73948D01*
X180147Y73971D01*
X180160Y73991D01*
X180194Y74030D01*
X180194Y74030D01*
X180194Y74030D01*
X180305Y74141D01*
X180305Y74141D01*
X180305Y74141D01*
X180314Y74148D01*
X180344Y74174D01*
X180344Y74174D01*
X180344Y74175D01*
X180361Y74186D01*
X180387Y74203D01*
X180387Y74203D01*
D01*
X180391Y74205D01*
X180433Y74226D01*
X180433Y74226D01*
X180433Y74226D01*
X180578Y74286D01*
X180578Y74286D01*
X180578Y74286D01*
X180615Y74299D01*
X180627Y74303D01*
X180627Y74303D01*
X180627Y74303D01*
X180650Y74307D01*
X180677Y74313D01*
X180677Y74313D01*
X180678D01*
X180692Y74314D01*
X180729Y74316D01*
X180729D01*
X180729D01*
X180807Y74316D01*
D02*
G37*
D110*
X151988Y70870D02*
D03*
X183445Y62209D02*
D03*
D111*
X151988D02*
D03*
X183445Y70870D02*
D03*
D112*
X152854Y66539D02*
D03*
X182579D02*
D03*
D119*
X181496Y18504D02*
D03*
D124*
X155807Y102362D02*
D03*
X159744D02*
D03*
X254921Y272146D02*
D03*
X250984D02*
D03*
X196949Y85039D02*
D03*
X193012D02*
D03*
X160433Y9252D02*
D03*
X164370D02*
D03*
X175099Y102067D02*
D03*
X179035D02*
D03*
X195374Y258957D02*
D03*
X191437D02*
D03*
X195374Y254527D02*
D03*
X191437D02*
D03*
X103150Y258661D02*
D03*
X99213D02*
D03*
X235433Y237795D02*
D03*
X239370D02*
D03*
X164961Y264173D02*
D03*
X161024D02*
D03*
D125*
X103976Y215591D02*
D03*
Y214016D02*
D03*
Y210866D02*
D03*
Y212441D02*
D03*
Y206142D02*
D03*
Y204567D02*
D03*
Y207717D02*
D03*
Y209291D02*
D03*
Y199843D02*
D03*
Y198268D02*
D03*
Y201417D02*
D03*
Y202992D02*
D03*
Y193543D02*
D03*
Y191969D02*
D03*
Y195118D02*
D03*
Y196693D02*
D03*
Y187244D02*
D03*
Y185669D02*
D03*
Y188819D02*
D03*
Y190394D02*
D03*
Y180945D02*
D03*
Y179370D02*
D03*
Y182520D02*
D03*
Y184095D02*
D03*
Y177795D02*
D03*
X91851Y176221D02*
D03*
Y182520D02*
D03*
Y180945D02*
D03*
Y177795D02*
D03*
Y179370D02*
D03*
Y188819D02*
D03*
Y187244D02*
D03*
Y184095D02*
D03*
Y185669D02*
D03*
Y195118D02*
D03*
Y193543D02*
D03*
Y190394D02*
D03*
Y191969D02*
D03*
Y201417D02*
D03*
Y199843D02*
D03*
Y196693D02*
D03*
Y198268D02*
D03*
Y209291D02*
D03*
Y207717D02*
D03*
Y202992D02*
D03*
Y206142D02*
D03*
Y212441D02*
D03*
Y210866D02*
D03*
Y214016D02*
D03*
Y215591D02*
D03*
Y174646D02*
D03*
Y173071D02*
D03*
Y169921D02*
D03*
Y171496D02*
D03*
Y165197D02*
D03*
Y163622D02*
D03*
Y166772D02*
D03*
Y168347D02*
D03*
Y158898D02*
D03*
Y157323D02*
D03*
Y160473D02*
D03*
Y162047D02*
D03*
Y204567D02*
D03*
Y154173D02*
D03*
Y155748D02*
D03*
X103976Y157323D02*
D03*
Y155748D02*
D03*
Y154173D02*
D03*
Y163622D02*
D03*
Y162047D02*
D03*
Y158898D02*
D03*
Y160473D02*
D03*
Y169921D02*
D03*
Y168347D02*
D03*
Y165197D02*
D03*
Y166772D02*
D03*
Y173071D02*
D03*
Y171496D02*
D03*
Y174646D02*
D03*
Y176221D02*
D03*
X91851Y217165D02*
D03*
X103976D02*
D03*
Y152599D02*
D03*
X91851Y152599D02*
D03*
X103976Y218740D02*
D03*
X91851D02*
D03*
Y151024D02*
D03*
X103976Y151024D02*
D03*
X91851Y220315D02*
D03*
X103976D02*
D03*
Y149449D02*
D03*
X91851Y149449D02*
D03*
X103976Y223465D02*
D03*
X91851D02*
D03*
Y221890D02*
D03*
X103976D02*
D03*
X91851Y146299D02*
D03*
X103976Y146299D02*
D03*
Y147874D02*
D03*
X91851Y147874D02*
D03*
X254803Y215591D02*
D03*
Y214016D02*
D03*
Y210866D02*
D03*
Y212441D02*
D03*
Y206142D02*
D03*
Y204567D02*
D03*
Y207717D02*
D03*
Y209291D02*
D03*
Y199843D02*
D03*
Y198268D02*
D03*
Y201417D02*
D03*
Y202992D02*
D03*
Y193543D02*
D03*
Y191969D02*
D03*
Y195118D02*
D03*
Y196693D02*
D03*
Y187244D02*
D03*
Y185669D02*
D03*
Y188819D02*
D03*
Y190394D02*
D03*
Y180945D02*
D03*
Y179370D02*
D03*
Y182520D02*
D03*
Y184095D02*
D03*
Y177795D02*
D03*
X242677Y176221D02*
D03*
Y182520D02*
D03*
Y180945D02*
D03*
Y177795D02*
D03*
Y179370D02*
D03*
Y188819D02*
D03*
Y187244D02*
D03*
Y184095D02*
D03*
Y185669D02*
D03*
Y195118D02*
D03*
Y193543D02*
D03*
Y190394D02*
D03*
Y191969D02*
D03*
Y201417D02*
D03*
Y199843D02*
D03*
Y196693D02*
D03*
Y198268D02*
D03*
Y209291D02*
D03*
Y207717D02*
D03*
Y202992D02*
D03*
Y206142D02*
D03*
Y212441D02*
D03*
Y210866D02*
D03*
Y214016D02*
D03*
Y215591D02*
D03*
Y174646D02*
D03*
Y173071D02*
D03*
Y169921D02*
D03*
Y171496D02*
D03*
Y165197D02*
D03*
Y163622D02*
D03*
Y166772D02*
D03*
Y168347D02*
D03*
Y158898D02*
D03*
Y157323D02*
D03*
Y160473D02*
D03*
Y162047D02*
D03*
Y204567D02*
D03*
Y154173D02*
D03*
Y155748D02*
D03*
X254803Y157323D02*
D03*
Y155748D02*
D03*
Y154173D02*
D03*
Y163622D02*
D03*
Y162047D02*
D03*
Y158898D02*
D03*
Y160473D02*
D03*
Y169921D02*
D03*
Y168347D02*
D03*
Y165197D02*
D03*
Y166772D02*
D03*
Y173071D02*
D03*
Y171496D02*
D03*
Y174646D02*
D03*
Y176221D02*
D03*
X242677Y217165D02*
D03*
X254803D02*
D03*
Y152599D02*
D03*
X242677Y152599D02*
D03*
X254803Y218740D02*
D03*
X242677D02*
D03*
Y151024D02*
D03*
X254803Y151024D02*
D03*
X242677Y220315D02*
D03*
X254803D02*
D03*
Y149449D02*
D03*
X242677Y149449D02*
D03*
X254803Y223465D02*
D03*
X242677D02*
D03*
Y221890D02*
D03*
X254803D02*
D03*
X242677Y146299D02*
D03*
X254803Y146299D02*
D03*
Y147874D02*
D03*
X242677Y147874D02*
D03*
D126*
X189764Y108071D02*
D03*
X188189D02*
D03*
X185039D02*
D03*
X186614D02*
D03*
X180315D02*
D03*
X178740D02*
D03*
X181890D02*
D03*
X183465D02*
D03*
X174016D02*
D03*
X172441D02*
D03*
X175591D02*
D03*
X177165D02*
D03*
X167717D02*
D03*
X166142D02*
D03*
X169291D02*
D03*
X170866D02*
D03*
X161417D02*
D03*
X159843D02*
D03*
X162992D02*
D03*
X164567D02*
D03*
X155118D02*
D03*
X153543D02*
D03*
X156693D02*
D03*
X158268D02*
D03*
X151969D02*
D03*
X150394Y120197D02*
D03*
X156693D02*
D03*
X155118D02*
D03*
X151969D02*
D03*
X153543D02*
D03*
X162992D02*
D03*
X161417D02*
D03*
X158268D02*
D03*
X159843D02*
D03*
X169291D02*
D03*
X167717D02*
D03*
X164567D02*
D03*
X166142D02*
D03*
X175591D02*
D03*
X174016D02*
D03*
X170866D02*
D03*
X172441D02*
D03*
X183465D02*
D03*
X181890D02*
D03*
X177165D02*
D03*
X180315D02*
D03*
X186614D02*
D03*
X185039D02*
D03*
X188189D02*
D03*
X189764D02*
D03*
X148819D02*
D03*
X147244D02*
D03*
X144095D02*
D03*
X145669D02*
D03*
X139370D02*
D03*
X137795D02*
D03*
X140945D02*
D03*
X142520D02*
D03*
X133071D02*
D03*
X131496D02*
D03*
X134646D02*
D03*
X136221D02*
D03*
X178740D02*
D03*
X128347D02*
D03*
X129921D02*
D03*
X131496Y108071D02*
D03*
X129921D02*
D03*
X128347D02*
D03*
X137795D02*
D03*
X136221D02*
D03*
X133071D02*
D03*
X134646D02*
D03*
X144095D02*
D03*
X142520D02*
D03*
X139370D02*
D03*
X140945D02*
D03*
X147244D02*
D03*
X145669D02*
D03*
X148819D02*
D03*
X150394D02*
D03*
X191339Y120197D02*
D03*
Y108071D02*
D03*
X126772D02*
D03*
X126772Y120197D02*
D03*
X192913Y108071D02*
D03*
Y120197D02*
D03*
X125197D02*
D03*
X125197Y108071D02*
D03*
X194488Y120197D02*
D03*
Y108071D02*
D03*
X123622D02*
D03*
X123622Y120197D02*
D03*
X197638Y108071D02*
D03*
Y120197D02*
D03*
X196063D02*
D03*
Y108071D02*
D03*
X120473Y120197D02*
D03*
X120473Y108071D02*
D03*
X122047D02*
D03*
X122047Y120197D02*
D03*
D127*
X157382Y69512D02*
D03*
X159350D02*
D03*
X161319D02*
D03*
X163287D02*
D03*
X165256D02*
D03*
X167225D02*
D03*
X169193D02*
D03*
X171161D02*
D03*
X173130D02*
D03*
X175099D02*
D03*
X177067D02*
D03*
X179035D02*
D03*
X178051Y63567D02*
D03*
X176083D02*
D03*
X174114D02*
D03*
X172146D02*
D03*
X170177D02*
D03*
X168209D02*
D03*
X166240D02*
D03*
X164272D02*
D03*
X162303D02*
D03*
X160335D02*
D03*
X158366D02*
D03*
X156398D02*
D03*
D128*
X191142Y76870D02*
D03*
X189370D02*
D03*
D129*
X190256Y74114D02*
D03*
D130*
X281201Y273622D02*
D03*
X274114D02*
D03*
X274114Y286614D02*
D03*
X281201D02*
D03*
X274114Y280118D02*
D03*
X281201D02*
D03*
D131*
X275689Y297539D02*
D03*
X278051D02*
D03*
D132*
X275689Y299902D02*
D03*
X278288D02*
D03*
X214941Y53740D02*
D03*
X217539D02*
D03*
X188307Y243504D02*
D03*
X185709D02*
D03*
X169016Y205807D02*
D03*
X166417D02*
D03*
X167225Y197353D02*
D03*
X169823D02*
D03*
X166417Y208957D02*
D03*
X169016D02*
D03*
X166516Y101378D02*
D03*
X169114D02*
D03*
D133*
X272146Y308366D02*
D03*
X273721D02*
D03*
X275295D02*
D03*
X276870D02*
D03*
X272146Y306791D02*
D03*
X273721D02*
D03*
X275295D02*
D03*
X276870D02*
D03*
X272146Y305217D02*
D03*
X273721D02*
D03*
X275295D02*
D03*
X276870D02*
D03*
X272146Y303642D02*
D03*
X273721D02*
D03*
X275295D02*
D03*
X276870D02*
D03*
X272146Y302067D02*
D03*
X273721D02*
D03*
X275295D02*
D03*
X276870D02*
D03*
D134*
X246260Y293701D02*
D03*
X252953D02*
D03*
X246260Y266142D02*
D03*
X239567D02*
D03*
X181004Y7579D02*
D03*
X187697D02*
D03*
X239567Y271654D02*
D03*
X246260D02*
D03*
X239567Y277165D02*
D03*
X246260D02*
D03*
X241929Y282677D02*
D03*
X248622D02*
D03*
X243898Y288189D02*
D03*
X250591D02*
D03*
X194095Y55315D02*
D03*
X200787D02*
D03*
D135*
X255118Y275197D02*
D03*
X251181D02*
D03*
X250984Y269193D02*
D03*
X254921D02*
D03*
X256496Y278150D02*
D03*
X252559D02*
D03*
X209055Y221654D02*
D03*
X205118D02*
D03*
X169291Y200787D02*
D03*
X165354D02*
D03*
X209842Y9843D02*
D03*
X205906D02*
D03*
X209646Y22047D02*
D03*
X205709D02*
D03*
X194685Y70374D02*
D03*
X198622D02*
D03*
X197638Y89567D02*
D03*
X193701D02*
D03*
X239370Y242126D02*
D03*
X235433D02*
D03*
D136*
X262598Y284631D02*
D03*
Y293962D02*
D03*
D137*
X257973Y271260D02*
D03*
Y273228D02*
D03*
Y275197D02*
D03*
X265256Y271260D02*
D03*
Y273228D02*
D03*
Y275197D02*
D03*
D138*
X260630Y275886D02*
D03*
D139*
X262598Y274409D02*
D03*
D140*
X260630Y271457D02*
D03*
D141*
X267461Y279943D02*
D03*
Y276006D02*
D03*
X213091Y38189D02*
D03*
Y42126D02*
D03*
X188878Y38780D02*
D03*
Y42717D02*
D03*
X186319Y30906D02*
D03*
Y34843D02*
D03*
X197638Y35236D02*
D03*
Y31299D02*
D03*
X195276Y189764D02*
D03*
Y193701D02*
D03*
X200984Y10531D02*
D03*
Y14469D02*
D03*
X160630Y17028D02*
D03*
Y20965D02*
D03*
X212598Y28543D02*
D03*
Y32480D02*
D03*
X203445Y40453D02*
D03*
Y36516D02*
D03*
X201476Y32382D02*
D03*
Y28445D02*
D03*
X214567Y12205D02*
D03*
Y16142D02*
D03*
X201181Y61614D02*
D03*
Y65551D02*
D03*
X307854Y321949D02*
D03*
Y318012D02*
D03*
X53543Y321654D02*
D03*
Y317717D02*
D03*
X180217Y91240D02*
D03*
Y87303D02*
D03*
D142*
X254724Y262598D02*
D03*
Y266535D02*
D03*
X190551Y96358D02*
D03*
Y100295D02*
D03*
X135630Y197343D02*
D03*
Y201279D02*
D03*
X130807Y201279D02*
D03*
Y197343D02*
D03*
X84646Y259842D02*
D03*
Y263779D02*
D03*
X194291Y78150D02*
D03*
Y74213D02*
D03*
X189370Y65551D02*
D03*
Y61614D02*
D03*
X89862Y255413D02*
D03*
Y259350D02*
D03*
X89961Y264370D02*
D03*
Y268307D02*
D03*
X89862Y273228D02*
D03*
Y277165D02*
D03*
X197835Y100295D02*
D03*
Y96358D02*
D03*
X183366Y97736D02*
D03*
Y101673D02*
D03*
X194390Y96358D02*
D03*
Y100295D02*
D03*
X104331Y69882D02*
D03*
Y73819D02*
D03*
X244094Y237795D02*
D03*
Y241732D02*
D03*
X290945Y316929D02*
D03*
Y320866D02*
D03*
X237402Y192618D02*
D03*
Y188681D02*
D03*
D143*
X209350Y32283D02*
D03*
X207776D02*
D03*
X206201D02*
D03*
X204626D02*
D03*
X209350Y28740D02*
D03*
X207776D02*
D03*
X206201D02*
D03*
X204626D02*
D03*
X194291Y34843D02*
D03*
X192717D02*
D03*
X191142D02*
D03*
X189567D02*
D03*
X194291Y31299D02*
D03*
X192717D02*
D03*
X191142D02*
D03*
X189567D02*
D03*
D144*
X109154Y73228D02*
D03*
Y66535D02*
D03*
X84252Y269882D02*
D03*
Y276575D02*
D03*
D145*
X215945Y49803D02*
D03*
X211024D02*
D03*
D146*
X218996Y46752D02*
D03*
Y44980D02*
D03*
Y43209D02*
D03*
Y41437D02*
D03*
Y39665D02*
D03*
Y37894D02*
D03*
X229626D02*
D03*
Y39665D02*
D03*
Y41437D02*
D03*
Y43209D02*
D03*
Y44980D02*
D03*
Y46752D02*
D03*
D147*
X224311Y42323D02*
D03*
D148*
X216240Y38268D02*
D03*
Y40866D02*
D03*
X232185Y38661D02*
D03*
Y41260D02*
D03*
X184744Y228327D02*
D03*
Y230925D02*
D03*
X180807Y239390D02*
D03*
Y236791D02*
D03*
X181791Y230925D02*
D03*
Y228327D02*
D03*
X171654Y83976D02*
D03*
Y81378D02*
D03*
X168504Y83976D02*
D03*
Y81378D02*
D03*
X162992Y83976D02*
D03*
Y81378D02*
D03*
X159843Y83976D02*
D03*
Y81378D02*
D03*
D149*
X216240Y43504D02*
D03*
Y45866D02*
D03*
D150*
X222998Y53455D02*
D03*
X224337Y52274D02*
D03*
X225675Y53455D02*
D03*
X178307Y57406D02*
D03*
X176969Y56224D02*
D03*
X175630Y57406D02*
D03*
X169449Y74803D02*
D03*
X168110Y75984D02*
D03*
X166772Y74803D02*
D03*
X156634Y74803D02*
D03*
X157973Y75984D02*
D03*
X159311Y74803D02*
D03*
X179095Y74803D02*
D03*
X177756Y75984D02*
D03*
X176417Y74803D02*
D03*
X156929Y57209D02*
D03*
X158268Y56028D02*
D03*
X159606Y57209D02*
D03*
D151*
X299003Y125470D02*
D03*
X296247Y120696D02*
D03*
X304515Y135017D02*
D03*
X301759Y130243D02*
D03*
X307271Y139790D02*
D03*
D152*
X323285Y139181D02*
D03*
X311011Y146268D02*
D03*
X274860Y55307D02*
D03*
D153*
X272232Y79100D02*
D03*
D154*
X264554Y65803D02*
D03*
D155*
X198489Y237732D02*
D03*
X205448Y230772D02*
D03*
D156*
X243996Y46161D02*
D03*
X245965D02*
D03*
X247933D02*
D03*
X249902D02*
D03*
X251870D02*
D03*
X253839D02*
D03*
X255807D02*
D03*
X257776D02*
D03*
D157*
X240059Y36319D02*
D03*
X261713Y36319D02*
D03*
D158*
X230807Y58760D02*
D03*
X228248D02*
D03*
X225689D02*
D03*
X223130D02*
D03*
X220571D02*
D03*
D159*
X283223Y35968D02*
D03*
X267084Y35686D02*
D03*
X283113Y42266D02*
D03*
X266974Y41985D02*
D03*
D160*
X161988Y212598D02*
D03*
X165571D02*
D03*
D161*
X187008Y211417D02*
D03*
D162*
X200492Y222244D02*
D03*
Y220276D02*
D03*
Y218307D02*
D03*
Y216339D02*
D03*
Y214370D02*
D03*
Y212402D02*
D03*
Y210433D02*
D03*
Y208465D02*
D03*
Y206496D02*
D03*
Y204528D02*
D03*
Y202559D02*
D03*
Y200591D02*
D03*
X173524D02*
D03*
Y202559D02*
D03*
Y204528D02*
D03*
Y206496D02*
D03*
Y208465D02*
D03*
Y210433D02*
D03*
Y212402D02*
D03*
Y214370D02*
D03*
Y216339D02*
D03*
Y218307D02*
D03*
Y220276D02*
D03*
Y222244D02*
D03*
D163*
X197835Y197933D02*
D03*
X195866D02*
D03*
X193898D02*
D03*
X191929D02*
D03*
X189961D02*
D03*
X187992D02*
D03*
X186024D02*
D03*
X184055D02*
D03*
X182087D02*
D03*
X180118D02*
D03*
X178150D02*
D03*
X176181D02*
D03*
Y224902D02*
D03*
X178150D02*
D03*
X180118D02*
D03*
X182087D02*
D03*
X184055D02*
D03*
X186024D02*
D03*
X187992D02*
D03*
X189961D02*
D03*
X191929D02*
D03*
X193898D02*
D03*
X195866D02*
D03*
X197835D02*
D03*
D164*
X160827Y223819D02*
D03*
Y217126D02*
D03*
X200295Y184646D02*
D03*
Y191339D02*
D03*
X198819Y74213D02*
D03*
Y80905D02*
D03*
D165*
X189665Y239862D02*
D03*
Y235728D02*
D03*
X184350D02*
D03*
Y239862D02*
D03*
D166*
X209580Y234908D02*
D03*
X207743Y236746D02*
D03*
X202887Y241601D02*
D03*
X204725Y239764D02*
D03*
D167*
X162992Y207303D02*
D03*
Y203720D02*
D03*
D168*
X236221Y212795D02*
D03*
X224410D02*
D03*
Y221654D02*
D03*
X236221D02*
D03*
X224410Y230315D02*
D03*
X236221D02*
D03*
X273622Y230315D02*
D03*
X261811D02*
D03*
X273622Y238976D02*
D03*
X261811D02*
D03*
X235039Y257874D02*
D03*
X246850D02*
D03*
D169*
X195276Y23622D02*
D03*
X192913D02*
D03*
X190551D02*
D03*
X188189D02*
D03*
X185827D02*
D03*
X183465D02*
D03*
X181102D02*
D03*
X178740D02*
D03*
X176378D02*
D03*
X174016D02*
D03*
X171654D02*
D03*
X169291D02*
D03*
X166929D02*
D03*
D170*
X194095Y12303D02*
D03*
X191732D02*
D03*
X189370D02*
D03*
X187008D02*
D03*
X184646D02*
D03*
X182283D02*
D03*
X179921D02*
D03*
X177559D02*
D03*
X175197D02*
D03*
X172835D02*
D03*
X170473D02*
D03*
X168110D02*
D03*
D171*
X198031Y22539D02*
D03*
X164173D02*
D03*
D172*
X150591Y20669D02*
D03*
Y13583D02*
D03*
X156102D02*
D03*
Y20669D02*
D03*
D173*
X208071Y15945D02*
D03*
D174*
X204921Y17913D02*
D03*
Y15945D02*
D03*
Y13976D02*
D03*
X211221Y17913D02*
D03*
Y15945D02*
D03*
Y13976D02*
D03*
D175*
X269685Y264961D02*
D03*
Y272047D02*
D03*
D176*
X320532Y317520D02*
D03*
Y321850D02*
D03*
X313327D02*
D03*
Y317520D02*
D03*
X48878Y321850D02*
D03*
Y317520D02*
D03*
X41673D02*
D03*
Y321850D02*
D03*
D177*
X263386Y314764D02*
D03*
X277165Y332480D02*
D03*
Y314764D02*
D03*
D178*
X181988Y55610D02*
D03*
X188681D02*
D03*
D179*
X195473Y63583D02*
D03*
D180*
X193504Y59744D02*
D03*
X195473D02*
D03*
X197441D02*
D03*
X193504Y67421D02*
D03*
X195473D02*
D03*
X197441D02*
D03*
D181*
X97736Y276476D02*
D03*
X100295D02*
D03*
X102854D02*
D03*
X105413D02*
D03*
D182*
X98571Y283268D02*
D03*
X104579D02*
D03*
D183*
X106595Y262795D02*
D03*
Y265354D02*
D03*
Y267913D02*
D03*
Y270472D02*
D03*
X96280Y262795D02*
D03*
Y265354D02*
D03*
Y267913D02*
D03*
D184*
Y270472D02*
D03*
D185*
X169488Y59055D02*
D03*
Y55118D02*
D03*
X165354Y53937D02*
D03*
Y57874D02*
D03*
D186*
X167717Y93602D02*
D03*
D187*
X176181Y94587D02*
D03*
Y92618D02*
D03*
X159252D02*
D03*
Y94587D02*
D03*
D188*
X174606Y89075D02*
D03*
X172638D02*
D03*
X170669D02*
D03*
X168701D02*
D03*
X166732D02*
D03*
X164764D02*
D03*
X162795D02*
D03*
X160827D02*
D03*
Y98130D02*
D03*
X162795D02*
D03*
X164764D02*
D03*
X166732D02*
D03*
X168701D02*
D03*
X170669D02*
D03*
X172638D02*
D03*
X174606D02*
D03*
D189*
X186713Y87697D02*
D03*
X188287D02*
D03*
Y92421D02*
D03*
X186713D02*
D03*
D190*
X190354Y87697D02*
D03*
Y89272D02*
D03*
Y90846D02*
D03*
Y92421D02*
D03*
X184646D02*
D03*
Y90846D02*
D03*
Y89272D02*
D03*
Y87697D02*
D03*
D191*
X87611Y83192D02*
D03*
X84855Y87965D02*
D03*
X93123Y73645D02*
D03*
X90367Y78418D02*
D03*
X95879Y68871D02*
D03*
D192*
X156693Y287402D02*
D03*
X162205D02*
D03*
X145669D02*
D03*
X151181D02*
D03*
X140157D02*
D03*
D193*
X132677Y301575D02*
D03*
Y287402D02*
D03*
X229528Y301575D02*
D03*
D194*
X210236Y287402D02*
D03*
D195*
X225591D02*
D03*
D196*
X87345Y55307D02*
D03*
X99619Y62393D02*
D03*
X38919Y139181D02*
D03*
D197*
X60839Y129561D02*
D03*
D198*
X53162Y142859D02*
D03*
D199*
X243406Y251181D02*
D03*
X241437D02*
D03*
X239469D02*
D03*
X237500D02*
D03*
X235531D02*
D03*
Y246260D02*
D03*
X237500D02*
D03*
X239469D02*
D03*
X241437D02*
D03*
X243406D02*
D03*
D200*
X226378Y237894D02*
D03*
Y249705D02*
D03*
D201*
X284547Y331496D02*
D03*
Y316929D02*
D03*
D202*
X295473Y317913D02*
D03*
X302953D02*
D03*
X299213Y328150D02*
D03*
D203*
X102852Y288681D02*
D03*
X105413Y288679D02*
D03*
X100293Y288681D02*
D03*
X97736Y288679D02*
D03*
D204*
X322835Y78740D02*
D03*
X39370D02*
D03*
X181102Y334646D02*
D03*
D205*
X224410Y7874D02*
D03*
X137795D02*
D03*
X248031Y309055D02*
D03*
Y328740D02*
D03*
X267323Y254331D02*
D03*
X96063Y114567D02*
D03*
D206*
X155315Y271654D02*
D03*
X160236D02*
D03*
X165157D02*
D03*
X170079D02*
D03*
X217815Y75945D02*
D03*
X222736D02*
D03*
X227658D02*
D03*
X232579D02*
D03*
X205512Y271654D02*
D03*
X210433D02*
D03*
X215354D02*
D03*
X220276D02*
D03*
X225197D02*
D03*
X230118D02*
D03*
X182874D02*
D03*
X192717D02*
D03*
X187795D02*
D03*
D207*
X66929Y293307D02*
D03*
X19685D02*
D03*
X350394D02*
D03*
X303150D02*
D03*
D208*
X225689Y68209D02*
D03*
D209*
X237205Y66043D02*
D03*
D210*
X214173D02*
D03*
D211*
X238209Y61516D02*
D03*
X213169D02*
D03*
D212*
X116535Y307716D02*
D03*
Y327716D02*
D03*
Y317717D02*
D03*
M02*
