G04*
G04 #@! TF.GenerationSoftware,Altium Limited,Altium Designer,21.2.2 (38)*
G04*
G04 Layer_Color=128*
%FSLAX25Y25*%
%MOIN*%
G70*
G04*
G04 #@! TF.SameCoordinates,0FD90602-BBB3-4F14-90EE-D32430874176*
G04*
G04*
G04 #@! TF.FilePolarity,Positive*
G04*
G01*
G75*
G36*
X154626Y73921D02*
X154704Y73921D01*
X154849Y73861D01*
X154960Y73751D01*
X155020Y73606D01*
X155020Y73528D01*
X155020Y73528D01*
X155020Y59551D01*
Y59473D01*
X154960Y59328D01*
X154849Y59217D01*
X154705Y59157D01*
X154626Y59157D01*
Y59157D01*
X152854Y59158D01*
X152466Y59158D01*
X151706Y59309D01*
X150989Y59606D01*
X150345Y60037D01*
X149796Y60585D01*
X149365Y61230D01*
X149069Y61946D01*
X148917Y62707D01*
X148917Y63094D01*
Y63094D01*
X148917Y69984D01*
X148917Y70372D01*
X149068Y71133D01*
X149365Y71849D01*
X149796Y72494D01*
X150345Y73042D01*
X150989Y73473D01*
X151706Y73770D01*
X152466Y73921D01*
X152854D01*
X152854Y73921D01*
X154626Y73921D01*
D02*
G37*
G36*
X182480Y73921D02*
X182878Y73921D01*
X183657Y73766D01*
X184392Y73462D01*
X185053Y73020D01*
X185615Y72458D01*
X186056Y71797D01*
X186361Y71063D01*
X186516Y70283D01*
X186516Y69886D01*
X186516Y69886D01*
X186516Y63094D01*
Y62707D01*
X186364Y61946D01*
X186068Y61230D01*
X185637Y60585D01*
X185089Y60036D01*
X184444Y59605D01*
X183727Y59309D01*
X182967Y59157D01*
X182579D01*
X182579Y59157D01*
X180807Y59157D01*
X180729Y59157D01*
X180584Y59217D01*
X180473Y59328D01*
X180413Y59473D01*
X180413Y59551D01*
X180413Y59551D01*
X180413Y73528D01*
X180413Y73606D01*
X180473Y73751D01*
X180584Y73861D01*
X180728Y73922D01*
X180807Y73922D01*
X180807Y73922D01*
X182480Y73921D01*
D02*
G37*
M02*
