G04*
G04 #@! TF.GenerationSoftware,Altium Limited,Altium Designer,21.2.2 (38)*
G04*
G04 Layer_Physical_Order=4*
G04 Layer_Color=16711680*
%FSLAX25Y25*%
%MOIN*%
G70*
G04*
G04 #@! TF.SameCoordinates,0FD90602-BBB3-4F14-90EE-D32430874176*
G04*
G04*
G04 #@! TF.FilePolarity,Positive*
G04*
G01*
G75*
%ADD10C,0.01181*%
%ADD11C,0.05906*%
%ADD12C,0.01575*%
%ADD13C,0.00787*%
%ADD20C,0.07874*%
%ADD21C,0.03937*%
%ADD25C,0.00787*%
%ADD26C,0.00512*%
%ADD105C,0.00630*%
%ADD108C,0.15748*%
%ADD109O,0.03150X0.04724*%
G04:AMPARAMS|DCode=110|XSize=47.24mil|YSize=27.56mil|CornerRadius=0mil|HoleSize=0mil|Usage=FLASHONLY|Rotation=45.000|XOffset=0mil|YOffset=0mil|HoleType=Round|Shape=Round|*
%AMOVALD110*
21,1,0.01968,0.02756,0.00000,0.00000,45.0*
1,1,0.02756,-0.00696,-0.00696*
1,1,0.02756,0.00696,0.00696*
%
%ADD110OVALD110*%

G04:AMPARAMS|DCode=111|XSize=47.24mil|YSize=27.56mil|CornerRadius=0mil|HoleSize=0mil|Usage=FLASHONLY|Rotation=135.000|XOffset=0mil|YOffset=0mil|HoleType=Round|Shape=Round|*
%AMOVALD111*
21,1,0.01968,0.02756,0.00000,0.00000,135.0*
1,1,0.02756,0.00696,-0.00696*
1,1,0.02756,-0.00696,0.00696*
%
%ADD111OVALD111*%

%ADD112O,0.02559X0.01772*%
%ADD113C,0.14173*%
%ADD114O,0.11024X0.03543*%
%ADD115C,0.02953*%
%ADD116C,0.02362*%
%ADD117C,0.04921*%
%ADD118C,0.05906*%
%ADD119C,0.01772*%
G36*
X268554Y326181D02*
X270983Y311046D01*
X270924Y310987D01*
X270669Y310372D01*
Y309706D01*
X270924Y309092D01*
X271368Y308648D01*
X271555Y307480D01*
X269417Y304955D01*
X269161Y304897D01*
X267921Y305016D01*
X267778Y305159D01*
X267164Y305413D01*
X266686D01*
X262593Y308648D01*
X252362Y316732D01*
X245236Y319284D01*
X244806Y320384D01*
X253046Y336143D01*
X254195Y336418D01*
X268554Y326181D01*
D02*
G37*
G36*
X137054Y291031D02*
X137228Y290771D01*
X137488Y290597D01*
X137795Y290536D01*
X216535D01*
X216535Y283513D01*
X213929Y280825D01*
X164377Y279296D01*
X163817Y279527D01*
X163152D01*
X162537Y279273D01*
X162501Y279238D01*
X136811Y278445D01*
X120177Y271752D01*
X113780Y256496D01*
X92030Y209396D01*
X72244Y129232D01*
X61084Y122869D01*
X54818Y133722D01*
X58158Y137902D01*
X58374Y137992D01*
X58845Y138463D01*
X59099Y139078D01*
Y139743D01*
X59088Y139770D01*
X76772Y215945D01*
X95845Y262312D01*
X95845Y262312D01*
D01*
X96101Y263403D01*
X98159Y272170D01*
X98269Y272281D01*
X98524Y272896D01*
Y273561D01*
X98499Y273621D01*
X102098Y288954D01*
X105106Y291339D01*
X128248D01*
Y291006D01*
X128503Y290391D01*
X128973Y289920D01*
X129588Y289665D01*
X130254D01*
X130869Y289920D01*
X131340Y290391D01*
X131595Y291006D01*
Y291339D01*
X136993D01*
X137054Y291031D01*
D02*
G37*
G36*
X352666Y302912D02*
X353193Y301855D01*
X347079Y284948D01*
X346001Y284466D01*
X307069Y300158D01*
X306879Y300285D01*
X305446Y300879D01*
X305122Y300943D01*
X305020Y300984D01*
X304717Y301024D01*
X303925Y301181D01*
X303505D01*
X278659Y304410D01*
X278016Y305401D01*
X279049Y308867D01*
X279174Y308993D01*
X279274Y309232D01*
X288555Y314469D01*
X309449Y316240D01*
X352666Y302912D01*
D02*
G37*
G36*
X250936Y279527D02*
X251386Y278740D01*
X251280Y278482D01*
Y277817D01*
X251346Y277658D01*
X250849Y276871D01*
X250841Y276867D01*
X250233Y276615D01*
X250148Y276530D01*
X249763Y276145D01*
X249508Y275530D01*
Y274864D01*
X249763Y274249D01*
X250233Y273778D01*
X250848Y273524D01*
X251514D01*
X252129Y273778D01*
X252600Y274249D01*
X252854Y274864D01*
Y275530D01*
X252788Y275689D01*
X253285Y276476D01*
X253293Y276480D01*
X253901Y276731D01*
X253986Y276816D01*
X254371Y277202D01*
X254626Y277817D01*
Y278482D01*
X254519Y278740D01*
X254970Y279527D01*
X267717D01*
X267717Y279527D01*
X280313Y266931D01*
X280078Y266696D01*
X279823Y266081D01*
Y265415D01*
X280078Y264800D01*
X280548Y264330D01*
X281163Y264075D01*
X281829D01*
X282444Y264330D01*
X282679Y264565D01*
X317658Y229586D01*
Y149907D01*
X316642Y148148D01*
X316131Y148360D01*
X315466D01*
X314851Y148105D01*
X314380Y147634D01*
X314125Y147019D01*
Y146353D01*
X314380Y145738D01*
X314851Y145268D01*
X314898Y145129D01*
X312260Y140563D01*
X311966Y140663D01*
X311654Y140643D01*
X311373Y140504D01*
X311166Y140269D01*
X311166Y140269D01*
X269909Y68809D01*
X268977Y68769D01*
X268782Y68965D01*
X268167Y69219D01*
X267501D01*
X266886Y68965D01*
X266415Y68494D01*
X266161Y67879D01*
Y67213D01*
X266415Y66598D01*
X266886Y66128D01*
X267343Y65939D01*
X267610Y65587D01*
X267800Y65086D01*
X267758Y64962D01*
X267779Y64649D01*
X267917Y64368D01*
X268134Y64178D01*
X265437Y59509D01*
X264950Y59711D01*
X264285D01*
X263670Y59456D01*
X263199Y58986D01*
X262944Y58371D01*
Y57705D01*
X263199Y57090D01*
X263670Y56620D01*
X263706Y56512D01*
X259775Y49707D01*
X259314Y49647D01*
X258699Y49902D01*
X258033D01*
X257418Y49647D01*
X256948Y49176D01*
X256693Y48561D01*
Y47896D01*
X256948Y47280D01*
X257418Y46810D01*
X257671Y46065D01*
X240158Y15748D01*
X215370D01*
Y16531D01*
X215370Y16531D01*
X215309Y16839D01*
X215246Y16932D01*
X215074Y17346D01*
Y17693D01*
X215246Y18107D01*
X215309Y18201D01*
X215370Y18508D01*
Y26491D01*
X215350Y26592D01*
X215344Y26695D01*
X215319Y26744D01*
X215309Y26799D01*
X215252Y26884D01*
X215207Y26976D01*
X214558Y27832D01*
X214915Y28190D01*
X215170Y28805D01*
Y29470D01*
X214915Y30085D01*
X214558Y30443D01*
X214842Y30817D01*
X214916Y30891D01*
X214937Y30943D01*
X215207Y31299D01*
X215252Y31391D01*
X215309Y31477D01*
X215319Y31531D01*
X215344Y31580D01*
X215350Y31683D01*
X215370Y31784D01*
Y35433D01*
X215309Y35740D01*
X215225Y35866D01*
X215309Y36484D01*
X215410Y36764D01*
X215613Y36848D01*
X216084Y37319D01*
X216339Y37934D01*
Y38600D01*
X216084Y39215D01*
X215613Y39685D01*
X214998Y39940D01*
X214333D01*
X213718Y39685D01*
X213247Y39215D01*
X212992Y38600D01*
Y37934D01*
X213247Y37319D01*
X213543Y37023D01*
X213295Y36236D01*
X199103D01*
X199091Y36248D01*
X198476Y36503D01*
X197810D01*
X197195Y36248D01*
X197183Y36236D01*
X187644D01*
X187545Y36216D01*
X187445Y36211D01*
X187393Y36186D01*
X187337Y36175D01*
X187253Y36119D01*
X187162Y36075D01*
X187124Y36033D01*
X187076Y36001D01*
X187021Y35917D01*
X186953Y35842D01*
X186663Y35352D01*
X186236Y35298D01*
X185621Y35553D01*
X184955D01*
X184340Y35298D01*
X183912Y35352D01*
X183622Y35842D01*
X183555Y35917D01*
X183499Y36001D01*
X183451Y36033D01*
X183413Y36075D01*
X183322Y36119D01*
X183239Y36175D01*
X183182Y36186D01*
X183131Y36211D01*
X183030Y36216D01*
X182931Y36236D01*
X155512D01*
X155205Y36175D01*
X154944Y36001D01*
X154770Y35740D01*
X154709Y35433D01*
Y15748D01*
X122003D01*
X98488Y56479D01*
X98535Y56620D01*
X99006Y57090D01*
X99261Y57705D01*
Y58371D01*
X99006Y58986D01*
X98535Y59456D01*
X97920Y59711D01*
X97255D01*
X96744Y59500D01*
X94052Y64162D01*
X94287Y64368D01*
X94426Y64649D01*
X94446Y64962D01*
X94345Y65259D01*
X62367Y120647D01*
X62573Y121407D01*
X73238Y127489D01*
X73258Y127506D01*
X73282Y127514D01*
X73553Y127761D01*
X73830Y128002D01*
X73841Y128025D01*
X73860Y128042D01*
X74016Y128374D01*
X74180Y128702D01*
X74182Y128728D01*
X74193Y128751D01*
X92938Y204697D01*
X93763Y205033D01*
X93827Y205014D01*
X94054Y204466D01*
X94248Y204272D01*
X94502Y203931D01*
X94258Y203253D01*
X94216Y203212D01*
X93961Y202597D01*
Y201931D01*
X94216Y201316D01*
X94297Y201235D01*
X94568Y200651D01*
X94297Y200206D01*
X94152Y200062D01*
X93898Y199447D01*
Y198781D01*
X94152Y198166D01*
X94371Y197948D01*
X94582Y197563D01*
X94391Y196940D01*
X94265Y196814D01*
X94011Y196199D01*
Y195533D01*
X94265Y194918D01*
X94736Y194448D01*
X95351Y194193D01*
X96017D01*
X96632Y194448D01*
X97102Y194918D01*
X97357Y195533D01*
Y196199D01*
X97102Y196814D01*
X96884Y197032D01*
X96672Y197417D01*
X96864Y198041D01*
X96989Y198166D01*
X97244Y198781D01*
Y199447D01*
X96989Y200062D01*
X96909Y200143D01*
X96637Y200727D01*
X96909Y201171D01*
X97053Y201316D01*
X97308Y201931D01*
Y202597D01*
X97053Y203212D01*
X96859Y203405D01*
X96605Y203746D01*
X96849Y204424D01*
X96891Y204466D01*
X97146Y205081D01*
Y205746D01*
X96891Y206361D01*
X96420Y206832D01*
X95805Y207087D01*
X95140D01*
X94525Y206832D01*
X94194Y206501D01*
X93469Y206850D01*
X93933Y208729D01*
X115602Y255655D01*
X115610Y255690D01*
X115630Y255720D01*
X121704Y270203D01*
X134142Y275207D01*
X134232Y275147D01*
X134487Y274532D01*
X134835Y274183D01*
X134651Y273528D01*
X134641Y272802D01*
X134820Y272099D01*
X135175Y271466D01*
X135681Y270946D01*
X136305Y270576D01*
X137004Y270379D01*
X137729Y270370D01*
X138433Y270548D01*
X141427Y271744D01*
X141449Y271731D01*
X141449Y271731D01*
X141532Y271765D01*
X142204Y271867D01*
X152206Y272588D01*
X152932Y271851D01*
Y270866D01*
X153014Y270250D01*
X153252Y269675D01*
X153630Y269181D01*
X154124Y268803D01*
X154698Y268565D01*
X155315Y268483D01*
X155932Y268565D01*
X156506Y268803D01*
X157000Y269181D01*
X157341Y269626D01*
X157701Y269675D01*
X157850D01*
X158210Y269626D01*
X158552Y269181D01*
X159045Y268803D01*
X159620Y268565D01*
X160236Y268483D01*
X160853Y268565D01*
X161427Y268803D01*
X161921Y269181D01*
X162255Y269616D01*
X162275Y269628D01*
X162622Y269675D01*
X162772D01*
X163132Y269626D01*
X163473Y269181D01*
X163966Y268803D01*
X164541Y268565D01*
X165157Y268483D01*
X165774Y268565D01*
X166349Y268803D01*
X166842Y269181D01*
X167183Y269626D01*
X167543Y269675D01*
X167693D01*
X168040Y269628D01*
X168060Y269616D01*
X168394Y269181D01*
X168887Y268803D01*
X169462Y268565D01*
X170079Y268483D01*
X170695Y268565D01*
X171270Y268803D01*
X171764Y269181D01*
X172142Y269675D01*
X172380Y270250D01*
X172461Y270866D01*
Y272441D01*
X172887Y272952D01*
X179874Y273302D01*
X180505Y272545D01*
X180491Y272441D01*
Y270866D01*
X180573Y270250D01*
X180811Y269675D01*
X181189Y269181D01*
X181683Y268803D01*
X182257Y268565D01*
X182874Y268483D01*
X183491Y268565D01*
X184065Y268803D01*
X184559Y269181D01*
X184900Y269626D01*
X185260Y269675D01*
X185409D01*
X185769Y269626D01*
X186111Y269181D01*
X186604Y268803D01*
X187179Y268565D01*
X187795Y268483D01*
X188412Y268565D01*
X188987Y268803D01*
X189480Y269181D01*
X189821Y269626D01*
X190181Y269675D01*
X190331D01*
X190691Y269626D01*
X191032Y269181D01*
X191525Y268803D01*
X192100Y268565D01*
X192717Y268483D01*
X193333Y268565D01*
X193908Y268803D01*
X194401Y269181D01*
X194780Y269675D01*
X195018Y270250D01*
X195099Y270866D01*
Y272441D01*
X195018Y273058D01*
X194931Y273267D01*
X195364Y274077D01*
X200277Y274323D01*
X200605Y273607D01*
X199801Y272763D01*
X199208Y272518D01*
X198738Y272047D01*
X198483Y271432D01*
Y270767D01*
X198738Y270152D01*
X199208Y269681D01*
X199823Y269426D01*
X199935D01*
X200000Y269329D01*
Y268663D01*
X200255Y268048D01*
X200726Y267578D01*
X201340Y267323D01*
X202006D01*
X202621Y267578D01*
X203092Y268048D01*
X203321Y268602D01*
X203451Y268701D01*
X204134Y268946D01*
X204321Y268803D01*
X204895Y268565D01*
X205512Y268483D01*
X206129Y268565D01*
X206703Y268803D01*
X207197Y269181D01*
X207538Y269626D01*
X207898Y269675D01*
X208047D01*
X208407Y269626D01*
X208748Y269181D01*
X209242Y268803D01*
X209816Y268565D01*
X210433Y268483D01*
X211050Y268565D01*
X211624Y268803D01*
X212118Y269181D01*
X212459Y269626D01*
X212819Y269675D01*
X212968D01*
X213329Y269626D01*
X213670Y269181D01*
X214163Y268803D01*
X214738Y268565D01*
X215354Y268483D01*
X215971Y268565D01*
X216546Y268803D01*
X217039Y269181D01*
X217380Y269626D01*
X217740Y269675D01*
X217890D01*
X218250Y269626D01*
X218591Y269181D01*
X219084Y268803D01*
X219659Y268565D01*
X220276Y268483D01*
X220892Y268565D01*
X221467Y268803D01*
X221960Y269181D01*
X222302Y269626D01*
X222661Y269675D01*
X222811D01*
X223171Y269626D01*
X223512Y269181D01*
X224006Y268803D01*
X224580Y268565D01*
X225197Y268483D01*
X225814Y268565D01*
X226388Y268803D01*
X226882Y269181D01*
X227260Y269675D01*
X227498Y270250D01*
X227579Y270866D01*
Y272441D01*
X227498Y273058D01*
X227419Y273250D01*
X227883Y274038D01*
X232291Y274048D01*
X232291Y274045D01*
X233193Y274164D01*
X234040Y274515D01*
X234126Y274581D01*
X234172Y274599D01*
X237173Y276514D01*
X238148Y276218D01*
X238619Y275747D01*
X239234Y275492D01*
X239900D01*
X240515Y275747D01*
X240985Y276218D01*
X241240Y276833D01*
Y277498D01*
X240985Y278113D01*
X241156Y279056D01*
X241896Y279527D01*
X250936D01*
D02*
G37*
G36*
X214567Y31784D02*
X213829Y30811D01*
X213164D01*
X212549Y30556D01*
X212078Y30085D01*
X211823Y29470D01*
Y28805D01*
X212078Y28190D01*
X212549Y27719D01*
X213164Y27464D01*
X213829D01*
X214567Y26491D01*
Y18508D01*
X214526Y18467D01*
X214272Y17853D01*
Y17187D01*
X214526Y16572D01*
X214567Y16531D01*
Y14304D01*
X214111Y14115D01*
X213641Y13645D01*
X213386Y13030D01*
Y12364D01*
X213641Y11749D01*
X214111Y11278D01*
X214567Y11090D01*
Y3937D01*
X155512D01*
Y35433D01*
X182931D01*
X183631Y34252D01*
X183615Y34213D01*
Y33547D01*
X183869Y32932D01*
X184340Y32461D01*
X184955Y32207D01*
X185621D01*
X186236Y32461D01*
X186706Y32932D01*
X186961Y33547D01*
Y34213D01*
X186945Y34252D01*
X187644Y35433D01*
X214567D01*
Y31784D01*
D02*
G37*
%LPC*%
G36*
X134191Y289075D02*
X133526D01*
X132911Y288820D01*
X132440Y288349D01*
X132185Y287734D01*
Y287069D01*
X132440Y286454D01*
X132911Y285983D01*
X133526Y285728D01*
X134191D01*
X134806Y285983D01*
X135277Y286454D01*
X135531Y287069D01*
Y287734D01*
X135277Y288349D01*
X134806Y288820D01*
X134191Y289075D01*
D02*
G37*
G36*
X239900Y273327D02*
X239234D01*
X238619Y273072D01*
X238148Y272601D01*
X237894Y271986D01*
Y271321D01*
X238148Y270706D01*
X238619Y270235D01*
X239234Y269980D01*
X239900D01*
X240515Y270235D01*
X240985Y270706D01*
X241240Y271321D01*
Y271986D01*
X240985Y272601D01*
X240515Y273072D01*
X239900Y273327D01*
D02*
G37*
G36*
X141278Y270472D02*
X140612D01*
X139997Y270218D01*
X139526Y269747D01*
X139272Y269132D01*
Y268466D01*
X139526Y267851D01*
X139997Y267381D01*
X140612Y267126D01*
X141278D01*
X141893Y267381D01*
X142363Y267851D01*
X142618Y268466D01*
Y269132D01*
X142363Y269747D01*
X141893Y270218D01*
X141278Y270472D01*
D02*
G37*
G36*
X239900Y267815D02*
X239234D01*
X238619Y267560D01*
X238148Y267090D01*
X237894Y266475D01*
Y265809D01*
X238148Y265194D01*
X238619Y264723D01*
X239234Y264469D01*
X239900D01*
X240515Y264723D01*
X240985Y265194D01*
X241240Y265809D01*
Y266475D01*
X240985Y267090D01*
X240515Y267560D01*
X239900Y267815D01*
D02*
G37*
G36*
X262538Y269783D02*
X261872D01*
X261257Y269529D01*
X260786Y269058D01*
X260531Y268443D01*
Y267777D01*
X260786Y267162D01*
X261257Y266692D01*
X261872Y266437D01*
X262287D01*
X262670Y266244D01*
X262992Y265773D01*
Y265415D01*
X263247Y264800D01*
X263718Y264330D01*
X264333Y264075D01*
X264998D01*
X265613Y264330D01*
X265710Y264426D01*
X266609Y264212D01*
X266692Y264013D01*
X267162Y263542D01*
X267777Y263287D01*
X268443D01*
X269058Y263542D01*
X269171Y263655D01*
X269685Y263929D01*
X270199Y263655D01*
X270312Y263542D01*
X270927Y263287D01*
X271593D01*
X272208Y263542D01*
X272678Y264013D01*
X272712Y264095D01*
X273565D01*
X273680Y263816D01*
X274151Y263345D01*
X274766Y263090D01*
X275431D01*
X276046Y263345D01*
X276517Y263816D01*
X276772Y264431D01*
Y265097D01*
X276517Y265712D01*
X276046Y266182D01*
X275431Y266437D01*
X274766D01*
X274151Y266182D01*
X273680Y265712D01*
X273646Y265630D01*
X272794D01*
X272678Y265908D01*
X272208Y266379D01*
X271593Y266634D01*
X270927D01*
X270312Y266379D01*
X270199Y266266D01*
X269685Y265992D01*
X269171Y266266D01*
X269058Y266379D01*
X268443Y266634D01*
X267777D01*
X267162Y266379D01*
X267066Y266283D01*
X266166Y266497D01*
X266084Y266696D01*
X265613Y267166D01*
X264998Y267421D01*
X264583D01*
X264200Y267615D01*
X263878Y268085D01*
Y268443D01*
X263623Y269058D01*
X263153Y269529D01*
X262538Y269783D01*
D02*
G37*
G36*
X255057Y264272D02*
X254392D01*
X253777Y264017D01*
X253306Y263546D01*
X253051Y262931D01*
Y262266D01*
X253306Y261651D01*
X253777Y261180D01*
X254392Y260925D01*
X255057D01*
X255672Y261180D01*
X256143Y261651D01*
X256398Y262266D01*
Y262931D01*
X256143Y263546D01*
X255672Y264017D01*
X255057Y264272D01*
D02*
G37*
G36*
X235372Y261909D02*
X234707D01*
X234092Y261655D01*
X233621Y261184D01*
X233366Y260569D01*
Y259903D01*
X233621Y259288D01*
X234092Y258818D01*
X234707Y258563D01*
X235372D01*
X235987Y258818D01*
X236458Y259288D01*
X236713Y259903D01*
Y260569D01*
X236458Y261184D01*
X235987Y261655D01*
X235372Y261909D01*
D02*
G37*
G36*
X197380Y257579D02*
X196714D01*
X196099Y257324D01*
X195629Y256853D01*
X195374Y256238D01*
Y255573D01*
X195629Y254958D01*
X196099Y254487D01*
X196714Y254232D01*
X197380D01*
X197995Y254487D01*
X198466Y254958D01*
X198721Y255573D01*
Y256238D01*
X198466Y256853D01*
X197995Y257324D01*
X197380Y257579D01*
D02*
G37*
G36*
X235372Y257185D02*
X234707D01*
X234092Y256930D01*
X233621Y256460D01*
X233366Y255845D01*
Y255179D01*
X233621Y254564D01*
X234092Y254093D01*
X234707Y253839D01*
X235372D01*
X235987Y254093D01*
X236458Y254564D01*
X236713Y255179D01*
Y255845D01*
X236458Y256460D01*
X235987Y256930D01*
X235372Y257185D01*
D02*
G37*
G36*
X267808Y259252D02*
X266838D01*
X265887Y259063D01*
X264992Y258692D01*
X264186Y258154D01*
X263500Y257468D01*
X262962Y256662D01*
X262591Y255766D01*
X262402Y254816D01*
Y253846D01*
X262591Y252895D01*
X262962Y252000D01*
X263500Y251194D01*
X264186Y250508D01*
X264992Y249970D01*
X265887Y249599D01*
X266838Y249410D01*
X267808D01*
X268758Y249599D01*
X269654Y249970D01*
X270460Y250508D01*
X271146Y251194D01*
X271684Y252000D01*
X272055Y252895D01*
X272244Y253846D01*
Y254816D01*
X272055Y255766D01*
X271684Y256662D01*
X271146Y257468D01*
X270460Y258154D01*
X269654Y258692D01*
X268758Y259063D01*
X267808Y259252D01*
D02*
G37*
G36*
X142656Y263976D02*
X141990D01*
X141375Y263722D01*
X140904Y263251D01*
X140650Y262636D01*
Y261970D01*
X140904Y261355D01*
X141236Y261024D01*
X140806Y260593D01*
X140551Y259979D01*
Y259313D01*
X140806Y258698D01*
X141277Y258227D01*
X141892Y257972D01*
X142557D01*
X143172Y258227D01*
X143361Y258416D01*
X144359Y258526D01*
X156004Y246733D01*
Y246419D01*
X156259Y245804D01*
X156729Y245334D01*
X157344Y245079D01*
X158010D01*
X158625Y245334D01*
X159096Y245804D01*
X159350Y246419D01*
Y247085D01*
X159096Y247700D01*
X159391Y248363D01*
X159646Y248978D01*
Y249644D01*
X159391Y250259D01*
X158920Y250729D01*
X158305Y250984D01*
X157640D01*
X157025Y250729D01*
X156785Y250490D01*
X155808Y250359D01*
X143996Y262322D01*
Y262636D01*
X143741Y263251D01*
X143271Y263722D01*
X142656Y263976D01*
D02*
G37*
G36*
X187235Y247920D02*
X186570D01*
X185955Y247666D01*
X185484Y247195D01*
X185229Y246580D01*
Y245914D01*
X185484Y245299D01*
X185955Y244829D01*
X186570Y244574D01*
X187235D01*
X187850Y244829D01*
X188321Y245299D01*
X188576Y245914D01*
Y246580D01*
X188321Y247195D01*
X187850Y247666D01*
X187235Y247920D01*
D02*
G37*
G36*
X201908Y246161D02*
X201242D01*
X200627Y245907D01*
X200156Y245436D01*
X199902Y244821D01*
Y244155D01*
X200156Y243540D01*
X200627Y243070D01*
X201242Y242815D01*
X201908D01*
X202523Y243070D01*
X202993Y243540D01*
X203248Y244155D01*
Y244821D01*
X202993Y245436D01*
X202523Y245907D01*
X201908Y246161D01*
D02*
G37*
G36*
X242852Y245374D02*
X242187D01*
X241572Y245119D01*
X241101Y244649D01*
X240846Y244034D01*
Y243368D01*
X241101Y242753D01*
X241572Y242282D01*
X242187Y242028D01*
X242852D01*
X243467Y242282D01*
X243938Y242753D01*
X244193Y243368D01*
Y244034D01*
X243938Y244649D01*
X243467Y245119D01*
X242852Y245374D01*
D02*
G37*
G36*
X192360Y245079D02*
X191695D01*
X191080Y244824D01*
X190609Y244353D01*
X190354Y243738D01*
Y243073D01*
X190609Y242458D01*
X191080Y241987D01*
X191695Y241732D01*
X192360D01*
X192975Y241987D01*
X193446Y242458D01*
X193701Y243073D01*
Y243738D01*
X193446Y244353D01*
X192975Y244824D01*
X192360Y245079D01*
D02*
G37*
G36*
X182767Y244505D02*
X182101D01*
X181486Y244250D01*
X181015Y243779D01*
X180761Y243164D01*
Y242499D01*
X181015Y241884D01*
X181486Y241413D01*
X182101Y241158D01*
X182767D01*
X183382Y241413D01*
X183852Y241884D01*
X184107Y242499D01*
Y243164D01*
X183852Y243779D01*
X183382Y244250D01*
X182767Y244505D01*
D02*
G37*
G36*
X207026Y243799D02*
X206360D01*
X205745Y243545D01*
X205274Y243074D01*
X205020Y242459D01*
Y241793D01*
X205274Y241178D01*
X205745Y240707D01*
X206360Y240453D01*
X207026D01*
X207641Y240707D01*
X208111Y241178D01*
X208366Y241793D01*
Y242459D01*
X208111Y243074D01*
X207641Y243545D01*
X207026Y243799D01*
D02*
G37*
G36*
X196888Y243504D02*
X196222D01*
X195607Y243249D01*
X195137Y242778D01*
X194882Y242163D01*
Y241498D01*
X195137Y240883D01*
X195607Y240412D01*
X196222Y240158D01*
X196888D01*
X197503Y240412D01*
X197974Y240883D01*
X198228Y241498D01*
Y242163D01*
X197974Y242778D01*
X197503Y243249D01*
X196888Y243504D01*
D02*
G37*
G36*
X275923Y242618D02*
X275258D01*
X274643Y242363D01*
X274172Y241893D01*
X273917Y241278D01*
Y240612D01*
X274172Y239997D01*
X274643Y239526D01*
X275258Y239272D01*
X275923D01*
X276538Y239526D01*
X277009Y239997D01*
X277264Y240612D01*
Y241278D01*
X277009Y241893D01*
X276538Y242363D01*
X275923Y242618D01*
D02*
G37*
G36*
X194260Y240172D02*
X193594D01*
X192979Y239917D01*
X192508Y239447D01*
X192254Y238832D01*
Y238166D01*
X192508Y237551D01*
X192979Y237080D01*
X193594Y236826D01*
X194260D01*
X194875Y237080D01*
X195345Y237551D01*
X195600Y238166D01*
Y238832D01*
X195345Y239447D01*
X194875Y239917D01*
X194260Y240172D01*
D02*
G37*
G36*
X178778Y240079D02*
X178112D01*
X177497Y239824D01*
X177026Y239353D01*
X176772Y238738D01*
Y238073D01*
X177026Y237458D01*
X177497Y236987D01*
X178112Y236732D01*
X178778D01*
X179393Y236987D01*
X179863Y237458D01*
X180118Y238073D01*
Y238738D01*
X179863Y239353D01*
X179393Y239824D01*
X178778Y240079D01*
D02*
G37*
G36*
X210569Y239862D02*
X209903D01*
X209288Y239608D01*
X208818Y239137D01*
X208563Y238522D01*
Y237856D01*
X208818Y237241D01*
X209288Y236771D01*
X209903Y236516D01*
X210569D01*
X211184Y236771D01*
X211655Y237241D01*
X211910Y237856D01*
Y238522D01*
X211655Y239137D01*
X211184Y239608D01*
X210569Y239862D01*
D02*
G37*
G36*
X229073Y239567D02*
X228407D01*
X227792Y239312D01*
X227322Y238842D01*
X227067Y238227D01*
Y237561D01*
X227322Y236946D01*
X227792Y236475D01*
X228407Y236220D01*
X229073D01*
X229688Y236475D01*
X230159Y236946D01*
X230413Y237561D01*
Y238227D01*
X230159Y238842D01*
X229688Y239312D01*
X229073Y239567D01*
D02*
G37*
G36*
X224349D02*
X223683D01*
X223068Y239312D01*
X222597Y238842D01*
X222343Y238227D01*
Y237561D01*
X222597Y236946D01*
X223068Y236475D01*
X223683Y236220D01*
X224349D01*
X224964Y236475D01*
X225434Y236946D01*
X225689Y237561D01*
Y238227D01*
X225434Y238842D01*
X224964Y239312D01*
X224349Y239567D01*
D02*
G37*
G36*
X205943Y239173D02*
X205277D01*
X204662Y238918D01*
X204192Y238448D01*
X203937Y237833D01*
Y237167D01*
X204192Y236552D01*
X204662Y236082D01*
X205277Y235827D01*
X205943D01*
X206558Y236082D01*
X207029Y236552D01*
X207283Y237167D01*
Y237833D01*
X207029Y238448D01*
X206558Y238918D01*
X205943Y239173D01*
D02*
G37*
G36*
X271986Y238681D02*
X271321D01*
X270706Y238426D01*
X270235Y237956D01*
X269980Y237341D01*
Y236675D01*
X270235Y236060D01*
X270706Y235589D01*
X271321Y235335D01*
X271986D01*
X272601Y235589D01*
X273072Y236060D01*
X273327Y236675D01*
Y237341D01*
X273072Y237956D01*
X272601Y238426D01*
X271986Y238681D01*
D02*
G37*
G36*
X145968Y252537D02*
X145302D01*
X144687Y252282D01*
X144217Y251811D01*
X143962Y251196D01*
Y250531D01*
X144217Y249916D01*
X144255Y249877D01*
X144229Y249745D01*
X143759Y249274D01*
X143504Y248660D01*
Y247994D01*
X143759Y247379D01*
X144229Y246908D01*
X144844Y246654D01*
X145510D01*
X146125Y246908D01*
X146249Y247032D01*
X147251Y247061D01*
X156206Y236381D01*
Y235927D01*
X156461Y235312D01*
X156932Y234842D01*
X157547Y234587D01*
X158212D01*
X158827Y234842D01*
X159298Y235312D01*
X159553Y235927D01*
Y236593D01*
X159298Y237208D01*
X159321Y237323D01*
X159412Y237361D01*
X159883Y237832D01*
X160138Y238447D01*
Y239112D01*
X159883Y239727D01*
X159412Y240198D01*
X158797Y240453D01*
X158132D01*
X157517Y240198D01*
X157332Y240013D01*
X156353Y239955D01*
X147308Y250742D01*
Y251196D01*
X147054Y251811D01*
X146583Y252282D01*
X145968Y252537D01*
D02*
G37*
G36*
X213719Y235531D02*
X213053D01*
X212438Y235277D01*
X211967Y234806D01*
X211713Y234191D01*
Y233525D01*
X211967Y232910D01*
X212438Y232440D01*
X213053Y232185D01*
X213719D01*
X214334Y232440D01*
X214804Y232910D01*
X215059Y233525D01*
Y234191D01*
X214804Y234806D01*
X214334Y235277D01*
X213719Y235531D01*
D02*
G37*
G36*
X194473Y235202D02*
X193808D01*
X193193Y234947D01*
X192722Y234477D01*
X192467Y233862D01*
Y233196D01*
X192722Y232581D01*
X193193Y232111D01*
X193808Y231856D01*
X194473D01*
X195088Y232111D01*
X195559Y232581D01*
X195814Y233196D01*
Y233862D01*
X195559Y234477D01*
X195088Y234947D01*
X194473Y235202D01*
D02*
G37*
G36*
X179467Y235138D02*
X178801D01*
X178186Y234883D01*
X177715Y234412D01*
X177461Y233797D01*
Y233132D01*
X177715Y232517D01*
X178186Y232046D01*
X178801Y231791D01*
X179467D01*
X180082Y232046D01*
X180552Y232517D01*
X180807Y233132D01*
Y233797D01*
X180552Y234412D01*
X180082Y234883D01*
X179467Y235138D01*
D02*
G37*
G36*
X201022Y234646D02*
X200356D01*
X199741Y234391D01*
X199270Y233920D01*
X199016Y233305D01*
Y232640D01*
X199270Y232025D01*
X199741Y231554D01*
X200356Y231299D01*
X201022D01*
X201637Y231554D01*
X202108Y232025D01*
X202362Y232640D01*
Y233305D01*
X202108Y233920D01*
X201637Y234391D01*
X201022Y234646D01*
D02*
G37*
G36*
X275923Y233957D02*
X275258D01*
X274643Y233702D01*
X274172Y233231D01*
X273917Y232616D01*
Y231951D01*
X274172Y231336D01*
X274643Y230865D01*
X275258Y230610D01*
X275923D01*
X276538Y230865D01*
X277009Y231336D01*
X277264Y231951D01*
Y232616D01*
X277009Y233231D01*
X276538Y233702D01*
X275923Y233957D01*
D02*
G37*
G36*
X222774D02*
X222108D01*
X221493Y233702D01*
X221023Y233231D01*
X220768Y232616D01*
Y231951D01*
X221023Y231336D01*
X221493Y230865D01*
X222108Y230610D01*
X222774D01*
X223389Y230865D01*
X223860Y231336D01*
X224114Y231951D01*
Y232616D01*
X223860Y233231D01*
X223389Y233702D01*
X222774Y233957D01*
D02*
G37*
G36*
X183797D02*
X183132D01*
X182517Y233702D01*
X182046Y233231D01*
X181791Y232616D01*
Y231951D01*
X182046Y231336D01*
X182517Y230865D01*
X183132Y230610D01*
X183797D01*
X184412Y230865D01*
X184883Y231336D01*
X185138Y231951D01*
Y232616D01*
X184883Y233231D01*
X184412Y233702D01*
X183797Y233957D01*
D02*
G37*
G36*
X192065Y231201D02*
X191400D01*
X190785Y230946D01*
X190314Y230475D01*
X190059Y229860D01*
Y229195D01*
X190314Y228580D01*
X190785Y228109D01*
X191400Y227854D01*
X192065D01*
X192680Y228109D01*
X193151Y228580D01*
X193405Y229195D01*
Y229860D01*
X193151Y230475D01*
X192680Y230946D01*
X192065Y231201D01*
D02*
G37*
G36*
X210685Y230716D02*
X210019D01*
X209404Y230461D01*
X208933Y229991D01*
X208679Y229376D01*
Y228710D01*
X208933Y228095D01*
X209404Y227624D01*
X210019Y227370D01*
X210685D01*
X211300Y227624D01*
X211770Y228095D01*
X212025Y228710D01*
Y229376D01*
X211770Y229991D01*
X211300Y230461D01*
X210685Y230716D01*
D02*
G37*
G36*
X271986Y230020D02*
X271321D01*
X270706Y229765D01*
X270235Y229294D01*
X269980Y228679D01*
Y228014D01*
X270235Y227399D01*
X270706Y226928D01*
X271321Y226673D01*
X271986D01*
X272601Y226928D01*
X273072Y227399D01*
X273327Y228014D01*
Y228679D01*
X273072Y229294D01*
X272601Y229765D01*
X271986Y230020D01*
D02*
G37*
G36*
X226711D02*
X226045D01*
X225430Y229765D01*
X224959Y229294D01*
X224705Y228679D01*
Y228014D01*
X224959Y227399D01*
X225430Y226928D01*
X226045Y226673D01*
X226711D01*
X227326Y226928D01*
X227797Y227399D01*
X228051Y228014D01*
Y228679D01*
X227797Y229294D01*
X227326Y229765D01*
X226711Y230020D01*
D02*
G37*
G36*
X200727Y226476D02*
X200061D01*
X199446Y226222D01*
X198975Y225751D01*
X198721Y225136D01*
Y224470D01*
X198975Y223855D01*
X199446Y223385D01*
X200061Y223130D01*
X200727D01*
X201342Y223385D01*
X201812Y223855D01*
X202067Y224470D01*
Y225136D01*
X201812Y225751D01*
X201342Y226222D01*
X200727Y226476D01*
D02*
G37*
G36*
X185372Y230020D02*
X184707D01*
X184092Y229765D01*
X183621Y229294D01*
X183366Y228679D01*
Y228014D01*
X183621Y227399D01*
X183838Y227182D01*
X183847Y222979D01*
X183060Y222652D01*
X183035Y222678D01*
X182420Y222933D01*
X181754D01*
X181139Y222678D01*
X180668Y222208D01*
X180413Y221593D01*
Y220927D01*
X180668Y220312D01*
X181139Y219841D01*
X181754Y219587D01*
X182420D01*
X183035Y219841D01*
X183067Y219873D01*
X183855Y219548D01*
X183859Y217626D01*
X183073Y217028D01*
X182738D01*
X182123Y216773D01*
X181652Y216302D01*
X181398Y215687D01*
Y215021D01*
X181652Y214406D01*
X182123Y213936D01*
X182738Y213681D01*
X183404D01*
X183868Y213371D01*
X183877Y209745D01*
X183090Y209154D01*
X182738D01*
X182123Y208899D01*
X181652Y208428D01*
X181398Y207813D01*
Y207148D01*
X181652Y206533D01*
X182123Y206062D01*
X182738Y205807D01*
X183404D01*
X183886Y205486D01*
X183891Y203250D01*
X183104Y202923D01*
X183035Y202993D01*
X182420Y203248D01*
X181754D01*
X181139Y202993D01*
X180668Y202523D01*
X180413Y201908D01*
Y201242D01*
X180668Y200627D01*
X181139Y200156D01*
X181754Y199902D01*
X182420D01*
X183035Y200156D01*
X183349Y200471D01*
X183379Y200483D01*
X183394Y200486D01*
X183989Y200423D01*
X184229Y200322D01*
X186511Y194356D01*
X186378Y194034D01*
X186358Y193366D01*
X185691Y193307D01*
X185076Y193052D01*
X184605Y192582D01*
X184350Y191967D01*
X183563Y191768D01*
X183560Y191769D01*
X182894D01*
X182893Y191769D01*
X182296Y192374D01*
X182382Y192581D01*
Y193246D01*
X182127Y193861D01*
X181657Y194332D01*
X181042Y194587D01*
X180573D01*
X167677Y201773D01*
X167650Y201782D01*
X166968Y202064D01*
X166163Y202170D01*
Y202170D01*
X165376Y202167D01*
X163545Y202168D01*
X163330Y202383D01*
X162715Y202638D01*
X162049D01*
X161434Y202383D01*
X160963Y201912D01*
X160709Y201297D01*
Y200632D01*
X160932Y200093D01*
X160891Y199985D01*
X160652Y199879D01*
X160311Y199821D01*
X159965Y199881D01*
X159708Y200139D01*
X159093Y200394D01*
X158427D01*
X157812Y200139D01*
X157341Y199668D01*
X156534Y199606D01*
X155868D01*
X155253Y199352D01*
X155228Y199356D01*
X153791Y202212D01*
X154174Y202595D01*
X154429Y203210D01*
Y203876D01*
X154174Y204491D01*
X153704Y204962D01*
X153089Y205217D01*
X153023Y205896D01*
Y206562D01*
X152768Y207177D01*
X152297Y207648D01*
X151682Y207902D01*
X151016D01*
X150401Y207648D01*
X149931Y207177D01*
X149798Y207124D01*
X149671Y207181D01*
X148725Y207393D01*
X147756Y207417D01*
X146801Y207252D01*
X145896Y206903D01*
X145077Y206385D01*
X144375Y205717D01*
X143816Y204924D01*
X143423Y204038D01*
X143369Y203796D01*
X142854D01*
X142239Y203542D01*
X141768Y203071D01*
X141513Y202456D01*
Y201790D01*
X141768Y201175D01*
X142239Y200705D01*
X142775Y200483D01*
X142788Y200417D01*
X142533Y199802D01*
Y199137D01*
X142788Y198522D01*
X143259Y198051D01*
X143874Y197796D01*
X144539D01*
X144872Y197934D01*
X147361Y192987D01*
X147479Y192800D01*
X147706Y192339D01*
X148634Y190951D01*
X149231Y190270D01*
X149735Y189695D01*
X149739Y189691D01*
X149741Y189694D01*
X150589Y188847D01*
X150597Y188840D01*
X150622Y188803D01*
X150622Y188803D01*
X151150Y188219D01*
X156269Y182476D01*
X156395Y182334D01*
X156793Y181902D01*
X157351Y181350D01*
X164990Y173651D01*
X165428Y173205D01*
X165431Y173202D01*
X165538Y173091D01*
X165542Y173095D01*
X167213Y171252D01*
X167086Y171125D01*
X166831Y170510D01*
Y169844D01*
X167086Y169229D01*
X167556Y168759D01*
X168171Y168504D01*
X168412D01*
X168930Y168274D01*
X169132Y167776D01*
Y167518D01*
X169387Y166903D01*
X169857Y166433D01*
X170472Y166178D01*
X171138D01*
X171753Y166433D01*
X172224Y166903D01*
X172437Y167418D01*
X172677Y167383D01*
X173645Y167431D01*
X174585Y167666D01*
X175462Y168081D01*
X176240Y168659D01*
X176891Y169377D01*
X177389Y170209D01*
X177715Y171122D01*
X177857Y172081D01*
X177810Y173049D01*
X177747Y173298D01*
X178107Y173447D01*
X178578Y173917D01*
X178832Y174532D01*
Y175198D01*
X178578Y175813D01*
X178107Y176284D01*
X177492Y176539D01*
X176826D01*
X176673Y177203D01*
X176418Y177818D01*
X175948Y178289D01*
X175333Y178543D01*
X174855D01*
X174595Y178791D01*
X174503Y178926D01*
X174357Y179267D01*
X174504Y179615D01*
X174582Y180180D01*
X174511Y180745D01*
X174296Y181274D01*
X174181Y182047D01*
X174652Y182518D01*
X174847Y182989D01*
X181526Y186731D01*
X181530Y186724D01*
X181584Y186746D01*
X182518Y187463D01*
X182660Y187648D01*
X182698Y187677D01*
X183356Y188423D01*
X183560D01*
X184175Y188677D01*
X184645Y189148D01*
X184900Y189763D01*
X185687Y189962D01*
X185691Y189961D01*
X186356D01*
X186971Y190215D01*
X187442Y190686D01*
X187697Y191301D01*
X187717Y191968D01*
X188384Y192028D01*
X188999Y192282D01*
X189470Y192753D01*
X189724Y193368D01*
Y194034D01*
X189470Y194649D01*
X188999Y195119D01*
X188760Y195218D01*
X187053Y199680D01*
X187341Y200098D01*
X187956Y200353D01*
X188426Y200824D01*
X188681Y201439D01*
Y202104D01*
X188426Y202719D01*
X187956Y203190D01*
X187341Y203445D01*
X186675D01*
X186298Y203696D01*
X186264Y219166D01*
X187050Y219783D01*
X187341D01*
X187956Y220038D01*
X188426Y220509D01*
X188681Y221124D01*
Y221790D01*
X188426Y222404D01*
X187956Y222875D01*
X187341Y223130D01*
X186675D01*
X186255Y223410D01*
X186246Y227187D01*
X186458Y227399D01*
X186713Y228014D01*
Y228679D01*
X186458Y229294D01*
X185987Y229765D01*
X185372Y230020D01*
D02*
G37*
G36*
X222774Y225295D02*
X222108D01*
X221493Y225041D01*
X221023Y224570D01*
X220768Y223955D01*
Y223289D01*
X221023Y222674D01*
X221493Y222203D01*
X222108Y221949D01*
X222774D01*
X223389Y222203D01*
X223860Y222674D01*
X224114Y223289D01*
Y223955D01*
X223860Y224570D01*
X223389Y225041D01*
X222774Y225295D01*
D02*
G37*
G36*
X206238Y227264D02*
X205573D01*
X204958Y227009D01*
X204487Y226538D01*
X204232Y225923D01*
Y225258D01*
X204487Y224643D01*
X204958Y224172D01*
X205573Y223917D01*
X206238D01*
X206736Y224124D01*
X206877Y224021D01*
X207190Y223708D01*
X207293Y223567D01*
X207087Y223069D01*
Y222403D01*
X207341Y221788D01*
X207812Y221318D01*
X208427Y221063D01*
X209093D01*
X209708Y221318D01*
X210178Y221788D01*
X210433Y222403D01*
Y223069D01*
X210178Y223684D01*
X209708Y224155D01*
X209093Y224410D01*
X208427D01*
X207929Y224203D01*
X207788Y224306D01*
X207475Y224619D01*
X207373Y224760D01*
X207579Y225258D01*
Y225923D01*
X207324Y226538D01*
X206853Y227009D01*
X206238Y227264D01*
D02*
G37*
G36*
X162857Y223745D02*
X162192D01*
X161577Y223490D01*
X161106Y223020D01*
X160851Y222405D01*
Y221739D01*
X161106Y221124D01*
X161577Y220653D01*
X162192Y220399D01*
X162857D01*
X163472Y220653D01*
X163943Y221124D01*
X164198Y221739D01*
Y222405D01*
X163943Y223020D01*
X163472Y223490D01*
X162857Y223745D01*
D02*
G37*
G36*
X197183Y222933D02*
X196518D01*
X195903Y222678D01*
X195432Y222208D01*
X195177Y221593D01*
Y220927D01*
X195432Y220312D01*
X195903Y219841D01*
X196518Y219587D01*
X197183D01*
X197798Y219841D01*
X198269Y220312D01*
X198524Y220927D01*
Y221593D01*
X198269Y222208D01*
X197798Y222678D01*
X197183Y222933D01*
D02*
G37*
G36*
X192262D02*
X191596D01*
X190981Y222678D01*
X190511Y222208D01*
X190256Y221593D01*
Y220927D01*
X190511Y220312D01*
X190981Y219841D01*
X191596Y219587D01*
X192262D01*
X192877Y219841D01*
X193348Y220312D01*
X193602Y220927D01*
Y221593D01*
X193348Y222208D01*
X192877Y222678D01*
X192262Y222933D01*
D02*
G37*
G36*
X177498D02*
X176833D01*
X176218Y222678D01*
X175747Y222208D01*
X175492Y221593D01*
Y220927D01*
X175747Y220312D01*
X176218Y219841D01*
X176833Y219587D01*
X177498D01*
X178113Y219841D01*
X178584Y220312D01*
X178839Y220927D01*
Y221593D01*
X178584Y222208D01*
X178113Y222678D01*
X177498Y222933D01*
D02*
G37*
G36*
X226711Y221358D02*
X226045D01*
X225430Y221104D01*
X224959Y220633D01*
X224705Y220018D01*
Y219352D01*
X224959Y218737D01*
X225430Y218267D01*
X226045Y218012D01*
X226711D01*
X227326Y218267D01*
X227797Y218737D01*
X228051Y219352D01*
Y220018D01*
X227797Y220633D01*
X227326Y221104D01*
X226711Y221358D01*
D02*
G37*
G36*
X197183Y218012D02*
X196518D01*
X195903Y217757D01*
X195432Y217286D01*
X195177Y216671D01*
Y216006D01*
X195432Y215391D01*
X195903Y214920D01*
X196518Y214665D01*
X197183D01*
X197798Y214920D01*
X198269Y215391D01*
X198524Y216006D01*
Y216671D01*
X198269Y217286D01*
X197798Y217757D01*
X197183Y218012D01*
D02*
G37*
G36*
X177498D02*
X176833D01*
X176218Y217757D01*
X175747Y217286D01*
X175492Y216671D01*
Y216006D01*
X175747Y215391D01*
X176218Y214920D01*
X176833Y214665D01*
X177498D01*
X178113Y214920D01*
X178584Y215391D01*
X178839Y216006D01*
Y216671D01*
X178584Y217286D01*
X178113Y217757D01*
X177498Y218012D01*
D02*
G37*
G36*
X191278Y217028D02*
X190612D01*
X189997Y216773D01*
X189526Y216302D01*
X189272Y215687D01*
Y215021D01*
X189526Y214406D01*
X189997Y213936D01*
X190612Y213681D01*
X191278D01*
X191893Y213936D01*
X192363Y214406D01*
X192618Y215021D01*
Y215687D01*
X192363Y216302D01*
X191893Y216773D01*
X191278Y217028D01*
D02*
G37*
G36*
X222774Y216240D02*
X222108D01*
X221493Y215985D01*
X221023Y215515D01*
X220768Y214900D01*
Y214234D01*
X221023Y213619D01*
X221493Y213148D01*
X222108Y212894D01*
X222774D01*
X223389Y213148D01*
X223860Y213619D01*
X224114Y214234D01*
Y214900D01*
X223860Y215515D01*
X223389Y215985D01*
X222774Y216240D01*
D02*
G37*
G36*
X254429Y224720D02*
X254122Y224659D01*
X253861Y224485D01*
X253687Y224224D01*
X253626Y223917D01*
Y212202D01*
X253526Y212141D01*
X252839Y211960D01*
X252515Y212285D01*
X251900Y212540D01*
X251234D01*
X250619Y212285D01*
X250148Y211814D01*
X249893Y211199D01*
Y210533D01*
X250148Y209918D01*
X250619Y209448D01*
X251234Y209193D01*
X251900D01*
X252515Y209448D01*
X252839Y209772D01*
X253526Y209592D01*
X253626Y209531D01*
Y207477D01*
X253526Y207416D01*
X252839Y207236D01*
X252515Y207560D01*
X251900Y207815D01*
X251234D01*
X250619Y207560D01*
X250148Y207090D01*
X249893Y206475D01*
Y205809D01*
X250148Y205194D01*
X250619Y204723D01*
X251234Y204469D01*
X251900D01*
X252515Y204723D01*
X252839Y205048D01*
X253526Y204867D01*
X253626Y204806D01*
Y202753D01*
X253526Y202692D01*
X252839Y202512D01*
X252515Y202836D01*
X251900Y203091D01*
X251234D01*
X250619Y202836D01*
X250148Y202365D01*
X249893Y201750D01*
Y201085D01*
X250148Y200470D01*
X250619Y199999D01*
X251234Y199744D01*
X251900D01*
X252515Y199999D01*
X252839Y200323D01*
X253526Y200143D01*
X253626Y200082D01*
Y198029D01*
X253526Y197968D01*
X252839Y197787D01*
X252515Y198111D01*
X251900Y198366D01*
X251234D01*
X250619Y198111D01*
X250148Y197641D01*
X249893Y197026D01*
Y196360D01*
X250148Y195745D01*
X250619Y195274D01*
X251234Y195020D01*
X251900D01*
X252515Y195274D01*
X252839Y195599D01*
X253526Y195418D01*
X253626Y195358D01*
Y153934D01*
X253526Y153873D01*
X252839Y153693D01*
X252515Y154017D01*
X251900Y154272D01*
X251234D01*
X250619Y154017D01*
X250148Y153546D01*
X249893Y152931D01*
Y152266D01*
X250148Y151651D01*
X250619Y151180D01*
X251234Y150925D01*
X251900D01*
X252515Y151180D01*
X252839Y151504D01*
X253526Y151324D01*
X253626Y151263D01*
Y142043D01*
X238681D01*
X238374Y141982D01*
X238113Y141808D01*
X237939Y141547D01*
X237878Y141240D01*
Y105807D01*
X237939Y105500D01*
X238113Y105239D01*
X238374Y105065D01*
X238681Y105004D01*
X275886Y105004D01*
X275886Y105004D01*
X276193Y105065D01*
X276453Y105239D01*
X276454Y105239D01*
X284032Y112818D01*
X284206Y113078D01*
X284267Y113386D01*
X284267Y216535D01*
X284206Y216843D01*
X284032Y217103D01*
X284032Y217103D01*
X276650Y224485D01*
X276650Y224485D01*
X276390Y224659D01*
X276083Y224720D01*
X254429Y224720D01*
D02*
G37*
G36*
X197183Y213287D02*
X196518D01*
X195903Y213033D01*
X195432Y212562D01*
X195177Y211947D01*
Y211281D01*
X195432Y210666D01*
X195903Y210196D01*
X196518Y209941D01*
X197183D01*
X197798Y210196D01*
X198269Y210666D01*
X198524Y211281D01*
Y211947D01*
X198269Y212562D01*
X197798Y213033D01*
X197183Y213287D01*
D02*
G37*
G36*
X177498D02*
X176833D01*
X176218Y213033D01*
X175747Y212562D01*
X175492Y211947D01*
Y211281D01*
X175747Y210666D01*
X176218Y210196D01*
X176833Y209941D01*
X177498D01*
X178113Y210196D01*
X178584Y210666D01*
X178839Y211281D01*
Y211947D01*
X178584Y212562D01*
X178113Y213033D01*
X177498Y213287D01*
D02*
G37*
G36*
X246247Y212540D02*
X245581D01*
X244966Y212285D01*
X244495Y211814D01*
X244241Y211199D01*
Y210533D01*
X244495Y209918D01*
X244966Y209448D01*
X245581Y209193D01*
X246247D01*
X246862Y209448D01*
X247332Y209918D01*
X247587Y210533D01*
Y211199D01*
X247332Y211814D01*
X246862Y212285D01*
X246247Y212540D01*
D02*
G37*
G36*
X226711Y212303D02*
X226045D01*
X225430Y212048D01*
X224959Y211578D01*
X224705Y210963D01*
Y210297D01*
X224959Y209682D01*
X225430Y209211D01*
X226045Y208957D01*
X226711D01*
X227326Y209211D01*
X227797Y209682D01*
X228051Y210297D01*
Y210963D01*
X227797Y211578D01*
X227326Y212048D01*
X226711Y212303D01*
D02*
G37*
G36*
X191278Y209154D02*
X190612D01*
X189997Y208899D01*
X189526Y208428D01*
X189272Y207813D01*
Y207148D01*
X189526Y206533D01*
X189997Y206062D01*
X190612Y205807D01*
X191278D01*
X191893Y206062D01*
X192363Y206533D01*
X192618Y207148D01*
Y207813D01*
X192363Y208428D01*
X191893Y208899D01*
X191278Y209154D01*
D02*
G37*
G36*
X166740Y209028D02*
X166074D01*
X165459Y208773D01*
X164989Y208302D01*
X164734Y207687D01*
Y207022D01*
X164989Y206407D01*
X165459Y205936D01*
X166074Y205681D01*
X166740D01*
X167355Y205936D01*
X167826Y206407D01*
X168080Y207022D01*
Y207687D01*
X167826Y208302D01*
X167355Y208773D01*
X166740Y209028D01*
D02*
G37*
G36*
X197183Y208169D02*
X196518D01*
X195903Y207915D01*
X195432Y207444D01*
X195177Y206829D01*
Y206163D01*
X195432Y205548D01*
X195903Y205078D01*
X196518Y204823D01*
X197183D01*
X197798Y205078D01*
X198269Y205548D01*
X198524Y206163D01*
Y206829D01*
X198269Y207444D01*
X197798Y207915D01*
X197183Y208169D01*
D02*
G37*
G36*
X177498D02*
X176833D01*
X176218Y207915D01*
X175747Y207444D01*
X175492Y206829D01*
Y206163D01*
X175747Y205548D01*
X176218Y205078D01*
X176833Y204823D01*
X177498D01*
X178113Y205078D01*
X178584Y205548D01*
X178839Y206163D01*
Y206829D01*
X178584Y207444D01*
X178113Y207915D01*
X177498Y208169D01*
D02*
G37*
G36*
X246247Y207815D02*
X245581D01*
X244966Y207560D01*
X244495Y207090D01*
X244241Y206475D01*
Y205809D01*
X244495Y205194D01*
X244966Y204723D01*
X245581Y204469D01*
X246247D01*
X246862Y204723D01*
X247332Y205194D01*
X247587Y205809D01*
Y206475D01*
X247332Y207090D01*
X246862Y207560D01*
X246247Y207815D01*
D02*
G37*
G36*
X197183Y203248D02*
X196518D01*
X195903Y202993D01*
X195432Y202523D01*
X195177Y201908D01*
Y201242D01*
X195432Y200627D01*
X195903Y200156D01*
X196518Y199902D01*
X197183D01*
X197798Y200156D01*
X198269Y200627D01*
X198524Y201242D01*
Y201908D01*
X198269Y202523D01*
X197798Y202993D01*
X197183Y203248D01*
D02*
G37*
G36*
X192262D02*
X191596D01*
X190981Y202993D01*
X190511Y202523D01*
X190256Y201908D01*
Y201242D01*
X190511Y200627D01*
X190981Y200156D01*
X191596Y199902D01*
X192262D01*
X192877Y200156D01*
X193348Y200627D01*
X193602Y201242D01*
Y201908D01*
X193348Y202523D01*
X192877Y202993D01*
X192262Y203248D01*
D02*
G37*
G36*
X177498D02*
X176833D01*
X176218Y202993D01*
X175747Y202523D01*
X175492Y201908D01*
Y201242D01*
X175747Y200627D01*
X176218Y200156D01*
X176833Y199902D01*
X177498D01*
X178113Y200156D01*
X178584Y200627D01*
X178839Y201242D01*
Y201908D01*
X178584Y202523D01*
X178113Y202993D01*
X177498Y203248D01*
D02*
G37*
G36*
X246249Y203091D02*
X245583D01*
X244968Y202836D01*
X244497Y202365D01*
X244243Y201750D01*
Y201084D01*
X244497Y200469D01*
X244968Y199999D01*
X245583Y199744D01*
X246249D01*
X246864Y199999D01*
X247334Y200469D01*
X247589Y201084D01*
Y201750D01*
X247334Y202365D01*
X246864Y202836D01*
X246249Y203091D01*
D02*
G37*
G36*
X132223Y202461D02*
X131557D01*
X130942Y202206D01*
X130471Y201735D01*
X130217Y201120D01*
Y200455D01*
X130471Y199840D01*
X130942Y199369D01*
X131557Y199114D01*
X132223D01*
X132838Y199369D01*
X133308Y199840D01*
X133563Y200455D01*
Y201120D01*
X133308Y201735D01*
X132838Y202206D01*
X132223Y202461D01*
D02*
G37*
G36*
X239774Y198366D02*
X239108D01*
X238493Y198111D01*
X238022Y197641D01*
X237768Y197026D01*
Y196360D01*
X238022Y195745D01*
X238493Y195274D01*
X239108Y195020D01*
X239774D01*
X240389Y195274D01*
X240859Y195745D01*
X241114Y196360D01*
Y197026D01*
X240859Y197641D01*
X240389Y198111D01*
X239774Y198366D01*
D02*
G37*
G36*
X108305Y209449D02*
X107640D01*
X107025Y209194D01*
X106554Y208723D01*
X106299Y208108D01*
Y207443D01*
X106554Y206828D01*
X106684Y206698D01*
X106881Y206087D01*
X106667Y205686D01*
X106456Y205475D01*
X106201Y204860D01*
Y204195D01*
X106456Y203580D01*
X106568Y203467D01*
X106843Y202953D01*
X106568Y202438D01*
X106456Y202326D01*
X106201Y201711D01*
Y201045D01*
X106456Y200430D01*
X106519Y200367D01*
X106786Y199745D01*
X106519Y199338D01*
X106357Y199176D01*
X106102Y198561D01*
Y197896D01*
X106357Y197281D01*
X106519Y197119D01*
X106786Y196712D01*
X106519Y196090D01*
X106456Y196027D01*
X106201Y195412D01*
Y194746D01*
X106456Y194131D01*
X106926Y193660D01*
X107541Y193405D01*
X108207D01*
X108822Y193660D01*
X109292Y194131D01*
X109547Y194746D01*
Y195412D01*
X109292Y196027D01*
X109131Y196188D01*
X108864Y196595D01*
X109131Y197217D01*
X109194Y197281D01*
X109449Y197896D01*
Y198561D01*
X109194Y199176D01*
X109131Y199240D01*
X108864Y199861D01*
X109131Y200268D01*
X109292Y200430D01*
X109547Y201045D01*
Y201711D01*
X109292Y202326D01*
X109180Y202438D01*
X108905Y202953D01*
X109180Y203467D01*
X109292Y203580D01*
X109547Y204195D01*
Y204860D01*
X109292Y205475D01*
X109163Y205605D01*
X108966Y206216D01*
X109180Y206617D01*
X109391Y206828D01*
X109646Y207443D01*
Y208108D01*
X109391Y208723D01*
X108920Y209194D01*
X108305Y209449D01*
D02*
G37*
G36*
X100431Y207776D02*
X99766D01*
X99151Y207521D01*
X98680Y207050D01*
X98425Y206435D01*
Y205769D01*
X98680Y205154D01*
X98842Y204993D01*
X99108Y204586D01*
X98842Y203964D01*
X98778Y203901D01*
X98524Y203286D01*
Y202620D01*
X98778Y202005D01*
X98891Y201892D01*
X99166Y201378D01*
X98891Y200864D01*
X98778Y200751D01*
X98524Y200136D01*
Y199470D01*
X98778Y198855D01*
X98891Y198743D01*
X99166Y198228D01*
X98891Y197714D01*
X98778Y197601D01*
X98524Y196986D01*
Y196321D01*
X98778Y195706D01*
X98842Y195642D01*
X99179Y195128D01*
X98842Y194614D01*
X98778Y194550D01*
X98524Y193935D01*
Y193270D01*
X98778Y192655D01*
X99249Y192184D01*
X99864Y191929D01*
X100530D01*
X101145Y192184D01*
X101615Y192655D01*
X101870Y193270D01*
Y193935D01*
X101615Y194550D01*
X101552Y194614D01*
X101215Y195128D01*
X101552Y195642D01*
X101615Y195706D01*
X101870Y196321D01*
Y196986D01*
X101615Y197601D01*
X101503Y197714D01*
X101228Y198228D01*
X101503Y198743D01*
X101615Y198855D01*
X101870Y199470D01*
Y200136D01*
X101615Y200751D01*
X101503Y200864D01*
X101228Y201378D01*
X101503Y201892D01*
X101615Y202005D01*
X101870Y202620D01*
Y203286D01*
X101615Y203901D01*
X101453Y204062D01*
X101187Y204469D01*
X101453Y205091D01*
X101517Y205154D01*
X101772Y205769D01*
Y206435D01*
X101517Y207050D01*
X101046Y207521D01*
X100431Y207776D01*
D02*
G37*
G36*
X247085Y192323D02*
X246419D01*
X245804Y192068D01*
X245334Y191597D01*
X245328Y191585D01*
X238634Y190203D01*
X238030Y190453D01*
X237364D01*
X236749Y190198D01*
X236278Y189727D01*
X236024Y189112D01*
Y188447D01*
X236278Y187832D01*
X236749Y187361D01*
X237364Y187106D01*
X238030D01*
X238645Y187361D01*
X239115Y187832D01*
X239120Y187844D01*
X244594Y188974D01*
X245173Y188330D01*
X245177Y188291D01*
Y187659D01*
X245432Y187044D01*
X245903Y186574D01*
X246518Y186319D01*
X247183D01*
X247798Y186574D01*
X248269Y187044D01*
X248524Y187659D01*
Y188325D01*
X248269Y188940D01*
X247839Y189370D01*
X248170Y189702D01*
X248425Y190317D01*
Y190982D01*
X248170Y191597D01*
X247700Y192068D01*
X247085Y192323D01*
D02*
G37*
G36*
X195549Y192087D02*
X194884D01*
X194269Y191832D01*
X193798Y191362D01*
X193543Y190747D01*
Y190081D01*
X193798Y189466D01*
X194269Y188995D01*
X194884Y188741D01*
X195549D01*
X196164Y188995D01*
X196635Y189466D01*
X196890Y190081D01*
Y190747D01*
X196635Y191362D01*
X196164Y191832D01*
X195549Y192087D01*
D02*
G37*
G36*
X108207Y190453D02*
X107541D01*
X106926Y190198D01*
X106456Y189727D01*
X106201Y189112D01*
Y188447D01*
X106456Y187832D01*
X106926Y187361D01*
X107541Y187106D01*
X108207D01*
X108822Y187361D01*
X109292Y187832D01*
X109547Y188447D01*
Y189112D01*
X109292Y189727D01*
X108822Y190198D01*
X108207Y190453D01*
D02*
G37*
G36*
X199152Y188189D02*
X198486D01*
X197871Y187934D01*
X197400Y187463D01*
X197146Y186849D01*
Y186183D01*
X197400Y185568D01*
X197871Y185097D01*
X198486Y184843D01*
X199152D01*
X199767Y185097D01*
X200237Y185568D01*
X200492Y186183D01*
Y186849D01*
X200237Y187463D01*
X199767Y187934D01*
X199152Y188189D01*
D02*
G37*
G36*
X100530Y185728D02*
X99864D01*
X99249Y185474D01*
X98778Y185003D01*
X98524Y184388D01*
Y183722D01*
X98778Y183107D01*
X99249Y182637D01*
X99864Y182382D01*
X100530D01*
X101145Y182637D01*
X101615Y183107D01*
X101870Y183722D01*
Y184388D01*
X101615Y185003D01*
X101145Y185474D01*
X100530Y185728D01*
D02*
G37*
G36*
X232066Y180460D02*
X231057Y180221D01*
X230144Y179730D01*
X229954Y179550D01*
X229951Y179553D01*
X229336Y179808D01*
X228671D01*
X228056Y179553D01*
X227585Y179083D01*
X227330Y178468D01*
Y177802D01*
X227585Y177187D01*
X228056Y176716D01*
X228453Y176552D01*
X224922Y154683D01*
X224644Y154527D01*
X223978D01*
X223363Y154273D01*
X222945Y153854D01*
X222878Y153861D01*
X222389Y154347D01*
X222427Y155202D01*
X222743Y155518D01*
X222998Y156133D01*
Y156798D01*
X222814Y157242D01*
X222897Y158129D01*
X223367Y158599D01*
X223622Y159214D01*
Y159880D01*
X223367Y160495D01*
X222897Y160966D01*
X222874Y160975D01*
X222336Y161412D01*
X222480Y161926D01*
X222539Y162069D01*
Y162734D01*
X222285Y163349D01*
X221814Y163820D01*
X221199Y164075D01*
X220776D01*
X220263Y164572D01*
X220155Y164770D01*
X220475Y165894D01*
X221406Y166287D01*
X221518Y166240D01*
X222183D01*
X222798Y166495D01*
X223269Y166966D01*
X223524Y167580D01*
Y168246D01*
X223269Y168861D01*
X222798Y169332D01*
X222183Y169587D01*
X222056Y169777D01*
X222184Y170088D01*
Y170753D01*
X221930Y171368D01*
X221459Y171839D01*
X220844Y172094D01*
X220178D01*
X219563Y171839D01*
X219093Y171368D01*
X218838Y170753D01*
Y170088D01*
X219031Y169620D01*
X212444Y146471D01*
X212444Y146470D01*
X212443Y146470D01*
X212441Y146463D01*
X212440Y146445D01*
X212433Y146427D01*
X212427Y146383D01*
X212413Y146352D01*
X212294Y145851D01*
X212294Y145848D01*
X212293Y145846D01*
X212292Y145842D01*
X212291Y145809D01*
X212279Y145780D01*
X212274Y145754D01*
X212274Y145746D01*
X212271Y145739D01*
X207395Y120443D01*
X206930Y119979D01*
X206676Y119364D01*
Y118698D01*
X206838Y118306D01*
X206275Y118072D01*
X205804Y117602D01*
X205550Y116987D01*
Y116321D01*
X205804Y115706D01*
X205878Y115632D01*
X206227Y115159D01*
X205878Y114603D01*
X205844Y114569D01*
X205590Y113954D01*
Y113289D01*
X205844Y112674D01*
X205997Y112521D01*
X205243Y98728D01*
X204762Y98425D01*
X204096D01*
X203481Y98170D01*
X203011Y97700D01*
X202756Y97085D01*
Y96419D01*
X203011Y95804D01*
X203481Y95333D01*
X203892Y95163D01*
X203896Y95141D01*
X203642Y94526D01*
Y93860D01*
X203896Y93245D01*
X204367Y92774D01*
X204982Y92520D01*
X205648D01*
X206058Y92690D01*
X206575Y92058D01*
X200411Y83381D01*
X200212Y83463D01*
X199546D01*
X198931Y83209D01*
X198460Y82738D01*
X198205Y82123D01*
Y81457D01*
X197621Y80854D01*
X197006Y80599D01*
X196535Y80129D01*
X196281Y79514D01*
Y78848D01*
X196535Y78233D01*
X196627Y78141D01*
X195478Y76504D01*
X195478Y76504D01*
X195472Y76496D01*
X194991Y75577D01*
X194765Y74566D01*
X194809Y73530D01*
X195119Y72540D01*
X195674Y71665D01*
X196437Y70964D01*
X197356Y70483D01*
X198359Y70259D01*
X198582Y69722D01*
X199052Y69251D01*
X199667Y68996D01*
X200333D01*
X200948Y69251D01*
X201418Y69722D01*
X201673Y70336D01*
Y71002D01*
X201500Y71419D01*
X201969Y71929D01*
X201975Y71938D01*
X201976Y71938D01*
X201976Y71939D01*
X202149Y72184D01*
X203980Y74792D01*
X204853Y75974D01*
X205677Y75889D01*
X206159Y75246D01*
X205963Y74668D01*
X205709Y74053D01*
Y73388D01*
X205963Y72773D01*
X206434Y72302D01*
X207049Y72047D01*
X207715D01*
X208330Y72302D01*
X208800Y72773D01*
X209055Y73388D01*
Y74053D01*
X209054Y74056D01*
X209751Y75100D01*
X209776Y75159D01*
X209861Y75271D01*
X209878Y75310D01*
X209884Y75317D01*
X222116Y97335D01*
X226498Y105221D01*
X226559Y105413D01*
X226632Y105600D01*
X237144Y166157D01*
X237580Y166594D01*
X237835Y167209D01*
Y167875D01*
X237580Y168490D01*
X237109Y168960D01*
X237063Y168979D01*
X236535Y169378D01*
X236670Y169930D01*
X236718Y170047D01*
Y170712D01*
X236463Y171327D01*
X235993Y171798D01*
X235747Y171900D01*
X236389Y175877D01*
X236406Y176462D01*
X236411D01*
X237026Y176716D01*
X237497Y177187D01*
X237751Y177802D01*
Y178468D01*
X237497Y179083D01*
X237026Y179553D01*
X236411Y179808D01*
X235745D01*
X235130Y179553D01*
X235009Y179555D01*
X234977Y179588D01*
X234095Y180133D01*
X233102Y180430D01*
X232066Y180460D01*
D02*
G37*
G36*
X108305Y182677D02*
X107640D01*
X107025Y182422D01*
X106554Y181952D01*
X106299Y181337D01*
Y180671D01*
X106554Y180056D01*
X106753Y179857D01*
X106885Y179261D01*
X106716Y178866D01*
X106456Y178605D01*
X106201Y177990D01*
Y177325D01*
X106456Y176710D01*
X106926Y176239D01*
X107541Y175984D01*
X108207D01*
X108822Y176239D01*
X109292Y176710D01*
X109547Y177325D01*
Y177990D01*
X109292Y178605D01*
X109093Y178805D01*
X108961Y179401D01*
X109131Y179796D01*
X109391Y180056D01*
X109646Y180671D01*
Y181337D01*
X109391Y181952D01*
X108920Y182422D01*
X108305Y182677D01*
D02*
G37*
G36*
X95420Y177894D02*
X94754D01*
X94139Y177639D01*
X93669Y177168D01*
X93414Y176553D01*
Y175888D01*
X93669Y175273D01*
X94139Y174802D01*
X94754Y174547D01*
X95420D01*
X96035Y174802D01*
X96505Y175273D01*
X96760Y175888D01*
Y176553D01*
X96505Y177168D01*
X96035Y177639D01*
X95420Y177894D01*
D02*
G37*
G36*
X100569Y181043D02*
X99904D01*
X99289Y180789D01*
X98818Y180318D01*
X98563Y179703D01*
Y179037D01*
X98818Y178422D01*
X99289Y177952D01*
X99268Y177117D01*
X99013Y176502D01*
Y175837D01*
X99268Y175222D01*
X99738Y174751D01*
X100353Y174496D01*
X101019D01*
X101634Y174751D01*
X102105Y175222D01*
X102359Y175837D01*
Y176502D01*
X102105Y177117D01*
X101634Y177588D01*
X101655Y178422D01*
X101910Y179037D01*
Y179703D01*
X101655Y180318D01*
X101184Y180789D01*
X100569Y181043D01*
D02*
G37*
G36*
X96002Y166831D02*
X95337D01*
X94722Y166576D01*
X94251Y166105D01*
X93996Y165490D01*
Y164825D01*
X94251Y164210D01*
X94722Y163739D01*
X95337Y163484D01*
X96002D01*
X96617Y163739D01*
X97088Y164210D01*
X97342Y164825D01*
Y165490D01*
X97088Y166105D01*
X96617Y166576D01*
X96002Y166831D01*
D02*
G37*
G36*
X246247Y154272D02*
X245581D01*
X244966Y154017D01*
X244495Y153546D01*
X244241Y152931D01*
Y152266D01*
X244495Y151651D01*
X244966Y151180D01*
X245581Y150925D01*
X246247D01*
X246862Y151180D01*
X247332Y151651D01*
X247587Y152266D01*
Y152931D01*
X247332Y153546D01*
X246862Y154017D01*
X246247Y154272D01*
D02*
G37*
G36*
X128581Y153642D02*
X127915D01*
X127300Y153387D01*
X126830Y152916D01*
X126575Y152301D01*
Y151636D01*
X126534Y151575D01*
X126340D01*
X125725Y151320D01*
X125255Y150849D01*
X125017Y150275D01*
X124705Y150166D01*
X124528Y150125D01*
X124213Y150102D01*
X123783Y150533D01*
X123168Y150787D01*
X122502D01*
X121887Y150533D01*
X121416Y150062D01*
X121161Y149447D01*
Y148781D01*
X120989Y148524D01*
X120927D01*
X120312Y148269D01*
X119841Y147798D01*
X119587Y147183D01*
Y146518D01*
X119841Y145903D01*
X120312Y145432D01*
X120927Y145177D01*
X121593D01*
X122208Y145432D01*
X122678Y145903D01*
X122933Y146518D01*
Y147159D01*
X123094Y147272D01*
X123628Y147563D01*
X140909Y141554D01*
X140979Y141544D01*
X141125Y141484D01*
X141931Y141378D01*
X142738Y141484D01*
X142829Y141521D01*
X142870Y141526D01*
X145610Y142396D01*
X146026Y142224D01*
X146691D01*
X147306Y142479D01*
X147777Y142950D01*
X148031Y143565D01*
Y144230D01*
X147777Y144845D01*
X147306Y145316D01*
X146691Y145571D01*
X146063D01*
Y146002D01*
X145808Y146617D01*
X145338Y147088D01*
X144723Y147343D01*
X144057D01*
X143442Y147088D01*
X142971Y146617D01*
X142264Y146168D01*
X141599D01*
X141237Y146018D01*
X129823Y150063D01*
X129617Y150971D01*
X129667Y151021D01*
X129921Y151636D01*
Y152301D01*
X129667Y152916D01*
X129196Y153387D01*
X128581Y153642D01*
D02*
G37*
G36*
X95420Y152697D02*
X94754D01*
X94139Y152442D01*
X93669Y151971D01*
X93414Y151356D01*
Y150691D01*
X93669Y150076D01*
X94139Y149605D01*
X94754Y149350D01*
X95420D01*
X96035Y149605D01*
X96505Y150076D01*
X96760Y150691D01*
Y151356D01*
X96505Y151971D01*
X96035Y152442D01*
X95420Y152697D01*
D02*
G37*
G36*
X310753Y146918D02*
X310088D01*
X309473Y146664D01*
X309002Y146193D01*
X308747Y145578D01*
Y144912D01*
X309002Y144298D01*
X309473Y143827D01*
X310088Y143572D01*
X310753D01*
X311368Y143827D01*
X311839Y144298D01*
X312094Y144912D01*
Y145578D01*
X311839Y146193D01*
X311368Y146664D01*
X310753Y146918D01*
D02*
G37*
G36*
X104171Y146063D02*
X103506D01*
X102891Y145808D01*
X102420Y145337D01*
X102165Y144723D01*
Y144057D01*
X102420Y143442D01*
X102891Y142971D01*
X103506Y142717D01*
X104171D01*
X104786Y142971D01*
X105257Y143442D01*
X105512Y144057D01*
Y144723D01*
X105257Y145337D01*
X104786Y145808D01*
X104171Y146063D01*
D02*
G37*
G36*
X91967D02*
X91301D01*
X90686Y145808D01*
X90215Y145337D01*
X89961Y144723D01*
Y144057D01*
X90215Y143442D01*
X90686Y142971D01*
X91301Y142717D01*
X91967D01*
X92582Y142971D01*
X93052Y143442D01*
X93307Y144057D01*
Y144723D01*
X93052Y145337D01*
X92582Y145808D01*
X91967Y146063D01*
D02*
G37*
G36*
X163423Y125787D02*
X162758D01*
X162143Y125533D01*
X161672Y125062D01*
X161417Y124447D01*
Y123781D01*
X161672Y123166D01*
X162143Y122696D01*
X162758Y122441D01*
X163423D01*
X164038Y122696D01*
X164509Y123166D01*
X164764Y123781D01*
Y124447D01*
X164509Y125062D01*
X164038Y125533D01*
X163423Y125787D01*
D02*
G37*
G36*
X186652Y126083D02*
X185986D01*
X185371Y125828D01*
X184900Y125357D01*
X184646Y124742D01*
Y124077D01*
X184900Y123462D01*
X185371Y122991D01*
X185479Y122946D01*
X187426Y116011D01*
X186758Y115550D01*
X186658Y115636D01*
X186441Y115796D01*
X185067Y116805D01*
Y116873D01*
X184812Y117488D01*
X184342Y117959D01*
X183727Y118214D01*
X183061D01*
X182446Y117959D01*
X182066Y117579D01*
X181784Y117861D01*
X181169Y118115D01*
X180504D01*
X179889Y117861D01*
X179418Y117390D01*
X179164Y116775D01*
Y116109D01*
X179418Y115494D01*
X179889Y115024D01*
X180504Y114769D01*
X181169D01*
X181784Y115024D01*
X182164Y115404D01*
X182446Y115122D01*
X183061Y114867D01*
X183075D01*
X183399Y114085D01*
X183396Y114075D01*
X183142Y113460D01*
Y113451D01*
X182354Y112926D01*
X182223Y112981D01*
X181557D01*
X180942Y112726D01*
X180471Y112255D01*
X180217Y111640D01*
Y110975D01*
X180471Y110360D01*
X180942Y109889D01*
X181557Y109634D01*
X182223D01*
X182764Y109858D01*
X183135Y109731D01*
X183565Y109503D01*
X183815Y102697D01*
X183808Y102697D01*
X183777Y102493D01*
X183791Y102489D01*
X183381Y100952D01*
X183377Y100950D01*
X183377D01*
X183271Y100145D01*
X183377Y99338D01*
X183688Y98586D01*
X183828Y98404D01*
X183870Y98312D01*
X184468Y97493D01*
Y96912D01*
X184723Y96297D01*
X185194Y95826D01*
X185809Y95571D01*
X186475D01*
X187090Y95826D01*
X187560Y96297D01*
X187815Y96912D01*
Y97577D01*
X187560Y98192D01*
X187559Y98194D01*
X187336Y98726D01*
X187806Y99197D01*
X188061Y99812D01*
X188821Y99746D01*
X188982Y96577D01*
X188825Y96420D01*
X188571Y95805D01*
Y95140D01*
X188825Y94525D01*
X189296Y94054D01*
X189911Y93799D01*
X190577D01*
X190892Y93589D01*
Y93475D01*
X191147Y92860D01*
X191617Y92389D01*
X192232Y92135D01*
X192898D01*
X193513Y92389D01*
X193984Y92860D01*
X194238Y93475D01*
Y94141D01*
X193984Y94756D01*
X193513Y95226D01*
X192898Y95481D01*
X192232D01*
X191917Y95692D01*
Y95805D01*
X191662Y96420D01*
X191388Y96695D01*
X191108Y102209D01*
X191110Y102225D01*
X191110Y102225D01*
X191106Y103012D01*
X191106Y109513D01*
X191893Y110157D01*
X192118D01*
X192733Y110411D01*
X193203Y110882D01*
X193458Y111497D01*
Y112163D01*
X193203Y112778D01*
X192733Y113248D01*
X192118Y113503D01*
X191452D01*
X191450Y113503D01*
X190507Y113948D01*
X188304Y121794D01*
X188959Y122375D01*
X189037Y122343D01*
X189703D01*
X190318Y122597D01*
X190789Y123068D01*
X191043Y123683D01*
Y124349D01*
X190789Y124963D01*
X190318Y125434D01*
X189703Y125689D01*
X189037D01*
X188538Y125482D01*
X187737Y125357D01*
X187527Y125568D01*
X187267Y125828D01*
X186652Y126083D01*
D02*
G37*
G36*
X158699Y125394D02*
X158033D01*
X157418Y125139D01*
X156948Y124668D01*
X156693Y124053D01*
Y123388D01*
X156948Y122773D01*
X157418Y122302D01*
X158033Y122047D01*
X158699D01*
X159314Y122302D01*
X159785Y122773D01*
X160039Y123388D01*
Y124053D01*
X159785Y124668D01*
X159314Y125139D01*
X158699Y125394D01*
D02*
G37*
G36*
X134978Y125295D02*
X134313D01*
X133698Y125040D01*
X133227Y124570D01*
X132973Y123955D01*
Y123289D01*
X133227Y122674D01*
X133698Y122204D01*
X134313Y121949D01*
X134978D01*
X135593Y122204D01*
X136064Y122674D01*
X136319Y123289D01*
Y123955D01*
X136064Y124570D01*
X135593Y125040D01*
X134978Y125295D01*
D02*
G37*
G36*
X177538Y125149D02*
X176872D01*
X176257Y124894D01*
X175786Y124423D01*
X175531Y123808D01*
Y123143D01*
X175786Y122528D01*
X176257Y122057D01*
X176872Y121802D01*
X177538D01*
X178153Y122057D01*
X178623Y122528D01*
X178878Y123143D01*
Y123808D01*
X178623Y124423D01*
X178153Y124894D01*
X177538Y125149D01*
D02*
G37*
G36*
X198515Y120835D02*
X197850D01*
X197235Y120580D01*
X196764Y120110D01*
X196509Y119495D01*
Y118829D01*
X196764Y118214D01*
X197235Y117743D01*
X197850Y117489D01*
X198515D01*
X199130Y117743D01*
X199601Y118214D01*
X199856Y118829D01*
Y119495D01*
X199601Y120110D01*
X199130Y120580D01*
X198515Y120835D01*
D02*
G37*
G36*
X139998Y118307D02*
X139333D01*
X138718Y118052D01*
X138247Y117582D01*
X137992Y116967D01*
Y116535D01*
X137462D01*
X137109Y116389D01*
X136962Y116418D01*
X133393D01*
X133393Y116418D01*
X132986Y116337D01*
X132641Y116106D01*
X132172Y115638D01*
X131505Y116084D01*
X131595Y116301D01*
Y116967D01*
X131340Y117582D01*
X130869Y118052D01*
X130254Y118307D01*
X129588D01*
X128973Y118052D01*
X128503Y117582D01*
X128248Y116967D01*
Y116301D01*
X128503Y115686D01*
X128973Y115215D01*
X129588Y114961D01*
X130254D01*
X130471Y115050D01*
X130917Y114383D01*
X127615Y111082D01*
X126870Y111450D01*
Y111849D01*
X126615Y112463D01*
X126145Y112934D01*
X125530Y113189D01*
X124864D01*
X124249Y112934D01*
X123778Y112463D01*
X123524Y111849D01*
Y111183D01*
X123778Y110568D01*
X124249Y110097D01*
X124864Y109843D01*
X125263D01*
X125631Y109097D01*
X121537Y105003D01*
X121392Y104995D01*
X120654Y105234D01*
X120513Y105574D01*
X120042Y106044D01*
X119427Y106299D01*
X118762D01*
X118147Y106044D01*
X117676Y105574D01*
X117421Y104959D01*
Y104293D01*
X117676Y103678D01*
X118147Y103208D01*
X118487Y103067D01*
X118726Y102328D01*
X118718Y102184D01*
X118264Y101730D01*
X118033Y101384D01*
X117952Y100977D01*
Y100319D01*
X117517Y100139D01*
X117156Y99778D01*
X116794Y100139D01*
X116179Y100394D01*
X115514D01*
X114899Y100139D01*
X114428Y99668D01*
X114173Y99053D01*
Y98388D01*
X114428Y97773D01*
X114899Y97302D01*
X115514Y97047D01*
X116179D01*
X116794Y97302D01*
X117156Y97663D01*
X117517Y97302D01*
X118132Y97047D01*
X118797D01*
X119412Y97302D01*
X119744Y97634D01*
X120076Y97302D01*
X120691Y97047D01*
X121356D01*
X121971Y97302D01*
X122323Y97653D01*
X122674Y97302D01*
X123289Y97047D01*
X123955D01*
X124139Y97124D01*
X124334Y97088D01*
X124983Y96688D01*
X124985Y96686D01*
X125008Y96571D01*
X125238Y96226D01*
X125503Y95961D01*
X125421Y95180D01*
X125037Y95021D01*
X124754Y94738D01*
X124373Y95119D01*
X123758Y95374D01*
X123092D01*
X122477Y95119D01*
X122007Y94649D01*
X121752Y94034D01*
Y93368D01*
X122007Y92753D01*
X122477Y92282D01*
X123092Y92027D01*
X123758D01*
X124373Y92282D01*
X124655Y92565D01*
X125037Y92184D01*
X125652Y91929D01*
X126317D01*
X126932Y92184D01*
X127264Y92516D01*
X127595Y92184D01*
X128210Y91929D01*
X128406D01*
X128891Y91889D01*
X129134Y91203D01*
X129389Y90588D01*
X129859Y90117D01*
X130474Y89862D01*
X131140D01*
X131755Y90117D01*
X132226Y90588D01*
X132480Y91203D01*
Y91868D01*
X132587Y92027D01*
X132616D01*
X133231Y92282D01*
X133563Y92614D01*
X133895Y92282D01*
X134510Y92027D01*
X135175D01*
X135790Y92282D01*
X136261Y92753D01*
X136516Y93368D01*
Y94034D01*
X136366Y94394D01*
X136971Y94644D01*
X137442Y95115D01*
X137697Y95730D01*
Y96396D01*
X137442Y97011D01*
X136971Y97481D01*
X136936Y97660D01*
X136950Y97674D01*
X137205Y98289D01*
Y98955D01*
X136950Y99570D01*
X136618Y99901D01*
X136950Y100233D01*
X137205Y100848D01*
Y101514D01*
X136950Y102129D01*
X136618Y102461D01*
X136950Y102792D01*
X137205Y103407D01*
Y103760D01*
X137992Y103916D01*
X138050Y103777D01*
X138521Y103306D01*
X139136Y103051D01*
X139801D01*
X140416Y103306D01*
X140887Y103777D01*
X141142Y104392D01*
Y105057D01*
X140887Y105672D01*
X140416Y106143D01*
X139801Y106398D01*
X139136D01*
X138521Y106143D01*
X138050Y105672D01*
X137795Y105057D01*
Y104705D01*
X137008Y104548D01*
X136950Y104688D01*
X136479Y105159D01*
X135864Y105413D01*
X135199D01*
X134584Y105159D01*
X134113Y104688D01*
X133858Y104073D01*
Y103407D01*
X134113Y102792D01*
X134445Y102461D01*
X134113Y102129D01*
X133858Y101514D01*
Y101014D01*
X132161Y99317D01*
X132156Y99309D01*
X131333Y99258D01*
X131331Y99260D01*
X131105Y99900D01*
X131241Y100036D01*
X131496Y100651D01*
Y101317D01*
X131241Y101932D01*
X130910Y102264D01*
X131241Y102595D01*
X131496Y103210D01*
Y103876D01*
X131241Y104491D01*
X130771Y104962D01*
X130156Y105217D01*
X129490D01*
X128875Y104962D01*
X128404Y104491D01*
X128150Y103876D01*
Y103210D01*
X128277Y102903D01*
X127887Y102173D01*
X127816Y102115D01*
X127365D01*
X126957Y102034D01*
X126612Y101804D01*
X125315Y100507D01*
X124646Y100173D01*
X124256Y100269D01*
X123955Y100394D01*
X123289D01*
X122983Y100267D01*
X122537Y100935D01*
X132379Y110776D01*
X132932Y110666D01*
X133403Y110196D01*
X134018Y109941D01*
X134683D01*
X135298Y110196D01*
X135769Y110666D01*
X135895Y110971D01*
X136448Y110742D01*
X137114D01*
X137729Y110997D01*
X138199Y111468D01*
X138454Y112083D01*
Y112748D01*
X138251Y113240D01*
X138743Y113444D01*
X139214Y113914D01*
X139469Y114529D01*
Y114961D01*
X139998D01*
X140613Y115215D01*
X141084Y115686D01*
X141339Y116301D01*
Y116967D01*
X141084Y117582D01*
X140613Y118052D01*
X139998Y118307D01*
D02*
G37*
G36*
X120805Y118634D02*
X120140D01*
X119525Y118379D01*
X119054Y117908D01*
X118799Y117293D01*
Y116628D01*
X119054Y116013D01*
X119525Y115542D01*
X120140Y115287D01*
X120805D01*
X121420Y115542D01*
X121891Y116013D01*
X122145Y116628D01*
Y117293D01*
X121891Y117908D01*
X121420Y118379D01*
X120805Y118634D01*
D02*
G37*
G36*
X125530Y118634D02*
X124864D01*
X124249Y118379D01*
X123778Y117908D01*
X123524Y117293D01*
Y116628D01*
X123778Y116013D01*
X124249Y115542D01*
X124864Y115287D01*
X125530D01*
X126145Y115542D01*
X126615Y116013D01*
X126870Y116628D01*
Y117293D01*
X126615Y117908D01*
X126145Y118379D01*
X125530Y118634D01*
D02*
G37*
G36*
X172774Y118504D02*
X172108D01*
X171493Y118249D01*
X171022Y117779D01*
X170768Y117164D01*
Y116498D01*
X171022Y115883D01*
X171493Y115412D01*
X172108Y115157D01*
X172774D01*
X173389Y115412D01*
X173860Y115883D01*
X174114Y116498D01*
Y117164D01*
X173860Y117779D01*
X173389Y118249D01*
X172774Y118504D01*
D02*
G37*
G36*
X168049D02*
X167384D01*
X166769Y118249D01*
X166298Y117779D01*
X166043Y117164D01*
Y116498D01*
X166298Y115883D01*
X166769Y115412D01*
X167384Y115157D01*
X168049D01*
X168664Y115412D01*
X169135Y115883D01*
X169390Y116498D01*
Y117164D01*
X169135Y117779D01*
X168664Y118249D01*
X168049Y118504D01*
D02*
G37*
G36*
X153876D02*
X153210D01*
X152595Y118249D01*
X152125Y117779D01*
X151870Y117164D01*
Y116498D01*
X152125Y115883D01*
X152595Y115412D01*
X153210Y115157D01*
X153876D01*
X154491Y115412D01*
X154962Y115883D01*
X155217Y116498D01*
Y117164D01*
X154962Y117779D01*
X154491Y118249D01*
X153876Y118504D01*
D02*
G37*
G36*
X144427D02*
X143762D01*
X143147Y118249D01*
X142676Y117779D01*
X142421Y117164D01*
Y116498D01*
X142676Y115883D01*
X143147Y115412D01*
X143762Y115157D01*
X144427D01*
X145042Y115412D01*
X145513Y115883D01*
X145768Y116498D01*
Y117164D01*
X145513Y117779D01*
X145042Y118249D01*
X144427Y118504D01*
D02*
G37*
G36*
X149152Y118405D02*
X148486D01*
X147871Y118151D01*
X147400Y117680D01*
X147146Y117065D01*
Y116399D01*
X147400Y115785D01*
X147871Y115314D01*
X148486Y115059D01*
X149152D01*
X149767Y115314D01*
X150237Y115785D01*
X150492Y116399D01*
Y117065D01*
X150237Y117680D01*
X149767Y118151D01*
X149152Y118405D01*
D02*
G37*
G36*
X157026Y114665D02*
X156360D01*
X155745Y114411D01*
X155274Y113940D01*
X155020Y113325D01*
Y112659D01*
X155274Y112044D01*
X155745Y111574D01*
X156360Y111319D01*
X157026D01*
X157641Y111574D01*
X157960Y111893D01*
X158371Y111483D01*
X158779Y111314D01*
Y110306D01*
X158807Y110166D01*
Y105017D01*
X155229Y101439D01*
X154985Y101074D01*
X154900Y100644D01*
Y93976D01*
X154985Y93546D01*
X155229Y93182D01*
X161688Y86722D01*
X161688Y86722D01*
X162788Y85623D01*
X166216Y82195D01*
Y79770D01*
X165327Y78882D01*
X165084Y78518D01*
X164998Y78087D01*
Y76903D01*
X164801Y76772D01*
X164136D01*
X163521Y76517D01*
X163189Y76185D01*
X162857Y76517D01*
X162242Y76772D01*
X161577D01*
X160962Y76517D01*
X160491Y76046D01*
X160236Y75431D01*
Y74766D01*
X160491Y74151D01*
X160962Y73680D01*
X161287Y73545D01*
Y70891D01*
X156695Y66299D01*
X156610Y66171D01*
X155823Y66410D01*
X155823Y73528D01*
X155823Y73528D01*
X155823Y73606D01*
X155823Y73606D01*
X155823Y73606D01*
X155807Y73683D01*
Y73683D01*
X155807Y73684D01*
X155796Y73741D01*
X155762Y73913D01*
X155762Y73913D01*
X155762Y73913D01*
X155702Y74058D01*
X155701Y74058D01*
X155701Y74058D01*
X155610Y74195D01*
X155528Y74318D01*
X155527Y74318D01*
X155527Y74318D01*
X155417Y74429D01*
X155417Y74429D01*
X155417Y74429D01*
X155274Y74524D01*
X155156Y74603D01*
X155156Y74603D01*
X155156Y74603D01*
X155011Y74663D01*
X155011Y74663D01*
X155011Y74663D01*
X154857Y74694D01*
X154704Y74724D01*
X154704Y74724D01*
X154704Y74724D01*
X154626Y74724D01*
X152854Y74724D01*
X152854Y74724D01*
X152466D01*
X152389Y74709D01*
X152310D01*
X151549Y74558D01*
X151476Y74527D01*
X151399Y74512D01*
X150682Y74215D01*
X150616Y74171D01*
X150543Y74141D01*
X149899Y73710D01*
X149843Y73654D01*
X149777Y73610D01*
X149229Y73062D01*
X149185Y72996D01*
X149129Y72940D01*
X148698Y72295D01*
X148668Y72222D01*
X148624Y72156D01*
X148327Y71440D01*
X148311Y71362D01*
X148281Y71289D01*
X148130Y70529D01*
Y70450D01*
X148114Y70372D01*
X148114Y69984D01*
X148114Y63094D01*
X148114Y63094D01*
X148114Y63094D01*
X148115Y62706D01*
X148130Y62629D01*
X148130Y62550D01*
X148281Y61789D01*
X148311Y61716D01*
X148327Y61639D01*
X148624Y60922D01*
X148668Y60857D01*
X148698Y60784D01*
X149129Y60139D01*
X149185Y60083D01*
X149229Y60017D01*
X149777Y59469D01*
X149843Y59425D01*
X149899Y59369D01*
X150543Y58938D01*
X150616Y58908D01*
X150682Y58864D01*
X151398Y58567D01*
X151476Y58552D01*
X151549Y58522D01*
X152309Y58370D01*
X152388Y58370D01*
X152466Y58355D01*
X152854Y58355D01*
X154626Y58354D01*
X154626Y58354D01*
X154626Y58354D01*
X154627Y58355D01*
X154627Y58354D01*
X154705Y58355D01*
X154864Y58386D01*
X155012Y58416D01*
X155570Y58328D01*
X156041Y57857D01*
X156655Y57602D01*
X157321D01*
X157936Y57857D01*
X158268Y58189D01*
X158599Y57857D01*
X159214Y57602D01*
X159880D01*
X160495Y57857D01*
X160966Y58328D01*
X161221Y58943D01*
Y59608D01*
X160966Y60223D01*
X160495Y60694D01*
X160169Y60829D01*
Y64394D01*
X163157Y67382D01*
X163682Y67151D01*
X163878Y66989D01*
Y66399D01*
X164084Y65902D01*
X163821Y64916D01*
X163819Y64884D01*
X163813Y64839D01*
X163790Y64784D01*
X163192Y61923D01*
X163191Y61803D01*
X163123Y61288D01*
X163229Y60482D01*
X163323Y60254D01*
X163343Y60149D01*
X163917Y58695D01*
X163878Y58600D01*
Y57935D01*
X164133Y57320D01*
X164603Y56849D01*
X165218Y56595D01*
X165434D01*
X165563Y56475D01*
X165898Y55813D01*
X165748Y55451D01*
Y54785D01*
X166003Y54170D01*
X166473Y53700D01*
X167088Y53445D01*
X167754D01*
X168369Y53700D01*
X168840Y54170D01*
X169095Y54785D01*
Y55451D01*
X169811Y55779D01*
X170010Y55798D01*
X173841Y52078D01*
X173836Y52073D01*
X174717Y51397D01*
X175804Y50947D01*
X176970Y50793D01*
X178137Y50947D01*
X179224Y51397D01*
X179460Y51578D01*
X179528Y51608D01*
X187165Y56897D01*
X187231Y56943D01*
X187727Y57347D01*
X187756Y57369D01*
X187759Y57373D01*
X188301Y57914D01*
X188304Y57917D01*
X188337Y57959D01*
X188766Y58494D01*
X188775Y58508D01*
X189197Y59139D01*
X189219Y59193D01*
X189335Y59343D01*
X189480Y59694D01*
X189546Y59793D01*
X189839Y60501D01*
X189863Y60618D01*
X190008Y60970D01*
X190033Y61158D01*
X190056Y61212D01*
X190202Y61951D01*
X190203Y61951D01*
X190203Y61951D01*
X190207Y61972D01*
X190288Y62707D01*
X190279D01*
X190279Y62707D01*
X190279Y69099D01*
X190288Y69886D01*
X190288Y70284D01*
X190219Y70955D01*
X190203Y71040D01*
X189218Y76472D01*
X189822Y77259D01*
X190437Y77514D01*
X190907Y77985D01*
X191162Y78600D01*
Y79265D01*
X190907Y79880D01*
X190437Y80351D01*
X190262Y80423D01*
X189823Y80639D01*
X189862Y81360D01*
Y82026D01*
X189649Y82540D01*
X189662Y82593D01*
X189842Y82943D01*
X190094Y83268D01*
X190490D01*
X191105Y83522D01*
X191576Y83993D01*
X191831Y84608D01*
Y85274D01*
X191576Y85889D01*
X191105Y86359D01*
X190729Y86515D01*
X190166Y87667D01*
X190164Y87670D01*
X190163Y87674D01*
X190162Y87676D01*
X190104Y87751D01*
X190004Y87901D01*
X189938Y88029D01*
X185861Y93182D01*
Y93689D01*
X185606Y94304D01*
X185136Y94775D01*
X184521Y95029D01*
X183855D01*
X183240Y94775D01*
X182769Y94304D01*
X182515Y93689D01*
X181823Y93474D01*
X181823D01*
X181747Y93442D01*
X181208Y93219D01*
X180738Y92748D01*
X180483Y92133D01*
Y91467D01*
X180738Y90852D01*
X180771Y90819D01*
X181140Y90126D01*
X180885Y89511D01*
Y89140D01*
X179798Y87962D01*
X179788Y87962D01*
X179381Y87833D01*
X178857Y87826D01*
X178223Y88257D01*
X173490Y91566D01*
X173367Y92556D01*
X173622Y93171D01*
Y93837D01*
X173367Y94452D01*
X172897Y94922D01*
X172282Y95177D01*
X171616D01*
X171001Y94922D01*
X170530Y94452D01*
X170482Y94335D01*
X169548Y93914D01*
X164852Y96203D01*
X164762Y96227D01*
X164683Y96279D01*
X164680Y96280D01*
X164680Y96280D01*
X164680Y96280D01*
X162182Y97323D01*
X162064Y97607D01*
X161593Y98077D01*
X160978Y98332D01*
X160313D01*
X159698Y98077D01*
X159490Y97870D01*
X158703Y98196D01*
Y99534D01*
X162280Y103112D01*
X162524Y103477D01*
X162610Y103907D01*
Y110922D01*
X162582Y111061D01*
Y111291D01*
X162989Y111460D01*
X163361Y111832D01*
X163718Y111475D01*
X164333Y111221D01*
X164998D01*
X165613Y111475D01*
X166084Y111946D01*
X166339Y112561D01*
Y113226D01*
X166084Y113841D01*
X165613Y114312D01*
X164998Y114567D01*
X164333D01*
X163718Y114312D01*
X163346Y113940D01*
X162989Y114297D01*
X162374Y114551D01*
X161709D01*
X161094Y114297D01*
X160692Y113895D01*
X160267Y114320D01*
X159652Y114574D01*
X158986D01*
X158371Y114320D01*
X158052Y114000D01*
X157641Y114411D01*
X157026Y114665D01*
D02*
G37*
G36*
X177498Y113287D02*
X176833D01*
X176218Y113033D01*
X175747Y112562D01*
X175492Y111947D01*
Y111281D01*
X175747Y110666D01*
X176218Y110196D01*
X176833Y109941D01*
X177498D01*
X178113Y110196D01*
X178584Y110666D01*
X178839Y111281D01*
Y111947D01*
X178584Y112562D01*
X178113Y113033D01*
X177498Y113287D01*
D02*
G37*
G36*
X172872D02*
X172207D01*
X171592Y113033D01*
X171121Y112562D01*
X170866Y111947D01*
Y111281D01*
X171121Y110666D01*
X171592Y110196D01*
X172207Y109941D01*
X172872D01*
X173487Y110196D01*
X173958Y110666D01*
X174213Y111281D01*
Y111947D01*
X173958Y112562D01*
X173487Y113033D01*
X172872Y113287D01*
D02*
G37*
G36*
X144526Y113189D02*
X143860D01*
X143245Y112934D01*
X142774Y112463D01*
X142520Y111849D01*
Y111183D01*
X142774Y110568D01*
X143245Y110097D01*
X143860Y109843D01*
X144526D01*
X145141Y110097D01*
X145611Y110568D01*
X145866Y111183D01*
Y111849D01*
X145611Y112463D01*
X145141Y112934D01*
X144526Y113189D01*
D02*
G37*
G36*
X96548Y119488D02*
X95578D01*
X94628Y119299D01*
X93732Y118928D01*
X92926Y118390D01*
X92240Y117704D01*
X91702Y116898D01*
X91331Y116003D01*
X91142Y115052D01*
Y114082D01*
X91331Y113132D01*
X91702Y112236D01*
X92240Y111430D01*
X92926Y110745D01*
X93732Y110206D01*
X94628Y109835D01*
X95578Y109646D01*
X96548D01*
X97499Y109835D01*
X98394Y110206D01*
X99200Y110745D01*
X99886Y111430D01*
X100424Y112236D01*
X100795Y113132D01*
X100984Y114082D01*
Y115052D01*
X100795Y116003D01*
X100424Y116898D01*
X99886Y117704D01*
X99200Y118390D01*
X98394Y118928D01*
X97499Y119299D01*
X96548Y119488D01*
D02*
G37*
G36*
X197786Y106334D02*
X197121D01*
X196506Y106079D01*
X196035Y105609D01*
X195780Y104994D01*
Y104328D01*
X196035Y103713D01*
X196506Y103243D01*
X197121Y102988D01*
X197786D01*
X198401Y103243D01*
X198872Y103713D01*
X199127Y104328D01*
Y104994D01*
X198872Y105609D01*
X198401Y106079D01*
X197786Y106334D01*
D02*
G37*
G36*
X153288Y106099D02*
X152622D01*
X152007Y105844D01*
X151537Y105373D01*
X151282Y104758D01*
Y104093D01*
X151537Y103478D01*
X152007Y103007D01*
X152622Y102752D01*
X153288D01*
X153903Y103007D01*
X154374Y103478D01*
X154629Y104093D01*
Y104758D01*
X154374Y105373D01*
X153903Y105844D01*
X153288Y106099D01*
D02*
G37*
G36*
X148475Y106066D02*
X147809D01*
X147194Y105811D01*
X146723Y105341D01*
X146469Y104726D01*
Y104060D01*
X146723Y103445D01*
X147194Y102974D01*
X147809Y102720D01*
X148475D01*
X149090Y102974D01*
X149560Y103445D01*
X149815Y104060D01*
Y104726D01*
X149560Y105341D01*
X149090Y105811D01*
X148475Y106066D01*
D02*
G37*
G36*
X168049Y105610D02*
X167384D01*
X166769Y105356D01*
X166298Y104885D01*
X166043Y104270D01*
Y103604D01*
X166298Y102989D01*
X166769Y102518D01*
X167384Y102264D01*
X168049D01*
X168664Y102518D01*
X169135Y102989D01*
X169390Y103604D01*
Y104270D01*
X169135Y104885D01*
X168664Y105356D01*
X168049Y105610D01*
D02*
G37*
G36*
X179270Y102359D02*
X178604D01*
X177989Y102104D01*
X177518Y101634D01*
X177264Y101019D01*
Y100353D01*
X177518Y99738D01*
X177989Y99267D01*
X178604Y99013D01*
X179270D01*
X179885Y99267D01*
X180355Y99738D01*
X180610Y100353D01*
Y101019D01*
X180355Y101634D01*
X179885Y102104D01*
X179270Y102359D01*
D02*
G37*
G36*
X199053Y90551D02*
X198388D01*
X197773Y90296D01*
X197302Y89826D01*
X197047Y89211D01*
Y88545D01*
X197302Y87930D01*
X197773Y87459D01*
X198388Y87205D01*
X199053D01*
X199668Y87459D01*
X200139Y87930D01*
X200394Y88545D01*
Y89211D01*
X200139Y89826D01*
X199668Y90296D01*
X199053Y90551D01*
D02*
G37*
G36*
X232579Y79115D02*
X231962Y79033D01*
X231387Y78795D01*
X230894Y78417D01*
X230553Y77972D01*
X230193Y77923D01*
X230043D01*
X229683Y77972D01*
X229342Y78417D01*
X228849Y78795D01*
X228274Y79033D01*
X227658Y79115D01*
X227041Y79033D01*
X226466Y78795D01*
X225973Y78417D01*
X225632Y77972D01*
X225272Y77923D01*
X225122D01*
X224762Y77972D01*
X224421Y78417D01*
X223927Y78795D01*
X223353Y79033D01*
X222736Y79115D01*
X222120Y79033D01*
X221545Y78795D01*
X221052Y78417D01*
X220673Y77923D01*
X220435Y77349D01*
X220354Y76732D01*
Y75157D01*
X220435Y74541D01*
X220496Y74393D01*
X220004Y73606D01*
X217815D01*
X217780Y73599D01*
X217340Y73686D01*
X217339Y73681D01*
X214872Y74476D01*
X214805Y74638D01*
X214334Y75108D01*
X213719Y75363D01*
X213053D01*
X212439Y75108D01*
X211968Y74638D01*
X211713Y74023D01*
Y73357D01*
X211968Y72742D01*
X212439Y72272D01*
X212889Y72085D01*
X212691Y71608D01*
Y70942D01*
X212946Y70327D01*
X213417Y69857D01*
X214032Y69602D01*
X214697D01*
X215312Y69857D01*
X215783Y70327D01*
X216038Y70942D01*
X216085Y70977D01*
X216776Y71316D01*
X216825Y71317D01*
X217815Y71186D01*
Y71197D01*
X220245D01*
X220618Y70492D01*
X220614Y70410D01*
X220124Y70034D01*
X219713Y69499D01*
X219456Y68877D01*
X219368Y68209D01*
X219456Y67541D01*
X219713Y66918D01*
X220124Y66383D01*
X220658Y65973D01*
X221281Y65715D01*
X221949Y65627D01*
X229429D01*
X230097Y65715D01*
X230720Y65973D01*
X231254Y66383D01*
X231664Y66918D01*
X231922Y67541D01*
X232010Y68209D01*
X231922Y68877D01*
X231664Y69499D01*
X231254Y70034D01*
X230720Y70444D01*
X230097Y70702D01*
X229429Y70790D01*
X224538D01*
X224381Y71577D01*
X224722Y71718D01*
X224896Y71852D01*
X224954Y71876D01*
X226645Y73020D01*
X227041Y72856D01*
X227658Y72775D01*
X228274Y72856D01*
X228849Y73094D01*
X229342Y73472D01*
X229683Y73917D01*
X230043Y73966D01*
X230193D01*
X230553Y73917D01*
X230894Y73472D01*
X231387Y73094D01*
X231962Y72856D01*
X232579Y72775D01*
X233195Y72856D01*
X233770Y73094D01*
X234263Y73472D01*
X234642Y73966D01*
X234880Y74541D01*
X234961Y75157D01*
Y76732D01*
X234880Y77349D01*
X234642Y77923D01*
X234263Y78417D01*
X233770Y78795D01*
X233195Y79033D01*
X232579Y79115D01*
D02*
G37*
G36*
X158305Y78642D02*
X157640D01*
X157025Y78387D01*
X156554Y77916D01*
X156299Y77301D01*
Y76636D01*
X156554Y76021D01*
X157025Y75550D01*
X157640Y75295D01*
X158305D01*
X158920Y75550D01*
X159391Y76021D01*
X159646Y76636D01*
Y77301D01*
X159391Y77916D01*
X158920Y78387D01*
X158305Y78642D01*
D02*
G37*
G36*
X265741Y72893D02*
X265076D01*
X264461Y72638D01*
X263990Y72167D01*
X263735Y71552D01*
Y70887D01*
X263990Y70272D01*
X264051Y70211D01*
X263882Y69769D01*
X263665Y69483D01*
X263107D01*
X262492Y69228D01*
X262022Y68758D01*
X261767Y68143D01*
Y67477D01*
X262022Y66862D01*
X262492Y66391D01*
X263107Y66137D01*
X263773D01*
X264388Y66391D01*
X264859Y66862D01*
X265113Y67477D01*
Y68143D01*
X264859Y68758D01*
X264797Y68819D01*
X264966Y69260D01*
X265184Y69546D01*
X265741D01*
X266356Y69801D01*
X266827Y70272D01*
X267082Y70887D01*
Y71552D01*
X266827Y72167D01*
X266356Y72638D01*
X265741Y72893D01*
D02*
G37*
G36*
X107715Y67224D02*
X107049D01*
X106434Y66970D01*
X105963Y66499D01*
X105709Y65884D01*
Y65218D01*
X105963Y64603D01*
X106434Y64133D01*
X107049Y63878D01*
X107715D01*
X108330Y64133D01*
X108800Y64603D01*
X109055Y65218D01*
Y65884D01*
X108800Y66499D01*
X108330Y66970D01*
X107715Y67224D01*
D02*
G37*
G36*
X200301Y66307D02*
X199636D01*
X199021Y66052D01*
X198550Y65581D01*
X198295Y64966D01*
Y64301D01*
X198550Y63686D01*
X199021Y63215D01*
X199636Y62960D01*
X200301D01*
X200916Y63215D01*
X201387Y63686D01*
X201642Y64301D01*
Y64966D01*
X201387Y65581D01*
X200916Y66052D01*
X200301Y66307D01*
D02*
G37*
G36*
X263509Y65089D02*
X262843D01*
X262229Y64835D01*
X261758Y64364D01*
X261503Y63749D01*
Y63083D01*
X261758Y62468D01*
X262229Y61998D01*
X262843Y61743D01*
X263509D01*
X264124Y61998D01*
X264595Y62468D01*
X264850Y63083D01*
Y63749D01*
X264595Y64364D01*
X264124Y64835D01*
X263509Y65089D01*
D02*
G37*
G36*
X99361D02*
X98696D01*
X98081Y64835D01*
X97610Y64364D01*
X97355Y63749D01*
Y63083D01*
X97610Y62468D01*
X98081Y61998D01*
X98696Y61743D01*
X99361D01*
X99976Y61998D01*
X100447Y62468D01*
X100702Y63083D01*
Y63749D01*
X100447Y64364D01*
X99976Y64835D01*
X99361Y65089D01*
D02*
G37*
G36*
X237503Y68307D02*
X236907D01*
X236331Y68153D01*
X235815Y67855D01*
X235393Y67433D01*
X235095Y66917D01*
X234941Y66341D01*
Y65745D01*
X235095Y65170D01*
X235393Y64653D01*
X235815Y64232D01*
X235826Y64149D01*
X235580Y63458D01*
X235182Y62769D01*
X234961Y61943D01*
Y61088D01*
X235182Y60262D01*
X235610Y59521D01*
X236214Y58917D01*
X236955Y58489D01*
X237781Y58268D01*
X238636D01*
X239462Y58489D01*
X240203Y58917D01*
X240808Y59521D01*
X241235Y60262D01*
X241457Y61088D01*
Y61943D01*
X241235Y62769D01*
X240808Y63510D01*
X240203Y64115D01*
X239462Y64542D01*
X239371Y65382D01*
X239469Y65745D01*
Y66341D01*
X239314Y66917D01*
X239016Y67433D01*
X238595Y67855D01*
X238078Y68153D01*
X237503Y68307D01*
D02*
G37*
G36*
X214565Y68012D02*
X213782D01*
X213058Y67712D01*
X212504Y67158D01*
X212205Y66435D01*
Y65652D01*
X212285Y65457D01*
X211917Y64546D01*
X211884Y64524D01*
X211175Y64115D01*
X210570Y63510D01*
X210143Y62769D01*
X209921Y61943D01*
Y61088D01*
X210143Y60262D01*
X210570Y59521D01*
X211175Y58917D01*
X211916Y58489D01*
X212742Y58268D01*
X213597D01*
X214423Y58489D01*
X215164Y58917D01*
X215768Y59521D01*
X216196Y60262D01*
X216417Y61088D01*
Y61943D01*
X216196Y62769D01*
X215768Y63510D01*
X215611Y63668D01*
X215317Y64312D01*
X215624Y64710D01*
X215842Y64928D01*
X216142Y65652D01*
Y66435D01*
X215842Y67158D01*
X215288Y67712D01*
X214565Y68012D01*
D02*
G37*
G36*
X199152Y58563D02*
X198486D01*
X197871Y58308D01*
X197400Y57837D01*
X197146Y57223D01*
Y56557D01*
X197400Y55942D01*
X197871Y55471D01*
X198486Y55216D01*
X199152D01*
X199767Y55471D01*
X200237Y55942D01*
X200492Y56557D01*
Y57223D01*
X200237Y57837D01*
X199767Y58308D01*
X199152Y58563D01*
D02*
G37*
G36*
X231140Y57283D02*
X230474D01*
X229859Y57029D01*
X229389Y56558D01*
X229134Y55943D01*
Y55277D01*
X229389Y54662D01*
X229859Y54192D01*
X230474Y53937D01*
X231140D01*
X231755Y54192D01*
X232226Y54662D01*
X232480Y55277D01*
Y55943D01*
X232226Y56558D01*
X231755Y57029D01*
X231140Y57283D01*
D02*
G37*
G36*
X215417Y56751D02*
X214751D01*
X214136Y56496D01*
X213666Y56026D01*
X213411Y55411D01*
Y54745D01*
X213666Y54130D01*
X214136Y53659D01*
X214751Y53404D01*
X215417D01*
X216032Y53659D01*
X216503Y54130D01*
X216757Y54745D01*
Y55411D01*
X216503Y56026D01*
X216032Y56496D01*
X215417Y56751D01*
D02*
G37*
G36*
X158544Y56704D02*
X157878D01*
X157264Y56450D01*
X156793Y55979D01*
X156538Y55364D01*
Y54698D01*
X156793Y54083D01*
X157264Y53613D01*
X157878Y53358D01*
X158544D01*
X159159Y53613D01*
X159630Y54083D01*
X159885Y54698D01*
Y55364D01*
X159630Y55979D01*
X159159Y56450D01*
X158544Y56704D01*
D02*
G37*
G36*
X224644Y52559D02*
X223978D01*
X223363Y52304D01*
X222893Y51834D01*
X222638Y51219D01*
Y50553D01*
X222893Y49938D01*
X223363Y49467D01*
X223978Y49213D01*
X224644D01*
X225259Y49467D01*
X225729Y49938D01*
X225984Y50553D01*
Y51219D01*
X225729Y51834D01*
X225259Y52304D01*
X224644Y52559D01*
D02*
G37*
G36*
X212734Y51673D02*
X212069D01*
X211454Y51419D01*
X210983Y50948D01*
X210728Y50333D01*
Y49667D01*
X210983Y49052D01*
X211454Y48581D01*
X212069Y48327D01*
X212734D01*
X213349Y48581D01*
X213820Y49052D01*
X214075Y49667D01*
Y50333D01*
X213820Y50948D01*
X213349Y51419D01*
X212734Y51673D01*
D02*
G37*
G36*
X226415Y47539D02*
X225750D01*
X225135Y47285D01*
X224767Y46917D01*
X224311Y46859D01*
X223855Y46917D01*
X223487Y47285D01*
X222872Y47539D01*
X222207D01*
X221592Y47285D01*
X221121Y46814D01*
X220866Y46199D01*
Y45533D01*
X221121Y44918D01*
X221234Y44806D01*
X221508Y44291D01*
X221234Y43777D01*
X221121Y43664D01*
X221067Y43534D01*
X220139Y43113D01*
X218398Y43971D01*
X218240Y44353D01*
X217769Y44824D01*
X217154Y45079D01*
X216489D01*
X215874Y44824D01*
X215403Y44353D01*
X215148Y43738D01*
Y43073D01*
X215403Y42458D01*
X215874Y41987D01*
X216489Y41732D01*
X217154D01*
X217338Y41808D01*
X220542Y40230D01*
X221099Y39746D01*
X220905Y39205D01*
X220866Y39112D01*
Y38447D01*
X221121Y37832D01*
X221592Y37361D01*
X222207Y37106D01*
X222872D01*
X223487Y37361D01*
X223855Y37729D01*
X224311Y37787D01*
X224767Y37729D01*
X225135Y37361D01*
X225750Y37106D01*
X226415D01*
X227030Y37361D01*
X227501Y37832D01*
X227756Y38447D01*
Y39112D01*
X228319Y39811D01*
X230445Y40023D01*
X230548Y39920D01*
X231163Y39665D01*
X231240Y39550D01*
X231034Y39053D01*
Y38388D01*
X231289Y37773D01*
X231760Y37302D01*
X232375Y37047D01*
X233040D01*
X233655Y37302D01*
X234126Y37773D01*
X234381Y38388D01*
Y39053D01*
X234126Y39668D01*
X233655Y40139D01*
X233040Y40394D01*
X232963Y40509D01*
X233169Y41006D01*
Y41671D01*
X232915Y42286D01*
X232444Y42757D01*
X231829Y43012D01*
X231163D01*
X230548Y42757D01*
X230212Y42420D01*
X228487Y42248D01*
X227756Y42966D01*
Y43049D01*
X227501Y43664D01*
X227389Y43777D01*
X227114Y44291D01*
X227389Y44806D01*
X227501Y44918D01*
X227756Y45533D01*
Y46199D01*
X227501Y46814D01*
X227030Y47285D01*
X226415Y47539D01*
D02*
G37*
G36*
X243542Y50000D02*
X242876D01*
X242261Y49745D01*
X241790Y49275D01*
X241535Y48660D01*
Y47994D01*
X241790Y47379D01*
X242261Y46908D01*
X242876Y46654D01*
X243542D01*
X244157Y46908D01*
X244627Y47379D01*
X244882Y47994D01*
Y48660D01*
X244627Y49275D01*
X244157Y49745D01*
X243542Y50000D01*
D02*
G37*
G36*
X188030Y43799D02*
X187364D01*
X186749Y43544D01*
X186278Y43074D01*
X186024Y42459D01*
Y41793D01*
X186278Y41178D01*
X186749Y40707D01*
X187364Y40453D01*
X188030D01*
X188645Y40707D01*
X189115Y41178D01*
X189370Y41793D01*
Y42459D01*
X189115Y43074D01*
X188645Y43544D01*
X188030Y43799D01*
D02*
G37*
G36*
X205057Y42618D02*
X204392D01*
X203777Y42363D01*
X203306Y41893D01*
X203051Y41278D01*
Y40612D01*
X203306Y39997D01*
X203777Y39526D01*
X204392Y39272D01*
X205057D01*
X205672Y39526D01*
X206143Y39997D01*
X206398Y40612D01*
Y41278D01*
X206143Y41893D01*
X205672Y42363D01*
X205057Y42618D01*
D02*
G37*
G36*
X241475Y37894D02*
X240809D01*
X240194Y37639D01*
X239723Y37168D01*
X239469Y36553D01*
Y35888D01*
X239723Y35273D01*
X240194Y34802D01*
X240809Y34547D01*
X241475D01*
X242090Y34802D01*
X242560Y35273D01*
X242815Y35888D01*
Y36553D01*
X242560Y37168D01*
X242090Y37639D01*
X241475Y37894D01*
D02*
G37*
%LPD*%
G36*
X182480Y73921D02*
X182878Y73921D01*
X183657Y73766D01*
X184392Y73462D01*
X185053Y73020D01*
X185615Y72458D01*
X186056Y71797D01*
X186361Y71063D01*
X186516Y70283D01*
X186516Y69886D01*
X186516Y69886D01*
X186516Y63094D01*
Y62707D01*
X186364Y61946D01*
X186068Y61230D01*
X185637Y60585D01*
X185089Y60036D01*
X184444Y59605D01*
X183727Y59309D01*
X182967Y59157D01*
X182579D01*
X182579Y59157D01*
X180807Y59157D01*
X180729Y59157D01*
X180584Y59217D01*
X180473Y59328D01*
X180413Y59473D01*
X180413Y59551D01*
X180413Y59551D01*
X180413Y73528D01*
X180413Y73606D01*
X180473Y73751D01*
X180584Y73861D01*
X180728Y73922D01*
X180807Y73922D01*
X180807Y73922D01*
X182480Y73921D01*
D02*
G37*
G36*
X154626Y73921D02*
X154704Y73921D01*
X154849Y73861D01*
X154960Y73751D01*
X155020Y73606D01*
X155020Y73528D01*
X155020Y73528D01*
X155020Y59551D01*
Y59473D01*
X154960Y59328D01*
X154849Y59217D01*
X154705Y59157D01*
X154626Y59157D01*
Y59157D01*
X152854Y59158D01*
X152466Y59158D01*
X151706Y59309D01*
X150989Y59606D01*
X150345Y60037D01*
X149796Y60585D01*
X149365Y61230D01*
X149069Y61946D01*
X148917Y62707D01*
X148917Y63094D01*
Y63094D01*
X148917Y69984D01*
X148917Y70372D01*
X149068Y71133D01*
X149365Y71849D01*
X149796Y72494D01*
X150345Y73042D01*
X150989Y73473D01*
X151706Y73770D01*
X152466Y73921D01*
X152854D01*
X152854Y73921D01*
X154626Y73921D01*
D02*
G37*
%LPC*%
G36*
X196771Y33711D02*
X196105D01*
X195490Y33456D01*
X195020Y32986D01*
X194765Y32371D01*
Y31705D01*
X195020Y31090D01*
X195490Y30619D01*
X196105Y30365D01*
X196771D01*
X197386Y30619D01*
X197857Y31090D01*
X198111Y31705D01*
Y32371D01*
X197857Y32986D01*
X197386Y33456D01*
X196771Y33711D01*
D02*
G37*
G36*
X201699Y33015D02*
X201033D01*
X200418Y32761D01*
X199948Y32290D01*
X199693Y31675D01*
Y31009D01*
X199948Y30394D01*
X200418Y29924D01*
X201033Y29669D01*
X201699D01*
X202314Y29924D01*
X202785Y30394D01*
X203040Y31009D01*
Y31675D01*
X202785Y32290D01*
X202314Y32761D01*
X201699Y33015D01*
D02*
G37*
G36*
X164506Y26476D02*
X163840D01*
X163225Y26222D01*
X162755Y25751D01*
X162500Y25136D01*
Y24470D01*
X162755Y23855D01*
X163225Y23385D01*
X163840Y23130D01*
X164506D01*
X165121Y23385D01*
X165592Y23855D01*
X165847Y24470D01*
Y25136D01*
X165592Y25751D01*
X165121Y26222D01*
X164506Y26476D01*
D02*
G37*
G36*
X195608Y27067D02*
X194943D01*
X194328Y26812D01*
X193857Y26342D01*
X193602Y25727D01*
Y25061D01*
X193857Y24446D01*
X193864Y24439D01*
X193672Y23066D01*
X193316Y22910D01*
X193304Y22915D01*
X192638D01*
X192023Y22660D01*
X191552Y22190D01*
X191297Y21575D01*
Y20909D01*
X191552Y20294D01*
X192023Y19823D01*
X192638Y19569D01*
X193304D01*
X193919Y19823D01*
X193925Y19830D01*
X200716D01*
X201889Y19810D01*
X201918Y19798D01*
X203056Y19692D01*
X204086Y19570D01*
X204218Y19437D01*
X204833Y19183D01*
X205499D01*
X206114Y19437D01*
X206585Y19908D01*
X206839Y20523D01*
Y21189D01*
X206585Y21803D01*
X206114Y22274D01*
X205499Y22529D01*
X204833D01*
X204423Y22359D01*
X202224Y22621D01*
X202095Y22611D01*
X201991Y22625D01*
X201918Y22639D01*
X196085D01*
X195850Y23821D01*
X196223Y23975D01*
X196694Y24446D01*
X196949Y25061D01*
Y25727D01*
X196694Y26342D01*
X196223Y26812D01*
X195608Y27067D01*
D02*
G37*
G36*
X186160Y23031D02*
X185494D01*
X184879Y22777D01*
X184408Y22306D01*
X184154Y21691D01*
Y21025D01*
X184408Y20411D01*
X184879Y19940D01*
X185494Y19685D01*
X186160D01*
X186775Y19940D01*
X187245Y20411D01*
X187500Y21025D01*
Y21691D01*
X187245Y22306D01*
X186775Y22777D01*
X186160Y23031D01*
D02*
G37*
G36*
X210175Y22146D02*
X209510D01*
X208895Y21891D01*
X208424Y21420D01*
X208169Y20805D01*
Y20140D01*
X208424Y19525D01*
X208895Y19054D01*
X209510Y18799D01*
X210175D01*
X210790Y19054D01*
X211261Y19525D01*
X211516Y20140D01*
Y20805D01*
X211261Y21420D01*
X210790Y21891D01*
X210175Y22146D01*
D02*
G37*
G36*
X162152Y19014D02*
X161486D01*
X160871Y18759D01*
X160400Y18289D01*
X160145Y17674D01*
Y17008D01*
X160400Y16393D01*
X160871Y15923D01*
X161486Y15668D01*
X162152D01*
X162767Y15923D01*
X163237Y16393D01*
X163492Y17008D01*
Y17674D01*
X163237Y18289D01*
X162767Y18759D01*
X162152Y19014D01*
D02*
G37*
G36*
X175530Y15945D02*
X174864D01*
X174249Y15690D01*
X173778Y15219D01*
X173524Y14604D01*
Y13939D01*
X173778Y13324D01*
X174249Y12853D01*
X174864Y12598D01*
X175530D01*
X176145Y12853D01*
X176615Y13324D01*
X176870Y13939D01*
Y14604D01*
X176615Y15219D01*
X176145Y15690D01*
X175530Y15945D01*
D02*
G37*
G36*
X168456Y15805D02*
X167790D01*
X167175Y15550D01*
X166705Y15079D01*
X166450Y14464D01*
Y13799D01*
X166705Y13184D01*
X167175Y12713D01*
X167790Y12458D01*
X168456D01*
X169071Y12713D01*
X169542Y13184D01*
X169796Y13799D01*
Y14464D01*
X169542Y15079D01*
X169071Y15550D01*
X168456Y15805D01*
D02*
G37*
G36*
X181829Y20177D02*
X181163D01*
X180548Y19922D01*
X180078Y19452D01*
X179823Y18837D01*
Y18171D01*
X179859Y17166D01*
X179389Y16696D01*
X179134Y16081D01*
Y15415D01*
X179389Y14800D01*
X179859Y14330D01*
X180474Y14075D01*
X181140D01*
X181755Y14330D01*
X181853Y14427D01*
X201457D01*
X201538Y13280D01*
X200923Y13025D01*
X200453Y12554D01*
X200198Y11940D01*
Y11274D01*
X200453Y10659D01*
X200923Y10188D01*
X201538Y9933D01*
X202204D01*
X202819Y10188D01*
X203290Y10659D01*
X203544Y11274D01*
Y11940D01*
X203290Y12554D01*
X202819Y13025D01*
X202730Y13062D01*
X202965Y14243D01*
X203208D01*
X203823Y14498D01*
X204294Y14968D01*
X204549Y15584D01*
Y16249D01*
X204294Y16864D01*
X203823Y17335D01*
X203208Y17590D01*
X202543D01*
X201928Y17335D01*
X201830Y17237D01*
X184061D01*
X183169Y18171D01*
Y18837D01*
X182915Y19452D01*
X182444Y19922D01*
X181829Y20177D01*
D02*
G37*
G36*
X183206Y10343D02*
X182540D01*
X181925Y10088D01*
X181455Y9618D01*
X181200Y9003D01*
Y8337D01*
X181455Y7722D01*
X181925Y7251D01*
X182540Y6997D01*
X183206D01*
X183821Y7251D01*
X184292Y7722D01*
X184546Y8337D01*
Y9003D01*
X184292Y9618D01*
X183821Y10088D01*
X183206Y10343D01*
D02*
G37*
G36*
X209211Y10340D02*
X208546D01*
X207931Y10086D01*
X207460Y9615D01*
X207205Y9000D01*
Y8335D01*
X207460Y7720D01*
X207931Y7249D01*
X208546Y6994D01*
X209211D01*
X209826Y7249D01*
X210297Y7720D01*
X210552Y8335D01*
Y9000D01*
X210297Y9615D01*
X209826Y10086D01*
X209211Y10340D01*
D02*
G37*
%LPD*%
D10*
X182442Y99448D02*
G03*
X182474Y99568I-1126J357D01*
G01*
X180154Y92455D02*
G03*
X180103Y92272I2002J-655D01*
G01*
X232288Y275452D02*
G03*
X233416Y275783I-5J2106D01*
G01*
X242919Y281847D02*
G03*
X242938Y281859I-1133J1776D01*
G01*
X202058Y21226D02*
G03*
X201918Y21235I-140J-1173D01*
G01*
X205505Y275394D02*
G03*
X203374Y274477I7J-2953D01*
G01*
X182474Y99568D02*
X183110Y102671D01*
X180154Y92455D02*
X182441Y99443D01*
X182442Y99448D01*
X179231Y88476D02*
X180103Y92272D01*
X61024Y134646D02*
X105413Y276476D01*
X242938Y281859D02*
X279331Y305610D01*
X279822Y306735D02*
X350394Y293307D01*
X279555Y306786D02*
X279822Y306735D01*
X279528Y306791D02*
X279555Y306786D01*
X233416Y275783D02*
X242919Y281847D01*
X279988Y307776D02*
X280020Y307776D01*
X205505Y275394D02*
X232288Y275452D01*
X202058Y21226D02*
X205166Y20856D01*
X192978Y21235D02*
X201918D01*
X192971Y21242D02*
X192978Y21235D01*
X200156Y271099D02*
X203374Y274477D01*
X202791Y15832D02*
X202875Y15916D01*
X180807Y15748D02*
X180891Y15832D01*
X202791D01*
D11*
X169205Y176417D02*
G03*
X169177Y176448I-4375J-3967D01*
G01*
X168916Y176715D02*
G03*
X168950Y176681I5540J5512D01*
G01*
D02*
G03*
X169064Y176570I5507J5545D01*
G01*
X151778Y195209D02*
G03*
X153236Y193192I6982J3512D01*
G01*
X154314Y192102D02*
G03*
X154084Y192345I-4404J-3934D01*
G01*
X160087Y185625D02*
G03*
X160303Y185396I4401J3937D01*
G01*
X169205Y176417D02*
X172918Y172322D01*
X169064Y176570D02*
X169177Y176448D01*
X154314Y192102D02*
X154319Y192097D01*
X153236Y193192D02*
X154084Y192345D01*
X148118Y202486D02*
X151778Y195209D01*
X160303Y185396D02*
X168916Y176715D01*
X154319Y192097D02*
X160087Y185625D01*
D12*
X155315Y275590D02*
G03*
X155088Y275582I0J-3150D01*
G01*
X141243Y274584D02*
G03*
X140772Y274476I113J-1571D01*
G01*
X162252Y274861D02*
G03*
X160236Y275590I-2016J-2420D01*
G01*
X169921Y275587D02*
G03*
X168063Y274861I158J-3146D01*
G01*
X205476Y277362D02*
G03*
X205266Y277356I36J-4921D01*
G01*
X141243Y274584D02*
X141243Y274584D01*
X155315Y275590D02*
X160236D01*
X141243Y274584D02*
X155088Y275582D01*
X137402Y273130D02*
X140772Y274476D01*
X162252Y274861D02*
X165157Y272441D01*
Y271654D02*
Y272441D01*
X169921Y275587D02*
X205266Y277356D01*
X169921Y275587D02*
X169921Y275587D01*
X205476Y277362D02*
X232283Y277559D01*
X165157Y272441D02*
X168063Y274861D01*
D13*
X216252Y110037D02*
G03*
X216230Y109563I1881J-326D01*
G01*
X180937Y187782D02*
G03*
X181795Y188474I-1607J2868D01*
G01*
X172713Y186745D02*
G03*
X172805Y186703I374J693D01*
G01*
X179916Y188832D02*
G03*
X180619Y189240I-586J1818D01*
G01*
X180288Y193334D02*
G03*
X180118Y193462I-554J-560D01*
G01*
X180619Y189240D02*
G03*
X181177Y191136I-1288J1409D01*
G01*
X175858Y192515D02*
G03*
X175525Y192480I-87J-783D01*
G01*
X169302Y190751D02*
G03*
X169986Y190658I438J655D01*
G01*
X170909Y91901D02*
G03*
X170806Y91961I-448J-648D01*
G01*
X164325Y95120D02*
G03*
X164220Y95168I-840J-1715D01*
G01*
X208750Y75769D02*
G03*
X208831Y75902I-1588J1060D01*
G01*
X184708Y111426D02*
G03*
X184706Y111241I1906J-119D01*
G01*
X189620Y112654D02*
G03*
X189647Y112576I756J219D01*
G01*
X189902Y111308D02*
G03*
X189648Y112573I-3287J-0D01*
G01*
X141304Y142691D02*
G03*
X142506Y142674I627J1804D01*
G01*
X184955Y102178D02*
G03*
X185018Y102742I-1845J493D01*
G01*
X184543Y100638D02*
G03*
X184843Y99023I1845J-493D01*
G01*
X181652Y104560D02*
G03*
X181595Y104626I-623J-481D01*
G01*
X182890Y102957D02*
G03*
X182889Y102957I-623J-481D01*
G01*
X189083Y87141D02*
G03*
X188994Y87282I-706J-348D01*
G01*
X189902Y102210D02*
G03*
X189902Y102225I-1909J14D01*
G01*
X213455Y145521D02*
G03*
X213453Y145511I2124J-420D01*
G01*
X214777Y113072D02*
G03*
X214782Y113101I-1883J314D01*
G01*
X206149Y95923D02*
G03*
X206336Y96648I-1720J829D01*
G01*
X178248Y86770D02*
G03*
X180678Y87140I983J1705D01*
G01*
X216969Y72534D02*
G03*
X217815Y72401I846J2623D01*
G01*
X222736D02*
G03*
X222985Y72413I0J2756D01*
G01*
D02*
G03*
X224280Y72874I-249J2745D01*
G01*
X167091Y200721D02*
G03*
X166163Y200962I-929J-1668D01*
G01*
X169141Y190895D02*
G03*
X169130Y190907I-599J-511D01*
G01*
X169141Y190895D02*
G03*
X169187Y190845I599J511D01*
G01*
X174680Y52942D02*
G03*
X178842Y52597I2290J2358D01*
G01*
X187444Y58773D02*
G03*
X187765Y59163I-1807J1812D01*
G01*
X189075Y70284D02*
G03*
X189034Y70740I-2559J-0D01*
G01*
X188196Y59808D02*
G03*
X188434Y60254I-2128J1422D01*
G01*
X187674Y62476D02*
G03*
X187697Y62707I-1158J230D01*
G01*
X187697Y70277D02*
G03*
X187673Y70518I-1181J6D01*
G01*
X171011Y59158D02*
G03*
X168838Y59653I-1431J-1265D01*
G01*
X187519Y71293D02*
G03*
X187464Y71485I-1158J-230D01*
G01*
X187050Y60573D02*
G03*
X187159Y60778I-982J656D01*
G01*
X186546Y57933D02*
G03*
X186900Y58229I-1457J2104D01*
G01*
X189026Y62207D02*
G03*
X189075Y62707I-2510J499D01*
G01*
X164371Y61677D02*
G03*
X164462Y60591I1870J-388D01*
G01*
X164985Y64606D02*
G03*
X164969Y64537I1255J-335D01*
G01*
X187632Y79379D02*
G03*
X187610Y78592I1856J-447D01*
G01*
X188727Y60962D02*
G03*
X188874Y61447I-2362J984D01*
G01*
X186472Y59750D02*
G03*
X186619Y59929I-835J835D01*
G01*
X187456Y61494D02*
G03*
X187523Y61716I-1091J452D01*
G01*
X175540Y54035D02*
G03*
X178058Y53730I1431J1265D01*
G01*
X185761Y59065D02*
G03*
X185924Y59201I-672J971D01*
G01*
X166147Y58517D02*
G03*
X166148Y58518I-304J726D01*
G01*
X165108Y58959D02*
G03*
X165193Y58798I734J285D01*
G01*
X185099Y201772D02*
G03*
X185224Y201089I1909J0D01*
G01*
X101638Y293018D02*
G03*
X101637Y293017I674J-407D01*
G01*
D02*
G03*
X101546Y292793I675J-406D01*
G01*
X186172Y114470D02*
G03*
X185945Y114666I-1358J-1343D01*
G01*
X188520Y111195D02*
G03*
X187972Y112650I-1906J112D01*
G01*
X226083Y40807D02*
G03*
X226273Y40817I0J1909D01*
G01*
X221695Y41004D02*
G03*
X222539Y40807I844J1713D01*
G01*
X213465Y145569D02*
G03*
X213460Y145546I768J-175D01*
G01*
X213600Y146134D02*
G03*
X213584Y146074I1326J-376D01*
G01*
X214812Y145279D02*
G03*
X214798Y145202I767J-177D01*
G01*
X168041Y189306D02*
G03*
X168327Y189116I1197J1488D01*
G01*
X162475Y194870D02*
G03*
X162490Y194855I563J551D01*
G01*
X168444Y102171D02*
G03*
X169406Y103048I-727J1766D01*
G01*
X216230Y109563D02*
X216395Y107422D01*
X216252Y110037D02*
X223178Y149991D01*
X138189Y276673D02*
X163484Y277854D01*
X181795Y188474D02*
X183227Y190096D01*
X173233Y183466D02*
X180937Y187782D01*
X168327Y189116D02*
X172713Y186745D01*
X173731Y186840D02*
X179916Y188832D01*
X173031Y186614D02*
X173731Y186840D01*
X180288Y193334D02*
X180291Y193331D01*
X180709Y192913D02*
X181177Y191136D01*
X175858Y192515D02*
X177392Y192344D01*
X169986Y190658D02*
X175525Y192480D01*
X169238Y190794D02*
X169302Y190751D01*
X162490Y194855D02*
X164250Y193166D01*
X170909Y91901D02*
X170912Y91899D01*
X164325Y95120D02*
X170806Y91961D01*
X160646Y96659D02*
X164220Y95168D01*
X170912Y91899D02*
X177967Y86966D01*
X221064Y97920D02*
X225445Y105806D01*
X208831Y75902D02*
X221064Y97920D01*
X207382Y73721D02*
X208750Y75769D01*
X184708Y111426D02*
X184815Y113127D01*
X186172Y114470D02*
X187972Y112650D01*
X184727Y110666D02*
X185018Y102742D01*
X184706Y111241D02*
X184727Y110666D01*
X186319Y124409D02*
X189620Y112654D01*
X189647Y112576D02*
X189648Y112573D01*
X142506Y142674D02*
X146358Y143898D01*
X122835Y149114D02*
X141304Y142691D01*
X184843Y99023D02*
X186142Y97244D01*
X181652Y104560D02*
X182889Y102957D01*
X181590Y104631D02*
X181595Y104626D01*
X182890Y102957D02*
X183110Y102671D01*
X179295Y106925D02*
X181590Y104631D01*
X178512Y106925D02*
X179295D01*
X184543Y100638D02*
X184955Y102178D01*
X184188Y93356D02*
X188994Y87282D01*
X189084Y87139D02*
X190157Y84941D01*
X189083Y87141D02*
X189084Y87139D01*
X189902Y102210D02*
X190244Y95472D01*
X189902Y111308D02*
X189902Y102229D01*
X189902Y102225D01*
X187993Y102225D02*
X188520Y111195D01*
X211092Y116333D02*
X214798Y145202D01*
X208349Y119031D02*
X213453Y145511D01*
X214378Y110681D02*
X214777Y113072D01*
X214782Y113101D02*
X221324Y156465D01*
X206336Y96648D02*
X207263Y113621D01*
X212894Y113386D02*
X216718Y145042D01*
X205315Y94193D02*
X206149Y95923D01*
X178248Y86770D02*
X178248D01*
X177967Y86966D02*
X178248Y86770D01*
X180678Y87140D02*
X182558Y89178D01*
X213386Y73690D02*
X216969Y72534D01*
X217815Y72401D02*
X222736D01*
X216822Y43406D02*
X221695Y41004D01*
X167091Y200721D02*
X180118Y193462D01*
X162382Y200965D02*
X166163Y200962D01*
X180291Y193331D02*
X180709Y192913D01*
X162576Y198348D02*
X169130Y190907D01*
X188874Y61447D02*
X189026Y62207D01*
X187632Y79379D02*
X188189Y81693D01*
X187765Y59163D02*
X188196Y59808D01*
X165551Y58268D02*
X166147Y58517D01*
X164985Y64606D02*
X165551Y66732D01*
X187610Y78592D02*
X189034Y70740D01*
X186900Y58229D02*
X187444Y58773D01*
X165193Y58798D02*
X165551Y58268D01*
X189075Y70284D02*
X189075Y69886D01*
X169580Y57894D02*
X174680Y52942D01*
X186619Y59929D02*
X187050Y60573D01*
X187697Y69886D02*
X187697Y62707D01*
X178058Y53730D02*
X185761Y59065D01*
X187159Y60778D02*
X187456Y61494D01*
X187519Y71293D02*
X187673Y70518D01*
X185224Y201089D02*
X188051Y193701D01*
X101637Y293017D02*
X101638Y293018D01*
X96850Y273228D02*
X101546Y292793D01*
X101638Y293018D02*
X116535Y317717D01*
X225445Y105806D02*
X236162Y167542D01*
X183394Y116540D02*
X185945Y114666D01*
X166148Y58518D02*
X168838Y59653D01*
X164462Y60591D02*
X165108Y58959D01*
X165157Y66663D02*
X165551Y66732D01*
X185924Y59201D02*
X186472Y59750D01*
X188434Y60254D02*
X188727Y60962D01*
X189075Y69886D02*
X189075Y62707D01*
X226273Y40817D02*
X231496Y41339D01*
X222539Y40807D02*
X226083D01*
X224280Y72874D02*
X227658Y75157D01*
Y75945D01*
X246275Y190551D02*
X246752Y190650D01*
X237697Y188779D02*
X246275Y190551D01*
X213600Y146134D02*
X213602Y146141D01*
X213455Y145521D02*
X213460Y145546D01*
X213466Y145573D02*
X213584Y146074D01*
X213465Y145569D02*
X213466Y145573D01*
X213602Y146141D02*
X220511Y170420D01*
X214812Y145279D02*
X214926Y145758D01*
X220866Y162401D01*
X158760Y198721D02*
X162475Y194870D01*
X166140Y190836D02*
X168041Y189306D01*
X126673Y149901D02*
X141931Y144495D01*
X174508Y189173D02*
X177392Y192344D01*
X145635Y250864D02*
X157880Y236260D01*
X142323Y262303D02*
X157677Y246752D01*
X169187Y190845D02*
X169238Y190794D01*
X172805Y186703D02*
X173031Y186614D01*
X185039Y228346D02*
X185099Y201772D01*
X174705Y110733D02*
Y118012D01*
X177362Y120669D01*
X195571Y87833D02*
X198327Y85078D01*
X194390Y95614D02*
Y100295D01*
Y95614D02*
X195571Y94433D01*
Y87833D02*
Y94433D01*
X171011Y59158D02*
X175540Y54035D01*
X187523Y61716D02*
X187674Y62476D01*
X164371Y61677D02*
X164969Y64537D01*
X178842Y52597D02*
X186546Y57933D01*
X174705Y110733D02*
X178512Y106925D01*
X174705Y108346D02*
Y110733D01*
X169406Y103048D02*
X174705Y108346D01*
X168443Y102171D02*
X168444Y102171D01*
X166516Y101378D02*
X168443Y102171D01*
X185630Y76279D02*
X187464Y71485D01*
X187697Y70277D02*
X187697Y69886D01*
D20*
X253937Y328740D02*
G03*
X253937Y328740I-5906J0D01*
G01*
X356299Y293307D02*
G03*
X356299Y293307I-5906J0D01*
G01*
D21*
X202682Y79722D02*
G03*
X202719Y79773I-2804J2069D01*
G01*
X220359Y104606D02*
G03*
X221226Y106865I-3964J2816D01*
G01*
X221244Y106993D02*
G03*
X221226Y106865I2914J-478D01*
G01*
X202719Y79773D02*
X220359Y104606D01*
X200758Y77113D02*
X202682Y79722D01*
X198899Y74467D02*
X200758Y77113D01*
X198727Y74221D02*
X198899Y74467D01*
X198721Y74213D02*
X198727Y74221D01*
X221244Y106993D02*
X232469Y176510D01*
D25*
X189075Y69886D02*
D03*
X187697Y69886D02*
D03*
D26*
X132913Y94630D02*
Y98564D01*
X135530Y101181D02*
X135531D01*
X134567Y98381D02*
X135290D01*
X134213Y94630D02*
Y98026D01*
X134567Y98381D01*
X132913Y98564D02*
X135530Y101181D01*
X135290Y98381D02*
X135531Y98622D01*
X137454Y114862D02*
X137795D01*
X133393Y115354D02*
X136962D01*
X119016Y100977D02*
X133393Y115354D01*
X136962D02*
X137454Y114862D01*
X120473Y100374D02*
X133583Y113484D01*
X135712D02*
X135728D01*
X133583D02*
X135712D01*
X136781Y112415D01*
X120473Y99613D02*
Y100374D01*
X119016Y99613D02*
Y100977D01*
X120473Y99613D02*
X121024Y99061D01*
Y98721D02*
Y99061D01*
X118465D02*
X119016Y99613D01*
X118465Y98721D02*
Y99061D01*
X127290Y97516D02*
Y99139D01*
X127903Y99752D01*
X125990Y96978D02*
Y99677D01*
X127365Y101051D02*
X129756D01*
X127903Y99752D02*
X128327D01*
X129725Y98354D01*
X125990Y99677D02*
X127365Y101051D01*
X129756D02*
X129823Y100984D01*
X127290Y97516D02*
X127913Y96892D01*
Y94532D02*
Y96892D01*
X125990Y96978D02*
X126614Y96354D01*
X129725Y98353D02*
Y98354D01*
X126614Y94532D02*
Y96354D01*
X134213Y94630D02*
X134843Y94001D01*
X132283Y94001D02*
X132913Y94630D01*
X132283Y93701D02*
Y94001D01*
X134843Y93701D02*
Y94001D01*
X127913Y94532D02*
X128543Y93902D01*
X125984Y93602D02*
Y93902D01*
X128543Y93602D02*
Y93902D01*
X125984Y93902D02*
X126614Y94532D01*
D105*
X161486Y103907D02*
Y110922D01*
X161458Y111986D02*
X162041Y112569D01*
X159931Y104551D02*
Y110278D01*
X170098Y76355D02*
Y78087D01*
X169390Y75646D02*
X170098Y76355D01*
X168895Y79291D02*
X170098Y78087D01*
X169390Y73598D02*
Y75646D01*
X168895Y79291D02*
Y83305D01*
X166240Y64272D02*
X169193Y67224D01*
Y72614D01*
X157579Y94621D02*
X168895Y83305D01*
X157579Y100000D02*
X161486Y103907D01*
X166240Y61288D02*
Y64272D01*
X157579Y94621D02*
Y100000D01*
X167340Y79305D02*
Y82661D01*
X166831Y73612D02*
Y75650D01*
X166122Y76358D02*
X166831Y75650D01*
X166122Y76358D02*
Y78087D01*
X162483Y87517D02*
Y87517D01*
Y87517D02*
X163583Y86417D01*
X156024Y93976D02*
X162483Y87517D01*
X166122Y78087D02*
X167340Y79305D01*
X163583Y86417D02*
X167340Y82661D01*
X156024Y100644D02*
X159931Y104551D01*
X156024Y93976D02*
Y100644D01*
X162041Y112569D02*
Y112878D01*
X159319Y112592D02*
X159903Y112009D01*
X159319Y112592D02*
Y112901D01*
X161458Y110950D02*
Y111986D01*
X159903Y110306D02*
Y112009D01*
Y110306D02*
X159931Y110278D01*
X161458Y110950D02*
X161486Y110922D01*
X163967Y69781D02*
Y74287D01*
X159045Y64860D02*
X163967Y69781D01*
X159045Y60087D02*
Y64860D01*
X162411Y70425D02*
Y74287D01*
X157490Y65504D02*
X162411Y70425D01*
X157490Y60087D02*
Y65504D01*
X175689Y59488D02*
Y59781D01*
X176191Y60283D01*
Y65401D01*
X172155Y69437D02*
X176191Y65401D01*
X172155Y69437D02*
Y74287D01*
X178248Y59488D02*
Y59781D01*
X177746Y60283D02*
Y66045D01*
Y60283D02*
X178248Y59781D01*
X173711Y70081D02*
X177746Y66045D01*
X173711Y70081D02*
Y74287D01*
D108*
X248031Y309055D02*
D03*
Y328740D02*
D03*
D109*
X155315Y271654D02*
D03*
X160236D02*
D03*
X165157D02*
D03*
X170079D02*
D03*
X217815Y75945D02*
D03*
X222736D02*
D03*
X227658D02*
D03*
X232579D02*
D03*
X205512Y271654D02*
D03*
X210433D02*
D03*
X215354D02*
D03*
X220276D02*
D03*
X225197D02*
D03*
X230118D02*
D03*
X182874D02*
D03*
X192717D02*
D03*
X187795D02*
D03*
D110*
X151988Y70870D02*
D03*
X183445Y62209D02*
D03*
D111*
X151988D02*
D03*
X183445Y70870D02*
D03*
D112*
X152854Y66539D02*
D03*
X182579D02*
D03*
D113*
X66929Y293307D02*
D03*
X19685D02*
D03*
X350394D02*
D03*
X303150D02*
D03*
D114*
X225689Y68209D02*
D03*
D115*
X237205Y66043D02*
D03*
D116*
X214173D02*
D03*
D117*
X238209Y61516D02*
D03*
X213169D02*
D03*
D118*
X116535Y307716D02*
D03*
Y327716D02*
D03*
Y317717D02*
D03*
D119*
X218133Y109711D02*
D03*
X221850Y167913D02*
D03*
X221949Y159547D02*
D03*
X224311Y152854D02*
D03*
X235045Y170379D02*
D03*
X236078Y178135D02*
D03*
X229003D02*
D03*
X163484Y277854D02*
D03*
X165059Y275689D02*
D03*
X135905Y275480D02*
D03*
X137402Y273130D02*
D03*
X246850Y187992D02*
D03*
X201673Y268996D02*
D03*
X266831Y303740D02*
D03*
X140945Y268799D02*
D03*
X142224Y259646D02*
D03*
X145177Y248327D02*
D03*
X157973Y249311D02*
D03*
X158465Y238779D02*
D03*
X179331Y190650D02*
D03*
X177392Y192344D02*
D03*
X186024Y191634D02*
D03*
X170768Y193012D02*
D03*
X163189Y190748D02*
D03*
X170965Y184941D02*
D03*
X156201Y197933D02*
D03*
X152756Y203543D02*
D03*
X151349Y206229D02*
D03*
X144206Y199470D02*
D03*
X143186Y202123D02*
D03*
X177159Y174865D02*
D03*
X175000Y176870D02*
D03*
X170805Y167851D02*
D03*
X168504Y170177D02*
D03*
X128248Y151969D02*
D03*
X121260Y146850D02*
D03*
X144390Y145669D02*
D03*
X169390Y73598D02*
D03*
X166240Y61288D02*
D03*
X166831Y73612D02*
D03*
X162041Y112878D02*
D03*
X159319Y112901D02*
D03*
X160646Y96659D02*
D03*
X207162Y76829D02*
D03*
X207382Y73721D02*
D03*
X184815Y113127D02*
D03*
X180837Y116442D02*
D03*
X183394Y116540D02*
D03*
X186319Y124409D02*
D03*
X189370Y124016D02*
D03*
X146358Y143898D02*
D03*
X183110Y102671D02*
D03*
X186388Y100145D02*
D03*
X186142Y97244D02*
D03*
X184188Y93356D02*
D03*
X190244Y95472D02*
D03*
X187993Y102225D02*
D03*
X192565Y93808D02*
D03*
X207223Y116654D02*
D03*
X211092Y116333D02*
D03*
X208349Y119031D02*
D03*
X207263Y113621D02*
D03*
X212894Y113386D02*
D03*
X204429Y96752D02*
D03*
X182558Y89178D02*
D03*
X182973Y76083D02*
D03*
X213386Y73690D02*
D03*
X214365Y71275D02*
D03*
X214665Y38267D02*
D03*
X216822Y43406D02*
D03*
X222539Y42717D02*
D03*
Y38780D02*
D03*
Y45866D02*
D03*
X181496Y18504D02*
D03*
X159547Y59276D02*
D03*
X156988D02*
D03*
X161909Y75099D02*
D03*
X171654Y75098D02*
D03*
X174213Y75098D02*
D03*
X175689Y59488D02*
D03*
X178248D02*
D03*
X164469Y75099D02*
D03*
X138189Y276673D02*
D03*
X272342Y310039D02*
D03*
X268902Y305617D02*
D03*
X270315Y307451D02*
D03*
X107874Y204527D02*
D03*
X230315Y248819D02*
D03*
X225591Y256693D02*
D03*
X232677Y236221D02*
D03*
X230709Y254724D02*
D03*
X226772Y245669D02*
D03*
X179134Y233465D02*
D03*
X178445Y238405D02*
D03*
X166161Y199053D02*
D03*
X162576Y198348D02*
D03*
X162382Y200965D02*
D03*
X164250Y193166D02*
D03*
X150000Y202756D02*
D03*
X146937Y200911D02*
D03*
X90945Y255315D02*
D03*
X208760Y222736D02*
D03*
X198819Y186516D02*
D03*
X199016Y189961D02*
D03*
X215084Y55078D02*
D03*
X200000Y70669D02*
D03*
X197954Y79181D02*
D03*
X93898Y262894D02*
D03*
X246260Y293701D02*
D03*
X274803Y310138D02*
D03*
X301575Y319783D02*
D03*
X277756Y309941D02*
D03*
X189489Y78932D02*
D03*
X188189Y81693D02*
D03*
X190157Y84941D02*
D03*
X185630Y76279D02*
D03*
X194883Y78145D02*
D03*
X179231Y88476D02*
D03*
X182156Y91800D02*
D03*
X241787Y283623D02*
D03*
X239567Y277165D02*
D03*
X275295Y295256D02*
D03*
X280315Y272047D02*
D03*
Y275197D02*
D03*
X278150Y298524D02*
D03*
X279331Y305610D02*
D03*
X280020Y307776D02*
D03*
X268110Y264961D02*
D03*
X183465Y232283D02*
D03*
X185039Y228346D02*
D03*
X146063Y203543D02*
D03*
X148425Y204724D02*
D03*
X172835Y170472D02*
D03*
X175197Y172441D02*
D03*
X173228Y174409D02*
D03*
X233858Y176378D02*
D03*
X271260Y264961D02*
D03*
X254724Y262598D02*
D03*
X251181Y275197D02*
D03*
X252953Y278150D02*
D03*
X264665Y265748D02*
D03*
X243898Y288189D02*
D03*
X275098Y264764D02*
D03*
X262205Y268110D02*
D03*
X281496Y269685D02*
D03*
X205166Y20856D02*
D03*
X195276Y25394D02*
D03*
X198143Y34830D02*
D03*
X201366Y31342D02*
D03*
X200492Y28937D02*
D03*
X196438Y32038D02*
D03*
X267834Y67546D02*
D03*
X263440Y67810D02*
D03*
X265409Y71219D02*
D03*
X53032Y139147D02*
D03*
X57426Y139410D02*
D03*
X55458Y142820D02*
D03*
X224410Y287402D02*
D03*
X220473Y285433D02*
D03*
Y289370D02*
D03*
X210236Y289370D02*
D03*
X214173Y285433D02*
D03*
X206299D02*
D03*
X214173Y289370D02*
D03*
X206299D02*
D03*
X210236Y285433D02*
D03*
X306791Y322047D02*
D03*
X205315Y94193D02*
D03*
X236162Y167542D02*
D03*
X197689Y75317D02*
D03*
X199968Y64633D02*
D03*
X186614Y111308D02*
D03*
X191785Y111830D02*
D03*
X200000Y73327D02*
D03*
X191280Y67151D02*
D03*
X214378Y110681D02*
D03*
X198182Y119162D02*
D03*
X165551Y66732D02*
D03*
X169580Y57894D02*
D03*
X115748Y288976D02*
D03*
X111024Y288976D02*
D03*
X115252Y284115D02*
D03*
X106299Y288976D02*
D03*
X216395Y107422D02*
D03*
X280315Y288583D02*
D03*
Y285433D02*
D03*
Y281890D02*
D03*
Y278740D02*
D03*
X245950Y48564D02*
D03*
X275591Y240945D02*
D03*
X271654Y237008D02*
D03*
X221324Y156465D02*
D03*
X223178Y149991D02*
D03*
X231288Y176904D02*
D03*
X199879Y81790D02*
D03*
X192421Y100295D02*
D03*
X216718Y145042D02*
D03*
X220511Y170420D02*
D03*
X220866Y162401D02*
D03*
X195217Y190414D02*
D03*
X170950Y172322D02*
D03*
X177205Y123475D02*
D03*
X163091Y124114D02*
D03*
X173031Y186614D02*
D03*
X173233Y183466D02*
D03*
X166140Y190836D02*
D03*
X158760Y198721D02*
D03*
X197047Y255906D02*
D03*
X182434Y242832D02*
D03*
X107382Y65551D02*
D03*
X105118Y68405D02*
D03*
X126673Y149901D02*
D03*
X141931Y144495D02*
D03*
X122835Y149114D02*
D03*
X120472Y116961D02*
D03*
X230807Y55610D02*
D03*
X224311Y50886D02*
D03*
X232707Y38721D02*
D03*
X212402Y50000D02*
D03*
X226083Y42717D02*
D03*
Y38780D02*
D03*
X231496Y41339D02*
D03*
X226083Y45866D02*
D03*
X140945Y271358D02*
D03*
X145635Y250864D02*
D03*
X157880Y236260D02*
D03*
X162525Y222072D02*
D03*
X162816Y213881D02*
D03*
X162463Y218110D02*
D03*
X157677Y246752D02*
D03*
X174508Y189173D02*
D03*
X125197Y116960D02*
D03*
X307087Y139862D02*
D03*
X271437Y54101D02*
D03*
X264617Y58038D02*
D03*
X263176Y63416D02*
D03*
X324059Y137371D02*
D03*
X276815Y55542D02*
D03*
X310420Y145245D02*
D03*
X322618Y142749D02*
D03*
X315798Y146686D02*
D03*
X111024Y279527D02*
D03*
Y274803D02*
D03*
X115748D02*
D03*
X169238Y190794D02*
D03*
X183227Y190096D02*
D03*
X134646Y123622D02*
D03*
X205610Y237500D02*
D03*
X193927Y238499D02*
D03*
X194141Y233529D02*
D03*
X95635Y202264D02*
D03*
X95473Y205413D02*
D03*
X95684Y195866D02*
D03*
X95571Y199114D02*
D03*
X100197Y202953D02*
D03*
Y199803D02*
D03*
X100099Y206102D02*
D03*
X95965Y68898D02*
D03*
X246752Y190650D02*
D03*
X133858Y295276D02*
D03*
X85390Y55542D02*
D03*
X148142Y104393D02*
D03*
X155504Y104194D02*
D03*
X152955Y104426D02*
D03*
X209842Y20472D02*
D03*
X204724Y40945D02*
D03*
X202756Y37677D02*
D03*
X215945Y17520D02*
D03*
X95087Y151024D02*
D03*
X100236Y179370D02*
D03*
X100686Y176170D02*
D03*
X95087Y176221D02*
D03*
X245914Y152599D02*
D03*
X251567Y152599D02*
D03*
Y196693D02*
D03*
X239441Y196693D02*
D03*
X251567Y201417D02*
D03*
Y206142D02*
D03*
Y210866D02*
D03*
X245914D02*
D03*
X245914Y206142D02*
D03*
X245916Y201417D02*
D03*
X131890Y200787D02*
D03*
X242520Y243701D02*
D03*
X281496Y265748D02*
D03*
X235039Y260236D02*
D03*
Y255512D02*
D03*
X224016Y237894D02*
D03*
X228740D02*
D03*
X275591Y232283D02*
D03*
X271654Y228346D02*
D03*
X222441Y232283D02*
D03*
X226378Y228346D02*
D03*
X222441Y223622D02*
D03*
X226378Y219685D02*
D03*
X222441Y214567D02*
D03*
X226378Y210630D02*
D03*
X200156Y271099D02*
D03*
X232283Y277559D02*
D03*
X187008Y221457D02*
D03*
Y201772D02*
D03*
X177165Y211614D02*
D03*
X196850D02*
D03*
X190945Y215354D02*
D03*
X183071Y207480D02*
D03*
X190945D02*
D03*
X177165Y206496D02*
D03*
X182087Y201575D02*
D03*
X191929D02*
D03*
X196850Y216339D02*
D03*
X183071Y215354D02*
D03*
X182087Y221260D02*
D03*
X177165Y216339D02*
D03*
X196850Y206496D02*
D03*
X191929Y221260D02*
D03*
X177165D02*
D03*
X196850D02*
D03*
X177165Y201575D02*
D03*
X196850D02*
D03*
X200689Y232972D02*
D03*
X213386Y233858D02*
D03*
X166407Y207355D02*
D03*
X260531Y36122D02*
D03*
X241142Y36220D02*
D03*
X198327Y85078D02*
D03*
X198721Y88878D02*
D03*
X176970Y55300D02*
D03*
X163484Y93405D02*
D03*
X171949Y93504D02*
D03*
X158211Y55031D02*
D03*
X198819Y56890D02*
D03*
X266929Y44094D02*
D03*
X258366Y48228D02*
D03*
X243209Y48327D02*
D03*
X192971Y21242D02*
D03*
X201871Y11607D02*
D03*
X202875Y15916D02*
D03*
X187697Y39370D02*
D03*
X187697Y42126D02*
D03*
X185136Y31232D02*
D03*
X185288Y33880D02*
D03*
X164173Y24803D02*
D03*
X180807Y15748D02*
D03*
X215059Y12697D02*
D03*
X213497Y29138D02*
D03*
X213497Y31839D02*
D03*
X152389Y11379D02*
D03*
X161819Y17341D02*
D03*
X161614Y19980D02*
D03*
X142323Y262303D02*
D03*
X197453Y104661D02*
D03*
X177756Y77165D02*
D03*
X168110Y77264D02*
D03*
X157973Y76968D02*
D03*
X178937Y100686D02*
D03*
X210352Y229043D02*
D03*
X188051Y193701D02*
D03*
X186903Y246247D02*
D03*
X191732Y229528D02*
D03*
X192028Y243406D02*
D03*
X196555Y241831D02*
D03*
X201575Y244488D02*
D03*
X195374Y193799D02*
D03*
X200394Y224803D02*
D03*
X170292Y201690D02*
D03*
X180709Y192913D02*
D03*
X205020Y221654D02*
D03*
X205906Y225591D02*
D03*
X210236Y238189D02*
D03*
X206693Y242126D02*
D03*
X162992Y207579D02*
D03*
X107874Y195079D02*
D03*
X107776Y198228D02*
D03*
X234252Y240158D02*
D03*
X233858Y245669D02*
D03*
X230315Y242520D02*
D03*
X185827Y21358D02*
D03*
X181890Y111308D02*
D03*
X237697Y188779D02*
D03*
X205870Y8724D02*
D03*
X185724Y8702D02*
D03*
X137795Y114862D02*
D03*
X136781Y112415D02*
D03*
X118465Y98721D02*
D03*
X121024D02*
D03*
X135531Y98622D02*
D03*
X135531Y101181D02*
D03*
X129725Y98353D02*
D03*
X129823Y100984D02*
D03*
X134843Y93701D02*
D03*
X132283D02*
D03*
X125984Y93602D02*
D03*
X128543D02*
D03*
X62992Y130709D02*
D03*
X64961Y126772D02*
D03*
X61024Y124803D02*
D03*
X59055Y128740D02*
D03*
X57087Y132677D02*
D03*
X61024Y134646D02*
D03*
X106299Y279527D02*
D03*
Y284252D02*
D03*
X115748Y279527D02*
D03*
X111024Y284252D02*
D03*
X226772Y251969D02*
D03*
X233858D02*
D03*
X237402Y192618D02*
D03*
X166516Y101378D02*
D03*
X96850Y273228D02*
D03*
X165551Y58268D02*
D03*
X156693Y112992D02*
D03*
X158366Y123721D02*
D03*
X177165Y111614D02*
D03*
X107973Y207776D02*
D03*
X107874Y201378D02*
D03*
X100197Y196653D02*
D03*
Y193602D02*
D03*
X107874Y188779D02*
D03*
X100197Y184055D02*
D03*
X107973Y181004D02*
D03*
X107874Y177657D02*
D03*
X95669Y165157D02*
D03*
X103839Y144390D02*
D03*
X91634D02*
D03*
X119095Y104626D02*
D03*
X125197Y111516D02*
D03*
X139469Y104724D02*
D03*
X129921Y116634D02*
D03*
X144193Y111516D02*
D03*
X144095Y116831D02*
D03*
X148819Y116732D02*
D03*
X153543Y116831D02*
D03*
X167717D02*
D03*
X172441D02*
D03*
X164665Y112894D02*
D03*
X172539Y111614D02*
D03*
X182873Y8670D02*
D03*
X175197Y14272D02*
D03*
X168123Y14132D02*
D03*
X208878Y8667D02*
D03*
X123622Y98721D02*
D03*
X115847D02*
D03*
X134350Y111614D02*
D03*
X130807Y91535D02*
D03*
X123425Y93701D02*
D03*
X129921Y95768D02*
D03*
X136024Y96063D02*
D03*
X129823Y103543D02*
D03*
X135531Y103740D02*
D03*
X139665Y116634D02*
D03*
X317240Y141308D02*
D03*
X269995Y59479D02*
D03*
X90768Y54101D02*
D03*
X97587Y58038D02*
D03*
X99028Y63416D02*
D03*
X92209Y59479D02*
D03*
X38146Y137371D02*
D03*
X46406Y146686D02*
D03*
X39587Y142749D02*
D03*
X44965Y141308D02*
D03*
X51784Y145245D02*
D03*
X232283Y291339D02*
D03*
X228346Y303150D02*
D03*
X232283Y299213D02*
D03*
X228346Y295276D02*
D03*
Y287402D02*
D03*
X129921Y291339D02*
D03*
Y299213D02*
D03*
X133858Y303150D02*
D03*
Y287402D02*
D03*
X54331Y317717D02*
D03*
X41732Y316142D02*
D03*
X239567Y266142D02*
D03*
Y271654D02*
D03*
X322047Y321654D02*
D03*
X167421Y55118D02*
D03*
X167717Y103937D02*
D03*
M02*
